G04 #@! TF.GenerationSoftware,KiCad,Pcbnew,(5.1.5)-3*
G04 #@! TF.CreationDate,2020-03-23T11:19:51-04:00*
G04 #@! TF.ProjectId,RedLegs_pwrbrd,5265644c-6567-4735-9f70-77726272642e,rev?*
G04 #@! TF.SameCoordinates,Original*
G04 #@! TF.FileFunction,Soldermask,Bot*
G04 #@! TF.FilePolarity,Negative*
%FSLAX46Y46*%
G04 Gerber Fmt 4.6, Leading zero omitted, Abs format (unit mm)*
G04 Created by KiCad (PCBNEW (5.1.5)-3) date 2020-03-23 11:19:51*
%MOMM*%
%LPD*%
G04 APERTURE LIST*
%ADD10C,0.100000*%
G04 APERTURE END LIST*
D10*
G36*
X189872007Y-140123582D02*
G01*
X190272563Y-140289498D01*
X190272565Y-140289499D01*
X190633056Y-140530371D01*
X190939629Y-140836944D01*
X191180501Y-141197435D01*
X191180502Y-141197437D01*
X191346418Y-141597993D01*
X191431000Y-142023219D01*
X191431000Y-142456781D01*
X191346418Y-142882007D01*
X191180502Y-143282563D01*
X191180501Y-143282565D01*
X190939629Y-143643056D01*
X190633056Y-143949629D01*
X190272565Y-144190501D01*
X190272564Y-144190502D01*
X190272563Y-144190502D01*
X189872007Y-144356418D01*
X189446781Y-144441000D01*
X189013219Y-144441000D01*
X188587993Y-144356418D01*
X188187437Y-144190502D01*
X188187436Y-144190502D01*
X188187435Y-144190501D01*
X187826944Y-143949629D01*
X187520371Y-143643056D01*
X187279499Y-143282565D01*
X187279498Y-143282563D01*
X187113582Y-142882007D01*
X187029000Y-142456781D01*
X187029000Y-142023219D01*
X187113582Y-141597993D01*
X187279498Y-141197437D01*
X187279499Y-141197435D01*
X187520371Y-140836944D01*
X187826944Y-140530371D01*
X188187435Y-140289499D01*
X188187437Y-140289498D01*
X188587993Y-140123582D01*
X189013219Y-140039000D01*
X189446781Y-140039000D01*
X189872007Y-140123582D01*
G37*
G36*
X120022007Y-140123582D02*
G01*
X120422563Y-140289498D01*
X120422565Y-140289499D01*
X120783056Y-140530371D01*
X121089629Y-140836944D01*
X121330501Y-141197435D01*
X121330502Y-141197437D01*
X121496418Y-141597993D01*
X121581000Y-142023219D01*
X121581000Y-142456781D01*
X121496418Y-142882007D01*
X121330502Y-143282563D01*
X121330501Y-143282565D01*
X121089629Y-143643056D01*
X120783056Y-143949629D01*
X120422565Y-144190501D01*
X120422564Y-144190502D01*
X120422563Y-144190502D01*
X120022007Y-144356418D01*
X119596781Y-144441000D01*
X119163219Y-144441000D01*
X118737993Y-144356418D01*
X118337437Y-144190502D01*
X118337436Y-144190502D01*
X118337435Y-144190501D01*
X117976944Y-143949629D01*
X117670371Y-143643056D01*
X117429499Y-143282565D01*
X117429498Y-143282563D01*
X117263582Y-142882007D01*
X117179000Y-142456781D01*
X117179000Y-142023219D01*
X117263582Y-141597993D01*
X117429498Y-141197437D01*
X117429499Y-141197435D01*
X117670371Y-140836944D01*
X117976944Y-140530371D01*
X118337435Y-140289499D01*
X118337437Y-140289498D01*
X118737993Y-140123582D01*
X119163219Y-140039000D01*
X119596781Y-140039000D01*
X120022007Y-140123582D01*
G37*
G36*
X133575606Y-133195645D02*
G01*
X133770324Y-133234377D01*
X133878949Y-133279371D01*
X134032568Y-133343002D01*
X134268583Y-133500702D01*
X134469298Y-133701417D01*
X134626998Y-133937432D01*
X134673764Y-134050336D01*
X134720608Y-134163426D01*
X134735623Y-134199677D01*
X134791000Y-134478073D01*
X134791000Y-134761927D01*
X134735623Y-135040323D01*
X134626998Y-135302568D01*
X134469298Y-135538583D01*
X134268583Y-135739298D01*
X134032568Y-135896998D01*
X133878949Y-135960629D01*
X133770324Y-136005623D01*
X133631125Y-136033312D01*
X133491927Y-136061000D01*
X133208073Y-136061000D01*
X133068875Y-136033312D01*
X132929676Y-136005623D01*
X132821051Y-135960629D01*
X132667432Y-135896998D01*
X132431417Y-135739298D01*
X132230702Y-135538583D01*
X132073002Y-135302568D01*
X131964377Y-135040323D01*
X131909000Y-134761927D01*
X131909000Y-134478073D01*
X131964377Y-134199677D01*
X131979393Y-134163426D01*
X132026236Y-134050336D01*
X132073002Y-133937432D01*
X132230702Y-133701417D01*
X132431417Y-133500702D01*
X132667432Y-133343002D01*
X132821051Y-133279371D01*
X132929676Y-133234377D01*
X133124394Y-133195645D01*
X133208073Y-133179000D01*
X133491927Y-133179000D01*
X133575606Y-133195645D01*
G37*
G36*
X143495606Y-133195645D02*
G01*
X143690324Y-133234377D01*
X143798949Y-133279371D01*
X143952568Y-133343002D01*
X144188583Y-133500702D01*
X144389298Y-133701417D01*
X144546998Y-133937432D01*
X144593764Y-134050336D01*
X144640608Y-134163426D01*
X144655623Y-134199677D01*
X144711000Y-134478073D01*
X144711000Y-134761927D01*
X144655623Y-135040323D01*
X144546998Y-135302568D01*
X144389298Y-135538583D01*
X144188583Y-135739298D01*
X143952568Y-135896998D01*
X143798949Y-135960629D01*
X143690324Y-136005623D01*
X143551125Y-136033312D01*
X143411927Y-136061000D01*
X143128073Y-136061000D01*
X142988875Y-136033312D01*
X142849676Y-136005623D01*
X142741051Y-135960629D01*
X142587432Y-135896998D01*
X142351417Y-135739298D01*
X142150702Y-135538583D01*
X141993002Y-135302568D01*
X141884377Y-135040323D01*
X141829000Y-134761927D01*
X141829000Y-134478073D01*
X141884377Y-134199677D01*
X141899393Y-134163426D01*
X141946236Y-134050336D01*
X141993002Y-133937432D01*
X142150702Y-133701417D01*
X142351417Y-133500702D01*
X142587432Y-133343002D01*
X142741051Y-133279371D01*
X142849676Y-133234377D01*
X143044394Y-133195645D01*
X143128073Y-133179000D01*
X143411927Y-133179000D01*
X143495606Y-133195645D01*
G37*
G36*
X166835606Y-133195645D02*
G01*
X167030324Y-133234377D01*
X167138949Y-133279371D01*
X167292568Y-133343002D01*
X167528583Y-133500702D01*
X167729298Y-133701417D01*
X167886998Y-133937432D01*
X167933764Y-134050336D01*
X167980608Y-134163426D01*
X167995623Y-134199677D01*
X168051000Y-134478073D01*
X168051000Y-134761927D01*
X167995623Y-135040323D01*
X167886998Y-135302568D01*
X167729298Y-135538583D01*
X167528583Y-135739298D01*
X167292568Y-135896998D01*
X167138949Y-135960629D01*
X167030324Y-136005623D01*
X166891125Y-136033312D01*
X166751927Y-136061000D01*
X166468073Y-136061000D01*
X166328875Y-136033312D01*
X166189676Y-136005623D01*
X166081051Y-135960629D01*
X165927432Y-135896998D01*
X165691417Y-135739298D01*
X165490702Y-135538583D01*
X165333002Y-135302568D01*
X165224377Y-135040323D01*
X165169000Y-134761927D01*
X165169000Y-134478073D01*
X165224377Y-134199677D01*
X165239393Y-134163426D01*
X165286236Y-134050336D01*
X165333002Y-133937432D01*
X165490702Y-133701417D01*
X165691417Y-133500702D01*
X165927432Y-133343002D01*
X166081051Y-133279371D01*
X166189676Y-133234377D01*
X166384394Y-133195645D01*
X166468073Y-133179000D01*
X166751927Y-133179000D01*
X166835606Y-133195645D01*
G37*
G36*
X176755606Y-133195645D02*
G01*
X176950324Y-133234377D01*
X177058949Y-133279371D01*
X177212568Y-133343002D01*
X177448583Y-133500702D01*
X177649298Y-133701417D01*
X177806998Y-133937432D01*
X177853764Y-134050336D01*
X177900608Y-134163426D01*
X177915623Y-134199677D01*
X177971000Y-134478073D01*
X177971000Y-134761927D01*
X177915623Y-135040323D01*
X177806998Y-135302568D01*
X177649298Y-135538583D01*
X177448583Y-135739298D01*
X177212568Y-135896998D01*
X177058949Y-135960629D01*
X176950324Y-136005623D01*
X176811125Y-136033312D01*
X176671927Y-136061000D01*
X176388073Y-136061000D01*
X176248875Y-136033312D01*
X176109676Y-136005623D01*
X176001051Y-135960629D01*
X175847432Y-135896998D01*
X175611417Y-135739298D01*
X175410702Y-135538583D01*
X175253002Y-135302568D01*
X175144377Y-135040323D01*
X175089000Y-134761927D01*
X175089000Y-134478073D01*
X175144377Y-134199677D01*
X175159393Y-134163426D01*
X175206236Y-134050336D01*
X175253002Y-133937432D01*
X175410702Y-133701417D01*
X175611417Y-133500702D01*
X175847432Y-133343002D01*
X176001051Y-133279371D01*
X176109676Y-133234377D01*
X176304394Y-133195645D01*
X176388073Y-133179000D01*
X176671927Y-133179000D01*
X176755606Y-133195645D01*
G37*
G36*
X188323855Y-133152140D02*
G01*
X188387618Y-133158420D01*
X188478404Y-133185960D01*
X188510336Y-133195646D01*
X188623425Y-133256094D01*
X188722554Y-133337446D01*
X188803906Y-133436575D01*
X188864354Y-133549664D01*
X188864355Y-133549668D01*
X188901580Y-133672382D01*
X188914149Y-133800000D01*
X188901580Y-133927618D01*
X188874040Y-134018404D01*
X188864354Y-134050336D01*
X188803906Y-134163425D01*
X188722554Y-134262554D01*
X188623425Y-134343906D01*
X188510336Y-134404354D01*
X188478404Y-134414040D01*
X188387618Y-134441580D01*
X188323855Y-134447860D01*
X188291974Y-134451000D01*
X187628026Y-134451000D01*
X187596145Y-134447860D01*
X187532382Y-134441580D01*
X187441596Y-134414040D01*
X187409664Y-134404354D01*
X187296575Y-134343906D01*
X187197446Y-134262554D01*
X187116094Y-134163425D01*
X187055646Y-134050336D01*
X187045960Y-134018404D01*
X187018420Y-133927618D01*
X187005851Y-133800000D01*
X187018420Y-133672382D01*
X187055645Y-133549668D01*
X187055646Y-133549664D01*
X187116094Y-133436575D01*
X187197446Y-133337446D01*
X187296575Y-133256094D01*
X187409664Y-133195646D01*
X187441596Y-133185960D01*
X187532382Y-133158420D01*
X187596145Y-133152140D01*
X187628026Y-133149000D01*
X188291974Y-133149000D01*
X188323855Y-133152140D01*
G37*
G36*
X122283855Y-133152140D02*
G01*
X122347618Y-133158420D01*
X122438404Y-133185960D01*
X122470336Y-133195646D01*
X122583425Y-133256094D01*
X122682554Y-133337446D01*
X122763906Y-133436575D01*
X122824354Y-133549664D01*
X122824355Y-133549668D01*
X122861580Y-133672382D01*
X122874149Y-133800000D01*
X122861580Y-133927618D01*
X122834040Y-134018404D01*
X122824354Y-134050336D01*
X122763906Y-134163425D01*
X122682554Y-134262554D01*
X122583425Y-134343906D01*
X122470336Y-134404354D01*
X122438404Y-134414040D01*
X122347618Y-134441580D01*
X122283855Y-134447860D01*
X122251974Y-134451000D01*
X121588026Y-134451000D01*
X121556145Y-134447860D01*
X121492382Y-134441580D01*
X121401596Y-134414040D01*
X121369664Y-134404354D01*
X121256575Y-134343906D01*
X121157446Y-134262554D01*
X121076094Y-134163425D01*
X121015646Y-134050336D01*
X121005960Y-134018404D01*
X120978420Y-133927618D01*
X120965851Y-133800000D01*
X120978420Y-133672382D01*
X121015645Y-133549668D01*
X121015646Y-133549664D01*
X121076094Y-133436575D01*
X121157446Y-133337446D01*
X121256575Y-133256094D01*
X121369664Y-133195646D01*
X121401596Y-133185960D01*
X121492382Y-133158420D01*
X121556145Y-133152140D01*
X121588026Y-133149000D01*
X122251974Y-133149000D01*
X122283855Y-133152140D01*
G37*
G36*
X133631125Y-129806689D02*
G01*
X133770324Y-129834377D01*
X133878949Y-129879371D01*
X134032568Y-129943002D01*
X134268583Y-130100702D01*
X134469298Y-130301417D01*
X134626998Y-130537432D01*
X134735623Y-130799677D01*
X134791000Y-131078073D01*
X134791000Y-131361927D01*
X134735623Y-131640323D01*
X134626998Y-131902568D01*
X134469298Y-132138583D01*
X134268583Y-132339298D01*
X134032568Y-132496998D01*
X133878949Y-132560629D01*
X133770324Y-132605623D01*
X133631125Y-132633312D01*
X133491927Y-132661000D01*
X133208073Y-132661000D01*
X133068875Y-132633312D01*
X132929676Y-132605623D01*
X132821051Y-132560629D01*
X132667432Y-132496998D01*
X132431417Y-132339298D01*
X132230702Y-132138583D01*
X132073002Y-131902568D01*
X131964377Y-131640323D01*
X131909000Y-131361927D01*
X131909000Y-131078073D01*
X131964377Y-130799677D01*
X132073002Y-130537432D01*
X132230702Y-130301417D01*
X132431417Y-130100702D01*
X132667432Y-129943002D01*
X132821051Y-129879371D01*
X132929676Y-129834377D01*
X133068875Y-129806689D01*
X133208073Y-129779000D01*
X133491927Y-129779000D01*
X133631125Y-129806689D01*
G37*
G36*
X166891125Y-129806689D02*
G01*
X167030324Y-129834377D01*
X167138949Y-129879371D01*
X167292568Y-129943002D01*
X167528583Y-130100702D01*
X167729298Y-130301417D01*
X167886998Y-130537432D01*
X167995623Y-130799677D01*
X168051000Y-131078073D01*
X168051000Y-131361927D01*
X167995623Y-131640323D01*
X167886998Y-131902568D01*
X167729298Y-132138583D01*
X167528583Y-132339298D01*
X167292568Y-132496998D01*
X167138949Y-132560629D01*
X167030324Y-132605623D01*
X166891125Y-132633312D01*
X166751927Y-132661000D01*
X166468073Y-132661000D01*
X166328875Y-132633312D01*
X166189676Y-132605623D01*
X166081051Y-132560629D01*
X165927432Y-132496998D01*
X165691417Y-132339298D01*
X165490702Y-132138583D01*
X165333002Y-131902568D01*
X165224377Y-131640323D01*
X165169000Y-131361927D01*
X165169000Y-131078073D01*
X165224377Y-130799677D01*
X165333002Y-130537432D01*
X165490702Y-130301417D01*
X165691417Y-130100702D01*
X165927432Y-129943002D01*
X166081051Y-129879371D01*
X166189676Y-129834377D01*
X166328875Y-129806689D01*
X166468073Y-129779000D01*
X166751927Y-129779000D01*
X166891125Y-129806689D01*
G37*
G36*
X176811125Y-129806689D02*
G01*
X176950324Y-129834377D01*
X177058949Y-129879371D01*
X177212568Y-129943002D01*
X177448583Y-130100702D01*
X177649298Y-130301417D01*
X177806998Y-130537432D01*
X177915623Y-130799677D01*
X177971000Y-131078073D01*
X177971000Y-131361927D01*
X177915623Y-131640323D01*
X177806998Y-131902568D01*
X177649298Y-132138583D01*
X177448583Y-132339298D01*
X177212568Y-132496998D01*
X177058949Y-132560629D01*
X176950324Y-132605623D01*
X176811125Y-132633312D01*
X176671927Y-132661000D01*
X176388073Y-132661000D01*
X176248875Y-132633312D01*
X176109676Y-132605623D01*
X176001051Y-132560629D01*
X175847432Y-132496998D01*
X175611417Y-132339298D01*
X175410702Y-132138583D01*
X175253002Y-131902568D01*
X175144377Y-131640323D01*
X175089000Y-131361927D01*
X175089000Y-131078073D01*
X175144377Y-130799677D01*
X175253002Y-130537432D01*
X175410702Y-130301417D01*
X175611417Y-130100702D01*
X175847432Y-129943002D01*
X176001051Y-129879371D01*
X176109676Y-129834377D01*
X176248875Y-129806689D01*
X176388073Y-129779000D01*
X176671927Y-129779000D01*
X176811125Y-129806689D01*
G37*
G36*
X143551125Y-129806689D02*
G01*
X143690324Y-129834377D01*
X143798949Y-129879371D01*
X143952568Y-129943002D01*
X144188583Y-130100702D01*
X144389298Y-130301417D01*
X144546998Y-130537432D01*
X144655623Y-130799677D01*
X144711000Y-131078073D01*
X144711000Y-131361927D01*
X144655623Y-131640323D01*
X144546998Y-131902568D01*
X144389298Y-132138583D01*
X144188583Y-132339298D01*
X143952568Y-132496998D01*
X143798949Y-132560629D01*
X143690324Y-132605623D01*
X143551125Y-132633312D01*
X143411927Y-132661000D01*
X143128073Y-132661000D01*
X142988875Y-132633312D01*
X142849676Y-132605623D01*
X142741051Y-132560629D01*
X142587432Y-132496998D01*
X142351417Y-132339298D01*
X142150702Y-132138583D01*
X141993002Y-131902568D01*
X141884377Y-131640323D01*
X141829000Y-131361927D01*
X141829000Y-131078073D01*
X141884377Y-130799677D01*
X141993002Y-130537432D01*
X142150702Y-130301417D01*
X142351417Y-130100702D01*
X142587432Y-129943002D01*
X142741051Y-129879371D01*
X142849676Y-129834377D01*
X142988875Y-129806689D01*
X143128073Y-129779000D01*
X143411927Y-129779000D01*
X143551125Y-129806689D01*
G37*
G36*
X122711242Y-131153404D02*
G01*
X122748337Y-131164657D01*
X122782515Y-131182925D01*
X122812481Y-131207519D01*
X122837075Y-131237485D01*
X122855343Y-131271663D01*
X122866596Y-131308758D01*
X122871000Y-131353474D01*
X122871000Y-132246526D01*
X122866596Y-132291242D01*
X122855343Y-132328337D01*
X122837075Y-132362515D01*
X122812481Y-132392481D01*
X122782515Y-132417075D01*
X122748337Y-132435343D01*
X122711242Y-132446596D01*
X122666526Y-132451000D01*
X121173474Y-132451000D01*
X121128758Y-132446596D01*
X121091663Y-132435343D01*
X121057485Y-132417075D01*
X121027519Y-132392481D01*
X121002925Y-132362515D01*
X120984657Y-132328337D01*
X120973404Y-132291242D01*
X120969000Y-132246526D01*
X120969000Y-131353474D01*
X120973404Y-131308758D01*
X120984657Y-131271663D01*
X121002925Y-131237485D01*
X121027519Y-131207519D01*
X121057485Y-131182925D01*
X121091663Y-131164657D01*
X121128758Y-131153404D01*
X121173474Y-131149000D01*
X122666526Y-131149000D01*
X122711242Y-131153404D01*
G37*
G36*
X188751242Y-131153404D02*
G01*
X188788337Y-131164657D01*
X188822515Y-131182925D01*
X188852481Y-131207519D01*
X188877075Y-131237485D01*
X188895343Y-131271663D01*
X188906596Y-131308758D01*
X188911000Y-131353474D01*
X188911000Y-132246526D01*
X188906596Y-132291242D01*
X188895343Y-132328337D01*
X188877075Y-132362515D01*
X188852481Y-132392481D01*
X188822515Y-132417075D01*
X188788337Y-132435343D01*
X188751242Y-132446596D01*
X188706526Y-132451000D01*
X187213474Y-132451000D01*
X187168758Y-132446596D01*
X187131663Y-132435343D01*
X187097485Y-132417075D01*
X187067519Y-132392481D01*
X187042925Y-132362515D01*
X187024657Y-132328337D01*
X187013404Y-132291242D01*
X187009000Y-132246526D01*
X187009000Y-131353474D01*
X187013404Y-131308758D01*
X187024657Y-131271663D01*
X187042925Y-131237485D01*
X187067519Y-131207519D01*
X187097485Y-131182925D01*
X187131663Y-131164657D01*
X187168758Y-131153404D01*
X187213474Y-131149000D01*
X188706526Y-131149000D01*
X188751242Y-131153404D01*
G37*
G36*
X176755606Y-121257645D02*
G01*
X176950324Y-121296377D01*
X177058949Y-121341371D01*
X177212568Y-121405002D01*
X177448583Y-121562702D01*
X177649298Y-121763417D01*
X177806998Y-121999432D01*
X177853764Y-122112336D01*
X177900608Y-122225426D01*
X177915623Y-122261677D01*
X177971000Y-122540073D01*
X177971000Y-122823927D01*
X177915623Y-123102323D01*
X177806998Y-123364568D01*
X177649298Y-123600583D01*
X177448583Y-123801298D01*
X177212568Y-123958998D01*
X177058949Y-124022629D01*
X176950324Y-124067623D01*
X176811125Y-124095312D01*
X176671927Y-124123000D01*
X176388073Y-124123000D01*
X176248875Y-124095312D01*
X176109676Y-124067623D01*
X176001051Y-124022629D01*
X175847432Y-123958998D01*
X175611417Y-123801298D01*
X175410702Y-123600583D01*
X175253002Y-123364568D01*
X175144377Y-123102323D01*
X175089000Y-122823927D01*
X175089000Y-122540073D01*
X175144377Y-122261677D01*
X175159393Y-122225426D01*
X175206236Y-122112336D01*
X175253002Y-121999432D01*
X175410702Y-121763417D01*
X175611417Y-121562702D01*
X175847432Y-121405002D01*
X176001051Y-121341371D01*
X176109676Y-121296377D01*
X176304394Y-121257645D01*
X176388073Y-121241000D01*
X176671927Y-121241000D01*
X176755606Y-121257645D01*
G37*
G36*
X166835606Y-121257645D02*
G01*
X167030324Y-121296377D01*
X167138949Y-121341371D01*
X167292568Y-121405002D01*
X167528583Y-121562702D01*
X167729298Y-121763417D01*
X167886998Y-121999432D01*
X167933764Y-122112336D01*
X167980608Y-122225426D01*
X167995623Y-122261677D01*
X168051000Y-122540073D01*
X168051000Y-122823927D01*
X167995623Y-123102323D01*
X167886998Y-123364568D01*
X167729298Y-123600583D01*
X167528583Y-123801298D01*
X167292568Y-123958998D01*
X167138949Y-124022629D01*
X167030324Y-124067623D01*
X166891125Y-124095312D01*
X166751927Y-124123000D01*
X166468073Y-124123000D01*
X166328875Y-124095312D01*
X166189676Y-124067623D01*
X166081051Y-124022629D01*
X165927432Y-123958998D01*
X165691417Y-123801298D01*
X165490702Y-123600583D01*
X165333002Y-123364568D01*
X165224377Y-123102323D01*
X165169000Y-122823927D01*
X165169000Y-122540073D01*
X165224377Y-122261677D01*
X165239393Y-122225426D01*
X165286236Y-122112336D01*
X165333002Y-121999432D01*
X165490702Y-121763417D01*
X165691417Y-121562702D01*
X165927432Y-121405002D01*
X166081051Y-121341371D01*
X166189676Y-121296377D01*
X166384394Y-121257645D01*
X166468073Y-121241000D01*
X166751927Y-121241000D01*
X166835606Y-121257645D01*
G37*
G36*
X143495606Y-121257645D02*
G01*
X143690324Y-121296377D01*
X143798949Y-121341371D01*
X143952568Y-121405002D01*
X144188583Y-121562702D01*
X144389298Y-121763417D01*
X144546998Y-121999432D01*
X144593764Y-122112336D01*
X144640608Y-122225426D01*
X144655623Y-122261677D01*
X144711000Y-122540073D01*
X144711000Y-122823927D01*
X144655623Y-123102323D01*
X144546998Y-123364568D01*
X144389298Y-123600583D01*
X144188583Y-123801298D01*
X143952568Y-123958998D01*
X143798949Y-124022629D01*
X143690324Y-124067623D01*
X143551125Y-124095312D01*
X143411927Y-124123000D01*
X143128073Y-124123000D01*
X142988875Y-124095312D01*
X142849676Y-124067623D01*
X142741051Y-124022629D01*
X142587432Y-123958998D01*
X142351417Y-123801298D01*
X142150702Y-123600583D01*
X141993002Y-123364568D01*
X141884377Y-123102323D01*
X141829000Y-122823927D01*
X141829000Y-122540073D01*
X141884377Y-122261677D01*
X141899393Y-122225426D01*
X141946236Y-122112336D01*
X141993002Y-121999432D01*
X142150702Y-121763417D01*
X142351417Y-121562702D01*
X142587432Y-121405002D01*
X142741051Y-121341371D01*
X142849676Y-121296377D01*
X143044394Y-121257645D01*
X143128073Y-121241000D01*
X143411927Y-121241000D01*
X143495606Y-121257645D01*
G37*
G36*
X133575606Y-121257645D02*
G01*
X133770324Y-121296377D01*
X133878949Y-121341371D01*
X134032568Y-121405002D01*
X134268583Y-121562702D01*
X134469298Y-121763417D01*
X134626998Y-121999432D01*
X134673764Y-122112336D01*
X134720608Y-122225426D01*
X134735623Y-122261677D01*
X134791000Y-122540073D01*
X134791000Y-122823927D01*
X134735623Y-123102323D01*
X134626998Y-123364568D01*
X134469298Y-123600583D01*
X134268583Y-123801298D01*
X134032568Y-123958998D01*
X133878949Y-124022629D01*
X133770324Y-124067623D01*
X133631125Y-124095312D01*
X133491927Y-124123000D01*
X133208073Y-124123000D01*
X133068875Y-124095312D01*
X132929676Y-124067623D01*
X132821051Y-124022629D01*
X132667432Y-123958998D01*
X132431417Y-123801298D01*
X132230702Y-123600583D01*
X132073002Y-123364568D01*
X131964377Y-123102323D01*
X131909000Y-122823927D01*
X131909000Y-122540073D01*
X131964377Y-122261677D01*
X131979393Y-122225426D01*
X132026236Y-122112336D01*
X132073002Y-121999432D01*
X132230702Y-121763417D01*
X132431417Y-121562702D01*
X132667432Y-121405002D01*
X132821051Y-121341371D01*
X132929676Y-121296377D01*
X133124394Y-121257645D01*
X133208073Y-121241000D01*
X133491927Y-121241000D01*
X133575606Y-121257645D01*
G37*
G36*
X122283855Y-121214140D02*
G01*
X122347618Y-121220420D01*
X122438404Y-121247960D01*
X122470336Y-121257646D01*
X122583425Y-121318094D01*
X122682554Y-121399446D01*
X122763906Y-121498575D01*
X122824354Y-121611664D01*
X122824355Y-121611668D01*
X122861580Y-121734382D01*
X122874149Y-121862000D01*
X122861580Y-121989618D01*
X122834040Y-122080404D01*
X122824354Y-122112336D01*
X122763906Y-122225425D01*
X122682554Y-122324554D01*
X122583425Y-122405906D01*
X122470336Y-122466354D01*
X122438404Y-122476040D01*
X122347618Y-122503580D01*
X122283855Y-122509860D01*
X122251974Y-122513000D01*
X121588026Y-122513000D01*
X121556145Y-122509860D01*
X121492382Y-122503580D01*
X121401596Y-122476040D01*
X121369664Y-122466354D01*
X121256575Y-122405906D01*
X121157446Y-122324554D01*
X121076094Y-122225425D01*
X121015646Y-122112336D01*
X121005960Y-122080404D01*
X120978420Y-121989618D01*
X120965851Y-121862000D01*
X120978420Y-121734382D01*
X121015645Y-121611668D01*
X121015646Y-121611664D01*
X121076094Y-121498575D01*
X121157446Y-121399446D01*
X121256575Y-121318094D01*
X121369664Y-121257646D01*
X121401596Y-121247960D01*
X121492382Y-121220420D01*
X121556145Y-121214140D01*
X121588026Y-121211000D01*
X122251974Y-121211000D01*
X122283855Y-121214140D01*
G37*
G36*
X188323855Y-121214140D02*
G01*
X188387618Y-121220420D01*
X188478404Y-121247960D01*
X188510336Y-121257646D01*
X188623425Y-121318094D01*
X188722554Y-121399446D01*
X188803906Y-121498575D01*
X188864354Y-121611664D01*
X188864355Y-121611668D01*
X188901580Y-121734382D01*
X188914149Y-121862000D01*
X188901580Y-121989618D01*
X188874040Y-122080404D01*
X188864354Y-122112336D01*
X188803906Y-122225425D01*
X188722554Y-122324554D01*
X188623425Y-122405906D01*
X188510336Y-122466354D01*
X188478404Y-122476040D01*
X188387618Y-122503580D01*
X188323855Y-122509860D01*
X188291974Y-122513000D01*
X187628026Y-122513000D01*
X187596145Y-122509860D01*
X187532382Y-122503580D01*
X187441596Y-122476040D01*
X187409664Y-122466354D01*
X187296575Y-122405906D01*
X187197446Y-122324554D01*
X187116094Y-122225425D01*
X187055646Y-122112336D01*
X187045960Y-122080404D01*
X187018420Y-121989618D01*
X187005851Y-121862000D01*
X187018420Y-121734382D01*
X187055645Y-121611668D01*
X187055646Y-121611664D01*
X187116094Y-121498575D01*
X187197446Y-121399446D01*
X187296575Y-121318094D01*
X187409664Y-121257646D01*
X187441596Y-121247960D01*
X187532382Y-121220420D01*
X187596145Y-121214140D01*
X187628026Y-121211000D01*
X188291974Y-121211000D01*
X188323855Y-121214140D01*
G37*
G36*
X166891125Y-117868688D02*
G01*
X167030324Y-117896377D01*
X167138949Y-117941371D01*
X167292568Y-118005002D01*
X167528583Y-118162702D01*
X167729298Y-118363417D01*
X167886998Y-118599432D01*
X167995623Y-118861677D01*
X168051000Y-119140073D01*
X168051000Y-119423927D01*
X167995623Y-119702323D01*
X167886998Y-119964568D01*
X167729298Y-120200583D01*
X167528583Y-120401298D01*
X167292568Y-120558998D01*
X167138949Y-120622629D01*
X167030324Y-120667623D01*
X166891125Y-120695312D01*
X166751927Y-120723000D01*
X166468073Y-120723000D01*
X166328875Y-120695312D01*
X166189676Y-120667623D01*
X166081051Y-120622629D01*
X165927432Y-120558998D01*
X165691417Y-120401298D01*
X165490702Y-120200583D01*
X165333002Y-119964568D01*
X165224377Y-119702323D01*
X165169000Y-119423927D01*
X165169000Y-119140073D01*
X165224377Y-118861677D01*
X165333002Y-118599432D01*
X165490702Y-118363417D01*
X165691417Y-118162702D01*
X165927432Y-118005002D01*
X166081051Y-117941371D01*
X166189676Y-117896377D01*
X166328875Y-117868688D01*
X166468073Y-117841000D01*
X166751927Y-117841000D01*
X166891125Y-117868688D01*
G37*
G36*
X176811125Y-117868688D02*
G01*
X176950324Y-117896377D01*
X177058949Y-117941371D01*
X177212568Y-118005002D01*
X177448583Y-118162702D01*
X177649298Y-118363417D01*
X177806998Y-118599432D01*
X177915623Y-118861677D01*
X177971000Y-119140073D01*
X177971000Y-119423927D01*
X177915623Y-119702323D01*
X177806998Y-119964568D01*
X177649298Y-120200583D01*
X177448583Y-120401298D01*
X177212568Y-120558998D01*
X177058949Y-120622629D01*
X176950324Y-120667623D01*
X176811125Y-120695312D01*
X176671927Y-120723000D01*
X176388073Y-120723000D01*
X176248875Y-120695312D01*
X176109676Y-120667623D01*
X176001051Y-120622629D01*
X175847432Y-120558998D01*
X175611417Y-120401298D01*
X175410702Y-120200583D01*
X175253002Y-119964568D01*
X175144377Y-119702323D01*
X175089000Y-119423927D01*
X175089000Y-119140073D01*
X175144377Y-118861677D01*
X175253002Y-118599432D01*
X175410702Y-118363417D01*
X175611417Y-118162702D01*
X175847432Y-118005002D01*
X176001051Y-117941371D01*
X176109676Y-117896377D01*
X176248875Y-117868688D01*
X176388073Y-117841000D01*
X176671927Y-117841000D01*
X176811125Y-117868688D01*
G37*
G36*
X143551125Y-117868688D02*
G01*
X143690324Y-117896377D01*
X143798949Y-117941371D01*
X143952568Y-118005002D01*
X144188583Y-118162702D01*
X144389298Y-118363417D01*
X144546998Y-118599432D01*
X144655623Y-118861677D01*
X144711000Y-119140073D01*
X144711000Y-119423927D01*
X144655623Y-119702323D01*
X144546998Y-119964568D01*
X144389298Y-120200583D01*
X144188583Y-120401298D01*
X143952568Y-120558998D01*
X143798949Y-120622629D01*
X143690324Y-120667623D01*
X143551125Y-120695312D01*
X143411927Y-120723000D01*
X143128073Y-120723000D01*
X142988875Y-120695312D01*
X142849676Y-120667623D01*
X142741051Y-120622629D01*
X142587432Y-120558998D01*
X142351417Y-120401298D01*
X142150702Y-120200583D01*
X141993002Y-119964568D01*
X141884377Y-119702323D01*
X141829000Y-119423927D01*
X141829000Y-119140073D01*
X141884377Y-118861677D01*
X141993002Y-118599432D01*
X142150702Y-118363417D01*
X142351417Y-118162702D01*
X142587432Y-118005002D01*
X142741051Y-117941371D01*
X142849676Y-117896377D01*
X142988875Y-117868688D01*
X143128073Y-117841000D01*
X143411927Y-117841000D01*
X143551125Y-117868688D01*
G37*
G36*
X133631125Y-117868688D02*
G01*
X133770324Y-117896377D01*
X133878949Y-117941371D01*
X134032568Y-118005002D01*
X134268583Y-118162702D01*
X134469298Y-118363417D01*
X134626998Y-118599432D01*
X134735623Y-118861677D01*
X134791000Y-119140073D01*
X134791000Y-119423927D01*
X134735623Y-119702323D01*
X134626998Y-119964568D01*
X134469298Y-120200583D01*
X134268583Y-120401298D01*
X134032568Y-120558998D01*
X133878949Y-120622629D01*
X133770324Y-120667623D01*
X133631125Y-120695312D01*
X133491927Y-120723000D01*
X133208073Y-120723000D01*
X133068875Y-120695312D01*
X132929676Y-120667623D01*
X132821051Y-120622629D01*
X132667432Y-120558998D01*
X132431417Y-120401298D01*
X132230702Y-120200583D01*
X132073002Y-119964568D01*
X131964377Y-119702323D01*
X131909000Y-119423927D01*
X131909000Y-119140073D01*
X131964377Y-118861677D01*
X132073002Y-118599432D01*
X132230702Y-118363417D01*
X132431417Y-118162702D01*
X132667432Y-118005002D01*
X132821051Y-117941371D01*
X132929676Y-117896377D01*
X133068875Y-117868688D01*
X133208073Y-117841000D01*
X133491927Y-117841000D01*
X133631125Y-117868688D01*
G37*
G36*
X188751242Y-119215404D02*
G01*
X188788337Y-119226657D01*
X188822515Y-119244925D01*
X188852481Y-119269519D01*
X188877075Y-119299485D01*
X188895343Y-119333663D01*
X188906596Y-119370758D01*
X188911000Y-119415474D01*
X188911000Y-120308526D01*
X188906596Y-120353242D01*
X188895343Y-120390337D01*
X188877075Y-120424515D01*
X188852481Y-120454481D01*
X188822515Y-120479075D01*
X188788337Y-120497343D01*
X188751242Y-120508596D01*
X188706526Y-120513000D01*
X187213474Y-120513000D01*
X187168758Y-120508596D01*
X187131663Y-120497343D01*
X187097485Y-120479075D01*
X187067519Y-120454481D01*
X187042925Y-120424515D01*
X187024657Y-120390337D01*
X187013404Y-120353242D01*
X187009000Y-120308526D01*
X187009000Y-119415474D01*
X187013404Y-119370758D01*
X187024657Y-119333663D01*
X187042925Y-119299485D01*
X187067519Y-119269519D01*
X187097485Y-119244925D01*
X187131663Y-119226657D01*
X187168758Y-119215404D01*
X187213474Y-119211000D01*
X188706526Y-119211000D01*
X188751242Y-119215404D01*
G37*
G36*
X122711242Y-119215404D02*
G01*
X122748337Y-119226657D01*
X122782515Y-119244925D01*
X122812481Y-119269519D01*
X122837075Y-119299485D01*
X122855343Y-119333663D01*
X122866596Y-119370758D01*
X122871000Y-119415474D01*
X122871000Y-120308526D01*
X122866596Y-120353242D01*
X122855343Y-120390337D01*
X122837075Y-120424515D01*
X122812481Y-120454481D01*
X122782515Y-120479075D01*
X122748337Y-120497343D01*
X122711242Y-120508596D01*
X122666526Y-120513000D01*
X121173474Y-120513000D01*
X121128758Y-120508596D01*
X121091663Y-120497343D01*
X121057485Y-120479075D01*
X121027519Y-120454481D01*
X121002925Y-120424515D01*
X120984657Y-120390337D01*
X120973404Y-120353242D01*
X120969000Y-120308526D01*
X120969000Y-119415474D01*
X120973404Y-119370758D01*
X120984657Y-119333663D01*
X121002925Y-119299485D01*
X121027519Y-119269519D01*
X121057485Y-119244925D01*
X121091663Y-119226657D01*
X121128758Y-119215404D01*
X121173474Y-119211000D01*
X122666526Y-119211000D01*
X122711242Y-119215404D01*
G37*
G36*
X176755606Y-109319645D02*
G01*
X176950324Y-109358377D01*
X177058949Y-109403371D01*
X177212568Y-109467002D01*
X177448583Y-109624702D01*
X177649298Y-109825417D01*
X177806998Y-110061432D01*
X177853764Y-110174336D01*
X177900608Y-110287426D01*
X177915623Y-110323677D01*
X177971000Y-110602073D01*
X177971000Y-110885927D01*
X177915623Y-111164323D01*
X177806998Y-111426568D01*
X177649298Y-111662583D01*
X177448583Y-111863298D01*
X177212568Y-112020998D01*
X177058949Y-112084629D01*
X176950324Y-112129623D01*
X176811125Y-112157311D01*
X176671927Y-112185000D01*
X176388073Y-112185000D01*
X176248875Y-112157311D01*
X176109676Y-112129623D01*
X176001051Y-112084629D01*
X175847432Y-112020998D01*
X175611417Y-111863298D01*
X175410702Y-111662583D01*
X175253002Y-111426568D01*
X175144377Y-111164323D01*
X175089000Y-110885927D01*
X175089000Y-110602073D01*
X175144377Y-110323677D01*
X175159393Y-110287426D01*
X175206236Y-110174336D01*
X175253002Y-110061432D01*
X175410702Y-109825417D01*
X175611417Y-109624702D01*
X175847432Y-109467002D01*
X176001051Y-109403371D01*
X176109676Y-109358377D01*
X176304394Y-109319645D01*
X176388073Y-109303000D01*
X176671927Y-109303000D01*
X176755606Y-109319645D01*
G37*
G36*
X166835606Y-109319645D02*
G01*
X167030324Y-109358377D01*
X167138949Y-109403371D01*
X167292568Y-109467002D01*
X167528583Y-109624702D01*
X167729298Y-109825417D01*
X167886998Y-110061432D01*
X167933764Y-110174336D01*
X167980608Y-110287426D01*
X167995623Y-110323677D01*
X168051000Y-110602073D01*
X168051000Y-110885927D01*
X167995623Y-111164323D01*
X167886998Y-111426568D01*
X167729298Y-111662583D01*
X167528583Y-111863298D01*
X167292568Y-112020998D01*
X167138949Y-112084629D01*
X167030324Y-112129623D01*
X166891125Y-112157311D01*
X166751927Y-112185000D01*
X166468073Y-112185000D01*
X166328875Y-112157311D01*
X166189676Y-112129623D01*
X166081051Y-112084629D01*
X165927432Y-112020998D01*
X165691417Y-111863298D01*
X165490702Y-111662583D01*
X165333002Y-111426568D01*
X165224377Y-111164323D01*
X165169000Y-110885927D01*
X165169000Y-110602073D01*
X165224377Y-110323677D01*
X165239393Y-110287426D01*
X165286236Y-110174336D01*
X165333002Y-110061432D01*
X165490702Y-109825417D01*
X165691417Y-109624702D01*
X165927432Y-109467002D01*
X166081051Y-109403371D01*
X166189676Y-109358377D01*
X166384394Y-109319645D01*
X166468073Y-109303000D01*
X166751927Y-109303000D01*
X166835606Y-109319645D01*
G37*
G36*
X133575606Y-109319645D02*
G01*
X133770324Y-109358377D01*
X133878949Y-109403371D01*
X134032568Y-109467002D01*
X134268583Y-109624702D01*
X134469298Y-109825417D01*
X134626998Y-110061432D01*
X134673764Y-110174336D01*
X134720608Y-110287426D01*
X134735623Y-110323677D01*
X134791000Y-110602073D01*
X134791000Y-110885927D01*
X134735623Y-111164323D01*
X134626998Y-111426568D01*
X134469298Y-111662583D01*
X134268583Y-111863298D01*
X134032568Y-112020998D01*
X133878949Y-112084629D01*
X133770324Y-112129623D01*
X133631125Y-112157311D01*
X133491927Y-112185000D01*
X133208073Y-112185000D01*
X133068875Y-112157311D01*
X132929676Y-112129623D01*
X132821051Y-112084629D01*
X132667432Y-112020998D01*
X132431417Y-111863298D01*
X132230702Y-111662583D01*
X132073002Y-111426568D01*
X131964377Y-111164323D01*
X131909000Y-110885927D01*
X131909000Y-110602073D01*
X131964377Y-110323677D01*
X131979393Y-110287426D01*
X132026236Y-110174336D01*
X132073002Y-110061432D01*
X132230702Y-109825417D01*
X132431417Y-109624702D01*
X132667432Y-109467002D01*
X132821051Y-109403371D01*
X132929676Y-109358377D01*
X133124394Y-109319645D01*
X133208073Y-109303000D01*
X133491927Y-109303000D01*
X133575606Y-109319645D01*
G37*
G36*
X143495606Y-109319645D02*
G01*
X143690324Y-109358377D01*
X143798949Y-109403371D01*
X143952568Y-109467002D01*
X144188583Y-109624702D01*
X144389298Y-109825417D01*
X144546998Y-110061432D01*
X144593764Y-110174336D01*
X144640608Y-110287426D01*
X144655623Y-110323677D01*
X144711000Y-110602073D01*
X144711000Y-110885927D01*
X144655623Y-111164323D01*
X144546998Y-111426568D01*
X144389298Y-111662583D01*
X144188583Y-111863298D01*
X143952568Y-112020998D01*
X143798949Y-112084629D01*
X143690324Y-112129623D01*
X143551125Y-112157311D01*
X143411927Y-112185000D01*
X143128073Y-112185000D01*
X142988875Y-112157311D01*
X142849676Y-112129623D01*
X142741051Y-112084629D01*
X142587432Y-112020998D01*
X142351417Y-111863298D01*
X142150702Y-111662583D01*
X141993002Y-111426568D01*
X141884377Y-111164323D01*
X141829000Y-110885927D01*
X141829000Y-110602073D01*
X141884377Y-110323677D01*
X141899393Y-110287426D01*
X141946236Y-110174336D01*
X141993002Y-110061432D01*
X142150702Y-109825417D01*
X142351417Y-109624702D01*
X142587432Y-109467002D01*
X142741051Y-109403371D01*
X142849676Y-109358377D01*
X143044394Y-109319645D01*
X143128073Y-109303000D01*
X143411927Y-109303000D01*
X143495606Y-109319645D01*
G37*
G36*
X188323855Y-109276140D02*
G01*
X188387618Y-109282420D01*
X188478404Y-109309960D01*
X188510336Y-109319646D01*
X188623425Y-109380094D01*
X188722554Y-109461446D01*
X188803906Y-109560575D01*
X188864354Y-109673664D01*
X188864355Y-109673668D01*
X188901580Y-109796382D01*
X188914149Y-109924000D01*
X188901580Y-110051618D01*
X188874040Y-110142404D01*
X188864354Y-110174336D01*
X188803906Y-110287425D01*
X188722554Y-110386554D01*
X188623425Y-110467906D01*
X188510336Y-110528354D01*
X188478404Y-110538040D01*
X188387618Y-110565580D01*
X188323855Y-110571860D01*
X188291974Y-110575000D01*
X187628026Y-110575000D01*
X187596145Y-110571860D01*
X187532382Y-110565580D01*
X187441596Y-110538040D01*
X187409664Y-110528354D01*
X187296575Y-110467906D01*
X187197446Y-110386554D01*
X187116094Y-110287425D01*
X187055646Y-110174336D01*
X187045960Y-110142404D01*
X187018420Y-110051618D01*
X187005851Y-109924000D01*
X187018420Y-109796382D01*
X187055645Y-109673668D01*
X187055646Y-109673664D01*
X187116094Y-109560575D01*
X187197446Y-109461446D01*
X187296575Y-109380094D01*
X187409664Y-109319646D01*
X187441596Y-109309960D01*
X187532382Y-109282420D01*
X187596145Y-109276140D01*
X187628026Y-109273000D01*
X188291974Y-109273000D01*
X188323855Y-109276140D01*
G37*
G36*
X122283855Y-109276140D02*
G01*
X122347618Y-109282420D01*
X122438404Y-109309960D01*
X122470336Y-109319646D01*
X122583425Y-109380094D01*
X122682554Y-109461446D01*
X122763906Y-109560575D01*
X122824354Y-109673664D01*
X122824355Y-109673668D01*
X122861580Y-109796382D01*
X122874149Y-109924000D01*
X122861580Y-110051618D01*
X122834040Y-110142404D01*
X122824354Y-110174336D01*
X122763906Y-110287425D01*
X122682554Y-110386554D01*
X122583425Y-110467906D01*
X122470336Y-110528354D01*
X122438404Y-110538040D01*
X122347618Y-110565580D01*
X122283855Y-110571860D01*
X122251974Y-110575000D01*
X121588026Y-110575000D01*
X121556145Y-110571860D01*
X121492382Y-110565580D01*
X121401596Y-110538040D01*
X121369664Y-110528354D01*
X121256575Y-110467906D01*
X121157446Y-110386554D01*
X121076094Y-110287425D01*
X121015646Y-110174336D01*
X121005960Y-110142404D01*
X120978420Y-110051618D01*
X120965851Y-109924000D01*
X120978420Y-109796382D01*
X121015645Y-109673668D01*
X121015646Y-109673664D01*
X121076094Y-109560575D01*
X121157446Y-109461446D01*
X121256575Y-109380094D01*
X121369664Y-109319646D01*
X121401596Y-109309960D01*
X121492382Y-109282420D01*
X121556145Y-109276140D01*
X121588026Y-109273000D01*
X122251974Y-109273000D01*
X122283855Y-109276140D01*
G37*
G36*
X166891125Y-105930689D02*
G01*
X167030324Y-105958377D01*
X167138949Y-106003371D01*
X167292568Y-106067002D01*
X167528583Y-106224702D01*
X167729298Y-106425417D01*
X167886998Y-106661432D01*
X167995623Y-106923677D01*
X168051000Y-107202073D01*
X168051000Y-107485927D01*
X167995623Y-107764323D01*
X167886998Y-108026568D01*
X167729298Y-108262583D01*
X167528583Y-108463298D01*
X167292568Y-108620998D01*
X167138949Y-108684629D01*
X167030324Y-108729623D01*
X166891125Y-108757311D01*
X166751927Y-108785000D01*
X166468073Y-108785000D01*
X166328875Y-108757311D01*
X166189676Y-108729623D01*
X166081051Y-108684629D01*
X165927432Y-108620998D01*
X165691417Y-108463298D01*
X165490702Y-108262583D01*
X165333002Y-108026568D01*
X165224377Y-107764323D01*
X165169000Y-107485927D01*
X165169000Y-107202073D01*
X165224377Y-106923677D01*
X165333002Y-106661432D01*
X165490702Y-106425417D01*
X165691417Y-106224702D01*
X165927432Y-106067002D01*
X166081051Y-106003371D01*
X166189676Y-105958377D01*
X166328875Y-105930689D01*
X166468073Y-105903000D01*
X166751927Y-105903000D01*
X166891125Y-105930689D01*
G37*
G36*
X133631125Y-105930689D02*
G01*
X133770324Y-105958377D01*
X133878949Y-106003371D01*
X134032568Y-106067002D01*
X134268583Y-106224702D01*
X134469298Y-106425417D01*
X134626998Y-106661432D01*
X134735623Y-106923677D01*
X134791000Y-107202073D01*
X134791000Y-107485927D01*
X134735623Y-107764323D01*
X134626998Y-108026568D01*
X134469298Y-108262583D01*
X134268583Y-108463298D01*
X134032568Y-108620998D01*
X133878949Y-108684629D01*
X133770324Y-108729623D01*
X133631125Y-108757311D01*
X133491927Y-108785000D01*
X133208073Y-108785000D01*
X133068875Y-108757311D01*
X132929676Y-108729623D01*
X132821051Y-108684629D01*
X132667432Y-108620998D01*
X132431417Y-108463298D01*
X132230702Y-108262583D01*
X132073002Y-108026568D01*
X131964377Y-107764323D01*
X131909000Y-107485927D01*
X131909000Y-107202073D01*
X131964377Y-106923677D01*
X132073002Y-106661432D01*
X132230702Y-106425417D01*
X132431417Y-106224702D01*
X132667432Y-106067002D01*
X132821051Y-106003371D01*
X132929676Y-105958377D01*
X133068875Y-105930689D01*
X133208073Y-105903000D01*
X133491927Y-105903000D01*
X133631125Y-105930689D01*
G37*
G36*
X143551125Y-105930689D02*
G01*
X143690324Y-105958377D01*
X143798949Y-106003371D01*
X143952568Y-106067002D01*
X144188583Y-106224702D01*
X144389298Y-106425417D01*
X144546998Y-106661432D01*
X144655623Y-106923677D01*
X144711000Y-107202073D01*
X144711000Y-107485927D01*
X144655623Y-107764323D01*
X144546998Y-108026568D01*
X144389298Y-108262583D01*
X144188583Y-108463298D01*
X143952568Y-108620998D01*
X143798949Y-108684629D01*
X143690324Y-108729623D01*
X143551125Y-108757311D01*
X143411927Y-108785000D01*
X143128073Y-108785000D01*
X142988875Y-108757311D01*
X142849676Y-108729623D01*
X142741051Y-108684629D01*
X142587432Y-108620998D01*
X142351417Y-108463298D01*
X142150702Y-108262583D01*
X141993002Y-108026568D01*
X141884377Y-107764323D01*
X141829000Y-107485927D01*
X141829000Y-107202073D01*
X141884377Y-106923677D01*
X141993002Y-106661432D01*
X142150702Y-106425417D01*
X142351417Y-106224702D01*
X142587432Y-106067002D01*
X142741051Y-106003371D01*
X142849676Y-105958377D01*
X142988875Y-105930689D01*
X143128073Y-105903000D01*
X143411927Y-105903000D01*
X143551125Y-105930689D01*
G37*
G36*
X176811125Y-105930689D02*
G01*
X176950324Y-105958377D01*
X177058949Y-106003371D01*
X177212568Y-106067002D01*
X177448583Y-106224702D01*
X177649298Y-106425417D01*
X177806998Y-106661432D01*
X177915623Y-106923677D01*
X177971000Y-107202073D01*
X177971000Y-107485927D01*
X177915623Y-107764323D01*
X177806998Y-108026568D01*
X177649298Y-108262583D01*
X177448583Y-108463298D01*
X177212568Y-108620998D01*
X177058949Y-108684629D01*
X176950324Y-108729623D01*
X176811125Y-108757311D01*
X176671927Y-108785000D01*
X176388073Y-108785000D01*
X176248875Y-108757311D01*
X176109676Y-108729623D01*
X176001051Y-108684629D01*
X175847432Y-108620998D01*
X175611417Y-108463298D01*
X175410702Y-108262583D01*
X175253002Y-108026568D01*
X175144377Y-107764323D01*
X175089000Y-107485927D01*
X175089000Y-107202073D01*
X175144377Y-106923677D01*
X175253002Y-106661432D01*
X175410702Y-106425417D01*
X175611417Y-106224702D01*
X175847432Y-106067002D01*
X176001051Y-106003371D01*
X176109676Y-105958377D01*
X176248875Y-105930689D01*
X176388073Y-105903000D01*
X176671927Y-105903000D01*
X176811125Y-105930689D01*
G37*
G36*
X122711242Y-107277404D02*
G01*
X122748337Y-107288657D01*
X122782515Y-107306925D01*
X122812481Y-107331519D01*
X122837075Y-107361485D01*
X122855343Y-107395663D01*
X122866596Y-107432758D01*
X122871000Y-107477474D01*
X122871000Y-108370526D01*
X122866596Y-108415242D01*
X122855343Y-108452337D01*
X122837075Y-108486515D01*
X122812481Y-108516481D01*
X122782515Y-108541075D01*
X122748337Y-108559343D01*
X122711242Y-108570596D01*
X122666526Y-108575000D01*
X121173474Y-108575000D01*
X121128758Y-108570596D01*
X121091663Y-108559343D01*
X121057485Y-108541075D01*
X121027519Y-108516481D01*
X121002925Y-108486515D01*
X120984657Y-108452337D01*
X120973404Y-108415242D01*
X120969000Y-108370526D01*
X120969000Y-107477474D01*
X120973404Y-107432758D01*
X120984657Y-107395663D01*
X121002925Y-107361485D01*
X121027519Y-107331519D01*
X121057485Y-107306925D01*
X121091663Y-107288657D01*
X121128758Y-107277404D01*
X121173474Y-107273000D01*
X122666526Y-107273000D01*
X122711242Y-107277404D01*
G37*
G36*
X188751242Y-107277404D02*
G01*
X188788337Y-107288657D01*
X188822515Y-107306925D01*
X188852481Y-107331519D01*
X188877075Y-107361485D01*
X188895343Y-107395663D01*
X188906596Y-107432758D01*
X188911000Y-107477474D01*
X188911000Y-108370526D01*
X188906596Y-108415242D01*
X188895343Y-108452337D01*
X188877075Y-108486515D01*
X188852481Y-108516481D01*
X188822515Y-108541075D01*
X188788337Y-108559343D01*
X188751242Y-108570596D01*
X188706526Y-108575000D01*
X187213474Y-108575000D01*
X187168758Y-108570596D01*
X187131663Y-108559343D01*
X187097485Y-108541075D01*
X187067519Y-108516481D01*
X187042925Y-108486515D01*
X187024657Y-108452337D01*
X187013404Y-108415242D01*
X187009000Y-108370526D01*
X187009000Y-107477474D01*
X187013404Y-107432758D01*
X187024657Y-107395663D01*
X187042925Y-107361485D01*
X187067519Y-107331519D01*
X187097485Y-107306925D01*
X187131663Y-107288657D01*
X187168758Y-107277404D01*
X187213474Y-107273000D01*
X188706526Y-107273000D01*
X188751242Y-107277404D01*
G37*
G36*
X143495606Y-97381645D02*
G01*
X143690324Y-97420377D01*
X143798949Y-97465371D01*
X143952568Y-97529002D01*
X144188583Y-97686702D01*
X144389298Y-97887417D01*
X144546998Y-98123432D01*
X144593764Y-98236336D01*
X144640608Y-98349426D01*
X144655623Y-98385677D01*
X144711000Y-98664073D01*
X144711000Y-98947927D01*
X144655623Y-99226323D01*
X144546998Y-99488568D01*
X144389298Y-99724583D01*
X144188583Y-99925298D01*
X143952568Y-100082998D01*
X143798949Y-100146629D01*
X143690324Y-100191623D01*
X143551125Y-100219312D01*
X143411927Y-100247000D01*
X143128073Y-100247000D01*
X142988875Y-100219312D01*
X142849676Y-100191623D01*
X142741051Y-100146629D01*
X142587432Y-100082998D01*
X142351417Y-99925298D01*
X142150702Y-99724583D01*
X141993002Y-99488568D01*
X141884377Y-99226323D01*
X141829000Y-98947927D01*
X141829000Y-98664073D01*
X141884377Y-98385677D01*
X141899393Y-98349426D01*
X141946236Y-98236336D01*
X141993002Y-98123432D01*
X142150702Y-97887417D01*
X142351417Y-97686702D01*
X142587432Y-97529002D01*
X142741051Y-97465371D01*
X142849676Y-97420377D01*
X143044394Y-97381645D01*
X143128073Y-97365000D01*
X143411927Y-97365000D01*
X143495606Y-97381645D01*
G37*
G36*
X133575606Y-97381645D02*
G01*
X133770324Y-97420377D01*
X133878949Y-97465371D01*
X134032568Y-97529002D01*
X134268583Y-97686702D01*
X134469298Y-97887417D01*
X134626998Y-98123432D01*
X134673764Y-98236336D01*
X134720608Y-98349426D01*
X134735623Y-98385677D01*
X134791000Y-98664073D01*
X134791000Y-98947927D01*
X134735623Y-99226323D01*
X134626998Y-99488568D01*
X134469298Y-99724583D01*
X134268583Y-99925298D01*
X134032568Y-100082998D01*
X133878949Y-100146629D01*
X133770324Y-100191623D01*
X133631125Y-100219312D01*
X133491927Y-100247000D01*
X133208073Y-100247000D01*
X133068875Y-100219312D01*
X132929676Y-100191623D01*
X132821051Y-100146629D01*
X132667432Y-100082998D01*
X132431417Y-99925298D01*
X132230702Y-99724583D01*
X132073002Y-99488568D01*
X131964377Y-99226323D01*
X131909000Y-98947927D01*
X131909000Y-98664073D01*
X131964377Y-98385677D01*
X131979393Y-98349426D01*
X132026236Y-98236336D01*
X132073002Y-98123432D01*
X132230702Y-97887417D01*
X132431417Y-97686702D01*
X132667432Y-97529002D01*
X132821051Y-97465371D01*
X132929676Y-97420377D01*
X133124394Y-97381645D01*
X133208073Y-97365000D01*
X133491927Y-97365000D01*
X133575606Y-97381645D01*
G37*
G36*
X176755606Y-97381645D02*
G01*
X176950324Y-97420377D01*
X177058949Y-97465371D01*
X177212568Y-97529002D01*
X177448583Y-97686702D01*
X177649298Y-97887417D01*
X177806998Y-98123432D01*
X177853764Y-98236336D01*
X177900608Y-98349426D01*
X177915623Y-98385677D01*
X177971000Y-98664073D01*
X177971000Y-98947927D01*
X177915623Y-99226323D01*
X177806998Y-99488568D01*
X177649298Y-99724583D01*
X177448583Y-99925298D01*
X177212568Y-100082998D01*
X177058949Y-100146629D01*
X176950324Y-100191623D01*
X176811125Y-100219312D01*
X176671927Y-100247000D01*
X176388073Y-100247000D01*
X176248875Y-100219312D01*
X176109676Y-100191623D01*
X176001051Y-100146629D01*
X175847432Y-100082998D01*
X175611417Y-99925298D01*
X175410702Y-99724583D01*
X175253002Y-99488568D01*
X175144377Y-99226323D01*
X175089000Y-98947927D01*
X175089000Y-98664073D01*
X175144377Y-98385677D01*
X175159393Y-98349426D01*
X175206236Y-98236336D01*
X175253002Y-98123432D01*
X175410702Y-97887417D01*
X175611417Y-97686702D01*
X175847432Y-97529002D01*
X176001051Y-97465371D01*
X176109676Y-97420377D01*
X176304394Y-97381645D01*
X176388073Y-97365000D01*
X176671927Y-97365000D01*
X176755606Y-97381645D01*
G37*
G36*
X166835606Y-97381645D02*
G01*
X167030324Y-97420377D01*
X167138949Y-97465371D01*
X167292568Y-97529002D01*
X167528583Y-97686702D01*
X167729298Y-97887417D01*
X167886998Y-98123432D01*
X167933764Y-98236336D01*
X167980608Y-98349426D01*
X167995623Y-98385677D01*
X168051000Y-98664073D01*
X168051000Y-98947927D01*
X167995623Y-99226323D01*
X167886998Y-99488568D01*
X167729298Y-99724583D01*
X167528583Y-99925298D01*
X167292568Y-100082998D01*
X167138949Y-100146629D01*
X167030324Y-100191623D01*
X166891125Y-100219312D01*
X166751927Y-100247000D01*
X166468073Y-100247000D01*
X166328875Y-100219312D01*
X166189676Y-100191623D01*
X166081051Y-100146629D01*
X165927432Y-100082998D01*
X165691417Y-99925298D01*
X165490702Y-99724583D01*
X165333002Y-99488568D01*
X165224377Y-99226323D01*
X165169000Y-98947927D01*
X165169000Y-98664073D01*
X165224377Y-98385677D01*
X165239393Y-98349426D01*
X165286236Y-98236336D01*
X165333002Y-98123432D01*
X165490702Y-97887417D01*
X165691417Y-97686702D01*
X165927432Y-97529002D01*
X166081051Y-97465371D01*
X166189676Y-97420377D01*
X166384394Y-97381645D01*
X166468073Y-97365000D01*
X166751927Y-97365000D01*
X166835606Y-97381645D01*
G37*
G36*
X188323855Y-97338140D02*
G01*
X188387618Y-97344420D01*
X188478404Y-97371960D01*
X188510336Y-97381646D01*
X188623425Y-97442094D01*
X188722554Y-97523446D01*
X188803906Y-97622575D01*
X188864354Y-97735664D01*
X188864355Y-97735668D01*
X188901580Y-97858382D01*
X188914149Y-97986000D01*
X188901580Y-98113618D01*
X188874040Y-98204404D01*
X188864354Y-98236336D01*
X188803906Y-98349425D01*
X188722554Y-98448554D01*
X188623425Y-98529906D01*
X188510336Y-98590354D01*
X188478404Y-98600040D01*
X188387618Y-98627580D01*
X188323855Y-98633860D01*
X188291974Y-98637000D01*
X187628026Y-98637000D01*
X187596145Y-98633860D01*
X187532382Y-98627580D01*
X187441596Y-98600040D01*
X187409664Y-98590354D01*
X187296575Y-98529906D01*
X187197446Y-98448554D01*
X187116094Y-98349425D01*
X187055646Y-98236336D01*
X187045960Y-98204404D01*
X187018420Y-98113618D01*
X187005851Y-97986000D01*
X187018420Y-97858382D01*
X187055645Y-97735668D01*
X187055646Y-97735664D01*
X187116094Y-97622575D01*
X187197446Y-97523446D01*
X187296575Y-97442094D01*
X187409664Y-97381646D01*
X187441596Y-97371960D01*
X187532382Y-97344420D01*
X187596145Y-97338140D01*
X187628026Y-97335000D01*
X188291974Y-97335000D01*
X188323855Y-97338140D01*
G37*
G36*
X122283855Y-97338140D02*
G01*
X122347618Y-97344420D01*
X122438404Y-97371960D01*
X122470336Y-97381646D01*
X122583425Y-97442094D01*
X122682554Y-97523446D01*
X122763906Y-97622575D01*
X122824354Y-97735664D01*
X122824355Y-97735668D01*
X122861580Y-97858382D01*
X122874149Y-97986000D01*
X122861580Y-98113618D01*
X122834040Y-98204404D01*
X122824354Y-98236336D01*
X122763906Y-98349425D01*
X122682554Y-98448554D01*
X122583425Y-98529906D01*
X122470336Y-98590354D01*
X122438404Y-98600040D01*
X122347618Y-98627580D01*
X122283855Y-98633860D01*
X122251974Y-98637000D01*
X121588026Y-98637000D01*
X121556145Y-98633860D01*
X121492382Y-98627580D01*
X121401596Y-98600040D01*
X121369664Y-98590354D01*
X121256575Y-98529906D01*
X121157446Y-98448554D01*
X121076094Y-98349425D01*
X121015646Y-98236336D01*
X121005960Y-98204404D01*
X120978420Y-98113618D01*
X120965851Y-97986000D01*
X120978420Y-97858382D01*
X121015645Y-97735668D01*
X121015646Y-97735664D01*
X121076094Y-97622575D01*
X121157446Y-97523446D01*
X121256575Y-97442094D01*
X121369664Y-97381646D01*
X121401596Y-97371960D01*
X121492382Y-97344420D01*
X121556145Y-97338140D01*
X121588026Y-97335000D01*
X122251974Y-97335000D01*
X122283855Y-97338140D01*
G37*
G36*
X176811125Y-93992688D02*
G01*
X176950324Y-94020377D01*
X177058949Y-94065371D01*
X177212568Y-94129002D01*
X177448583Y-94286702D01*
X177649298Y-94487417D01*
X177806998Y-94723432D01*
X177915623Y-94985677D01*
X177971000Y-95264073D01*
X177971000Y-95547927D01*
X177915623Y-95826323D01*
X177806998Y-96088568D01*
X177649298Y-96324583D01*
X177448583Y-96525298D01*
X177212568Y-96682998D01*
X177058949Y-96746629D01*
X176950324Y-96791623D01*
X176811125Y-96819311D01*
X176671927Y-96847000D01*
X176388073Y-96847000D01*
X176248875Y-96819311D01*
X176109676Y-96791623D01*
X176001051Y-96746629D01*
X175847432Y-96682998D01*
X175611417Y-96525298D01*
X175410702Y-96324583D01*
X175253002Y-96088568D01*
X175144377Y-95826323D01*
X175089000Y-95547927D01*
X175089000Y-95264073D01*
X175144377Y-94985677D01*
X175253002Y-94723432D01*
X175410702Y-94487417D01*
X175611417Y-94286702D01*
X175847432Y-94129002D01*
X176001051Y-94065371D01*
X176109676Y-94020377D01*
X176248875Y-93992689D01*
X176388073Y-93965000D01*
X176671927Y-93965000D01*
X176811125Y-93992688D01*
G37*
G36*
X133631125Y-93992688D02*
G01*
X133770324Y-94020377D01*
X133878949Y-94065371D01*
X134032568Y-94129002D01*
X134268583Y-94286702D01*
X134469298Y-94487417D01*
X134626998Y-94723432D01*
X134735623Y-94985677D01*
X134791000Y-95264073D01*
X134791000Y-95547927D01*
X134735623Y-95826323D01*
X134626998Y-96088568D01*
X134469298Y-96324583D01*
X134268583Y-96525298D01*
X134032568Y-96682998D01*
X133878949Y-96746629D01*
X133770324Y-96791623D01*
X133631125Y-96819311D01*
X133491927Y-96847000D01*
X133208073Y-96847000D01*
X133068875Y-96819311D01*
X132929676Y-96791623D01*
X132821051Y-96746629D01*
X132667432Y-96682998D01*
X132431417Y-96525298D01*
X132230702Y-96324583D01*
X132073002Y-96088568D01*
X131964377Y-95826323D01*
X131909000Y-95547927D01*
X131909000Y-95264073D01*
X131964377Y-94985677D01*
X132073002Y-94723432D01*
X132230702Y-94487417D01*
X132431417Y-94286702D01*
X132667432Y-94129002D01*
X132821051Y-94065371D01*
X132929676Y-94020377D01*
X133068875Y-93992689D01*
X133208073Y-93965000D01*
X133491927Y-93965000D01*
X133631125Y-93992688D01*
G37*
G36*
X143551125Y-93992688D02*
G01*
X143690324Y-94020377D01*
X143798949Y-94065371D01*
X143952568Y-94129002D01*
X144188583Y-94286702D01*
X144389298Y-94487417D01*
X144546998Y-94723432D01*
X144655623Y-94985677D01*
X144711000Y-95264073D01*
X144711000Y-95547927D01*
X144655623Y-95826323D01*
X144546998Y-96088568D01*
X144389298Y-96324583D01*
X144188583Y-96525298D01*
X143952568Y-96682998D01*
X143798949Y-96746629D01*
X143690324Y-96791623D01*
X143551125Y-96819311D01*
X143411927Y-96847000D01*
X143128073Y-96847000D01*
X142988875Y-96819311D01*
X142849676Y-96791623D01*
X142741051Y-96746629D01*
X142587432Y-96682998D01*
X142351417Y-96525298D01*
X142150702Y-96324583D01*
X141993002Y-96088568D01*
X141884377Y-95826323D01*
X141829000Y-95547927D01*
X141829000Y-95264073D01*
X141884377Y-94985677D01*
X141993002Y-94723432D01*
X142150702Y-94487417D01*
X142351417Y-94286702D01*
X142587432Y-94129002D01*
X142741051Y-94065371D01*
X142849676Y-94020377D01*
X142988875Y-93992689D01*
X143128073Y-93965000D01*
X143411927Y-93965000D01*
X143551125Y-93992688D01*
G37*
G36*
X166891125Y-93992688D02*
G01*
X167030324Y-94020377D01*
X167138949Y-94065371D01*
X167292568Y-94129002D01*
X167528583Y-94286702D01*
X167729298Y-94487417D01*
X167886998Y-94723432D01*
X167995623Y-94985677D01*
X168051000Y-95264073D01*
X168051000Y-95547927D01*
X167995623Y-95826323D01*
X167886998Y-96088568D01*
X167729298Y-96324583D01*
X167528583Y-96525298D01*
X167292568Y-96682998D01*
X167138949Y-96746629D01*
X167030324Y-96791623D01*
X166891125Y-96819311D01*
X166751927Y-96847000D01*
X166468073Y-96847000D01*
X166328875Y-96819311D01*
X166189676Y-96791623D01*
X166081051Y-96746629D01*
X165927432Y-96682998D01*
X165691417Y-96525298D01*
X165490702Y-96324583D01*
X165333002Y-96088568D01*
X165224377Y-95826323D01*
X165169000Y-95547927D01*
X165169000Y-95264073D01*
X165224377Y-94985677D01*
X165333002Y-94723432D01*
X165490702Y-94487417D01*
X165691417Y-94286702D01*
X165927432Y-94129002D01*
X166081051Y-94065371D01*
X166189676Y-94020377D01*
X166328875Y-93992689D01*
X166468073Y-93965000D01*
X166751927Y-93965000D01*
X166891125Y-93992688D01*
G37*
G36*
X122711242Y-95339404D02*
G01*
X122748337Y-95350657D01*
X122782515Y-95368925D01*
X122812481Y-95393519D01*
X122837075Y-95423485D01*
X122855343Y-95457663D01*
X122866596Y-95494758D01*
X122871000Y-95539474D01*
X122871000Y-96432526D01*
X122866596Y-96477242D01*
X122855343Y-96514337D01*
X122837075Y-96548515D01*
X122812481Y-96578481D01*
X122782515Y-96603075D01*
X122748337Y-96621343D01*
X122711242Y-96632596D01*
X122666526Y-96637000D01*
X121173474Y-96637000D01*
X121128758Y-96632596D01*
X121091663Y-96621343D01*
X121057485Y-96603075D01*
X121027519Y-96578481D01*
X121002925Y-96548515D01*
X120984657Y-96514337D01*
X120973404Y-96477242D01*
X120969000Y-96432526D01*
X120969000Y-95539474D01*
X120973404Y-95494758D01*
X120984657Y-95457663D01*
X121002925Y-95423485D01*
X121027519Y-95393519D01*
X121057485Y-95368925D01*
X121091663Y-95350657D01*
X121128758Y-95339404D01*
X121173474Y-95335000D01*
X122666526Y-95335000D01*
X122711242Y-95339404D01*
G37*
G36*
X188751242Y-95339404D02*
G01*
X188788337Y-95350657D01*
X188822515Y-95368925D01*
X188852481Y-95393519D01*
X188877075Y-95423485D01*
X188895343Y-95457663D01*
X188906596Y-95494758D01*
X188911000Y-95539474D01*
X188911000Y-96432526D01*
X188906596Y-96477242D01*
X188895343Y-96514337D01*
X188877075Y-96548515D01*
X188852481Y-96578481D01*
X188822515Y-96603075D01*
X188788337Y-96621343D01*
X188751242Y-96632596D01*
X188706526Y-96637000D01*
X187213474Y-96637000D01*
X187168758Y-96632596D01*
X187131663Y-96621343D01*
X187097485Y-96603075D01*
X187067519Y-96578481D01*
X187042925Y-96548515D01*
X187024657Y-96514337D01*
X187013404Y-96477242D01*
X187009000Y-96432526D01*
X187009000Y-95539474D01*
X187013404Y-95494758D01*
X187024657Y-95457663D01*
X187042925Y-95423485D01*
X187067519Y-95393519D01*
X187097485Y-95368925D01*
X187131663Y-95350657D01*
X187168758Y-95339404D01*
X187213474Y-95335000D01*
X188706526Y-95335000D01*
X188751242Y-95339404D01*
G37*
G36*
X166835606Y-85443645D02*
G01*
X167030324Y-85482377D01*
X167138949Y-85527371D01*
X167292568Y-85591002D01*
X167528583Y-85748702D01*
X167729298Y-85949417D01*
X167886998Y-86185432D01*
X167933764Y-86298336D01*
X167980608Y-86411426D01*
X167995623Y-86447677D01*
X168051000Y-86726073D01*
X168051000Y-87009927D01*
X167995623Y-87288323D01*
X167886998Y-87550568D01*
X167729298Y-87786583D01*
X167528583Y-87987298D01*
X167292568Y-88144998D01*
X167138949Y-88208629D01*
X167030324Y-88253623D01*
X166891125Y-88281311D01*
X166751927Y-88309000D01*
X166468073Y-88309000D01*
X166328875Y-88281312D01*
X166189676Y-88253623D01*
X166081051Y-88208629D01*
X165927432Y-88144998D01*
X165691417Y-87987298D01*
X165490702Y-87786583D01*
X165333002Y-87550568D01*
X165224377Y-87288323D01*
X165169000Y-87009927D01*
X165169000Y-86726073D01*
X165224377Y-86447677D01*
X165239393Y-86411426D01*
X165286236Y-86298336D01*
X165333002Y-86185432D01*
X165490702Y-85949417D01*
X165691417Y-85748702D01*
X165927432Y-85591002D01*
X166081051Y-85527371D01*
X166189676Y-85482377D01*
X166384394Y-85443645D01*
X166468073Y-85427000D01*
X166751927Y-85427000D01*
X166835606Y-85443645D01*
G37*
G36*
X133575606Y-85443645D02*
G01*
X133770324Y-85482377D01*
X133878949Y-85527371D01*
X134032568Y-85591002D01*
X134268583Y-85748702D01*
X134469298Y-85949417D01*
X134626998Y-86185432D01*
X134673764Y-86298336D01*
X134720608Y-86411426D01*
X134735623Y-86447677D01*
X134791000Y-86726073D01*
X134791000Y-87009927D01*
X134735623Y-87288323D01*
X134626998Y-87550568D01*
X134469298Y-87786583D01*
X134268583Y-87987298D01*
X134032568Y-88144998D01*
X133878949Y-88208629D01*
X133770324Y-88253623D01*
X133631125Y-88281311D01*
X133491927Y-88309000D01*
X133208073Y-88309000D01*
X133068875Y-88281312D01*
X132929676Y-88253623D01*
X132821051Y-88208629D01*
X132667432Y-88144998D01*
X132431417Y-87987298D01*
X132230702Y-87786583D01*
X132073002Y-87550568D01*
X131964377Y-87288323D01*
X131909000Y-87009927D01*
X131909000Y-86726073D01*
X131964377Y-86447677D01*
X131979393Y-86411426D01*
X132026236Y-86298336D01*
X132073002Y-86185432D01*
X132230702Y-85949417D01*
X132431417Y-85748702D01*
X132667432Y-85591002D01*
X132821051Y-85527371D01*
X132929676Y-85482377D01*
X133124394Y-85443645D01*
X133208073Y-85427000D01*
X133491927Y-85427000D01*
X133575606Y-85443645D01*
G37*
G36*
X143495606Y-85443645D02*
G01*
X143690324Y-85482377D01*
X143798949Y-85527371D01*
X143952568Y-85591002D01*
X144188583Y-85748702D01*
X144389298Y-85949417D01*
X144546998Y-86185432D01*
X144593764Y-86298336D01*
X144640608Y-86411426D01*
X144655623Y-86447677D01*
X144711000Y-86726073D01*
X144711000Y-87009927D01*
X144655623Y-87288323D01*
X144546998Y-87550568D01*
X144389298Y-87786583D01*
X144188583Y-87987298D01*
X143952568Y-88144998D01*
X143798949Y-88208629D01*
X143690324Y-88253623D01*
X143551125Y-88281311D01*
X143411927Y-88309000D01*
X143128073Y-88309000D01*
X142988875Y-88281312D01*
X142849676Y-88253623D01*
X142741051Y-88208629D01*
X142587432Y-88144998D01*
X142351417Y-87987298D01*
X142150702Y-87786583D01*
X141993002Y-87550568D01*
X141884377Y-87288323D01*
X141829000Y-87009927D01*
X141829000Y-86726073D01*
X141884377Y-86447677D01*
X141899393Y-86411426D01*
X141946236Y-86298336D01*
X141993002Y-86185432D01*
X142150702Y-85949417D01*
X142351417Y-85748702D01*
X142587432Y-85591002D01*
X142741051Y-85527371D01*
X142849676Y-85482377D01*
X143044394Y-85443645D01*
X143128073Y-85427000D01*
X143411927Y-85427000D01*
X143495606Y-85443645D01*
G37*
G36*
X176755606Y-85443645D02*
G01*
X176950324Y-85482377D01*
X177058949Y-85527371D01*
X177212568Y-85591002D01*
X177448583Y-85748702D01*
X177649298Y-85949417D01*
X177806998Y-86185432D01*
X177853764Y-86298336D01*
X177900608Y-86411426D01*
X177915623Y-86447677D01*
X177971000Y-86726073D01*
X177971000Y-87009927D01*
X177915623Y-87288323D01*
X177806998Y-87550568D01*
X177649298Y-87786583D01*
X177448583Y-87987298D01*
X177212568Y-88144998D01*
X177058949Y-88208629D01*
X176950324Y-88253623D01*
X176811125Y-88281311D01*
X176671927Y-88309000D01*
X176388073Y-88309000D01*
X176248875Y-88281312D01*
X176109676Y-88253623D01*
X176001051Y-88208629D01*
X175847432Y-88144998D01*
X175611417Y-87987298D01*
X175410702Y-87786583D01*
X175253002Y-87550568D01*
X175144377Y-87288323D01*
X175089000Y-87009927D01*
X175089000Y-86726073D01*
X175144377Y-86447677D01*
X175159393Y-86411426D01*
X175206236Y-86298336D01*
X175253002Y-86185432D01*
X175410702Y-85949417D01*
X175611417Y-85748702D01*
X175847432Y-85591002D01*
X176001051Y-85527371D01*
X176109676Y-85482377D01*
X176304394Y-85443645D01*
X176388073Y-85427000D01*
X176671927Y-85427000D01*
X176755606Y-85443645D01*
G37*
G36*
X122283855Y-85400140D02*
G01*
X122347618Y-85406420D01*
X122438404Y-85433960D01*
X122470336Y-85443646D01*
X122583425Y-85504094D01*
X122682554Y-85585446D01*
X122763906Y-85684575D01*
X122824354Y-85797664D01*
X122824355Y-85797668D01*
X122861580Y-85920382D01*
X122874149Y-86048000D01*
X122861580Y-86175618D01*
X122834040Y-86266404D01*
X122824354Y-86298336D01*
X122763906Y-86411425D01*
X122682554Y-86510554D01*
X122583425Y-86591906D01*
X122470336Y-86652354D01*
X122438404Y-86662040D01*
X122347618Y-86689580D01*
X122283855Y-86695860D01*
X122251974Y-86699000D01*
X121588026Y-86699000D01*
X121556145Y-86695860D01*
X121492382Y-86689580D01*
X121401596Y-86662040D01*
X121369664Y-86652354D01*
X121256575Y-86591906D01*
X121157446Y-86510554D01*
X121076094Y-86411425D01*
X121015646Y-86298336D01*
X121005960Y-86266404D01*
X120978420Y-86175618D01*
X120965851Y-86048000D01*
X120978420Y-85920382D01*
X121015645Y-85797668D01*
X121015646Y-85797664D01*
X121076094Y-85684575D01*
X121157446Y-85585446D01*
X121256575Y-85504094D01*
X121369664Y-85443646D01*
X121401596Y-85433960D01*
X121492382Y-85406420D01*
X121556145Y-85400140D01*
X121588026Y-85397000D01*
X122251974Y-85397000D01*
X122283855Y-85400140D01*
G37*
G36*
X188323855Y-85400140D02*
G01*
X188387618Y-85406420D01*
X188478404Y-85433960D01*
X188510336Y-85443646D01*
X188623425Y-85504094D01*
X188722554Y-85585446D01*
X188803906Y-85684575D01*
X188864354Y-85797664D01*
X188864355Y-85797668D01*
X188901580Y-85920382D01*
X188914149Y-86048000D01*
X188901580Y-86175618D01*
X188874040Y-86266404D01*
X188864354Y-86298336D01*
X188803906Y-86411425D01*
X188722554Y-86510554D01*
X188623425Y-86591906D01*
X188510336Y-86652354D01*
X188478404Y-86662040D01*
X188387618Y-86689580D01*
X188323855Y-86695860D01*
X188291974Y-86699000D01*
X187628026Y-86699000D01*
X187596145Y-86695860D01*
X187532382Y-86689580D01*
X187441596Y-86662040D01*
X187409664Y-86652354D01*
X187296575Y-86591906D01*
X187197446Y-86510554D01*
X187116094Y-86411425D01*
X187055646Y-86298336D01*
X187045960Y-86266404D01*
X187018420Y-86175618D01*
X187005851Y-86048000D01*
X187018420Y-85920382D01*
X187055645Y-85797668D01*
X187055646Y-85797664D01*
X187116094Y-85684575D01*
X187197446Y-85585446D01*
X187296575Y-85504094D01*
X187409664Y-85443646D01*
X187441596Y-85433960D01*
X187532382Y-85406420D01*
X187596145Y-85400140D01*
X187628026Y-85397000D01*
X188291974Y-85397000D01*
X188323855Y-85400140D01*
G37*
G36*
X133631125Y-82054688D02*
G01*
X133770324Y-82082377D01*
X133878949Y-82127371D01*
X134032568Y-82191002D01*
X134268583Y-82348702D01*
X134469298Y-82549417D01*
X134626998Y-82785432D01*
X134735623Y-83047677D01*
X134791000Y-83326073D01*
X134791000Y-83609927D01*
X134735623Y-83888323D01*
X134626998Y-84150568D01*
X134469298Y-84386583D01*
X134268583Y-84587298D01*
X134032568Y-84744998D01*
X133878949Y-84808629D01*
X133770324Y-84853623D01*
X133631125Y-84881312D01*
X133491927Y-84909000D01*
X133208073Y-84909000D01*
X133068875Y-84881312D01*
X132929676Y-84853623D01*
X132821051Y-84808629D01*
X132667432Y-84744998D01*
X132431417Y-84587298D01*
X132230702Y-84386583D01*
X132073002Y-84150568D01*
X131964377Y-83888323D01*
X131909000Y-83609927D01*
X131909000Y-83326073D01*
X131964377Y-83047677D01*
X132073002Y-82785432D01*
X132230702Y-82549417D01*
X132431417Y-82348702D01*
X132667432Y-82191002D01*
X132821051Y-82127371D01*
X132929676Y-82082377D01*
X133068875Y-82054688D01*
X133208073Y-82027000D01*
X133491927Y-82027000D01*
X133631125Y-82054688D01*
G37*
G36*
X143551125Y-82054688D02*
G01*
X143690324Y-82082377D01*
X143798949Y-82127371D01*
X143952568Y-82191002D01*
X144188583Y-82348702D01*
X144389298Y-82549417D01*
X144546998Y-82785432D01*
X144655623Y-83047677D01*
X144711000Y-83326073D01*
X144711000Y-83609927D01*
X144655623Y-83888323D01*
X144546998Y-84150568D01*
X144389298Y-84386583D01*
X144188583Y-84587298D01*
X143952568Y-84744998D01*
X143798949Y-84808629D01*
X143690324Y-84853623D01*
X143551125Y-84881312D01*
X143411927Y-84909000D01*
X143128073Y-84909000D01*
X142988875Y-84881312D01*
X142849676Y-84853623D01*
X142741051Y-84808629D01*
X142587432Y-84744998D01*
X142351417Y-84587298D01*
X142150702Y-84386583D01*
X141993002Y-84150568D01*
X141884377Y-83888323D01*
X141829000Y-83609927D01*
X141829000Y-83326073D01*
X141884377Y-83047677D01*
X141993002Y-82785432D01*
X142150702Y-82549417D01*
X142351417Y-82348702D01*
X142587432Y-82191002D01*
X142741051Y-82127371D01*
X142849676Y-82082377D01*
X142988875Y-82054688D01*
X143128073Y-82027000D01*
X143411927Y-82027000D01*
X143551125Y-82054688D01*
G37*
G36*
X166891125Y-82054688D02*
G01*
X167030324Y-82082377D01*
X167138949Y-82127371D01*
X167292568Y-82191002D01*
X167528583Y-82348702D01*
X167729298Y-82549417D01*
X167886998Y-82785432D01*
X167995623Y-83047677D01*
X168051000Y-83326073D01*
X168051000Y-83609927D01*
X167995623Y-83888323D01*
X167886998Y-84150568D01*
X167729298Y-84386583D01*
X167528583Y-84587298D01*
X167292568Y-84744998D01*
X167138949Y-84808629D01*
X167030324Y-84853623D01*
X166891125Y-84881312D01*
X166751927Y-84909000D01*
X166468073Y-84909000D01*
X166328875Y-84881312D01*
X166189676Y-84853623D01*
X166081051Y-84808629D01*
X165927432Y-84744998D01*
X165691417Y-84587298D01*
X165490702Y-84386583D01*
X165333002Y-84150568D01*
X165224377Y-83888323D01*
X165169000Y-83609927D01*
X165169000Y-83326073D01*
X165224377Y-83047677D01*
X165333002Y-82785432D01*
X165490702Y-82549417D01*
X165691417Y-82348702D01*
X165927432Y-82191002D01*
X166081051Y-82127371D01*
X166189676Y-82082377D01*
X166328875Y-82054688D01*
X166468073Y-82027000D01*
X166751927Y-82027000D01*
X166891125Y-82054688D01*
G37*
G36*
X176811125Y-82054688D02*
G01*
X176950324Y-82082377D01*
X177058949Y-82127371D01*
X177212568Y-82191002D01*
X177448583Y-82348702D01*
X177649298Y-82549417D01*
X177806998Y-82785432D01*
X177915623Y-83047677D01*
X177971000Y-83326073D01*
X177971000Y-83609927D01*
X177915623Y-83888323D01*
X177806998Y-84150568D01*
X177649298Y-84386583D01*
X177448583Y-84587298D01*
X177212568Y-84744998D01*
X177058949Y-84808629D01*
X176950324Y-84853623D01*
X176811125Y-84881312D01*
X176671927Y-84909000D01*
X176388073Y-84909000D01*
X176248875Y-84881312D01*
X176109676Y-84853623D01*
X176001051Y-84808629D01*
X175847432Y-84744998D01*
X175611417Y-84587298D01*
X175410702Y-84386583D01*
X175253002Y-84150568D01*
X175144377Y-83888323D01*
X175089000Y-83609927D01*
X175089000Y-83326073D01*
X175144377Y-83047677D01*
X175253002Y-82785432D01*
X175410702Y-82549417D01*
X175611417Y-82348702D01*
X175847432Y-82191002D01*
X176001051Y-82127371D01*
X176109676Y-82082377D01*
X176248875Y-82054688D01*
X176388073Y-82027000D01*
X176671927Y-82027000D01*
X176811125Y-82054688D01*
G37*
G36*
X188751242Y-83401404D02*
G01*
X188788337Y-83412657D01*
X188822515Y-83430925D01*
X188852481Y-83455519D01*
X188877075Y-83485485D01*
X188895343Y-83519663D01*
X188906596Y-83556758D01*
X188911000Y-83601474D01*
X188911000Y-84494526D01*
X188906596Y-84539242D01*
X188895343Y-84576337D01*
X188877075Y-84610515D01*
X188852481Y-84640481D01*
X188822515Y-84665075D01*
X188788337Y-84683343D01*
X188751242Y-84694596D01*
X188706526Y-84699000D01*
X187213474Y-84699000D01*
X187168758Y-84694596D01*
X187131663Y-84683343D01*
X187097485Y-84665075D01*
X187067519Y-84640481D01*
X187042925Y-84610515D01*
X187024657Y-84576337D01*
X187013404Y-84539242D01*
X187009000Y-84494526D01*
X187009000Y-83601474D01*
X187013404Y-83556758D01*
X187024657Y-83519663D01*
X187042925Y-83485485D01*
X187067519Y-83455519D01*
X187097485Y-83430925D01*
X187131663Y-83412657D01*
X187168758Y-83401404D01*
X187213474Y-83397000D01*
X188706526Y-83397000D01*
X188751242Y-83401404D01*
G37*
G36*
X122711242Y-83401404D02*
G01*
X122748337Y-83412657D01*
X122782515Y-83430925D01*
X122812481Y-83455519D01*
X122837075Y-83485485D01*
X122855343Y-83519663D01*
X122866596Y-83556758D01*
X122871000Y-83601474D01*
X122871000Y-84494526D01*
X122866596Y-84539242D01*
X122855343Y-84576337D01*
X122837075Y-84610515D01*
X122812481Y-84640481D01*
X122782515Y-84665075D01*
X122748337Y-84683343D01*
X122711242Y-84694596D01*
X122666526Y-84699000D01*
X121173474Y-84699000D01*
X121128758Y-84694596D01*
X121091663Y-84683343D01*
X121057485Y-84665075D01*
X121027519Y-84640481D01*
X121002925Y-84610515D01*
X120984657Y-84576337D01*
X120973404Y-84539242D01*
X120969000Y-84494526D01*
X120969000Y-83601474D01*
X120973404Y-83556758D01*
X120984657Y-83519663D01*
X121002925Y-83485485D01*
X121027519Y-83455519D01*
X121057485Y-83430925D01*
X121091663Y-83412657D01*
X121128758Y-83401404D01*
X121173474Y-83397000D01*
X122666526Y-83397000D01*
X122711242Y-83401404D01*
G37*
G36*
X133575606Y-73505645D02*
G01*
X133770324Y-73544377D01*
X133878949Y-73589371D01*
X134032568Y-73653002D01*
X134268583Y-73810702D01*
X134469298Y-74011417D01*
X134626998Y-74247432D01*
X134673764Y-74360336D01*
X134720608Y-74473426D01*
X134735623Y-74509677D01*
X134791000Y-74788073D01*
X134791000Y-75071927D01*
X134735623Y-75350323D01*
X134626998Y-75612568D01*
X134469298Y-75848583D01*
X134268583Y-76049298D01*
X134032568Y-76206998D01*
X133878949Y-76270629D01*
X133770324Y-76315623D01*
X133631125Y-76343311D01*
X133491927Y-76371000D01*
X133208073Y-76371000D01*
X133068875Y-76343311D01*
X132929676Y-76315623D01*
X132821051Y-76270629D01*
X132667432Y-76206998D01*
X132431417Y-76049298D01*
X132230702Y-75848583D01*
X132073002Y-75612568D01*
X131964377Y-75350323D01*
X131909000Y-75071927D01*
X131909000Y-74788073D01*
X131964377Y-74509677D01*
X131979393Y-74473426D01*
X132026236Y-74360336D01*
X132073002Y-74247432D01*
X132230702Y-74011417D01*
X132431417Y-73810702D01*
X132667432Y-73653002D01*
X132821051Y-73589371D01*
X132929676Y-73544377D01*
X133124394Y-73505645D01*
X133208073Y-73489000D01*
X133491927Y-73489000D01*
X133575606Y-73505645D01*
G37*
G36*
X166835606Y-73505645D02*
G01*
X167030324Y-73544377D01*
X167138949Y-73589371D01*
X167292568Y-73653002D01*
X167528583Y-73810702D01*
X167729298Y-74011417D01*
X167886998Y-74247432D01*
X167933764Y-74360336D01*
X167980608Y-74473426D01*
X167995623Y-74509677D01*
X168051000Y-74788073D01*
X168051000Y-75071927D01*
X167995623Y-75350323D01*
X167886998Y-75612568D01*
X167729298Y-75848583D01*
X167528583Y-76049298D01*
X167292568Y-76206998D01*
X167138949Y-76270629D01*
X167030324Y-76315623D01*
X166891125Y-76343311D01*
X166751927Y-76371000D01*
X166468073Y-76371000D01*
X166328875Y-76343311D01*
X166189676Y-76315623D01*
X166081051Y-76270629D01*
X165927432Y-76206998D01*
X165691417Y-76049298D01*
X165490702Y-75848583D01*
X165333002Y-75612568D01*
X165224377Y-75350323D01*
X165169000Y-75071927D01*
X165169000Y-74788073D01*
X165224377Y-74509677D01*
X165239393Y-74473426D01*
X165286236Y-74360336D01*
X165333002Y-74247432D01*
X165490702Y-74011417D01*
X165691417Y-73810702D01*
X165927432Y-73653002D01*
X166081051Y-73589371D01*
X166189676Y-73544377D01*
X166384394Y-73505645D01*
X166468073Y-73489000D01*
X166751927Y-73489000D01*
X166835606Y-73505645D01*
G37*
G36*
X176755606Y-73505645D02*
G01*
X176950324Y-73544377D01*
X177058949Y-73589371D01*
X177212568Y-73653002D01*
X177448583Y-73810702D01*
X177649298Y-74011417D01*
X177806998Y-74247432D01*
X177853764Y-74360336D01*
X177900608Y-74473426D01*
X177915623Y-74509677D01*
X177971000Y-74788073D01*
X177971000Y-75071927D01*
X177915623Y-75350323D01*
X177806998Y-75612568D01*
X177649298Y-75848583D01*
X177448583Y-76049298D01*
X177212568Y-76206998D01*
X177058949Y-76270629D01*
X176950324Y-76315623D01*
X176811125Y-76343311D01*
X176671927Y-76371000D01*
X176388073Y-76371000D01*
X176248875Y-76343311D01*
X176109676Y-76315623D01*
X176001051Y-76270629D01*
X175847432Y-76206998D01*
X175611417Y-76049298D01*
X175410702Y-75848583D01*
X175253002Y-75612568D01*
X175144377Y-75350323D01*
X175089000Y-75071927D01*
X175089000Y-74788073D01*
X175144377Y-74509677D01*
X175159393Y-74473426D01*
X175206236Y-74360336D01*
X175253002Y-74247432D01*
X175410702Y-74011417D01*
X175611417Y-73810702D01*
X175847432Y-73653002D01*
X176001051Y-73589371D01*
X176109676Y-73544377D01*
X176304394Y-73505645D01*
X176388073Y-73489000D01*
X176671927Y-73489000D01*
X176755606Y-73505645D01*
G37*
G36*
X143495606Y-73505645D02*
G01*
X143690324Y-73544377D01*
X143798949Y-73589371D01*
X143952568Y-73653002D01*
X144188583Y-73810702D01*
X144389298Y-74011417D01*
X144546998Y-74247432D01*
X144593764Y-74360336D01*
X144640608Y-74473426D01*
X144655623Y-74509677D01*
X144711000Y-74788073D01*
X144711000Y-75071927D01*
X144655623Y-75350323D01*
X144546998Y-75612568D01*
X144389298Y-75848583D01*
X144188583Y-76049298D01*
X143952568Y-76206998D01*
X143798949Y-76270629D01*
X143690324Y-76315623D01*
X143551125Y-76343311D01*
X143411927Y-76371000D01*
X143128073Y-76371000D01*
X142988875Y-76343311D01*
X142849676Y-76315623D01*
X142741051Y-76270629D01*
X142587432Y-76206998D01*
X142351417Y-76049298D01*
X142150702Y-75848583D01*
X141993002Y-75612568D01*
X141884377Y-75350323D01*
X141829000Y-75071927D01*
X141829000Y-74788073D01*
X141884377Y-74509677D01*
X141899393Y-74473426D01*
X141946236Y-74360336D01*
X141993002Y-74247432D01*
X142150702Y-74011417D01*
X142351417Y-73810702D01*
X142587432Y-73653002D01*
X142741051Y-73589371D01*
X142849676Y-73544377D01*
X143044394Y-73505645D01*
X143128073Y-73489000D01*
X143411927Y-73489000D01*
X143495606Y-73505645D01*
G37*
G36*
X122283855Y-73462140D02*
G01*
X122347618Y-73468420D01*
X122438404Y-73495960D01*
X122470336Y-73505646D01*
X122583425Y-73566094D01*
X122682554Y-73647446D01*
X122763906Y-73746575D01*
X122824354Y-73859664D01*
X122824355Y-73859668D01*
X122861580Y-73982382D01*
X122874149Y-74110000D01*
X122861580Y-74237618D01*
X122834040Y-74328404D01*
X122824354Y-74360336D01*
X122763906Y-74473425D01*
X122682554Y-74572554D01*
X122583425Y-74653906D01*
X122470336Y-74714354D01*
X122438404Y-74724040D01*
X122347618Y-74751580D01*
X122283855Y-74757860D01*
X122251974Y-74761000D01*
X121588026Y-74761000D01*
X121556145Y-74757860D01*
X121492382Y-74751580D01*
X121401596Y-74724040D01*
X121369664Y-74714354D01*
X121256575Y-74653906D01*
X121157446Y-74572554D01*
X121076094Y-74473425D01*
X121015646Y-74360336D01*
X121005960Y-74328404D01*
X120978420Y-74237618D01*
X120965851Y-74110000D01*
X120978420Y-73982382D01*
X121015645Y-73859668D01*
X121015646Y-73859664D01*
X121076094Y-73746575D01*
X121157446Y-73647446D01*
X121256575Y-73566094D01*
X121369664Y-73505646D01*
X121401596Y-73495960D01*
X121492382Y-73468420D01*
X121556145Y-73462140D01*
X121588026Y-73459000D01*
X122251974Y-73459000D01*
X122283855Y-73462140D01*
G37*
G36*
X188323855Y-73462140D02*
G01*
X188387618Y-73468420D01*
X188478404Y-73495960D01*
X188510336Y-73505646D01*
X188623425Y-73566094D01*
X188722554Y-73647446D01*
X188803906Y-73746575D01*
X188864354Y-73859664D01*
X188864355Y-73859668D01*
X188901580Y-73982382D01*
X188914149Y-74110000D01*
X188901580Y-74237618D01*
X188874040Y-74328404D01*
X188864354Y-74360336D01*
X188803906Y-74473425D01*
X188722554Y-74572554D01*
X188623425Y-74653906D01*
X188510336Y-74714354D01*
X188478404Y-74724040D01*
X188387618Y-74751580D01*
X188323855Y-74757860D01*
X188291974Y-74761000D01*
X187628026Y-74761000D01*
X187596145Y-74757860D01*
X187532382Y-74751580D01*
X187441596Y-74724040D01*
X187409664Y-74714354D01*
X187296575Y-74653906D01*
X187197446Y-74572554D01*
X187116094Y-74473425D01*
X187055646Y-74360336D01*
X187045960Y-74328404D01*
X187018420Y-74237618D01*
X187005851Y-74110000D01*
X187018420Y-73982382D01*
X187055645Y-73859668D01*
X187055646Y-73859664D01*
X187116094Y-73746575D01*
X187197446Y-73647446D01*
X187296575Y-73566094D01*
X187409664Y-73505646D01*
X187441596Y-73495960D01*
X187532382Y-73468420D01*
X187596145Y-73462140D01*
X187628026Y-73459000D01*
X188291974Y-73459000D01*
X188323855Y-73462140D01*
G37*
G36*
X176811125Y-70116689D02*
G01*
X176950324Y-70144377D01*
X177058949Y-70189371D01*
X177212568Y-70253002D01*
X177448583Y-70410702D01*
X177649298Y-70611417D01*
X177806998Y-70847432D01*
X177915623Y-71109677D01*
X177971000Y-71388073D01*
X177971000Y-71671927D01*
X177915623Y-71950323D01*
X177806998Y-72212568D01*
X177649298Y-72448583D01*
X177448583Y-72649298D01*
X177212568Y-72806998D01*
X177058949Y-72870629D01*
X176950324Y-72915623D01*
X176811125Y-72943311D01*
X176671927Y-72971000D01*
X176388073Y-72971000D01*
X176248875Y-72943311D01*
X176109676Y-72915623D01*
X176001051Y-72870629D01*
X175847432Y-72806998D01*
X175611417Y-72649298D01*
X175410702Y-72448583D01*
X175253002Y-72212568D01*
X175144377Y-71950323D01*
X175089000Y-71671927D01*
X175089000Y-71388073D01*
X175144377Y-71109677D01*
X175253002Y-70847432D01*
X175410702Y-70611417D01*
X175611417Y-70410702D01*
X175847432Y-70253002D01*
X176001051Y-70189371D01*
X176109676Y-70144377D01*
X176248875Y-70116689D01*
X176388073Y-70089000D01*
X176671927Y-70089000D01*
X176811125Y-70116689D01*
G37*
G36*
X133631125Y-70116689D02*
G01*
X133770324Y-70144377D01*
X133878949Y-70189371D01*
X134032568Y-70253002D01*
X134268583Y-70410702D01*
X134469298Y-70611417D01*
X134626998Y-70847432D01*
X134735623Y-71109677D01*
X134791000Y-71388073D01*
X134791000Y-71671927D01*
X134735623Y-71950323D01*
X134626998Y-72212568D01*
X134469298Y-72448583D01*
X134268583Y-72649298D01*
X134032568Y-72806998D01*
X133878949Y-72870629D01*
X133770324Y-72915623D01*
X133631125Y-72943311D01*
X133491927Y-72971000D01*
X133208073Y-72971000D01*
X133068875Y-72943311D01*
X132929676Y-72915623D01*
X132821051Y-72870629D01*
X132667432Y-72806998D01*
X132431417Y-72649298D01*
X132230702Y-72448583D01*
X132073002Y-72212568D01*
X131964377Y-71950323D01*
X131909000Y-71671927D01*
X131909000Y-71388073D01*
X131964377Y-71109677D01*
X132073002Y-70847432D01*
X132230702Y-70611417D01*
X132431417Y-70410702D01*
X132667432Y-70253002D01*
X132821051Y-70189371D01*
X132929676Y-70144377D01*
X133068875Y-70116689D01*
X133208073Y-70089000D01*
X133491927Y-70089000D01*
X133631125Y-70116689D01*
G37*
G36*
X143551125Y-70116689D02*
G01*
X143690324Y-70144377D01*
X143798949Y-70189371D01*
X143952568Y-70253002D01*
X144188583Y-70410702D01*
X144389298Y-70611417D01*
X144546998Y-70847432D01*
X144655623Y-71109677D01*
X144711000Y-71388073D01*
X144711000Y-71671927D01*
X144655623Y-71950323D01*
X144546998Y-72212568D01*
X144389298Y-72448583D01*
X144188583Y-72649298D01*
X143952568Y-72806998D01*
X143798949Y-72870629D01*
X143690324Y-72915623D01*
X143551125Y-72943311D01*
X143411927Y-72971000D01*
X143128073Y-72971000D01*
X142988875Y-72943311D01*
X142849676Y-72915623D01*
X142741051Y-72870629D01*
X142587432Y-72806998D01*
X142351417Y-72649298D01*
X142150702Y-72448583D01*
X141993002Y-72212568D01*
X141884377Y-71950323D01*
X141829000Y-71671927D01*
X141829000Y-71388073D01*
X141884377Y-71109677D01*
X141993002Y-70847432D01*
X142150702Y-70611417D01*
X142351417Y-70410702D01*
X142587432Y-70253002D01*
X142741051Y-70189371D01*
X142849676Y-70144377D01*
X142988875Y-70116689D01*
X143128073Y-70089000D01*
X143411927Y-70089000D01*
X143551125Y-70116689D01*
G37*
G36*
X166891125Y-70116689D02*
G01*
X167030324Y-70144377D01*
X167138949Y-70189371D01*
X167292568Y-70253002D01*
X167528583Y-70410702D01*
X167729298Y-70611417D01*
X167886998Y-70847432D01*
X167995623Y-71109677D01*
X168051000Y-71388073D01*
X168051000Y-71671927D01*
X167995623Y-71950323D01*
X167886998Y-72212568D01*
X167729298Y-72448583D01*
X167528583Y-72649298D01*
X167292568Y-72806998D01*
X167138949Y-72870629D01*
X167030324Y-72915623D01*
X166891125Y-72943311D01*
X166751927Y-72971000D01*
X166468073Y-72971000D01*
X166328875Y-72943311D01*
X166189676Y-72915623D01*
X166081051Y-72870629D01*
X165927432Y-72806998D01*
X165691417Y-72649298D01*
X165490702Y-72448583D01*
X165333002Y-72212568D01*
X165224377Y-71950323D01*
X165169000Y-71671927D01*
X165169000Y-71388073D01*
X165224377Y-71109677D01*
X165333002Y-70847432D01*
X165490702Y-70611417D01*
X165691417Y-70410702D01*
X165927432Y-70253002D01*
X166081051Y-70189371D01*
X166189676Y-70144377D01*
X166328875Y-70116689D01*
X166468073Y-70089000D01*
X166751927Y-70089000D01*
X166891125Y-70116689D01*
G37*
G36*
X122711242Y-71463404D02*
G01*
X122748337Y-71474657D01*
X122782515Y-71492925D01*
X122812481Y-71517519D01*
X122837075Y-71547485D01*
X122855343Y-71581663D01*
X122866596Y-71618758D01*
X122871000Y-71663474D01*
X122871000Y-72556526D01*
X122866596Y-72601242D01*
X122855343Y-72638337D01*
X122837075Y-72672515D01*
X122812481Y-72702481D01*
X122782515Y-72727075D01*
X122748337Y-72745343D01*
X122711242Y-72756596D01*
X122666526Y-72761000D01*
X121173474Y-72761000D01*
X121128758Y-72756596D01*
X121091663Y-72745343D01*
X121057485Y-72727075D01*
X121027519Y-72702481D01*
X121002925Y-72672515D01*
X120984657Y-72638337D01*
X120973404Y-72601242D01*
X120969000Y-72556526D01*
X120969000Y-71663474D01*
X120973404Y-71618758D01*
X120984657Y-71581663D01*
X121002925Y-71547485D01*
X121027519Y-71517519D01*
X121057485Y-71492925D01*
X121091663Y-71474657D01*
X121128758Y-71463404D01*
X121173474Y-71459000D01*
X122666526Y-71459000D01*
X122711242Y-71463404D01*
G37*
G36*
X188751242Y-71463404D02*
G01*
X188788337Y-71474657D01*
X188822515Y-71492925D01*
X188852481Y-71517519D01*
X188877075Y-71547485D01*
X188895343Y-71581663D01*
X188906596Y-71618758D01*
X188911000Y-71663474D01*
X188911000Y-72556526D01*
X188906596Y-72601242D01*
X188895343Y-72638337D01*
X188877075Y-72672515D01*
X188852481Y-72702481D01*
X188822515Y-72727075D01*
X188788337Y-72745343D01*
X188751242Y-72756596D01*
X188706526Y-72761000D01*
X187213474Y-72761000D01*
X187168758Y-72756596D01*
X187131663Y-72745343D01*
X187097485Y-72727075D01*
X187067519Y-72702481D01*
X187042925Y-72672515D01*
X187024657Y-72638337D01*
X187013404Y-72601242D01*
X187009000Y-72556526D01*
X187009000Y-71663474D01*
X187013404Y-71618758D01*
X187024657Y-71581663D01*
X187042925Y-71547485D01*
X187067519Y-71517519D01*
X187097485Y-71492925D01*
X187131663Y-71474657D01*
X187168758Y-71463404D01*
X187213474Y-71459000D01*
X188706526Y-71459000D01*
X188751242Y-71463404D01*
G37*
G36*
X162601125Y-60076688D02*
G01*
X162740324Y-60104377D01*
X162848949Y-60149371D01*
X163002568Y-60213002D01*
X163238583Y-60370702D01*
X163439298Y-60571417D01*
X163596998Y-60807432D01*
X163660629Y-60961051D01*
X163705623Y-61069676D01*
X163714651Y-61115065D01*
X163761000Y-61348073D01*
X163761000Y-61631927D01*
X163705623Y-61910323D01*
X163596998Y-62172568D01*
X163439298Y-62408583D01*
X163238583Y-62609298D01*
X163002568Y-62766998D01*
X162848949Y-62830629D01*
X162740324Y-62875623D01*
X162601125Y-62903311D01*
X162461927Y-62931000D01*
X162178073Y-62931000D01*
X162038875Y-62903311D01*
X161899676Y-62875623D01*
X161791051Y-62830629D01*
X161637432Y-62766998D01*
X161401417Y-62609298D01*
X161200702Y-62408583D01*
X161043002Y-62172568D01*
X160934377Y-61910323D01*
X160879000Y-61631927D01*
X160879000Y-61348073D01*
X160925349Y-61115065D01*
X160934377Y-61069676D01*
X160979371Y-60961051D01*
X161043002Y-60807432D01*
X161200702Y-60571417D01*
X161401417Y-60370702D01*
X161637432Y-60213002D01*
X161791051Y-60149371D01*
X161899676Y-60104377D01*
X162038875Y-60076688D01*
X162178073Y-60049000D01*
X162461927Y-60049000D01*
X162601125Y-60076688D01*
G37*
G36*
X152681125Y-60076688D02*
G01*
X152820324Y-60104377D01*
X152928949Y-60149371D01*
X153082568Y-60213002D01*
X153318583Y-60370702D01*
X153519298Y-60571417D01*
X153676998Y-60807432D01*
X153740629Y-60961051D01*
X153785623Y-61069676D01*
X153794651Y-61115065D01*
X153841000Y-61348073D01*
X153841000Y-61631927D01*
X153785623Y-61910323D01*
X153676998Y-62172568D01*
X153519298Y-62408583D01*
X153318583Y-62609298D01*
X153082568Y-62766998D01*
X152928949Y-62830629D01*
X152820324Y-62875623D01*
X152681125Y-62903311D01*
X152541927Y-62931000D01*
X152258073Y-62931000D01*
X152118875Y-62903311D01*
X151979676Y-62875623D01*
X151871051Y-62830629D01*
X151717432Y-62766998D01*
X151481417Y-62609298D01*
X151280702Y-62408583D01*
X151123002Y-62172568D01*
X151014377Y-61910323D01*
X150959000Y-61631927D01*
X150959000Y-61348073D01*
X151005349Y-61115065D01*
X151014377Y-61069676D01*
X151059371Y-60961051D01*
X151123002Y-60807432D01*
X151280702Y-60571417D01*
X151481417Y-60370702D01*
X151717432Y-60213002D01*
X151871051Y-60149371D01*
X151979676Y-60104377D01*
X152118875Y-60076688D01*
X152258073Y-60049000D01*
X152541927Y-60049000D01*
X152681125Y-60076688D01*
G37*
G36*
X131405170Y-56697879D02*
G01*
X131699868Y-56756498D01*
X132255067Y-56986469D01*
X132540867Y-57177435D01*
X132754733Y-57320335D01*
X133179665Y-57745267D01*
X133225440Y-57813775D01*
X133513531Y-58244933D01*
X133743502Y-58800132D01*
X133860740Y-59389528D01*
X133860740Y-59990472D01*
X133743502Y-60579868D01*
X133513531Y-61135067D01*
X133371204Y-61348074D01*
X133179665Y-61634733D01*
X132754733Y-62059665D01*
X132585761Y-62172568D01*
X132255067Y-62393531D01*
X131699868Y-62623502D01*
X131405170Y-62682121D01*
X131110473Y-62740740D01*
X130509527Y-62740740D01*
X130214830Y-62682121D01*
X129920132Y-62623502D01*
X129364933Y-62393531D01*
X129034239Y-62172568D01*
X128865267Y-62059665D01*
X128440335Y-61634733D01*
X128248796Y-61348074D01*
X128106469Y-61135067D01*
X127876498Y-60579868D01*
X127759260Y-59990472D01*
X127759260Y-59389528D01*
X127876498Y-58800132D01*
X128106469Y-58244933D01*
X128394560Y-57813775D01*
X128440335Y-57745267D01*
X128865267Y-57320335D01*
X129079133Y-57177435D01*
X129364933Y-56986469D01*
X129920132Y-56756498D01*
X130214830Y-56697879D01*
X130509527Y-56639260D01*
X131110473Y-56639260D01*
X131405170Y-56697879D01*
G37*
G36*
X144105170Y-56677879D02*
G01*
X144399868Y-56736498D01*
X144955067Y-56966469D01*
X145240867Y-57157435D01*
X145454733Y-57300335D01*
X145879665Y-57725267D01*
X146022565Y-57939133D01*
X146213531Y-58224933D01*
X146443502Y-58780132D01*
X146461471Y-58870467D01*
X146553764Y-59334454D01*
X146560740Y-59369528D01*
X146560740Y-59970472D01*
X146443502Y-60559868D01*
X146213531Y-61115067D01*
X146057841Y-61348073D01*
X145879665Y-61614733D01*
X145454733Y-62039665D01*
X145255829Y-62172568D01*
X144955067Y-62373531D01*
X144399868Y-62603502D01*
X144105170Y-62662121D01*
X143810473Y-62720740D01*
X143209527Y-62720740D01*
X142914830Y-62662121D01*
X142620132Y-62603502D01*
X142064933Y-62373531D01*
X141764171Y-62172568D01*
X141565267Y-62039665D01*
X141140335Y-61614733D01*
X140962159Y-61348073D01*
X140806469Y-61115067D01*
X140576498Y-60559868D01*
X140459260Y-59970472D01*
X140459260Y-59369528D01*
X140466237Y-59334454D01*
X140558529Y-58870467D01*
X140576498Y-58780132D01*
X140806469Y-58224933D01*
X140997435Y-57939133D01*
X141140335Y-57725267D01*
X141565267Y-57300335D01*
X141779133Y-57157435D01*
X142064933Y-56966469D01*
X142620132Y-56736498D01*
X142914830Y-56677879D01*
X143209527Y-56619260D01*
X143810473Y-56619260D01*
X144105170Y-56677879D01*
G37*
G36*
X118752007Y-57573582D02*
G01*
X119118206Y-57725267D01*
X119152565Y-57739499D01*
X119513056Y-57980371D01*
X119819629Y-58286944D01*
X119971120Y-58513667D01*
X120060502Y-58647437D01*
X120226418Y-59047993D01*
X120311000Y-59473219D01*
X120311000Y-59906781D01*
X120226418Y-60332007D01*
X120127251Y-60571416D01*
X120060501Y-60732565D01*
X119819629Y-61093056D01*
X119513056Y-61399629D01*
X119152565Y-61640501D01*
X119152564Y-61640502D01*
X119152563Y-61640502D01*
X118752007Y-61806418D01*
X118326781Y-61891000D01*
X117893219Y-61891000D01*
X117467993Y-61806418D01*
X117067437Y-61640502D01*
X117067436Y-61640502D01*
X117067435Y-61640501D01*
X116706944Y-61399629D01*
X116400371Y-61093056D01*
X116159499Y-60732565D01*
X116092749Y-60571416D01*
X115993582Y-60332007D01*
X115909000Y-59906781D01*
X115909000Y-59473219D01*
X115993582Y-59047993D01*
X116159498Y-58647437D01*
X116248880Y-58513667D01*
X116400371Y-58286944D01*
X116706944Y-57980371D01*
X117067435Y-57739499D01*
X117101794Y-57725267D01*
X117467993Y-57573582D01*
X117893219Y-57489000D01*
X118326781Y-57489000D01*
X118752007Y-57573582D01*
G37*
G36*
X192412007Y-57573582D02*
G01*
X192778206Y-57725267D01*
X192812565Y-57739499D01*
X193173056Y-57980371D01*
X193479629Y-58286944D01*
X193631120Y-58513667D01*
X193720502Y-58647437D01*
X193886418Y-59047993D01*
X193971000Y-59473219D01*
X193971000Y-59906781D01*
X193886418Y-60332007D01*
X193787251Y-60571416D01*
X193720501Y-60732565D01*
X193479629Y-61093056D01*
X193173056Y-61399629D01*
X192812565Y-61640501D01*
X192812564Y-61640502D01*
X192812563Y-61640502D01*
X192412007Y-61806418D01*
X191986781Y-61891000D01*
X191553219Y-61891000D01*
X191127993Y-61806418D01*
X190727437Y-61640502D01*
X190727436Y-61640502D01*
X190727435Y-61640501D01*
X190366944Y-61399629D01*
X190060371Y-61093056D01*
X189819499Y-60732565D01*
X189752749Y-60571416D01*
X189653582Y-60332007D01*
X189569000Y-59906781D01*
X189569000Y-59473219D01*
X189653582Y-59047993D01*
X189819498Y-58647437D01*
X189908880Y-58513667D01*
X190060371Y-58286944D01*
X190366944Y-57980371D01*
X190727435Y-57739499D01*
X190761794Y-57725267D01*
X191127993Y-57573582D01*
X191553219Y-57489000D01*
X191986781Y-57489000D01*
X192412007Y-57573582D01*
G37*
G36*
X152681125Y-56676689D02*
G01*
X152820324Y-56704377D01*
X152928949Y-56749371D01*
X153082568Y-56813002D01*
X153318583Y-56970702D01*
X153519298Y-57171417D01*
X153676998Y-57407432D01*
X153702500Y-57469000D01*
X153785623Y-57669676D01*
X153799512Y-57739499D01*
X153841000Y-57948073D01*
X153841000Y-58231927D01*
X153785623Y-58510323D01*
X153676998Y-58772568D01*
X153519298Y-59008583D01*
X153318583Y-59209298D01*
X153082568Y-59366998D01*
X152928949Y-59430629D01*
X152820324Y-59475623D01*
X152681125Y-59503311D01*
X152541927Y-59531000D01*
X152258073Y-59531000D01*
X152118875Y-59503311D01*
X151979676Y-59475623D01*
X151871051Y-59430629D01*
X151717432Y-59366998D01*
X151481417Y-59209298D01*
X151280702Y-59008583D01*
X151123002Y-58772568D01*
X151014377Y-58510323D01*
X150959000Y-58231927D01*
X150959000Y-57948073D01*
X151000488Y-57739499D01*
X151014377Y-57669676D01*
X151097500Y-57469000D01*
X151123002Y-57407432D01*
X151280702Y-57171417D01*
X151481417Y-56970702D01*
X151717432Y-56813002D01*
X151871051Y-56749371D01*
X151979676Y-56704377D01*
X152118875Y-56676689D01*
X152258073Y-56649000D01*
X152541927Y-56649000D01*
X152681125Y-56676689D01*
G37*
G36*
X162601125Y-56676689D02*
G01*
X162740324Y-56704377D01*
X162848949Y-56749371D01*
X163002568Y-56813002D01*
X163238583Y-56970702D01*
X163439298Y-57171417D01*
X163596998Y-57407432D01*
X163622500Y-57469000D01*
X163705623Y-57669676D01*
X163719512Y-57739499D01*
X163761000Y-57948073D01*
X163761000Y-58231927D01*
X163705623Y-58510323D01*
X163596998Y-58772568D01*
X163439298Y-59008583D01*
X163238583Y-59209298D01*
X163002568Y-59366998D01*
X162848949Y-59430629D01*
X162740324Y-59475623D01*
X162601125Y-59503311D01*
X162461927Y-59531000D01*
X162178073Y-59531000D01*
X162038875Y-59503311D01*
X161899676Y-59475623D01*
X161791051Y-59430629D01*
X161637432Y-59366998D01*
X161401417Y-59209298D01*
X161200702Y-59008583D01*
X161043002Y-58772568D01*
X160934377Y-58510323D01*
X160879000Y-58231927D01*
X160879000Y-57948073D01*
X160920488Y-57739499D01*
X160934377Y-57669676D01*
X161017500Y-57469000D01*
X161043002Y-57407432D01*
X161200702Y-57171417D01*
X161401417Y-56970702D01*
X161637432Y-56813002D01*
X161791051Y-56749371D01*
X161899676Y-56704377D01*
X162038875Y-56676689D01*
X162178073Y-56649000D01*
X162461927Y-56649000D01*
X162601125Y-56676689D01*
G37*
G36*
X182561000Y-59371000D02*
G01*
X180659000Y-59371000D01*
X180659000Y-57469000D01*
X182561000Y-57469000D01*
X182561000Y-59371000D01*
G37*
G36*
X184427395Y-57505546D02*
G01*
X184600466Y-57577234D01*
X184600467Y-57577235D01*
X184756227Y-57681310D01*
X184888690Y-57813773D01*
X184888691Y-57813775D01*
X184992766Y-57969534D01*
X185064454Y-58142605D01*
X185101000Y-58326333D01*
X185101000Y-58513667D01*
X185064454Y-58697395D01*
X184992766Y-58870466D01*
X184992765Y-58870467D01*
X184888690Y-59026227D01*
X184756227Y-59158690D01*
X184680488Y-59209297D01*
X184600466Y-59262766D01*
X184427395Y-59334454D01*
X184243667Y-59371000D01*
X184056333Y-59371000D01*
X183872605Y-59334454D01*
X183699534Y-59262766D01*
X183619512Y-59209297D01*
X183543773Y-59158690D01*
X183411310Y-59026227D01*
X183307235Y-58870467D01*
X183307234Y-58870466D01*
X183235546Y-58697395D01*
X183199000Y-58513667D01*
X183199000Y-58326333D01*
X183235546Y-58142605D01*
X183307234Y-57969534D01*
X183411309Y-57813775D01*
X183411310Y-57813773D01*
X183543773Y-57681310D01*
X183699533Y-57577235D01*
X183699534Y-57577234D01*
X183872605Y-57505546D01*
X184056333Y-57469000D01*
X184243667Y-57469000D01*
X184427395Y-57505546D01*
G37*
M02*
