M48
; DRILL file {KiCad (5.1.5)-3} date 3/23/2020 11:20:40 AM
; FORMAT={-:-/ absolute / inch / decimal}
; #@! TF.CreationDate,2020-03-23T11:20:40-04:00
; #@! TF.GenerationSoftware,Kicad,Pcbnew,(5.1.5)-3
FMAT,2
INCH
T1C0.0315
T2C0.0354
T3C0.0701
T4C0.0984
T5C0.1693
%
G90
G05
T1
X7.4Y-3.779
X7.4Y-3.8577
X7.4Y-2.839
X7.4Y-2.9177
X7.4Y-4.249
X7.4Y-4.3277
X7.4Y-3.309
X7.4Y-3.3877
X7.4Y-4.719
X7.4Y-4.7977
X4.8Y-2.839
X4.8Y-2.9177
X4.8Y-4.719
X4.8Y-4.7977
X7.4Y-5.189
X7.4Y-5.2677
X4.8Y-3.309
X4.8Y-3.3877
X4.8Y-5.189
X4.8Y-5.2677
X4.8Y-4.249
X4.8Y-4.3277
X4.8Y-3.779
X4.8Y-3.8577
T2
X7.15Y-2.3
X7.25Y-2.3
T3
X6.0Y-2.287
X6.0Y-2.4209
X6.3906Y-2.287
X6.3906Y-2.4209
X5.25Y-4.6961
X5.25Y-4.83
X5.6406Y-4.6961
X5.6406Y-4.83
X5.25Y-2.8161
X5.25Y-2.95
X5.6406Y-2.8161
X5.6406Y-2.95
X5.25Y-4.2261
X5.25Y-4.36
X5.6406Y-4.2261
X5.6406Y-4.36
X5.25Y-3.7561
X5.25Y-3.89
X5.6406Y-3.7561
X5.6406Y-3.89
X6.5594Y-4.2261
X6.5594Y-4.36
X6.95Y-4.2261
X6.95Y-4.36
X5.25Y-5.1661
X5.25Y-5.3
X5.6406Y-5.1661
X5.6406Y-5.3
X6.5594Y-4.6961
X6.5594Y-4.83
X6.95Y-4.6961
X6.95Y-4.83
X6.5594Y-5.1661
X6.5594Y-5.3
X6.95Y-5.1661
X6.95Y-5.3
X5.25Y-3.2861
X5.25Y-3.42
X5.6406Y-3.2861
X5.6406Y-3.42
X6.5594Y-2.8161
X6.5594Y-2.95
X6.95Y-2.8161
X6.95Y-2.95
X6.5594Y-3.7561
X6.5594Y-3.89
X6.95Y-3.7561
X6.95Y-3.89
X6.5594Y-3.2861
X6.5594Y-3.42
X6.95Y-3.2861
X6.95Y-3.42
T4
X5.65Y-2.3492
X5.15Y-2.35
T5
X4.65Y-2.35
X4.7Y-5.6
X7.55Y-2.35
X7.45Y-5.6
T0
M30
