G04 #@! TF.GenerationSoftware,KiCad,Pcbnew,(5.1.5)-3*
G04 #@! TF.CreationDate,2020-03-23T11:19:51-04:00*
G04 #@! TF.ProjectId,RedLegs_pwrbrd,5265644c-6567-4735-9f70-77726272642e,rev?*
G04 #@! TF.SameCoordinates,Original*
G04 #@! TF.FileFunction,Copper,L2,Bot*
G04 #@! TF.FilePolarity,Positive*
%FSLAX46Y46*%
G04 Gerber Fmt 4.6, Leading zero omitted, Abs format (unit mm)*
G04 Created by KiCad (PCBNEW (5.1.5)-3) date 2020-03-23 11:19:51*
%MOMM*%
%LPD*%
G04 APERTURE LIST*
%ADD10C,2.780000*%
%ADD11O,1.800000X1.200000*%
%ADD12C,0.100000*%
%ADD13C,5.999480*%
%ADD14C,1.800000*%
%ADD15R,1.800000X1.800000*%
%ADD16C,0.254000*%
G04 APERTURE END LIST*
D10*
X166610000Y-95406000D03*
X166610000Y-98806000D03*
X176530000Y-95406000D03*
X176530000Y-98806000D03*
X162320000Y-61490000D03*
X162320000Y-58090000D03*
X152400000Y-61490000D03*
X152400000Y-58090000D03*
D11*
X187960000Y-133800000D03*
G04 #@! TA.AperFunction,ComponentPad*
D12*
G36*
X188634505Y-131201204D02*
G01*
X188658773Y-131204804D01*
X188682572Y-131210765D01*
X188705671Y-131219030D01*
X188727850Y-131229520D01*
X188748893Y-131242132D01*
X188768599Y-131256747D01*
X188786777Y-131273223D01*
X188803253Y-131291401D01*
X188817868Y-131311107D01*
X188830480Y-131332150D01*
X188840970Y-131354329D01*
X188849235Y-131377428D01*
X188855196Y-131401227D01*
X188858796Y-131425495D01*
X188860000Y-131449999D01*
X188860000Y-132150001D01*
X188858796Y-132174505D01*
X188855196Y-132198773D01*
X188849235Y-132222572D01*
X188840970Y-132245671D01*
X188830480Y-132267850D01*
X188817868Y-132288893D01*
X188803253Y-132308599D01*
X188786777Y-132326777D01*
X188768599Y-132343253D01*
X188748893Y-132357868D01*
X188727850Y-132370480D01*
X188705671Y-132380970D01*
X188682572Y-132389235D01*
X188658773Y-132395196D01*
X188634505Y-132398796D01*
X188610001Y-132400000D01*
X187309999Y-132400000D01*
X187285495Y-132398796D01*
X187261227Y-132395196D01*
X187237428Y-132389235D01*
X187214329Y-132380970D01*
X187192150Y-132370480D01*
X187171107Y-132357868D01*
X187151401Y-132343253D01*
X187133223Y-132326777D01*
X187116747Y-132308599D01*
X187102132Y-132288893D01*
X187089520Y-132267850D01*
X187079030Y-132245671D01*
X187070765Y-132222572D01*
X187064804Y-132198773D01*
X187061204Y-132174505D01*
X187060000Y-132150001D01*
X187060000Y-131449999D01*
X187061204Y-131425495D01*
X187064804Y-131401227D01*
X187070765Y-131377428D01*
X187079030Y-131354329D01*
X187089520Y-131332150D01*
X187102132Y-131311107D01*
X187116747Y-131291401D01*
X187133223Y-131273223D01*
X187151401Y-131256747D01*
X187171107Y-131242132D01*
X187192150Y-131229520D01*
X187214329Y-131219030D01*
X187237428Y-131210765D01*
X187261227Y-131204804D01*
X187285495Y-131201204D01*
X187309999Y-131200000D01*
X188610001Y-131200000D01*
X188634505Y-131201204D01*
G37*
G04 #@! TD.AperFunction*
D11*
X187960000Y-121862000D03*
G04 #@! TA.AperFunction,ComponentPad*
D12*
G36*
X188634505Y-119263204D02*
G01*
X188658773Y-119266804D01*
X188682572Y-119272765D01*
X188705671Y-119281030D01*
X188727850Y-119291520D01*
X188748893Y-119304132D01*
X188768599Y-119318747D01*
X188786777Y-119335223D01*
X188803253Y-119353401D01*
X188817868Y-119373107D01*
X188830480Y-119394150D01*
X188840970Y-119416329D01*
X188849235Y-119439428D01*
X188855196Y-119463227D01*
X188858796Y-119487495D01*
X188860000Y-119511999D01*
X188860000Y-120212001D01*
X188858796Y-120236505D01*
X188855196Y-120260773D01*
X188849235Y-120284572D01*
X188840970Y-120307671D01*
X188830480Y-120329850D01*
X188817868Y-120350893D01*
X188803253Y-120370599D01*
X188786777Y-120388777D01*
X188768599Y-120405253D01*
X188748893Y-120419868D01*
X188727850Y-120432480D01*
X188705671Y-120442970D01*
X188682572Y-120451235D01*
X188658773Y-120457196D01*
X188634505Y-120460796D01*
X188610001Y-120462000D01*
X187309999Y-120462000D01*
X187285495Y-120460796D01*
X187261227Y-120457196D01*
X187237428Y-120451235D01*
X187214329Y-120442970D01*
X187192150Y-120432480D01*
X187171107Y-120419868D01*
X187151401Y-120405253D01*
X187133223Y-120388777D01*
X187116747Y-120370599D01*
X187102132Y-120350893D01*
X187089520Y-120329850D01*
X187079030Y-120307671D01*
X187070765Y-120284572D01*
X187064804Y-120260773D01*
X187061204Y-120236505D01*
X187060000Y-120212001D01*
X187060000Y-119511999D01*
X187061204Y-119487495D01*
X187064804Y-119463227D01*
X187070765Y-119439428D01*
X187079030Y-119416329D01*
X187089520Y-119394150D01*
X187102132Y-119373107D01*
X187116747Y-119353401D01*
X187133223Y-119335223D01*
X187151401Y-119318747D01*
X187171107Y-119304132D01*
X187192150Y-119291520D01*
X187214329Y-119281030D01*
X187237428Y-119272765D01*
X187261227Y-119266804D01*
X187285495Y-119263204D01*
X187309999Y-119262000D01*
X188610001Y-119262000D01*
X188634505Y-119263204D01*
G37*
G04 #@! TD.AperFunction*
D11*
X187960000Y-109924000D03*
G04 #@! TA.AperFunction,ComponentPad*
D12*
G36*
X188634505Y-107325204D02*
G01*
X188658773Y-107328804D01*
X188682572Y-107334765D01*
X188705671Y-107343030D01*
X188727850Y-107353520D01*
X188748893Y-107366132D01*
X188768599Y-107380747D01*
X188786777Y-107397223D01*
X188803253Y-107415401D01*
X188817868Y-107435107D01*
X188830480Y-107456150D01*
X188840970Y-107478329D01*
X188849235Y-107501428D01*
X188855196Y-107525227D01*
X188858796Y-107549495D01*
X188860000Y-107573999D01*
X188860000Y-108274001D01*
X188858796Y-108298505D01*
X188855196Y-108322773D01*
X188849235Y-108346572D01*
X188840970Y-108369671D01*
X188830480Y-108391850D01*
X188817868Y-108412893D01*
X188803253Y-108432599D01*
X188786777Y-108450777D01*
X188768599Y-108467253D01*
X188748893Y-108481868D01*
X188727850Y-108494480D01*
X188705671Y-108504970D01*
X188682572Y-108513235D01*
X188658773Y-108519196D01*
X188634505Y-108522796D01*
X188610001Y-108524000D01*
X187309999Y-108524000D01*
X187285495Y-108522796D01*
X187261227Y-108519196D01*
X187237428Y-108513235D01*
X187214329Y-108504970D01*
X187192150Y-108494480D01*
X187171107Y-108481868D01*
X187151401Y-108467253D01*
X187133223Y-108450777D01*
X187116747Y-108432599D01*
X187102132Y-108412893D01*
X187089520Y-108391850D01*
X187079030Y-108369671D01*
X187070765Y-108346572D01*
X187064804Y-108322773D01*
X187061204Y-108298505D01*
X187060000Y-108274001D01*
X187060000Y-107573999D01*
X187061204Y-107549495D01*
X187064804Y-107525227D01*
X187070765Y-107501428D01*
X187079030Y-107478329D01*
X187089520Y-107456150D01*
X187102132Y-107435107D01*
X187116747Y-107415401D01*
X187133223Y-107397223D01*
X187151401Y-107380747D01*
X187171107Y-107366132D01*
X187192150Y-107353520D01*
X187214329Y-107343030D01*
X187237428Y-107334765D01*
X187261227Y-107328804D01*
X187285495Y-107325204D01*
X187309999Y-107324000D01*
X188610001Y-107324000D01*
X188634505Y-107325204D01*
G37*
G04 #@! TD.AperFunction*
D11*
X187960000Y-97986000D03*
G04 #@! TA.AperFunction,ComponentPad*
D12*
G36*
X188634505Y-95387204D02*
G01*
X188658773Y-95390804D01*
X188682572Y-95396765D01*
X188705671Y-95405030D01*
X188727850Y-95415520D01*
X188748893Y-95428132D01*
X188768599Y-95442747D01*
X188786777Y-95459223D01*
X188803253Y-95477401D01*
X188817868Y-95497107D01*
X188830480Y-95518150D01*
X188840970Y-95540329D01*
X188849235Y-95563428D01*
X188855196Y-95587227D01*
X188858796Y-95611495D01*
X188860000Y-95635999D01*
X188860000Y-96336001D01*
X188858796Y-96360505D01*
X188855196Y-96384773D01*
X188849235Y-96408572D01*
X188840970Y-96431671D01*
X188830480Y-96453850D01*
X188817868Y-96474893D01*
X188803253Y-96494599D01*
X188786777Y-96512777D01*
X188768599Y-96529253D01*
X188748893Y-96543868D01*
X188727850Y-96556480D01*
X188705671Y-96566970D01*
X188682572Y-96575235D01*
X188658773Y-96581196D01*
X188634505Y-96584796D01*
X188610001Y-96586000D01*
X187309999Y-96586000D01*
X187285495Y-96584796D01*
X187261227Y-96581196D01*
X187237428Y-96575235D01*
X187214329Y-96566970D01*
X187192150Y-96556480D01*
X187171107Y-96543868D01*
X187151401Y-96529253D01*
X187133223Y-96512777D01*
X187116747Y-96494599D01*
X187102132Y-96474893D01*
X187089520Y-96453850D01*
X187079030Y-96431671D01*
X187070765Y-96408572D01*
X187064804Y-96384773D01*
X187061204Y-96360505D01*
X187060000Y-96336001D01*
X187060000Y-95635999D01*
X187061204Y-95611495D01*
X187064804Y-95587227D01*
X187070765Y-95563428D01*
X187079030Y-95540329D01*
X187089520Y-95518150D01*
X187102132Y-95497107D01*
X187116747Y-95477401D01*
X187133223Y-95459223D01*
X187151401Y-95442747D01*
X187171107Y-95428132D01*
X187192150Y-95415520D01*
X187214329Y-95405030D01*
X187237428Y-95396765D01*
X187261227Y-95390804D01*
X187285495Y-95387204D01*
X187309999Y-95386000D01*
X188610001Y-95386000D01*
X188634505Y-95387204D01*
G37*
G04 #@! TD.AperFunction*
D11*
X187960000Y-86048000D03*
G04 #@! TA.AperFunction,ComponentPad*
D12*
G36*
X188634505Y-83449204D02*
G01*
X188658773Y-83452804D01*
X188682572Y-83458765D01*
X188705671Y-83467030D01*
X188727850Y-83477520D01*
X188748893Y-83490132D01*
X188768599Y-83504747D01*
X188786777Y-83521223D01*
X188803253Y-83539401D01*
X188817868Y-83559107D01*
X188830480Y-83580150D01*
X188840970Y-83602329D01*
X188849235Y-83625428D01*
X188855196Y-83649227D01*
X188858796Y-83673495D01*
X188860000Y-83697999D01*
X188860000Y-84398001D01*
X188858796Y-84422505D01*
X188855196Y-84446773D01*
X188849235Y-84470572D01*
X188840970Y-84493671D01*
X188830480Y-84515850D01*
X188817868Y-84536893D01*
X188803253Y-84556599D01*
X188786777Y-84574777D01*
X188768599Y-84591253D01*
X188748893Y-84605868D01*
X188727850Y-84618480D01*
X188705671Y-84628970D01*
X188682572Y-84637235D01*
X188658773Y-84643196D01*
X188634505Y-84646796D01*
X188610001Y-84648000D01*
X187309999Y-84648000D01*
X187285495Y-84646796D01*
X187261227Y-84643196D01*
X187237428Y-84637235D01*
X187214329Y-84628970D01*
X187192150Y-84618480D01*
X187171107Y-84605868D01*
X187151401Y-84591253D01*
X187133223Y-84574777D01*
X187116747Y-84556599D01*
X187102132Y-84536893D01*
X187089520Y-84515850D01*
X187079030Y-84493671D01*
X187070765Y-84470572D01*
X187064804Y-84446773D01*
X187061204Y-84422505D01*
X187060000Y-84398001D01*
X187060000Y-83697999D01*
X187061204Y-83673495D01*
X187064804Y-83649227D01*
X187070765Y-83625428D01*
X187079030Y-83602329D01*
X187089520Y-83580150D01*
X187102132Y-83559107D01*
X187116747Y-83539401D01*
X187133223Y-83521223D01*
X187151401Y-83504747D01*
X187171107Y-83490132D01*
X187192150Y-83477520D01*
X187214329Y-83467030D01*
X187237428Y-83458765D01*
X187261227Y-83452804D01*
X187285495Y-83449204D01*
X187309999Y-83448000D01*
X188610001Y-83448000D01*
X188634505Y-83449204D01*
G37*
G04 #@! TD.AperFunction*
D11*
X187960000Y-74110000D03*
G04 #@! TA.AperFunction,ComponentPad*
D12*
G36*
X188634505Y-71511204D02*
G01*
X188658773Y-71514804D01*
X188682572Y-71520765D01*
X188705671Y-71529030D01*
X188727850Y-71539520D01*
X188748893Y-71552132D01*
X188768599Y-71566747D01*
X188786777Y-71583223D01*
X188803253Y-71601401D01*
X188817868Y-71621107D01*
X188830480Y-71642150D01*
X188840970Y-71664329D01*
X188849235Y-71687428D01*
X188855196Y-71711227D01*
X188858796Y-71735495D01*
X188860000Y-71759999D01*
X188860000Y-72460001D01*
X188858796Y-72484505D01*
X188855196Y-72508773D01*
X188849235Y-72532572D01*
X188840970Y-72555671D01*
X188830480Y-72577850D01*
X188817868Y-72598893D01*
X188803253Y-72618599D01*
X188786777Y-72636777D01*
X188768599Y-72653253D01*
X188748893Y-72667868D01*
X188727850Y-72680480D01*
X188705671Y-72690970D01*
X188682572Y-72699235D01*
X188658773Y-72705196D01*
X188634505Y-72708796D01*
X188610001Y-72710000D01*
X187309999Y-72710000D01*
X187285495Y-72708796D01*
X187261227Y-72705196D01*
X187237428Y-72699235D01*
X187214329Y-72690970D01*
X187192150Y-72680480D01*
X187171107Y-72667868D01*
X187151401Y-72653253D01*
X187133223Y-72636777D01*
X187116747Y-72618599D01*
X187102132Y-72598893D01*
X187089520Y-72577850D01*
X187079030Y-72555671D01*
X187070765Y-72532572D01*
X187064804Y-72508773D01*
X187061204Y-72484505D01*
X187060000Y-72460001D01*
X187060000Y-71759999D01*
X187061204Y-71735495D01*
X187064804Y-71711227D01*
X187070765Y-71687428D01*
X187079030Y-71664329D01*
X187089520Y-71642150D01*
X187102132Y-71621107D01*
X187116747Y-71601401D01*
X187133223Y-71583223D01*
X187151401Y-71566747D01*
X187171107Y-71552132D01*
X187192150Y-71539520D01*
X187214329Y-71529030D01*
X187237428Y-71520765D01*
X187261227Y-71514804D01*
X187285495Y-71511204D01*
X187309999Y-71510000D01*
X188610001Y-71510000D01*
X188634505Y-71511204D01*
G37*
G04 #@! TD.AperFunction*
D11*
X121920000Y-133800000D03*
G04 #@! TA.AperFunction,ComponentPad*
D12*
G36*
X122594505Y-131201204D02*
G01*
X122618773Y-131204804D01*
X122642572Y-131210765D01*
X122665671Y-131219030D01*
X122687850Y-131229520D01*
X122708893Y-131242132D01*
X122728599Y-131256747D01*
X122746777Y-131273223D01*
X122763253Y-131291401D01*
X122777868Y-131311107D01*
X122790480Y-131332150D01*
X122800970Y-131354329D01*
X122809235Y-131377428D01*
X122815196Y-131401227D01*
X122818796Y-131425495D01*
X122820000Y-131449999D01*
X122820000Y-132150001D01*
X122818796Y-132174505D01*
X122815196Y-132198773D01*
X122809235Y-132222572D01*
X122800970Y-132245671D01*
X122790480Y-132267850D01*
X122777868Y-132288893D01*
X122763253Y-132308599D01*
X122746777Y-132326777D01*
X122728599Y-132343253D01*
X122708893Y-132357868D01*
X122687850Y-132370480D01*
X122665671Y-132380970D01*
X122642572Y-132389235D01*
X122618773Y-132395196D01*
X122594505Y-132398796D01*
X122570001Y-132400000D01*
X121269999Y-132400000D01*
X121245495Y-132398796D01*
X121221227Y-132395196D01*
X121197428Y-132389235D01*
X121174329Y-132380970D01*
X121152150Y-132370480D01*
X121131107Y-132357868D01*
X121111401Y-132343253D01*
X121093223Y-132326777D01*
X121076747Y-132308599D01*
X121062132Y-132288893D01*
X121049520Y-132267850D01*
X121039030Y-132245671D01*
X121030765Y-132222572D01*
X121024804Y-132198773D01*
X121021204Y-132174505D01*
X121020000Y-132150001D01*
X121020000Y-131449999D01*
X121021204Y-131425495D01*
X121024804Y-131401227D01*
X121030765Y-131377428D01*
X121039030Y-131354329D01*
X121049520Y-131332150D01*
X121062132Y-131311107D01*
X121076747Y-131291401D01*
X121093223Y-131273223D01*
X121111401Y-131256747D01*
X121131107Y-131242132D01*
X121152150Y-131229520D01*
X121174329Y-131219030D01*
X121197428Y-131210765D01*
X121221227Y-131204804D01*
X121245495Y-131201204D01*
X121269999Y-131200000D01*
X122570001Y-131200000D01*
X122594505Y-131201204D01*
G37*
G04 #@! TD.AperFunction*
D11*
X121920000Y-121862000D03*
G04 #@! TA.AperFunction,ComponentPad*
D12*
G36*
X122594505Y-119263204D02*
G01*
X122618773Y-119266804D01*
X122642572Y-119272765D01*
X122665671Y-119281030D01*
X122687850Y-119291520D01*
X122708893Y-119304132D01*
X122728599Y-119318747D01*
X122746777Y-119335223D01*
X122763253Y-119353401D01*
X122777868Y-119373107D01*
X122790480Y-119394150D01*
X122800970Y-119416329D01*
X122809235Y-119439428D01*
X122815196Y-119463227D01*
X122818796Y-119487495D01*
X122820000Y-119511999D01*
X122820000Y-120212001D01*
X122818796Y-120236505D01*
X122815196Y-120260773D01*
X122809235Y-120284572D01*
X122800970Y-120307671D01*
X122790480Y-120329850D01*
X122777868Y-120350893D01*
X122763253Y-120370599D01*
X122746777Y-120388777D01*
X122728599Y-120405253D01*
X122708893Y-120419868D01*
X122687850Y-120432480D01*
X122665671Y-120442970D01*
X122642572Y-120451235D01*
X122618773Y-120457196D01*
X122594505Y-120460796D01*
X122570001Y-120462000D01*
X121269999Y-120462000D01*
X121245495Y-120460796D01*
X121221227Y-120457196D01*
X121197428Y-120451235D01*
X121174329Y-120442970D01*
X121152150Y-120432480D01*
X121131107Y-120419868D01*
X121111401Y-120405253D01*
X121093223Y-120388777D01*
X121076747Y-120370599D01*
X121062132Y-120350893D01*
X121049520Y-120329850D01*
X121039030Y-120307671D01*
X121030765Y-120284572D01*
X121024804Y-120260773D01*
X121021204Y-120236505D01*
X121020000Y-120212001D01*
X121020000Y-119511999D01*
X121021204Y-119487495D01*
X121024804Y-119463227D01*
X121030765Y-119439428D01*
X121039030Y-119416329D01*
X121049520Y-119394150D01*
X121062132Y-119373107D01*
X121076747Y-119353401D01*
X121093223Y-119335223D01*
X121111401Y-119318747D01*
X121131107Y-119304132D01*
X121152150Y-119291520D01*
X121174329Y-119281030D01*
X121197428Y-119272765D01*
X121221227Y-119266804D01*
X121245495Y-119263204D01*
X121269999Y-119262000D01*
X122570001Y-119262000D01*
X122594505Y-119263204D01*
G37*
G04 #@! TD.AperFunction*
D11*
X121920000Y-109924000D03*
G04 #@! TA.AperFunction,ComponentPad*
D12*
G36*
X122594505Y-107325204D02*
G01*
X122618773Y-107328804D01*
X122642572Y-107334765D01*
X122665671Y-107343030D01*
X122687850Y-107353520D01*
X122708893Y-107366132D01*
X122728599Y-107380747D01*
X122746777Y-107397223D01*
X122763253Y-107415401D01*
X122777868Y-107435107D01*
X122790480Y-107456150D01*
X122800970Y-107478329D01*
X122809235Y-107501428D01*
X122815196Y-107525227D01*
X122818796Y-107549495D01*
X122820000Y-107573999D01*
X122820000Y-108274001D01*
X122818796Y-108298505D01*
X122815196Y-108322773D01*
X122809235Y-108346572D01*
X122800970Y-108369671D01*
X122790480Y-108391850D01*
X122777868Y-108412893D01*
X122763253Y-108432599D01*
X122746777Y-108450777D01*
X122728599Y-108467253D01*
X122708893Y-108481868D01*
X122687850Y-108494480D01*
X122665671Y-108504970D01*
X122642572Y-108513235D01*
X122618773Y-108519196D01*
X122594505Y-108522796D01*
X122570001Y-108524000D01*
X121269999Y-108524000D01*
X121245495Y-108522796D01*
X121221227Y-108519196D01*
X121197428Y-108513235D01*
X121174329Y-108504970D01*
X121152150Y-108494480D01*
X121131107Y-108481868D01*
X121111401Y-108467253D01*
X121093223Y-108450777D01*
X121076747Y-108432599D01*
X121062132Y-108412893D01*
X121049520Y-108391850D01*
X121039030Y-108369671D01*
X121030765Y-108346572D01*
X121024804Y-108322773D01*
X121021204Y-108298505D01*
X121020000Y-108274001D01*
X121020000Y-107573999D01*
X121021204Y-107549495D01*
X121024804Y-107525227D01*
X121030765Y-107501428D01*
X121039030Y-107478329D01*
X121049520Y-107456150D01*
X121062132Y-107435107D01*
X121076747Y-107415401D01*
X121093223Y-107397223D01*
X121111401Y-107380747D01*
X121131107Y-107366132D01*
X121152150Y-107353520D01*
X121174329Y-107343030D01*
X121197428Y-107334765D01*
X121221227Y-107328804D01*
X121245495Y-107325204D01*
X121269999Y-107324000D01*
X122570001Y-107324000D01*
X122594505Y-107325204D01*
G37*
G04 #@! TD.AperFunction*
D11*
X121920000Y-97986000D03*
G04 #@! TA.AperFunction,ComponentPad*
D12*
G36*
X122594505Y-95387204D02*
G01*
X122618773Y-95390804D01*
X122642572Y-95396765D01*
X122665671Y-95405030D01*
X122687850Y-95415520D01*
X122708893Y-95428132D01*
X122728599Y-95442747D01*
X122746777Y-95459223D01*
X122763253Y-95477401D01*
X122777868Y-95497107D01*
X122790480Y-95518150D01*
X122800970Y-95540329D01*
X122809235Y-95563428D01*
X122815196Y-95587227D01*
X122818796Y-95611495D01*
X122820000Y-95635999D01*
X122820000Y-96336001D01*
X122818796Y-96360505D01*
X122815196Y-96384773D01*
X122809235Y-96408572D01*
X122800970Y-96431671D01*
X122790480Y-96453850D01*
X122777868Y-96474893D01*
X122763253Y-96494599D01*
X122746777Y-96512777D01*
X122728599Y-96529253D01*
X122708893Y-96543868D01*
X122687850Y-96556480D01*
X122665671Y-96566970D01*
X122642572Y-96575235D01*
X122618773Y-96581196D01*
X122594505Y-96584796D01*
X122570001Y-96586000D01*
X121269999Y-96586000D01*
X121245495Y-96584796D01*
X121221227Y-96581196D01*
X121197428Y-96575235D01*
X121174329Y-96566970D01*
X121152150Y-96556480D01*
X121131107Y-96543868D01*
X121111401Y-96529253D01*
X121093223Y-96512777D01*
X121076747Y-96494599D01*
X121062132Y-96474893D01*
X121049520Y-96453850D01*
X121039030Y-96431671D01*
X121030765Y-96408572D01*
X121024804Y-96384773D01*
X121021204Y-96360505D01*
X121020000Y-96336001D01*
X121020000Y-95635999D01*
X121021204Y-95611495D01*
X121024804Y-95587227D01*
X121030765Y-95563428D01*
X121039030Y-95540329D01*
X121049520Y-95518150D01*
X121062132Y-95497107D01*
X121076747Y-95477401D01*
X121093223Y-95459223D01*
X121111401Y-95442747D01*
X121131107Y-95428132D01*
X121152150Y-95415520D01*
X121174329Y-95405030D01*
X121197428Y-95396765D01*
X121221227Y-95390804D01*
X121245495Y-95387204D01*
X121269999Y-95386000D01*
X122570001Y-95386000D01*
X122594505Y-95387204D01*
G37*
G04 #@! TD.AperFunction*
D11*
X121920000Y-86048000D03*
G04 #@! TA.AperFunction,ComponentPad*
D12*
G36*
X122594505Y-83449204D02*
G01*
X122618773Y-83452804D01*
X122642572Y-83458765D01*
X122665671Y-83467030D01*
X122687850Y-83477520D01*
X122708893Y-83490132D01*
X122728599Y-83504747D01*
X122746777Y-83521223D01*
X122763253Y-83539401D01*
X122777868Y-83559107D01*
X122790480Y-83580150D01*
X122800970Y-83602329D01*
X122809235Y-83625428D01*
X122815196Y-83649227D01*
X122818796Y-83673495D01*
X122820000Y-83697999D01*
X122820000Y-84398001D01*
X122818796Y-84422505D01*
X122815196Y-84446773D01*
X122809235Y-84470572D01*
X122800970Y-84493671D01*
X122790480Y-84515850D01*
X122777868Y-84536893D01*
X122763253Y-84556599D01*
X122746777Y-84574777D01*
X122728599Y-84591253D01*
X122708893Y-84605868D01*
X122687850Y-84618480D01*
X122665671Y-84628970D01*
X122642572Y-84637235D01*
X122618773Y-84643196D01*
X122594505Y-84646796D01*
X122570001Y-84648000D01*
X121269999Y-84648000D01*
X121245495Y-84646796D01*
X121221227Y-84643196D01*
X121197428Y-84637235D01*
X121174329Y-84628970D01*
X121152150Y-84618480D01*
X121131107Y-84605868D01*
X121111401Y-84591253D01*
X121093223Y-84574777D01*
X121076747Y-84556599D01*
X121062132Y-84536893D01*
X121049520Y-84515850D01*
X121039030Y-84493671D01*
X121030765Y-84470572D01*
X121024804Y-84446773D01*
X121021204Y-84422505D01*
X121020000Y-84398001D01*
X121020000Y-83697999D01*
X121021204Y-83673495D01*
X121024804Y-83649227D01*
X121030765Y-83625428D01*
X121039030Y-83602329D01*
X121049520Y-83580150D01*
X121062132Y-83559107D01*
X121076747Y-83539401D01*
X121093223Y-83521223D01*
X121111401Y-83504747D01*
X121131107Y-83490132D01*
X121152150Y-83477520D01*
X121174329Y-83467030D01*
X121197428Y-83458765D01*
X121221227Y-83452804D01*
X121245495Y-83449204D01*
X121269999Y-83448000D01*
X122570001Y-83448000D01*
X122594505Y-83449204D01*
G37*
G04 #@! TD.AperFunction*
D11*
X121920000Y-74110000D03*
G04 #@! TA.AperFunction,ComponentPad*
D12*
G36*
X122594505Y-71511204D02*
G01*
X122618773Y-71514804D01*
X122642572Y-71520765D01*
X122665671Y-71529030D01*
X122687850Y-71539520D01*
X122708893Y-71552132D01*
X122728599Y-71566747D01*
X122746777Y-71583223D01*
X122763253Y-71601401D01*
X122777868Y-71621107D01*
X122790480Y-71642150D01*
X122800970Y-71664329D01*
X122809235Y-71687428D01*
X122815196Y-71711227D01*
X122818796Y-71735495D01*
X122820000Y-71759999D01*
X122820000Y-72460001D01*
X122818796Y-72484505D01*
X122815196Y-72508773D01*
X122809235Y-72532572D01*
X122800970Y-72555671D01*
X122790480Y-72577850D01*
X122777868Y-72598893D01*
X122763253Y-72618599D01*
X122746777Y-72636777D01*
X122728599Y-72653253D01*
X122708893Y-72667868D01*
X122687850Y-72680480D01*
X122665671Y-72690970D01*
X122642572Y-72699235D01*
X122618773Y-72705196D01*
X122594505Y-72708796D01*
X122570001Y-72710000D01*
X121269999Y-72710000D01*
X121245495Y-72708796D01*
X121221227Y-72705196D01*
X121197428Y-72699235D01*
X121174329Y-72690970D01*
X121152150Y-72680480D01*
X121131107Y-72667868D01*
X121111401Y-72653253D01*
X121093223Y-72636777D01*
X121076747Y-72618599D01*
X121062132Y-72598893D01*
X121049520Y-72577850D01*
X121039030Y-72555671D01*
X121030765Y-72532572D01*
X121024804Y-72508773D01*
X121021204Y-72484505D01*
X121020000Y-72460001D01*
X121020000Y-71759999D01*
X121021204Y-71735495D01*
X121024804Y-71711227D01*
X121030765Y-71687428D01*
X121039030Y-71664329D01*
X121049520Y-71642150D01*
X121062132Y-71621107D01*
X121076747Y-71601401D01*
X121093223Y-71583223D01*
X121111401Y-71566747D01*
X121131107Y-71552132D01*
X121152150Y-71539520D01*
X121174329Y-71529030D01*
X121197428Y-71520765D01*
X121221227Y-71514804D01*
X121245495Y-71511204D01*
X121269999Y-71510000D01*
X122570001Y-71510000D01*
X122594505Y-71511204D01*
G37*
G04 #@! TD.AperFunction*
D13*
X130810000Y-59690000D03*
X143510000Y-59670000D03*
D10*
X166610000Y-131220000D03*
X166610000Y-134620000D03*
X176530000Y-131220000D03*
X176530000Y-134620000D03*
X166610000Y-119282000D03*
X166610000Y-122682000D03*
X176530000Y-119282000D03*
X176530000Y-122682000D03*
X166610000Y-107344000D03*
X166610000Y-110744000D03*
X176530000Y-107344000D03*
X176530000Y-110744000D03*
X166610000Y-83468000D03*
X166610000Y-86868000D03*
X176530000Y-83468000D03*
X176530000Y-86868000D03*
X166610000Y-71530000D03*
X166610000Y-74930000D03*
X176530000Y-71530000D03*
X176530000Y-74930000D03*
X143270000Y-134620000D03*
X143270000Y-131220000D03*
X133350000Y-134620000D03*
X133350000Y-131220000D03*
X143270000Y-122682000D03*
X143270000Y-119282000D03*
X133350000Y-122682000D03*
X133350000Y-119282000D03*
X133350000Y-107344000D03*
X133350000Y-110744000D03*
X143270000Y-107344000D03*
X143270000Y-110744000D03*
X133350000Y-95406000D03*
X133350000Y-98806000D03*
X143270000Y-95406000D03*
X143270000Y-98806000D03*
X143270000Y-86868000D03*
X143270000Y-83468000D03*
X133350000Y-86868000D03*
X133350000Y-83468000D03*
X143270000Y-74930000D03*
X143270000Y-71530000D03*
X133350000Y-74930000D03*
X133350000Y-71530000D03*
D14*
X184150000Y-58420000D03*
D15*
X181610000Y-58420000D03*
D16*
G36*
X197435001Y-149175000D02*
G01*
X111175000Y-149175000D01*
X111175000Y-141965701D01*
X116595000Y-141965701D01*
X116595000Y-142514299D01*
X116702026Y-143052354D01*
X116911965Y-143559192D01*
X117216750Y-144015334D01*
X117604666Y-144403250D01*
X118060808Y-144708035D01*
X118567646Y-144917974D01*
X119105701Y-145025000D01*
X119654299Y-145025000D01*
X120192354Y-144917974D01*
X120699192Y-144708035D01*
X121155334Y-144403250D01*
X121543250Y-144015334D01*
X121848035Y-143559192D01*
X122057974Y-143052354D01*
X122165000Y-142514299D01*
X122165000Y-141965701D01*
X186445000Y-141965701D01*
X186445000Y-142514299D01*
X186552026Y-143052354D01*
X186761965Y-143559192D01*
X187066750Y-144015334D01*
X187454666Y-144403250D01*
X187910808Y-144708035D01*
X188417646Y-144917974D01*
X188955701Y-145025000D01*
X189504299Y-145025000D01*
X190042354Y-144917974D01*
X190549192Y-144708035D01*
X191005334Y-144403250D01*
X191393250Y-144015334D01*
X191698035Y-143559192D01*
X191907974Y-143052354D01*
X192015000Y-142514299D01*
X192015000Y-141965701D01*
X191907974Y-141427646D01*
X191698035Y-140920808D01*
X191393250Y-140464666D01*
X191005334Y-140076750D01*
X190549192Y-139771965D01*
X190042354Y-139562026D01*
X189504299Y-139455000D01*
X188955701Y-139455000D01*
X188417646Y-139562026D01*
X187910808Y-139771965D01*
X187454666Y-140076750D01*
X187066750Y-140464666D01*
X186761965Y-140920808D01*
X186552026Y-141427646D01*
X186445000Y-141965701D01*
X122165000Y-141965701D01*
X122057974Y-141427646D01*
X121848035Y-140920808D01*
X121543250Y-140464666D01*
X121155334Y-140076750D01*
X120699192Y-139771965D01*
X120192354Y-139562026D01*
X119654299Y-139455000D01*
X119105701Y-139455000D01*
X118567646Y-139562026D01*
X118060808Y-139771965D01*
X117604666Y-140076750D01*
X117216750Y-140464666D01*
X116911965Y-140920808D01*
X116702026Y-141427646D01*
X116595000Y-141965701D01*
X111175000Y-141965701D01*
X111175000Y-134117609D01*
X120426538Y-134117609D01*
X120430409Y-134155282D01*
X120522579Y-134380533D01*
X120656922Y-134583474D01*
X120828275Y-134756307D01*
X121030054Y-134892390D01*
X121254504Y-134986493D01*
X121493000Y-135035000D01*
X121793000Y-135035000D01*
X121793000Y-133927000D01*
X122047000Y-133927000D01*
X122047000Y-135035000D01*
X122347000Y-135035000D01*
X122585496Y-134986493D01*
X122809946Y-134892390D01*
X123011725Y-134756307D01*
X123183078Y-134583474D01*
X123317421Y-134380533D01*
X123409591Y-134155282D01*
X123413462Y-134117609D01*
X123288731Y-133927000D01*
X122047000Y-133927000D01*
X121793000Y-133927000D01*
X120551269Y-133927000D01*
X120426538Y-134117609D01*
X111175000Y-134117609D01*
X111175000Y-131449999D01*
X120381928Y-131449999D01*
X120381928Y-132150001D01*
X120398992Y-132323255D01*
X120449528Y-132489851D01*
X120531595Y-132643387D01*
X120642038Y-132777962D01*
X120776613Y-132888405D01*
X120781406Y-132890967D01*
X120656922Y-133016526D01*
X120522579Y-133219467D01*
X120430409Y-133444718D01*
X120426538Y-133482391D01*
X120551269Y-133673000D01*
X121793000Y-133673000D01*
X121793000Y-133653000D01*
X122047000Y-133653000D01*
X122047000Y-133673000D01*
X123288731Y-133673000D01*
X123413462Y-133482391D01*
X123409591Y-133444718D01*
X123317421Y-133219467D01*
X123183078Y-133016526D01*
X123058594Y-132890967D01*
X123063387Y-132888405D01*
X123197962Y-132777962D01*
X123308405Y-132643387D01*
X123390472Y-132489851D01*
X123441008Y-132323255D01*
X123458072Y-132150001D01*
X123458072Y-131449999D01*
X123441008Y-131276745D01*
X123390472Y-131110149D01*
X123308405Y-130956613D01*
X123197962Y-130822038D01*
X123063387Y-130711595D01*
X122909851Y-130629528D01*
X122743255Y-130578992D01*
X122570001Y-130561928D01*
X121269999Y-130561928D01*
X121096745Y-130578992D01*
X120930149Y-130629528D01*
X120776613Y-130711595D01*
X120642038Y-130822038D01*
X120531595Y-130956613D01*
X120449528Y-131110149D01*
X120398992Y-131276745D01*
X120381928Y-131449999D01*
X111175000Y-131449999D01*
X111175000Y-122179609D01*
X120426538Y-122179609D01*
X120430409Y-122217282D01*
X120522579Y-122442533D01*
X120656922Y-122645474D01*
X120828275Y-122818307D01*
X121030054Y-122954390D01*
X121254504Y-123048493D01*
X121493000Y-123097000D01*
X121793000Y-123097000D01*
X121793000Y-121989000D01*
X122047000Y-121989000D01*
X122047000Y-123097000D01*
X122347000Y-123097000D01*
X122585496Y-123048493D01*
X122809946Y-122954390D01*
X123011725Y-122818307D01*
X123183078Y-122645474D01*
X123317421Y-122442533D01*
X123409591Y-122217282D01*
X123413462Y-122179609D01*
X123288731Y-121989000D01*
X122047000Y-121989000D01*
X121793000Y-121989000D01*
X120551269Y-121989000D01*
X120426538Y-122179609D01*
X111175000Y-122179609D01*
X111175000Y-119511999D01*
X120381928Y-119511999D01*
X120381928Y-120212001D01*
X120398992Y-120385255D01*
X120449528Y-120551851D01*
X120531595Y-120705387D01*
X120642038Y-120839962D01*
X120776613Y-120950405D01*
X120781406Y-120952967D01*
X120656922Y-121078526D01*
X120522579Y-121281467D01*
X120430409Y-121506718D01*
X120426538Y-121544391D01*
X120551269Y-121735000D01*
X121793000Y-121735000D01*
X121793000Y-121715000D01*
X122047000Y-121715000D01*
X122047000Y-121735000D01*
X123288731Y-121735000D01*
X123413462Y-121544391D01*
X123409591Y-121506718D01*
X123317421Y-121281467D01*
X123183078Y-121078526D01*
X123058594Y-120952967D01*
X123063387Y-120950405D01*
X123197962Y-120839962D01*
X123308405Y-120705387D01*
X123390472Y-120551851D01*
X123441008Y-120385255D01*
X123458072Y-120212001D01*
X123458072Y-119511999D01*
X123441008Y-119338745D01*
X123390472Y-119172149D01*
X123308405Y-119018613D01*
X123197962Y-118884038D01*
X123063387Y-118773595D01*
X122909851Y-118691528D01*
X122743255Y-118640992D01*
X122570001Y-118623928D01*
X121269999Y-118623928D01*
X121096745Y-118640992D01*
X120930149Y-118691528D01*
X120776613Y-118773595D01*
X120642038Y-118884038D01*
X120531595Y-119018613D01*
X120449528Y-119172149D01*
X120398992Y-119338745D01*
X120381928Y-119511999D01*
X111175000Y-119511999D01*
X111175000Y-110241609D01*
X120426538Y-110241609D01*
X120430409Y-110279282D01*
X120522579Y-110504533D01*
X120656922Y-110707474D01*
X120828275Y-110880307D01*
X121030054Y-111016390D01*
X121254504Y-111110493D01*
X121493000Y-111159000D01*
X121793000Y-111159000D01*
X121793000Y-110051000D01*
X122047000Y-110051000D01*
X122047000Y-111159000D01*
X122347000Y-111159000D01*
X122585496Y-111110493D01*
X122809946Y-111016390D01*
X123011725Y-110880307D01*
X123183078Y-110707474D01*
X123317421Y-110504533D01*
X123409591Y-110279282D01*
X123413462Y-110241609D01*
X123288731Y-110051000D01*
X122047000Y-110051000D01*
X121793000Y-110051000D01*
X120551269Y-110051000D01*
X120426538Y-110241609D01*
X111175000Y-110241609D01*
X111175000Y-107573999D01*
X120381928Y-107573999D01*
X120381928Y-108274001D01*
X120398992Y-108447255D01*
X120449528Y-108613851D01*
X120531595Y-108767387D01*
X120642038Y-108901962D01*
X120776613Y-109012405D01*
X120781406Y-109014967D01*
X120656922Y-109140526D01*
X120522579Y-109343467D01*
X120430409Y-109568718D01*
X120426538Y-109606391D01*
X120551269Y-109797000D01*
X121793000Y-109797000D01*
X121793000Y-109777000D01*
X122047000Y-109777000D01*
X122047000Y-109797000D01*
X123288731Y-109797000D01*
X123413462Y-109606391D01*
X123409591Y-109568718D01*
X123317421Y-109343467D01*
X123183078Y-109140526D01*
X123058594Y-109014967D01*
X123063387Y-109012405D01*
X123197962Y-108901962D01*
X123308405Y-108767387D01*
X123390472Y-108613851D01*
X123441008Y-108447255D01*
X123458072Y-108274001D01*
X123458072Y-107573999D01*
X123441008Y-107400745D01*
X123390472Y-107234149D01*
X123308405Y-107080613D01*
X123197962Y-106946038D01*
X123063387Y-106835595D01*
X122909851Y-106753528D01*
X122743255Y-106702992D01*
X122570001Y-106685928D01*
X121269999Y-106685928D01*
X121096745Y-106702992D01*
X120930149Y-106753528D01*
X120776613Y-106835595D01*
X120642038Y-106946038D01*
X120531595Y-107080613D01*
X120449528Y-107234149D01*
X120398992Y-107400745D01*
X120381928Y-107573999D01*
X111175000Y-107573999D01*
X111175000Y-98303609D01*
X120426538Y-98303609D01*
X120430409Y-98341282D01*
X120522579Y-98566533D01*
X120656922Y-98769474D01*
X120828275Y-98942307D01*
X121030054Y-99078390D01*
X121254504Y-99172493D01*
X121493000Y-99221000D01*
X121793000Y-99221000D01*
X121793000Y-98113000D01*
X122047000Y-98113000D01*
X122047000Y-99221000D01*
X122347000Y-99221000D01*
X122585496Y-99172493D01*
X122809946Y-99078390D01*
X123011725Y-98942307D01*
X123183078Y-98769474D01*
X123317421Y-98566533D01*
X123409591Y-98341282D01*
X123413462Y-98303609D01*
X123288731Y-98113000D01*
X122047000Y-98113000D01*
X121793000Y-98113000D01*
X120551269Y-98113000D01*
X120426538Y-98303609D01*
X111175000Y-98303609D01*
X111175000Y-95635999D01*
X120381928Y-95635999D01*
X120381928Y-96336001D01*
X120398992Y-96509255D01*
X120449528Y-96675851D01*
X120531595Y-96829387D01*
X120642038Y-96963962D01*
X120776613Y-97074405D01*
X120781406Y-97076967D01*
X120656922Y-97202526D01*
X120522579Y-97405467D01*
X120430409Y-97630718D01*
X120426538Y-97668391D01*
X120551269Y-97859000D01*
X121793000Y-97859000D01*
X121793000Y-97839000D01*
X122047000Y-97839000D01*
X122047000Y-97859000D01*
X123288731Y-97859000D01*
X123413462Y-97668391D01*
X123409591Y-97630718D01*
X123317421Y-97405467D01*
X123183078Y-97202526D01*
X123058594Y-97076967D01*
X123063387Y-97074405D01*
X123197962Y-96963962D01*
X123308405Y-96829387D01*
X123390472Y-96675851D01*
X123441008Y-96509255D01*
X123458072Y-96336001D01*
X123458072Y-95635999D01*
X123441008Y-95462745D01*
X123390472Y-95296149D01*
X123308405Y-95142613D01*
X123197962Y-95008038D01*
X123063387Y-94897595D01*
X122909851Y-94815528D01*
X122743255Y-94764992D01*
X122570001Y-94747928D01*
X121269999Y-94747928D01*
X121096745Y-94764992D01*
X120930149Y-94815528D01*
X120776613Y-94897595D01*
X120642038Y-95008038D01*
X120531595Y-95142613D01*
X120449528Y-95296149D01*
X120398992Y-95462745D01*
X120381928Y-95635999D01*
X111175000Y-95635999D01*
X111175000Y-86365609D01*
X120426538Y-86365609D01*
X120430409Y-86403282D01*
X120522579Y-86628533D01*
X120656922Y-86831474D01*
X120828275Y-87004307D01*
X121030054Y-87140390D01*
X121254504Y-87234493D01*
X121493000Y-87283000D01*
X121793000Y-87283000D01*
X121793000Y-86175000D01*
X122047000Y-86175000D01*
X122047000Y-87283000D01*
X122347000Y-87283000D01*
X122585496Y-87234493D01*
X122809946Y-87140390D01*
X123011725Y-87004307D01*
X123183078Y-86831474D01*
X123317421Y-86628533D01*
X123409591Y-86403282D01*
X123413462Y-86365609D01*
X123288731Y-86175000D01*
X122047000Y-86175000D01*
X121793000Y-86175000D01*
X120551269Y-86175000D01*
X120426538Y-86365609D01*
X111175000Y-86365609D01*
X111175000Y-83697999D01*
X120381928Y-83697999D01*
X120381928Y-84398001D01*
X120398992Y-84571255D01*
X120449528Y-84737851D01*
X120531595Y-84891387D01*
X120642038Y-85025962D01*
X120776613Y-85136405D01*
X120781406Y-85138967D01*
X120656922Y-85264526D01*
X120522579Y-85467467D01*
X120430409Y-85692718D01*
X120426538Y-85730391D01*
X120551269Y-85921000D01*
X121793000Y-85921000D01*
X121793000Y-85901000D01*
X122047000Y-85901000D01*
X122047000Y-85921000D01*
X123288731Y-85921000D01*
X123413462Y-85730391D01*
X123409591Y-85692718D01*
X123317421Y-85467467D01*
X123183078Y-85264526D01*
X123058594Y-85138967D01*
X123063387Y-85136405D01*
X123197962Y-85025962D01*
X123308405Y-84891387D01*
X123390472Y-84737851D01*
X123441008Y-84571255D01*
X123458072Y-84398001D01*
X123458072Y-83697999D01*
X123441008Y-83524745D01*
X123390472Y-83358149D01*
X123308405Y-83204613D01*
X123197962Y-83070038D01*
X123063387Y-82959595D01*
X122909851Y-82877528D01*
X122743255Y-82826992D01*
X122570001Y-82809928D01*
X121269999Y-82809928D01*
X121096745Y-82826992D01*
X120930149Y-82877528D01*
X120776613Y-82959595D01*
X120642038Y-83070038D01*
X120531595Y-83204613D01*
X120449528Y-83358149D01*
X120398992Y-83524745D01*
X120381928Y-83697999D01*
X111175000Y-83697999D01*
X111175000Y-74427609D01*
X120426538Y-74427609D01*
X120430409Y-74465282D01*
X120522579Y-74690533D01*
X120656922Y-74893474D01*
X120828275Y-75066307D01*
X121030054Y-75202390D01*
X121254504Y-75296493D01*
X121493000Y-75345000D01*
X121793000Y-75345000D01*
X121793000Y-74237000D01*
X122047000Y-74237000D01*
X122047000Y-75345000D01*
X122347000Y-75345000D01*
X122585496Y-75296493D01*
X122809946Y-75202390D01*
X123011725Y-75066307D01*
X123183078Y-74893474D01*
X123317421Y-74690533D01*
X123409591Y-74465282D01*
X123413462Y-74427609D01*
X123288731Y-74237000D01*
X122047000Y-74237000D01*
X121793000Y-74237000D01*
X120551269Y-74237000D01*
X120426538Y-74427609D01*
X111175000Y-74427609D01*
X111175000Y-71759999D01*
X120381928Y-71759999D01*
X120381928Y-72460001D01*
X120398992Y-72633255D01*
X120449528Y-72799851D01*
X120531595Y-72953387D01*
X120642038Y-73087962D01*
X120776613Y-73198405D01*
X120781406Y-73200967D01*
X120656922Y-73326526D01*
X120522579Y-73529467D01*
X120430409Y-73754718D01*
X120426538Y-73792391D01*
X120551269Y-73983000D01*
X121793000Y-73983000D01*
X121793000Y-73963000D01*
X122047000Y-73963000D01*
X122047000Y-73983000D01*
X123288731Y-73983000D01*
X123413462Y-73792391D01*
X123409591Y-73754718D01*
X123317421Y-73529467D01*
X123183078Y-73326526D01*
X123058594Y-73200967D01*
X123063387Y-73198405D01*
X123197962Y-73087962D01*
X123308405Y-72953387D01*
X123390472Y-72799851D01*
X123441008Y-72633255D01*
X123458072Y-72460001D01*
X123458072Y-71759999D01*
X123441008Y-71586745D01*
X123390472Y-71420149D01*
X123308405Y-71266613D01*
X123197962Y-71132038D01*
X123063387Y-71021595D01*
X122909851Y-70939528D01*
X122743255Y-70888992D01*
X122570001Y-70871928D01*
X121269999Y-70871928D01*
X121096745Y-70888992D01*
X120930149Y-70939528D01*
X120776613Y-71021595D01*
X120642038Y-71132038D01*
X120531595Y-71266613D01*
X120449528Y-71420149D01*
X120398992Y-71586745D01*
X120381928Y-71759999D01*
X111175000Y-71759999D01*
X111175000Y-68580000D01*
X129413000Y-68580000D01*
X129413000Y-138430000D01*
X129415440Y-138454776D01*
X129422667Y-138478601D01*
X129434403Y-138500557D01*
X129450197Y-138519803D01*
X129469443Y-138535597D01*
X129491399Y-138547333D01*
X129515224Y-138554560D01*
X129540000Y-138557000D01*
X181610000Y-138557000D01*
X181634776Y-138554560D01*
X181658601Y-138547333D01*
X181680557Y-138535597D01*
X181699803Y-138519803D01*
X181715597Y-138500557D01*
X181727333Y-138478601D01*
X181734560Y-138454776D01*
X181737000Y-138430000D01*
X181737000Y-134117609D01*
X186466538Y-134117609D01*
X186470409Y-134155282D01*
X186562579Y-134380533D01*
X186696922Y-134583474D01*
X186868275Y-134756307D01*
X187070054Y-134892390D01*
X187294504Y-134986493D01*
X187533000Y-135035000D01*
X187833000Y-135035000D01*
X187833000Y-133927000D01*
X188087000Y-133927000D01*
X188087000Y-135035000D01*
X188387000Y-135035000D01*
X188625496Y-134986493D01*
X188849946Y-134892390D01*
X189051725Y-134756307D01*
X189223078Y-134583474D01*
X189357421Y-134380533D01*
X189449591Y-134155282D01*
X189453462Y-134117609D01*
X189328731Y-133927000D01*
X188087000Y-133927000D01*
X187833000Y-133927000D01*
X186591269Y-133927000D01*
X186466538Y-134117609D01*
X181737000Y-134117609D01*
X181737000Y-131449999D01*
X186421928Y-131449999D01*
X186421928Y-132150001D01*
X186438992Y-132323255D01*
X186489528Y-132489851D01*
X186571595Y-132643387D01*
X186682038Y-132777962D01*
X186816613Y-132888405D01*
X186821406Y-132890967D01*
X186696922Y-133016526D01*
X186562579Y-133219467D01*
X186470409Y-133444718D01*
X186466538Y-133482391D01*
X186591269Y-133673000D01*
X187833000Y-133673000D01*
X187833000Y-133653000D01*
X188087000Y-133653000D01*
X188087000Y-133673000D01*
X189328731Y-133673000D01*
X189453462Y-133482391D01*
X189449591Y-133444718D01*
X189357421Y-133219467D01*
X189223078Y-133016526D01*
X189098594Y-132890967D01*
X189103387Y-132888405D01*
X189237962Y-132777962D01*
X189348405Y-132643387D01*
X189430472Y-132489851D01*
X189481008Y-132323255D01*
X189498072Y-132150001D01*
X189498072Y-131449999D01*
X189481008Y-131276745D01*
X189430472Y-131110149D01*
X189348405Y-130956613D01*
X189237962Y-130822038D01*
X189103387Y-130711595D01*
X188949851Y-130629528D01*
X188783255Y-130578992D01*
X188610001Y-130561928D01*
X187309999Y-130561928D01*
X187136745Y-130578992D01*
X186970149Y-130629528D01*
X186816613Y-130711595D01*
X186682038Y-130822038D01*
X186571595Y-130956613D01*
X186489528Y-131110149D01*
X186438992Y-131276745D01*
X186421928Y-131449999D01*
X181737000Y-131449999D01*
X181737000Y-122179609D01*
X186466538Y-122179609D01*
X186470409Y-122217282D01*
X186562579Y-122442533D01*
X186696922Y-122645474D01*
X186868275Y-122818307D01*
X187070054Y-122954390D01*
X187294504Y-123048493D01*
X187533000Y-123097000D01*
X187833000Y-123097000D01*
X187833000Y-121989000D01*
X188087000Y-121989000D01*
X188087000Y-123097000D01*
X188387000Y-123097000D01*
X188625496Y-123048493D01*
X188849946Y-122954390D01*
X189051725Y-122818307D01*
X189223078Y-122645474D01*
X189357421Y-122442533D01*
X189449591Y-122217282D01*
X189453462Y-122179609D01*
X189328731Y-121989000D01*
X188087000Y-121989000D01*
X187833000Y-121989000D01*
X186591269Y-121989000D01*
X186466538Y-122179609D01*
X181737000Y-122179609D01*
X181737000Y-119511999D01*
X186421928Y-119511999D01*
X186421928Y-120212001D01*
X186438992Y-120385255D01*
X186489528Y-120551851D01*
X186571595Y-120705387D01*
X186682038Y-120839962D01*
X186816613Y-120950405D01*
X186821406Y-120952967D01*
X186696922Y-121078526D01*
X186562579Y-121281467D01*
X186470409Y-121506718D01*
X186466538Y-121544391D01*
X186591269Y-121735000D01*
X187833000Y-121735000D01*
X187833000Y-121715000D01*
X188087000Y-121715000D01*
X188087000Y-121735000D01*
X189328731Y-121735000D01*
X189453462Y-121544391D01*
X189449591Y-121506718D01*
X189357421Y-121281467D01*
X189223078Y-121078526D01*
X189098594Y-120952967D01*
X189103387Y-120950405D01*
X189237962Y-120839962D01*
X189348405Y-120705387D01*
X189430472Y-120551851D01*
X189481008Y-120385255D01*
X189498072Y-120212001D01*
X189498072Y-119511999D01*
X189481008Y-119338745D01*
X189430472Y-119172149D01*
X189348405Y-119018613D01*
X189237962Y-118884038D01*
X189103387Y-118773595D01*
X188949851Y-118691528D01*
X188783255Y-118640992D01*
X188610001Y-118623928D01*
X187309999Y-118623928D01*
X187136745Y-118640992D01*
X186970149Y-118691528D01*
X186816613Y-118773595D01*
X186682038Y-118884038D01*
X186571595Y-119018613D01*
X186489528Y-119172149D01*
X186438992Y-119338745D01*
X186421928Y-119511999D01*
X181737000Y-119511999D01*
X181737000Y-110241609D01*
X186466538Y-110241609D01*
X186470409Y-110279282D01*
X186562579Y-110504533D01*
X186696922Y-110707474D01*
X186868275Y-110880307D01*
X187070054Y-111016390D01*
X187294504Y-111110493D01*
X187533000Y-111159000D01*
X187833000Y-111159000D01*
X187833000Y-110051000D01*
X188087000Y-110051000D01*
X188087000Y-111159000D01*
X188387000Y-111159000D01*
X188625496Y-111110493D01*
X188849946Y-111016390D01*
X189051725Y-110880307D01*
X189223078Y-110707474D01*
X189357421Y-110504533D01*
X189449591Y-110279282D01*
X189453462Y-110241609D01*
X189328731Y-110051000D01*
X188087000Y-110051000D01*
X187833000Y-110051000D01*
X186591269Y-110051000D01*
X186466538Y-110241609D01*
X181737000Y-110241609D01*
X181737000Y-107573999D01*
X186421928Y-107573999D01*
X186421928Y-108274001D01*
X186438992Y-108447255D01*
X186489528Y-108613851D01*
X186571595Y-108767387D01*
X186682038Y-108901962D01*
X186816613Y-109012405D01*
X186821406Y-109014967D01*
X186696922Y-109140526D01*
X186562579Y-109343467D01*
X186470409Y-109568718D01*
X186466538Y-109606391D01*
X186591269Y-109797000D01*
X187833000Y-109797000D01*
X187833000Y-109777000D01*
X188087000Y-109777000D01*
X188087000Y-109797000D01*
X189328731Y-109797000D01*
X189453462Y-109606391D01*
X189449591Y-109568718D01*
X189357421Y-109343467D01*
X189223078Y-109140526D01*
X189098594Y-109014967D01*
X189103387Y-109012405D01*
X189237962Y-108901962D01*
X189348405Y-108767387D01*
X189430472Y-108613851D01*
X189481008Y-108447255D01*
X189498072Y-108274001D01*
X189498072Y-107573999D01*
X189481008Y-107400745D01*
X189430472Y-107234149D01*
X189348405Y-107080613D01*
X189237962Y-106946038D01*
X189103387Y-106835595D01*
X188949851Y-106753528D01*
X188783255Y-106702992D01*
X188610001Y-106685928D01*
X187309999Y-106685928D01*
X187136745Y-106702992D01*
X186970149Y-106753528D01*
X186816613Y-106835595D01*
X186682038Y-106946038D01*
X186571595Y-107080613D01*
X186489528Y-107234149D01*
X186438992Y-107400745D01*
X186421928Y-107573999D01*
X181737000Y-107573999D01*
X181737000Y-98303609D01*
X186466538Y-98303609D01*
X186470409Y-98341282D01*
X186562579Y-98566533D01*
X186696922Y-98769474D01*
X186868275Y-98942307D01*
X187070054Y-99078390D01*
X187294504Y-99172493D01*
X187533000Y-99221000D01*
X187833000Y-99221000D01*
X187833000Y-98113000D01*
X188087000Y-98113000D01*
X188087000Y-99221000D01*
X188387000Y-99221000D01*
X188625496Y-99172493D01*
X188849946Y-99078390D01*
X189051725Y-98942307D01*
X189223078Y-98769474D01*
X189357421Y-98566533D01*
X189449591Y-98341282D01*
X189453462Y-98303609D01*
X189328731Y-98113000D01*
X188087000Y-98113000D01*
X187833000Y-98113000D01*
X186591269Y-98113000D01*
X186466538Y-98303609D01*
X181737000Y-98303609D01*
X181737000Y-95635999D01*
X186421928Y-95635999D01*
X186421928Y-96336001D01*
X186438992Y-96509255D01*
X186489528Y-96675851D01*
X186571595Y-96829387D01*
X186682038Y-96963962D01*
X186816613Y-97074405D01*
X186821406Y-97076967D01*
X186696922Y-97202526D01*
X186562579Y-97405467D01*
X186470409Y-97630718D01*
X186466538Y-97668391D01*
X186591269Y-97859000D01*
X187833000Y-97859000D01*
X187833000Y-97839000D01*
X188087000Y-97839000D01*
X188087000Y-97859000D01*
X189328731Y-97859000D01*
X189453462Y-97668391D01*
X189449591Y-97630718D01*
X189357421Y-97405467D01*
X189223078Y-97202526D01*
X189098594Y-97076967D01*
X189103387Y-97074405D01*
X189237962Y-96963962D01*
X189348405Y-96829387D01*
X189430472Y-96675851D01*
X189481008Y-96509255D01*
X189498072Y-96336001D01*
X189498072Y-95635999D01*
X189481008Y-95462745D01*
X189430472Y-95296149D01*
X189348405Y-95142613D01*
X189237962Y-95008038D01*
X189103387Y-94897595D01*
X188949851Y-94815528D01*
X188783255Y-94764992D01*
X188610001Y-94747928D01*
X187309999Y-94747928D01*
X187136745Y-94764992D01*
X186970149Y-94815528D01*
X186816613Y-94897595D01*
X186682038Y-95008038D01*
X186571595Y-95142613D01*
X186489528Y-95296149D01*
X186438992Y-95462745D01*
X186421928Y-95635999D01*
X181737000Y-95635999D01*
X181737000Y-86365609D01*
X186466538Y-86365609D01*
X186470409Y-86403282D01*
X186562579Y-86628533D01*
X186696922Y-86831474D01*
X186868275Y-87004307D01*
X187070054Y-87140390D01*
X187294504Y-87234493D01*
X187533000Y-87283000D01*
X187833000Y-87283000D01*
X187833000Y-86175000D01*
X188087000Y-86175000D01*
X188087000Y-87283000D01*
X188387000Y-87283000D01*
X188625496Y-87234493D01*
X188849946Y-87140390D01*
X189051725Y-87004307D01*
X189223078Y-86831474D01*
X189357421Y-86628533D01*
X189449591Y-86403282D01*
X189453462Y-86365609D01*
X189328731Y-86175000D01*
X188087000Y-86175000D01*
X187833000Y-86175000D01*
X186591269Y-86175000D01*
X186466538Y-86365609D01*
X181737000Y-86365609D01*
X181737000Y-83697999D01*
X186421928Y-83697999D01*
X186421928Y-84398001D01*
X186438992Y-84571255D01*
X186489528Y-84737851D01*
X186571595Y-84891387D01*
X186682038Y-85025962D01*
X186816613Y-85136405D01*
X186821406Y-85138967D01*
X186696922Y-85264526D01*
X186562579Y-85467467D01*
X186470409Y-85692718D01*
X186466538Y-85730391D01*
X186591269Y-85921000D01*
X187833000Y-85921000D01*
X187833000Y-85901000D01*
X188087000Y-85901000D01*
X188087000Y-85921000D01*
X189328731Y-85921000D01*
X189453462Y-85730391D01*
X189449591Y-85692718D01*
X189357421Y-85467467D01*
X189223078Y-85264526D01*
X189098594Y-85138967D01*
X189103387Y-85136405D01*
X189237962Y-85025962D01*
X189348405Y-84891387D01*
X189430472Y-84737851D01*
X189481008Y-84571255D01*
X189498072Y-84398001D01*
X189498072Y-83697999D01*
X189481008Y-83524745D01*
X189430472Y-83358149D01*
X189348405Y-83204613D01*
X189237962Y-83070038D01*
X189103387Y-82959595D01*
X188949851Y-82877528D01*
X188783255Y-82826992D01*
X188610001Y-82809928D01*
X187309999Y-82809928D01*
X187136745Y-82826992D01*
X186970149Y-82877528D01*
X186816613Y-82959595D01*
X186682038Y-83070038D01*
X186571595Y-83204613D01*
X186489528Y-83358149D01*
X186438992Y-83524745D01*
X186421928Y-83697999D01*
X181737000Y-83697999D01*
X181737000Y-74427609D01*
X186466538Y-74427609D01*
X186470409Y-74465282D01*
X186562579Y-74690533D01*
X186696922Y-74893474D01*
X186868275Y-75066307D01*
X187070054Y-75202390D01*
X187294504Y-75296493D01*
X187533000Y-75345000D01*
X187833000Y-75345000D01*
X187833000Y-74237000D01*
X188087000Y-74237000D01*
X188087000Y-75345000D01*
X188387000Y-75345000D01*
X188625496Y-75296493D01*
X188849946Y-75202390D01*
X189051725Y-75066307D01*
X189223078Y-74893474D01*
X189357421Y-74690533D01*
X189449591Y-74465282D01*
X189453462Y-74427609D01*
X189328731Y-74237000D01*
X188087000Y-74237000D01*
X187833000Y-74237000D01*
X186591269Y-74237000D01*
X186466538Y-74427609D01*
X181737000Y-74427609D01*
X181737000Y-71759999D01*
X186421928Y-71759999D01*
X186421928Y-72460001D01*
X186438992Y-72633255D01*
X186489528Y-72799851D01*
X186571595Y-72953387D01*
X186682038Y-73087962D01*
X186816613Y-73198405D01*
X186821406Y-73200967D01*
X186696922Y-73326526D01*
X186562579Y-73529467D01*
X186470409Y-73754718D01*
X186466538Y-73792391D01*
X186591269Y-73983000D01*
X187833000Y-73983000D01*
X187833000Y-73963000D01*
X188087000Y-73963000D01*
X188087000Y-73983000D01*
X189328731Y-73983000D01*
X189453462Y-73792391D01*
X189449591Y-73754718D01*
X189357421Y-73529467D01*
X189223078Y-73326526D01*
X189098594Y-73200967D01*
X189103387Y-73198405D01*
X189237962Y-73087962D01*
X189348405Y-72953387D01*
X189430472Y-72799851D01*
X189481008Y-72633255D01*
X189498072Y-72460001D01*
X189498072Y-71759999D01*
X189481008Y-71586745D01*
X189430472Y-71420149D01*
X189348405Y-71266613D01*
X189237962Y-71132038D01*
X189103387Y-71021595D01*
X188949851Y-70939528D01*
X188783255Y-70888992D01*
X188610001Y-70871928D01*
X187309999Y-70871928D01*
X187136745Y-70888992D01*
X186970149Y-70939528D01*
X186816613Y-71021595D01*
X186682038Y-71132038D01*
X186571595Y-71266613D01*
X186489528Y-71420149D01*
X186438992Y-71586745D01*
X186421928Y-71759999D01*
X181737000Y-71759999D01*
X181737000Y-68580000D01*
X181734560Y-68555224D01*
X181727333Y-68531399D01*
X181715597Y-68509443D01*
X181699803Y-68490197D01*
X181680557Y-68474403D01*
X181658601Y-68462667D01*
X181634776Y-68455440D01*
X181610000Y-68453000D01*
X167767000Y-68453000D01*
X167767000Y-59320000D01*
X180071928Y-59320000D01*
X180084188Y-59444482D01*
X180120498Y-59564180D01*
X180179463Y-59674494D01*
X180258815Y-59771185D01*
X180355506Y-59850537D01*
X180465820Y-59909502D01*
X180585518Y-59945812D01*
X180710000Y-59958072D01*
X181324250Y-59955000D01*
X181483000Y-59796250D01*
X181483000Y-58547000D01*
X180233750Y-58547000D01*
X180075000Y-58705750D01*
X180071928Y-59320000D01*
X167767000Y-59320000D01*
X167767000Y-57520000D01*
X180071928Y-57520000D01*
X180075000Y-58134250D01*
X180233750Y-58293000D01*
X181483000Y-58293000D01*
X181483000Y-57043750D01*
X181737000Y-57043750D01*
X181737000Y-58293000D01*
X181757000Y-58293000D01*
X181757000Y-58547000D01*
X181737000Y-58547000D01*
X181737000Y-59796250D01*
X181895750Y-59955000D01*
X182510000Y-59958072D01*
X182634482Y-59945812D01*
X182754180Y-59909502D01*
X182864494Y-59850537D01*
X182961185Y-59771185D01*
X183040537Y-59674494D01*
X183099502Y-59564180D01*
X183105056Y-59545873D01*
X183171495Y-59612312D01*
X183422905Y-59780299D01*
X183702257Y-59896011D01*
X183998816Y-59955000D01*
X184301184Y-59955000D01*
X184597743Y-59896011D01*
X184877095Y-59780299D01*
X185128505Y-59612312D01*
X185325116Y-59415701D01*
X188985000Y-59415701D01*
X188985000Y-59964299D01*
X189092026Y-60502354D01*
X189301965Y-61009192D01*
X189606750Y-61465334D01*
X189994666Y-61853250D01*
X190450808Y-62158035D01*
X190957646Y-62367974D01*
X191495701Y-62475000D01*
X192044299Y-62475000D01*
X192582354Y-62367974D01*
X193089192Y-62158035D01*
X193545334Y-61853250D01*
X193933250Y-61465334D01*
X194238035Y-61009192D01*
X194447974Y-60502354D01*
X194555000Y-59964299D01*
X194555000Y-59415701D01*
X194447974Y-58877646D01*
X194238035Y-58370808D01*
X193933250Y-57914666D01*
X193545334Y-57526750D01*
X193089192Y-57221965D01*
X192582354Y-57012026D01*
X192044299Y-56905000D01*
X191495701Y-56905000D01*
X190957646Y-57012026D01*
X190450808Y-57221965D01*
X189994666Y-57526750D01*
X189606750Y-57914666D01*
X189301965Y-58370808D01*
X189092026Y-58877646D01*
X188985000Y-59415701D01*
X185325116Y-59415701D01*
X185342312Y-59398505D01*
X185510299Y-59147095D01*
X185626011Y-58867743D01*
X185685000Y-58571184D01*
X185685000Y-58268816D01*
X185626011Y-57972257D01*
X185510299Y-57692905D01*
X185342312Y-57441495D01*
X185128505Y-57227688D01*
X184877095Y-57059701D01*
X184597743Y-56943989D01*
X184301184Y-56885000D01*
X183998816Y-56885000D01*
X183702257Y-56943989D01*
X183422905Y-57059701D01*
X183171495Y-57227688D01*
X183105056Y-57294127D01*
X183099502Y-57275820D01*
X183040537Y-57165506D01*
X182961185Y-57068815D01*
X182864494Y-56989463D01*
X182754180Y-56930498D01*
X182634482Y-56894188D01*
X182510000Y-56881928D01*
X181895750Y-56885000D01*
X181737000Y-57043750D01*
X181483000Y-57043750D01*
X181324250Y-56885000D01*
X180710000Y-56881928D01*
X180585518Y-56894188D01*
X180465820Y-56930498D01*
X180355506Y-56989463D01*
X180258815Y-57068815D01*
X180179463Y-57165506D01*
X180120498Y-57275820D01*
X180084188Y-57395518D01*
X180071928Y-57520000D01*
X167767000Y-57520000D01*
X167767000Y-54610000D01*
X167764560Y-54585224D01*
X167757333Y-54561399D01*
X167745597Y-54539443D01*
X167729803Y-54520197D01*
X167710557Y-54504403D01*
X167688601Y-54492667D01*
X167664776Y-54485440D01*
X167640000Y-54483000D01*
X138430000Y-54483000D01*
X138405224Y-54485440D01*
X138381399Y-54492667D01*
X138359443Y-54504403D01*
X138340197Y-54520197D01*
X138324403Y-54539443D01*
X138312667Y-54561399D01*
X138305440Y-54585224D01*
X138303000Y-54610000D01*
X138303000Y-68453000D01*
X129540000Y-68453000D01*
X129515224Y-68455440D01*
X129491399Y-68462667D01*
X129469443Y-68474403D01*
X129450197Y-68490197D01*
X129434403Y-68509443D01*
X129422667Y-68531399D01*
X129415440Y-68555224D01*
X129413000Y-68580000D01*
X111175000Y-68580000D01*
X111175000Y-59415701D01*
X115325000Y-59415701D01*
X115325000Y-59964299D01*
X115432026Y-60502354D01*
X115641965Y-61009192D01*
X115946750Y-61465334D01*
X116334666Y-61853250D01*
X116790808Y-62158035D01*
X117297646Y-62367974D01*
X117835701Y-62475000D01*
X118384299Y-62475000D01*
X118922354Y-62367974D01*
X119210785Y-62248502D01*
X128431103Y-62248502D01*
X128767260Y-62717657D01*
X129397177Y-63058000D01*
X130081388Y-63268913D01*
X130793599Y-63342290D01*
X131506441Y-63275311D01*
X132192518Y-63070552D01*
X132825466Y-62735879D01*
X132852740Y-62717657D01*
X133188897Y-62248502D01*
X130810000Y-59869605D01*
X128431103Y-62248502D01*
X119210785Y-62248502D01*
X119429192Y-62158035D01*
X119885334Y-61853250D01*
X120273250Y-61465334D01*
X120578035Y-61009192D01*
X120787974Y-60502354D01*
X120895000Y-59964299D01*
X120895000Y-59673599D01*
X127157710Y-59673599D01*
X127224689Y-60386441D01*
X127429448Y-61072518D01*
X127764121Y-61705466D01*
X127782343Y-61732740D01*
X128251498Y-62068897D01*
X130630395Y-59690000D01*
X130989605Y-59690000D01*
X133368502Y-62068897D01*
X133837657Y-61732740D01*
X134178000Y-61102823D01*
X134388913Y-60418612D01*
X134462290Y-59706401D01*
X134395311Y-58993559D01*
X134190552Y-58307482D01*
X133855879Y-57674534D01*
X133837657Y-57647260D01*
X133368502Y-57311103D01*
X130989605Y-59690000D01*
X130630395Y-59690000D01*
X128251498Y-57311103D01*
X127782343Y-57647260D01*
X127442000Y-58277177D01*
X127231087Y-58961388D01*
X127157710Y-59673599D01*
X120895000Y-59673599D01*
X120895000Y-59415701D01*
X120787974Y-58877646D01*
X120578035Y-58370808D01*
X120273250Y-57914666D01*
X119885334Y-57526750D01*
X119429192Y-57221965D01*
X119210786Y-57131498D01*
X128431103Y-57131498D01*
X130810000Y-59510395D01*
X133188897Y-57131498D01*
X132852740Y-56662343D01*
X132222823Y-56322000D01*
X131538612Y-56111087D01*
X130826401Y-56037710D01*
X130113559Y-56104689D01*
X129427482Y-56309448D01*
X128794534Y-56644121D01*
X128767260Y-56662343D01*
X128431103Y-57131498D01*
X119210786Y-57131498D01*
X118922354Y-57012026D01*
X118384299Y-56905000D01*
X117835701Y-56905000D01*
X117297646Y-57012026D01*
X116790808Y-57221965D01*
X116334666Y-57526750D01*
X115946750Y-57914666D01*
X115641965Y-58370808D01*
X115432026Y-58877646D01*
X115325000Y-59415701D01*
X111175000Y-59415701D01*
X111175000Y-54025000D01*
X197435000Y-54025000D01*
X197435001Y-149175000D01*
G37*
X197435001Y-149175000D02*
X111175000Y-149175000D01*
X111175000Y-141965701D01*
X116595000Y-141965701D01*
X116595000Y-142514299D01*
X116702026Y-143052354D01*
X116911965Y-143559192D01*
X117216750Y-144015334D01*
X117604666Y-144403250D01*
X118060808Y-144708035D01*
X118567646Y-144917974D01*
X119105701Y-145025000D01*
X119654299Y-145025000D01*
X120192354Y-144917974D01*
X120699192Y-144708035D01*
X121155334Y-144403250D01*
X121543250Y-144015334D01*
X121848035Y-143559192D01*
X122057974Y-143052354D01*
X122165000Y-142514299D01*
X122165000Y-141965701D01*
X186445000Y-141965701D01*
X186445000Y-142514299D01*
X186552026Y-143052354D01*
X186761965Y-143559192D01*
X187066750Y-144015334D01*
X187454666Y-144403250D01*
X187910808Y-144708035D01*
X188417646Y-144917974D01*
X188955701Y-145025000D01*
X189504299Y-145025000D01*
X190042354Y-144917974D01*
X190549192Y-144708035D01*
X191005334Y-144403250D01*
X191393250Y-144015334D01*
X191698035Y-143559192D01*
X191907974Y-143052354D01*
X192015000Y-142514299D01*
X192015000Y-141965701D01*
X191907974Y-141427646D01*
X191698035Y-140920808D01*
X191393250Y-140464666D01*
X191005334Y-140076750D01*
X190549192Y-139771965D01*
X190042354Y-139562026D01*
X189504299Y-139455000D01*
X188955701Y-139455000D01*
X188417646Y-139562026D01*
X187910808Y-139771965D01*
X187454666Y-140076750D01*
X187066750Y-140464666D01*
X186761965Y-140920808D01*
X186552026Y-141427646D01*
X186445000Y-141965701D01*
X122165000Y-141965701D01*
X122057974Y-141427646D01*
X121848035Y-140920808D01*
X121543250Y-140464666D01*
X121155334Y-140076750D01*
X120699192Y-139771965D01*
X120192354Y-139562026D01*
X119654299Y-139455000D01*
X119105701Y-139455000D01*
X118567646Y-139562026D01*
X118060808Y-139771965D01*
X117604666Y-140076750D01*
X117216750Y-140464666D01*
X116911965Y-140920808D01*
X116702026Y-141427646D01*
X116595000Y-141965701D01*
X111175000Y-141965701D01*
X111175000Y-134117609D01*
X120426538Y-134117609D01*
X120430409Y-134155282D01*
X120522579Y-134380533D01*
X120656922Y-134583474D01*
X120828275Y-134756307D01*
X121030054Y-134892390D01*
X121254504Y-134986493D01*
X121493000Y-135035000D01*
X121793000Y-135035000D01*
X121793000Y-133927000D01*
X122047000Y-133927000D01*
X122047000Y-135035000D01*
X122347000Y-135035000D01*
X122585496Y-134986493D01*
X122809946Y-134892390D01*
X123011725Y-134756307D01*
X123183078Y-134583474D01*
X123317421Y-134380533D01*
X123409591Y-134155282D01*
X123413462Y-134117609D01*
X123288731Y-133927000D01*
X122047000Y-133927000D01*
X121793000Y-133927000D01*
X120551269Y-133927000D01*
X120426538Y-134117609D01*
X111175000Y-134117609D01*
X111175000Y-131449999D01*
X120381928Y-131449999D01*
X120381928Y-132150001D01*
X120398992Y-132323255D01*
X120449528Y-132489851D01*
X120531595Y-132643387D01*
X120642038Y-132777962D01*
X120776613Y-132888405D01*
X120781406Y-132890967D01*
X120656922Y-133016526D01*
X120522579Y-133219467D01*
X120430409Y-133444718D01*
X120426538Y-133482391D01*
X120551269Y-133673000D01*
X121793000Y-133673000D01*
X121793000Y-133653000D01*
X122047000Y-133653000D01*
X122047000Y-133673000D01*
X123288731Y-133673000D01*
X123413462Y-133482391D01*
X123409591Y-133444718D01*
X123317421Y-133219467D01*
X123183078Y-133016526D01*
X123058594Y-132890967D01*
X123063387Y-132888405D01*
X123197962Y-132777962D01*
X123308405Y-132643387D01*
X123390472Y-132489851D01*
X123441008Y-132323255D01*
X123458072Y-132150001D01*
X123458072Y-131449999D01*
X123441008Y-131276745D01*
X123390472Y-131110149D01*
X123308405Y-130956613D01*
X123197962Y-130822038D01*
X123063387Y-130711595D01*
X122909851Y-130629528D01*
X122743255Y-130578992D01*
X122570001Y-130561928D01*
X121269999Y-130561928D01*
X121096745Y-130578992D01*
X120930149Y-130629528D01*
X120776613Y-130711595D01*
X120642038Y-130822038D01*
X120531595Y-130956613D01*
X120449528Y-131110149D01*
X120398992Y-131276745D01*
X120381928Y-131449999D01*
X111175000Y-131449999D01*
X111175000Y-122179609D01*
X120426538Y-122179609D01*
X120430409Y-122217282D01*
X120522579Y-122442533D01*
X120656922Y-122645474D01*
X120828275Y-122818307D01*
X121030054Y-122954390D01*
X121254504Y-123048493D01*
X121493000Y-123097000D01*
X121793000Y-123097000D01*
X121793000Y-121989000D01*
X122047000Y-121989000D01*
X122047000Y-123097000D01*
X122347000Y-123097000D01*
X122585496Y-123048493D01*
X122809946Y-122954390D01*
X123011725Y-122818307D01*
X123183078Y-122645474D01*
X123317421Y-122442533D01*
X123409591Y-122217282D01*
X123413462Y-122179609D01*
X123288731Y-121989000D01*
X122047000Y-121989000D01*
X121793000Y-121989000D01*
X120551269Y-121989000D01*
X120426538Y-122179609D01*
X111175000Y-122179609D01*
X111175000Y-119511999D01*
X120381928Y-119511999D01*
X120381928Y-120212001D01*
X120398992Y-120385255D01*
X120449528Y-120551851D01*
X120531595Y-120705387D01*
X120642038Y-120839962D01*
X120776613Y-120950405D01*
X120781406Y-120952967D01*
X120656922Y-121078526D01*
X120522579Y-121281467D01*
X120430409Y-121506718D01*
X120426538Y-121544391D01*
X120551269Y-121735000D01*
X121793000Y-121735000D01*
X121793000Y-121715000D01*
X122047000Y-121715000D01*
X122047000Y-121735000D01*
X123288731Y-121735000D01*
X123413462Y-121544391D01*
X123409591Y-121506718D01*
X123317421Y-121281467D01*
X123183078Y-121078526D01*
X123058594Y-120952967D01*
X123063387Y-120950405D01*
X123197962Y-120839962D01*
X123308405Y-120705387D01*
X123390472Y-120551851D01*
X123441008Y-120385255D01*
X123458072Y-120212001D01*
X123458072Y-119511999D01*
X123441008Y-119338745D01*
X123390472Y-119172149D01*
X123308405Y-119018613D01*
X123197962Y-118884038D01*
X123063387Y-118773595D01*
X122909851Y-118691528D01*
X122743255Y-118640992D01*
X122570001Y-118623928D01*
X121269999Y-118623928D01*
X121096745Y-118640992D01*
X120930149Y-118691528D01*
X120776613Y-118773595D01*
X120642038Y-118884038D01*
X120531595Y-119018613D01*
X120449528Y-119172149D01*
X120398992Y-119338745D01*
X120381928Y-119511999D01*
X111175000Y-119511999D01*
X111175000Y-110241609D01*
X120426538Y-110241609D01*
X120430409Y-110279282D01*
X120522579Y-110504533D01*
X120656922Y-110707474D01*
X120828275Y-110880307D01*
X121030054Y-111016390D01*
X121254504Y-111110493D01*
X121493000Y-111159000D01*
X121793000Y-111159000D01*
X121793000Y-110051000D01*
X122047000Y-110051000D01*
X122047000Y-111159000D01*
X122347000Y-111159000D01*
X122585496Y-111110493D01*
X122809946Y-111016390D01*
X123011725Y-110880307D01*
X123183078Y-110707474D01*
X123317421Y-110504533D01*
X123409591Y-110279282D01*
X123413462Y-110241609D01*
X123288731Y-110051000D01*
X122047000Y-110051000D01*
X121793000Y-110051000D01*
X120551269Y-110051000D01*
X120426538Y-110241609D01*
X111175000Y-110241609D01*
X111175000Y-107573999D01*
X120381928Y-107573999D01*
X120381928Y-108274001D01*
X120398992Y-108447255D01*
X120449528Y-108613851D01*
X120531595Y-108767387D01*
X120642038Y-108901962D01*
X120776613Y-109012405D01*
X120781406Y-109014967D01*
X120656922Y-109140526D01*
X120522579Y-109343467D01*
X120430409Y-109568718D01*
X120426538Y-109606391D01*
X120551269Y-109797000D01*
X121793000Y-109797000D01*
X121793000Y-109777000D01*
X122047000Y-109777000D01*
X122047000Y-109797000D01*
X123288731Y-109797000D01*
X123413462Y-109606391D01*
X123409591Y-109568718D01*
X123317421Y-109343467D01*
X123183078Y-109140526D01*
X123058594Y-109014967D01*
X123063387Y-109012405D01*
X123197962Y-108901962D01*
X123308405Y-108767387D01*
X123390472Y-108613851D01*
X123441008Y-108447255D01*
X123458072Y-108274001D01*
X123458072Y-107573999D01*
X123441008Y-107400745D01*
X123390472Y-107234149D01*
X123308405Y-107080613D01*
X123197962Y-106946038D01*
X123063387Y-106835595D01*
X122909851Y-106753528D01*
X122743255Y-106702992D01*
X122570001Y-106685928D01*
X121269999Y-106685928D01*
X121096745Y-106702992D01*
X120930149Y-106753528D01*
X120776613Y-106835595D01*
X120642038Y-106946038D01*
X120531595Y-107080613D01*
X120449528Y-107234149D01*
X120398992Y-107400745D01*
X120381928Y-107573999D01*
X111175000Y-107573999D01*
X111175000Y-98303609D01*
X120426538Y-98303609D01*
X120430409Y-98341282D01*
X120522579Y-98566533D01*
X120656922Y-98769474D01*
X120828275Y-98942307D01*
X121030054Y-99078390D01*
X121254504Y-99172493D01*
X121493000Y-99221000D01*
X121793000Y-99221000D01*
X121793000Y-98113000D01*
X122047000Y-98113000D01*
X122047000Y-99221000D01*
X122347000Y-99221000D01*
X122585496Y-99172493D01*
X122809946Y-99078390D01*
X123011725Y-98942307D01*
X123183078Y-98769474D01*
X123317421Y-98566533D01*
X123409591Y-98341282D01*
X123413462Y-98303609D01*
X123288731Y-98113000D01*
X122047000Y-98113000D01*
X121793000Y-98113000D01*
X120551269Y-98113000D01*
X120426538Y-98303609D01*
X111175000Y-98303609D01*
X111175000Y-95635999D01*
X120381928Y-95635999D01*
X120381928Y-96336001D01*
X120398992Y-96509255D01*
X120449528Y-96675851D01*
X120531595Y-96829387D01*
X120642038Y-96963962D01*
X120776613Y-97074405D01*
X120781406Y-97076967D01*
X120656922Y-97202526D01*
X120522579Y-97405467D01*
X120430409Y-97630718D01*
X120426538Y-97668391D01*
X120551269Y-97859000D01*
X121793000Y-97859000D01*
X121793000Y-97839000D01*
X122047000Y-97839000D01*
X122047000Y-97859000D01*
X123288731Y-97859000D01*
X123413462Y-97668391D01*
X123409591Y-97630718D01*
X123317421Y-97405467D01*
X123183078Y-97202526D01*
X123058594Y-97076967D01*
X123063387Y-97074405D01*
X123197962Y-96963962D01*
X123308405Y-96829387D01*
X123390472Y-96675851D01*
X123441008Y-96509255D01*
X123458072Y-96336001D01*
X123458072Y-95635999D01*
X123441008Y-95462745D01*
X123390472Y-95296149D01*
X123308405Y-95142613D01*
X123197962Y-95008038D01*
X123063387Y-94897595D01*
X122909851Y-94815528D01*
X122743255Y-94764992D01*
X122570001Y-94747928D01*
X121269999Y-94747928D01*
X121096745Y-94764992D01*
X120930149Y-94815528D01*
X120776613Y-94897595D01*
X120642038Y-95008038D01*
X120531595Y-95142613D01*
X120449528Y-95296149D01*
X120398992Y-95462745D01*
X120381928Y-95635999D01*
X111175000Y-95635999D01*
X111175000Y-86365609D01*
X120426538Y-86365609D01*
X120430409Y-86403282D01*
X120522579Y-86628533D01*
X120656922Y-86831474D01*
X120828275Y-87004307D01*
X121030054Y-87140390D01*
X121254504Y-87234493D01*
X121493000Y-87283000D01*
X121793000Y-87283000D01*
X121793000Y-86175000D01*
X122047000Y-86175000D01*
X122047000Y-87283000D01*
X122347000Y-87283000D01*
X122585496Y-87234493D01*
X122809946Y-87140390D01*
X123011725Y-87004307D01*
X123183078Y-86831474D01*
X123317421Y-86628533D01*
X123409591Y-86403282D01*
X123413462Y-86365609D01*
X123288731Y-86175000D01*
X122047000Y-86175000D01*
X121793000Y-86175000D01*
X120551269Y-86175000D01*
X120426538Y-86365609D01*
X111175000Y-86365609D01*
X111175000Y-83697999D01*
X120381928Y-83697999D01*
X120381928Y-84398001D01*
X120398992Y-84571255D01*
X120449528Y-84737851D01*
X120531595Y-84891387D01*
X120642038Y-85025962D01*
X120776613Y-85136405D01*
X120781406Y-85138967D01*
X120656922Y-85264526D01*
X120522579Y-85467467D01*
X120430409Y-85692718D01*
X120426538Y-85730391D01*
X120551269Y-85921000D01*
X121793000Y-85921000D01*
X121793000Y-85901000D01*
X122047000Y-85901000D01*
X122047000Y-85921000D01*
X123288731Y-85921000D01*
X123413462Y-85730391D01*
X123409591Y-85692718D01*
X123317421Y-85467467D01*
X123183078Y-85264526D01*
X123058594Y-85138967D01*
X123063387Y-85136405D01*
X123197962Y-85025962D01*
X123308405Y-84891387D01*
X123390472Y-84737851D01*
X123441008Y-84571255D01*
X123458072Y-84398001D01*
X123458072Y-83697999D01*
X123441008Y-83524745D01*
X123390472Y-83358149D01*
X123308405Y-83204613D01*
X123197962Y-83070038D01*
X123063387Y-82959595D01*
X122909851Y-82877528D01*
X122743255Y-82826992D01*
X122570001Y-82809928D01*
X121269999Y-82809928D01*
X121096745Y-82826992D01*
X120930149Y-82877528D01*
X120776613Y-82959595D01*
X120642038Y-83070038D01*
X120531595Y-83204613D01*
X120449528Y-83358149D01*
X120398992Y-83524745D01*
X120381928Y-83697999D01*
X111175000Y-83697999D01*
X111175000Y-74427609D01*
X120426538Y-74427609D01*
X120430409Y-74465282D01*
X120522579Y-74690533D01*
X120656922Y-74893474D01*
X120828275Y-75066307D01*
X121030054Y-75202390D01*
X121254504Y-75296493D01*
X121493000Y-75345000D01*
X121793000Y-75345000D01*
X121793000Y-74237000D01*
X122047000Y-74237000D01*
X122047000Y-75345000D01*
X122347000Y-75345000D01*
X122585496Y-75296493D01*
X122809946Y-75202390D01*
X123011725Y-75066307D01*
X123183078Y-74893474D01*
X123317421Y-74690533D01*
X123409591Y-74465282D01*
X123413462Y-74427609D01*
X123288731Y-74237000D01*
X122047000Y-74237000D01*
X121793000Y-74237000D01*
X120551269Y-74237000D01*
X120426538Y-74427609D01*
X111175000Y-74427609D01*
X111175000Y-71759999D01*
X120381928Y-71759999D01*
X120381928Y-72460001D01*
X120398992Y-72633255D01*
X120449528Y-72799851D01*
X120531595Y-72953387D01*
X120642038Y-73087962D01*
X120776613Y-73198405D01*
X120781406Y-73200967D01*
X120656922Y-73326526D01*
X120522579Y-73529467D01*
X120430409Y-73754718D01*
X120426538Y-73792391D01*
X120551269Y-73983000D01*
X121793000Y-73983000D01*
X121793000Y-73963000D01*
X122047000Y-73963000D01*
X122047000Y-73983000D01*
X123288731Y-73983000D01*
X123413462Y-73792391D01*
X123409591Y-73754718D01*
X123317421Y-73529467D01*
X123183078Y-73326526D01*
X123058594Y-73200967D01*
X123063387Y-73198405D01*
X123197962Y-73087962D01*
X123308405Y-72953387D01*
X123390472Y-72799851D01*
X123441008Y-72633255D01*
X123458072Y-72460001D01*
X123458072Y-71759999D01*
X123441008Y-71586745D01*
X123390472Y-71420149D01*
X123308405Y-71266613D01*
X123197962Y-71132038D01*
X123063387Y-71021595D01*
X122909851Y-70939528D01*
X122743255Y-70888992D01*
X122570001Y-70871928D01*
X121269999Y-70871928D01*
X121096745Y-70888992D01*
X120930149Y-70939528D01*
X120776613Y-71021595D01*
X120642038Y-71132038D01*
X120531595Y-71266613D01*
X120449528Y-71420149D01*
X120398992Y-71586745D01*
X120381928Y-71759999D01*
X111175000Y-71759999D01*
X111175000Y-68580000D01*
X129413000Y-68580000D01*
X129413000Y-138430000D01*
X129415440Y-138454776D01*
X129422667Y-138478601D01*
X129434403Y-138500557D01*
X129450197Y-138519803D01*
X129469443Y-138535597D01*
X129491399Y-138547333D01*
X129515224Y-138554560D01*
X129540000Y-138557000D01*
X181610000Y-138557000D01*
X181634776Y-138554560D01*
X181658601Y-138547333D01*
X181680557Y-138535597D01*
X181699803Y-138519803D01*
X181715597Y-138500557D01*
X181727333Y-138478601D01*
X181734560Y-138454776D01*
X181737000Y-138430000D01*
X181737000Y-134117609D01*
X186466538Y-134117609D01*
X186470409Y-134155282D01*
X186562579Y-134380533D01*
X186696922Y-134583474D01*
X186868275Y-134756307D01*
X187070054Y-134892390D01*
X187294504Y-134986493D01*
X187533000Y-135035000D01*
X187833000Y-135035000D01*
X187833000Y-133927000D01*
X188087000Y-133927000D01*
X188087000Y-135035000D01*
X188387000Y-135035000D01*
X188625496Y-134986493D01*
X188849946Y-134892390D01*
X189051725Y-134756307D01*
X189223078Y-134583474D01*
X189357421Y-134380533D01*
X189449591Y-134155282D01*
X189453462Y-134117609D01*
X189328731Y-133927000D01*
X188087000Y-133927000D01*
X187833000Y-133927000D01*
X186591269Y-133927000D01*
X186466538Y-134117609D01*
X181737000Y-134117609D01*
X181737000Y-131449999D01*
X186421928Y-131449999D01*
X186421928Y-132150001D01*
X186438992Y-132323255D01*
X186489528Y-132489851D01*
X186571595Y-132643387D01*
X186682038Y-132777962D01*
X186816613Y-132888405D01*
X186821406Y-132890967D01*
X186696922Y-133016526D01*
X186562579Y-133219467D01*
X186470409Y-133444718D01*
X186466538Y-133482391D01*
X186591269Y-133673000D01*
X187833000Y-133673000D01*
X187833000Y-133653000D01*
X188087000Y-133653000D01*
X188087000Y-133673000D01*
X189328731Y-133673000D01*
X189453462Y-133482391D01*
X189449591Y-133444718D01*
X189357421Y-133219467D01*
X189223078Y-133016526D01*
X189098594Y-132890967D01*
X189103387Y-132888405D01*
X189237962Y-132777962D01*
X189348405Y-132643387D01*
X189430472Y-132489851D01*
X189481008Y-132323255D01*
X189498072Y-132150001D01*
X189498072Y-131449999D01*
X189481008Y-131276745D01*
X189430472Y-131110149D01*
X189348405Y-130956613D01*
X189237962Y-130822038D01*
X189103387Y-130711595D01*
X188949851Y-130629528D01*
X188783255Y-130578992D01*
X188610001Y-130561928D01*
X187309999Y-130561928D01*
X187136745Y-130578992D01*
X186970149Y-130629528D01*
X186816613Y-130711595D01*
X186682038Y-130822038D01*
X186571595Y-130956613D01*
X186489528Y-131110149D01*
X186438992Y-131276745D01*
X186421928Y-131449999D01*
X181737000Y-131449999D01*
X181737000Y-122179609D01*
X186466538Y-122179609D01*
X186470409Y-122217282D01*
X186562579Y-122442533D01*
X186696922Y-122645474D01*
X186868275Y-122818307D01*
X187070054Y-122954390D01*
X187294504Y-123048493D01*
X187533000Y-123097000D01*
X187833000Y-123097000D01*
X187833000Y-121989000D01*
X188087000Y-121989000D01*
X188087000Y-123097000D01*
X188387000Y-123097000D01*
X188625496Y-123048493D01*
X188849946Y-122954390D01*
X189051725Y-122818307D01*
X189223078Y-122645474D01*
X189357421Y-122442533D01*
X189449591Y-122217282D01*
X189453462Y-122179609D01*
X189328731Y-121989000D01*
X188087000Y-121989000D01*
X187833000Y-121989000D01*
X186591269Y-121989000D01*
X186466538Y-122179609D01*
X181737000Y-122179609D01*
X181737000Y-119511999D01*
X186421928Y-119511999D01*
X186421928Y-120212001D01*
X186438992Y-120385255D01*
X186489528Y-120551851D01*
X186571595Y-120705387D01*
X186682038Y-120839962D01*
X186816613Y-120950405D01*
X186821406Y-120952967D01*
X186696922Y-121078526D01*
X186562579Y-121281467D01*
X186470409Y-121506718D01*
X186466538Y-121544391D01*
X186591269Y-121735000D01*
X187833000Y-121735000D01*
X187833000Y-121715000D01*
X188087000Y-121715000D01*
X188087000Y-121735000D01*
X189328731Y-121735000D01*
X189453462Y-121544391D01*
X189449591Y-121506718D01*
X189357421Y-121281467D01*
X189223078Y-121078526D01*
X189098594Y-120952967D01*
X189103387Y-120950405D01*
X189237962Y-120839962D01*
X189348405Y-120705387D01*
X189430472Y-120551851D01*
X189481008Y-120385255D01*
X189498072Y-120212001D01*
X189498072Y-119511999D01*
X189481008Y-119338745D01*
X189430472Y-119172149D01*
X189348405Y-119018613D01*
X189237962Y-118884038D01*
X189103387Y-118773595D01*
X188949851Y-118691528D01*
X188783255Y-118640992D01*
X188610001Y-118623928D01*
X187309999Y-118623928D01*
X187136745Y-118640992D01*
X186970149Y-118691528D01*
X186816613Y-118773595D01*
X186682038Y-118884038D01*
X186571595Y-119018613D01*
X186489528Y-119172149D01*
X186438992Y-119338745D01*
X186421928Y-119511999D01*
X181737000Y-119511999D01*
X181737000Y-110241609D01*
X186466538Y-110241609D01*
X186470409Y-110279282D01*
X186562579Y-110504533D01*
X186696922Y-110707474D01*
X186868275Y-110880307D01*
X187070054Y-111016390D01*
X187294504Y-111110493D01*
X187533000Y-111159000D01*
X187833000Y-111159000D01*
X187833000Y-110051000D01*
X188087000Y-110051000D01*
X188087000Y-111159000D01*
X188387000Y-111159000D01*
X188625496Y-111110493D01*
X188849946Y-111016390D01*
X189051725Y-110880307D01*
X189223078Y-110707474D01*
X189357421Y-110504533D01*
X189449591Y-110279282D01*
X189453462Y-110241609D01*
X189328731Y-110051000D01*
X188087000Y-110051000D01*
X187833000Y-110051000D01*
X186591269Y-110051000D01*
X186466538Y-110241609D01*
X181737000Y-110241609D01*
X181737000Y-107573999D01*
X186421928Y-107573999D01*
X186421928Y-108274001D01*
X186438992Y-108447255D01*
X186489528Y-108613851D01*
X186571595Y-108767387D01*
X186682038Y-108901962D01*
X186816613Y-109012405D01*
X186821406Y-109014967D01*
X186696922Y-109140526D01*
X186562579Y-109343467D01*
X186470409Y-109568718D01*
X186466538Y-109606391D01*
X186591269Y-109797000D01*
X187833000Y-109797000D01*
X187833000Y-109777000D01*
X188087000Y-109777000D01*
X188087000Y-109797000D01*
X189328731Y-109797000D01*
X189453462Y-109606391D01*
X189449591Y-109568718D01*
X189357421Y-109343467D01*
X189223078Y-109140526D01*
X189098594Y-109014967D01*
X189103387Y-109012405D01*
X189237962Y-108901962D01*
X189348405Y-108767387D01*
X189430472Y-108613851D01*
X189481008Y-108447255D01*
X189498072Y-108274001D01*
X189498072Y-107573999D01*
X189481008Y-107400745D01*
X189430472Y-107234149D01*
X189348405Y-107080613D01*
X189237962Y-106946038D01*
X189103387Y-106835595D01*
X188949851Y-106753528D01*
X188783255Y-106702992D01*
X188610001Y-106685928D01*
X187309999Y-106685928D01*
X187136745Y-106702992D01*
X186970149Y-106753528D01*
X186816613Y-106835595D01*
X186682038Y-106946038D01*
X186571595Y-107080613D01*
X186489528Y-107234149D01*
X186438992Y-107400745D01*
X186421928Y-107573999D01*
X181737000Y-107573999D01*
X181737000Y-98303609D01*
X186466538Y-98303609D01*
X186470409Y-98341282D01*
X186562579Y-98566533D01*
X186696922Y-98769474D01*
X186868275Y-98942307D01*
X187070054Y-99078390D01*
X187294504Y-99172493D01*
X187533000Y-99221000D01*
X187833000Y-99221000D01*
X187833000Y-98113000D01*
X188087000Y-98113000D01*
X188087000Y-99221000D01*
X188387000Y-99221000D01*
X188625496Y-99172493D01*
X188849946Y-99078390D01*
X189051725Y-98942307D01*
X189223078Y-98769474D01*
X189357421Y-98566533D01*
X189449591Y-98341282D01*
X189453462Y-98303609D01*
X189328731Y-98113000D01*
X188087000Y-98113000D01*
X187833000Y-98113000D01*
X186591269Y-98113000D01*
X186466538Y-98303609D01*
X181737000Y-98303609D01*
X181737000Y-95635999D01*
X186421928Y-95635999D01*
X186421928Y-96336001D01*
X186438992Y-96509255D01*
X186489528Y-96675851D01*
X186571595Y-96829387D01*
X186682038Y-96963962D01*
X186816613Y-97074405D01*
X186821406Y-97076967D01*
X186696922Y-97202526D01*
X186562579Y-97405467D01*
X186470409Y-97630718D01*
X186466538Y-97668391D01*
X186591269Y-97859000D01*
X187833000Y-97859000D01*
X187833000Y-97839000D01*
X188087000Y-97839000D01*
X188087000Y-97859000D01*
X189328731Y-97859000D01*
X189453462Y-97668391D01*
X189449591Y-97630718D01*
X189357421Y-97405467D01*
X189223078Y-97202526D01*
X189098594Y-97076967D01*
X189103387Y-97074405D01*
X189237962Y-96963962D01*
X189348405Y-96829387D01*
X189430472Y-96675851D01*
X189481008Y-96509255D01*
X189498072Y-96336001D01*
X189498072Y-95635999D01*
X189481008Y-95462745D01*
X189430472Y-95296149D01*
X189348405Y-95142613D01*
X189237962Y-95008038D01*
X189103387Y-94897595D01*
X188949851Y-94815528D01*
X188783255Y-94764992D01*
X188610001Y-94747928D01*
X187309999Y-94747928D01*
X187136745Y-94764992D01*
X186970149Y-94815528D01*
X186816613Y-94897595D01*
X186682038Y-95008038D01*
X186571595Y-95142613D01*
X186489528Y-95296149D01*
X186438992Y-95462745D01*
X186421928Y-95635999D01*
X181737000Y-95635999D01*
X181737000Y-86365609D01*
X186466538Y-86365609D01*
X186470409Y-86403282D01*
X186562579Y-86628533D01*
X186696922Y-86831474D01*
X186868275Y-87004307D01*
X187070054Y-87140390D01*
X187294504Y-87234493D01*
X187533000Y-87283000D01*
X187833000Y-87283000D01*
X187833000Y-86175000D01*
X188087000Y-86175000D01*
X188087000Y-87283000D01*
X188387000Y-87283000D01*
X188625496Y-87234493D01*
X188849946Y-87140390D01*
X189051725Y-87004307D01*
X189223078Y-86831474D01*
X189357421Y-86628533D01*
X189449591Y-86403282D01*
X189453462Y-86365609D01*
X189328731Y-86175000D01*
X188087000Y-86175000D01*
X187833000Y-86175000D01*
X186591269Y-86175000D01*
X186466538Y-86365609D01*
X181737000Y-86365609D01*
X181737000Y-83697999D01*
X186421928Y-83697999D01*
X186421928Y-84398001D01*
X186438992Y-84571255D01*
X186489528Y-84737851D01*
X186571595Y-84891387D01*
X186682038Y-85025962D01*
X186816613Y-85136405D01*
X186821406Y-85138967D01*
X186696922Y-85264526D01*
X186562579Y-85467467D01*
X186470409Y-85692718D01*
X186466538Y-85730391D01*
X186591269Y-85921000D01*
X187833000Y-85921000D01*
X187833000Y-85901000D01*
X188087000Y-85901000D01*
X188087000Y-85921000D01*
X189328731Y-85921000D01*
X189453462Y-85730391D01*
X189449591Y-85692718D01*
X189357421Y-85467467D01*
X189223078Y-85264526D01*
X189098594Y-85138967D01*
X189103387Y-85136405D01*
X189237962Y-85025962D01*
X189348405Y-84891387D01*
X189430472Y-84737851D01*
X189481008Y-84571255D01*
X189498072Y-84398001D01*
X189498072Y-83697999D01*
X189481008Y-83524745D01*
X189430472Y-83358149D01*
X189348405Y-83204613D01*
X189237962Y-83070038D01*
X189103387Y-82959595D01*
X188949851Y-82877528D01*
X188783255Y-82826992D01*
X188610001Y-82809928D01*
X187309999Y-82809928D01*
X187136745Y-82826992D01*
X186970149Y-82877528D01*
X186816613Y-82959595D01*
X186682038Y-83070038D01*
X186571595Y-83204613D01*
X186489528Y-83358149D01*
X186438992Y-83524745D01*
X186421928Y-83697999D01*
X181737000Y-83697999D01*
X181737000Y-74427609D01*
X186466538Y-74427609D01*
X186470409Y-74465282D01*
X186562579Y-74690533D01*
X186696922Y-74893474D01*
X186868275Y-75066307D01*
X187070054Y-75202390D01*
X187294504Y-75296493D01*
X187533000Y-75345000D01*
X187833000Y-75345000D01*
X187833000Y-74237000D01*
X188087000Y-74237000D01*
X188087000Y-75345000D01*
X188387000Y-75345000D01*
X188625496Y-75296493D01*
X188849946Y-75202390D01*
X189051725Y-75066307D01*
X189223078Y-74893474D01*
X189357421Y-74690533D01*
X189449591Y-74465282D01*
X189453462Y-74427609D01*
X189328731Y-74237000D01*
X188087000Y-74237000D01*
X187833000Y-74237000D01*
X186591269Y-74237000D01*
X186466538Y-74427609D01*
X181737000Y-74427609D01*
X181737000Y-71759999D01*
X186421928Y-71759999D01*
X186421928Y-72460001D01*
X186438992Y-72633255D01*
X186489528Y-72799851D01*
X186571595Y-72953387D01*
X186682038Y-73087962D01*
X186816613Y-73198405D01*
X186821406Y-73200967D01*
X186696922Y-73326526D01*
X186562579Y-73529467D01*
X186470409Y-73754718D01*
X186466538Y-73792391D01*
X186591269Y-73983000D01*
X187833000Y-73983000D01*
X187833000Y-73963000D01*
X188087000Y-73963000D01*
X188087000Y-73983000D01*
X189328731Y-73983000D01*
X189453462Y-73792391D01*
X189449591Y-73754718D01*
X189357421Y-73529467D01*
X189223078Y-73326526D01*
X189098594Y-73200967D01*
X189103387Y-73198405D01*
X189237962Y-73087962D01*
X189348405Y-72953387D01*
X189430472Y-72799851D01*
X189481008Y-72633255D01*
X189498072Y-72460001D01*
X189498072Y-71759999D01*
X189481008Y-71586745D01*
X189430472Y-71420149D01*
X189348405Y-71266613D01*
X189237962Y-71132038D01*
X189103387Y-71021595D01*
X188949851Y-70939528D01*
X188783255Y-70888992D01*
X188610001Y-70871928D01*
X187309999Y-70871928D01*
X187136745Y-70888992D01*
X186970149Y-70939528D01*
X186816613Y-71021595D01*
X186682038Y-71132038D01*
X186571595Y-71266613D01*
X186489528Y-71420149D01*
X186438992Y-71586745D01*
X186421928Y-71759999D01*
X181737000Y-71759999D01*
X181737000Y-68580000D01*
X181734560Y-68555224D01*
X181727333Y-68531399D01*
X181715597Y-68509443D01*
X181699803Y-68490197D01*
X181680557Y-68474403D01*
X181658601Y-68462667D01*
X181634776Y-68455440D01*
X181610000Y-68453000D01*
X167767000Y-68453000D01*
X167767000Y-59320000D01*
X180071928Y-59320000D01*
X180084188Y-59444482D01*
X180120498Y-59564180D01*
X180179463Y-59674494D01*
X180258815Y-59771185D01*
X180355506Y-59850537D01*
X180465820Y-59909502D01*
X180585518Y-59945812D01*
X180710000Y-59958072D01*
X181324250Y-59955000D01*
X181483000Y-59796250D01*
X181483000Y-58547000D01*
X180233750Y-58547000D01*
X180075000Y-58705750D01*
X180071928Y-59320000D01*
X167767000Y-59320000D01*
X167767000Y-57520000D01*
X180071928Y-57520000D01*
X180075000Y-58134250D01*
X180233750Y-58293000D01*
X181483000Y-58293000D01*
X181483000Y-57043750D01*
X181737000Y-57043750D01*
X181737000Y-58293000D01*
X181757000Y-58293000D01*
X181757000Y-58547000D01*
X181737000Y-58547000D01*
X181737000Y-59796250D01*
X181895750Y-59955000D01*
X182510000Y-59958072D01*
X182634482Y-59945812D01*
X182754180Y-59909502D01*
X182864494Y-59850537D01*
X182961185Y-59771185D01*
X183040537Y-59674494D01*
X183099502Y-59564180D01*
X183105056Y-59545873D01*
X183171495Y-59612312D01*
X183422905Y-59780299D01*
X183702257Y-59896011D01*
X183998816Y-59955000D01*
X184301184Y-59955000D01*
X184597743Y-59896011D01*
X184877095Y-59780299D01*
X185128505Y-59612312D01*
X185325116Y-59415701D01*
X188985000Y-59415701D01*
X188985000Y-59964299D01*
X189092026Y-60502354D01*
X189301965Y-61009192D01*
X189606750Y-61465334D01*
X189994666Y-61853250D01*
X190450808Y-62158035D01*
X190957646Y-62367974D01*
X191495701Y-62475000D01*
X192044299Y-62475000D01*
X192582354Y-62367974D01*
X193089192Y-62158035D01*
X193545334Y-61853250D01*
X193933250Y-61465334D01*
X194238035Y-61009192D01*
X194447974Y-60502354D01*
X194555000Y-59964299D01*
X194555000Y-59415701D01*
X194447974Y-58877646D01*
X194238035Y-58370808D01*
X193933250Y-57914666D01*
X193545334Y-57526750D01*
X193089192Y-57221965D01*
X192582354Y-57012026D01*
X192044299Y-56905000D01*
X191495701Y-56905000D01*
X190957646Y-57012026D01*
X190450808Y-57221965D01*
X189994666Y-57526750D01*
X189606750Y-57914666D01*
X189301965Y-58370808D01*
X189092026Y-58877646D01*
X188985000Y-59415701D01*
X185325116Y-59415701D01*
X185342312Y-59398505D01*
X185510299Y-59147095D01*
X185626011Y-58867743D01*
X185685000Y-58571184D01*
X185685000Y-58268816D01*
X185626011Y-57972257D01*
X185510299Y-57692905D01*
X185342312Y-57441495D01*
X185128505Y-57227688D01*
X184877095Y-57059701D01*
X184597743Y-56943989D01*
X184301184Y-56885000D01*
X183998816Y-56885000D01*
X183702257Y-56943989D01*
X183422905Y-57059701D01*
X183171495Y-57227688D01*
X183105056Y-57294127D01*
X183099502Y-57275820D01*
X183040537Y-57165506D01*
X182961185Y-57068815D01*
X182864494Y-56989463D01*
X182754180Y-56930498D01*
X182634482Y-56894188D01*
X182510000Y-56881928D01*
X181895750Y-56885000D01*
X181737000Y-57043750D01*
X181483000Y-57043750D01*
X181324250Y-56885000D01*
X180710000Y-56881928D01*
X180585518Y-56894188D01*
X180465820Y-56930498D01*
X180355506Y-56989463D01*
X180258815Y-57068815D01*
X180179463Y-57165506D01*
X180120498Y-57275820D01*
X180084188Y-57395518D01*
X180071928Y-57520000D01*
X167767000Y-57520000D01*
X167767000Y-54610000D01*
X167764560Y-54585224D01*
X167757333Y-54561399D01*
X167745597Y-54539443D01*
X167729803Y-54520197D01*
X167710557Y-54504403D01*
X167688601Y-54492667D01*
X167664776Y-54485440D01*
X167640000Y-54483000D01*
X138430000Y-54483000D01*
X138405224Y-54485440D01*
X138381399Y-54492667D01*
X138359443Y-54504403D01*
X138340197Y-54520197D01*
X138324403Y-54539443D01*
X138312667Y-54561399D01*
X138305440Y-54585224D01*
X138303000Y-54610000D01*
X138303000Y-68453000D01*
X129540000Y-68453000D01*
X129515224Y-68455440D01*
X129491399Y-68462667D01*
X129469443Y-68474403D01*
X129450197Y-68490197D01*
X129434403Y-68509443D01*
X129422667Y-68531399D01*
X129415440Y-68555224D01*
X129413000Y-68580000D01*
X111175000Y-68580000D01*
X111175000Y-59415701D01*
X115325000Y-59415701D01*
X115325000Y-59964299D01*
X115432026Y-60502354D01*
X115641965Y-61009192D01*
X115946750Y-61465334D01*
X116334666Y-61853250D01*
X116790808Y-62158035D01*
X117297646Y-62367974D01*
X117835701Y-62475000D01*
X118384299Y-62475000D01*
X118922354Y-62367974D01*
X119210785Y-62248502D01*
X128431103Y-62248502D01*
X128767260Y-62717657D01*
X129397177Y-63058000D01*
X130081388Y-63268913D01*
X130793599Y-63342290D01*
X131506441Y-63275311D01*
X132192518Y-63070552D01*
X132825466Y-62735879D01*
X132852740Y-62717657D01*
X133188897Y-62248502D01*
X130810000Y-59869605D01*
X128431103Y-62248502D01*
X119210785Y-62248502D01*
X119429192Y-62158035D01*
X119885334Y-61853250D01*
X120273250Y-61465334D01*
X120578035Y-61009192D01*
X120787974Y-60502354D01*
X120895000Y-59964299D01*
X120895000Y-59673599D01*
X127157710Y-59673599D01*
X127224689Y-60386441D01*
X127429448Y-61072518D01*
X127764121Y-61705466D01*
X127782343Y-61732740D01*
X128251498Y-62068897D01*
X130630395Y-59690000D01*
X130989605Y-59690000D01*
X133368502Y-62068897D01*
X133837657Y-61732740D01*
X134178000Y-61102823D01*
X134388913Y-60418612D01*
X134462290Y-59706401D01*
X134395311Y-58993559D01*
X134190552Y-58307482D01*
X133855879Y-57674534D01*
X133837657Y-57647260D01*
X133368502Y-57311103D01*
X130989605Y-59690000D01*
X130630395Y-59690000D01*
X128251498Y-57311103D01*
X127782343Y-57647260D01*
X127442000Y-58277177D01*
X127231087Y-58961388D01*
X127157710Y-59673599D01*
X120895000Y-59673599D01*
X120895000Y-59415701D01*
X120787974Y-58877646D01*
X120578035Y-58370808D01*
X120273250Y-57914666D01*
X119885334Y-57526750D01*
X119429192Y-57221965D01*
X119210786Y-57131498D01*
X128431103Y-57131498D01*
X130810000Y-59510395D01*
X133188897Y-57131498D01*
X132852740Y-56662343D01*
X132222823Y-56322000D01*
X131538612Y-56111087D01*
X130826401Y-56037710D01*
X130113559Y-56104689D01*
X129427482Y-56309448D01*
X128794534Y-56644121D01*
X128767260Y-56662343D01*
X128431103Y-57131498D01*
X119210786Y-57131498D01*
X118922354Y-57012026D01*
X118384299Y-56905000D01*
X117835701Y-56905000D01*
X117297646Y-57012026D01*
X116790808Y-57221965D01*
X116334666Y-57526750D01*
X115946750Y-57914666D01*
X115641965Y-58370808D01*
X115432026Y-58877646D01*
X115325000Y-59415701D01*
X111175000Y-59415701D01*
X111175000Y-54025000D01*
X197435000Y-54025000D01*
X197435001Y-149175000D01*
M02*
