G04 #@! TF.GenerationSoftware,KiCad,Pcbnew,(5.1.5)-3*
G04 #@! TF.CreationDate,2020-03-23T11:19:51-04:00*
G04 #@! TF.ProjectId,RedLegs_pwrbrd,5265644c-6567-4735-9f70-77726272642e,rev?*
G04 #@! TF.SameCoordinates,Original*
G04 #@! TF.FileFunction,Copper,L1,Top*
G04 #@! TF.FilePolarity,Positive*
%FSLAX46Y46*%
G04 Gerber Fmt 4.6, Leading zero omitted, Abs format (unit mm)*
G04 Created by KiCad (PCBNEW (5.1.5)-3) date 2020-03-23 11:19:51*
%MOMM*%
%LPD*%
G04 APERTURE LIST*
%ADD10C,0.100000*%
%ADD11C,2.780000*%
%ADD12R,6.400000X5.800000*%
%ADD13R,2.200000X1.200000*%
%ADD14O,1.800000X1.200000*%
%ADD15C,5.999480*%
%ADD16C,1.800000*%
%ADD17R,1.800000X1.800000*%
%ADD18C,1.000000*%
%ADD19C,0.250000*%
%ADD20C,6.000000*%
G04 APERTURE END LIST*
G04 #@! TA.AperFunction,SMDPad,CuDef*
D10*
G36*
X182449505Y-62801204D02*
G01*
X182473773Y-62804804D01*
X182497572Y-62810765D01*
X182520671Y-62819030D01*
X182542850Y-62829520D01*
X182563893Y-62842132D01*
X182583599Y-62856747D01*
X182601777Y-62873223D01*
X182618253Y-62891401D01*
X182632868Y-62911107D01*
X182645480Y-62932150D01*
X182655970Y-62954329D01*
X182664235Y-62977428D01*
X182670196Y-63001227D01*
X182673796Y-63025495D01*
X182675000Y-63049999D01*
X182675000Y-63950001D01*
X182673796Y-63974505D01*
X182670196Y-63998773D01*
X182664235Y-64022572D01*
X182655970Y-64045671D01*
X182645480Y-64067850D01*
X182632868Y-64088893D01*
X182618253Y-64108599D01*
X182601777Y-64126777D01*
X182583599Y-64143253D01*
X182563893Y-64157868D01*
X182542850Y-64170480D01*
X182520671Y-64180970D01*
X182497572Y-64189235D01*
X182473773Y-64195196D01*
X182449505Y-64198796D01*
X182425001Y-64200000D01*
X181774999Y-64200000D01*
X181750495Y-64198796D01*
X181726227Y-64195196D01*
X181702428Y-64189235D01*
X181679329Y-64180970D01*
X181657150Y-64170480D01*
X181636107Y-64157868D01*
X181616401Y-64143253D01*
X181598223Y-64126777D01*
X181581747Y-64108599D01*
X181567132Y-64088893D01*
X181554520Y-64067850D01*
X181544030Y-64045671D01*
X181535765Y-64022572D01*
X181529804Y-63998773D01*
X181526204Y-63974505D01*
X181525000Y-63950001D01*
X181525000Y-63049999D01*
X181526204Y-63025495D01*
X181529804Y-63001227D01*
X181535765Y-62977428D01*
X181544030Y-62954329D01*
X181554520Y-62932150D01*
X181567132Y-62911107D01*
X181581747Y-62891401D01*
X181598223Y-62873223D01*
X181616401Y-62856747D01*
X181636107Y-62842132D01*
X181657150Y-62829520D01*
X181679329Y-62819030D01*
X181702428Y-62810765D01*
X181726227Y-62804804D01*
X181750495Y-62801204D01*
X181774999Y-62800000D01*
X182425001Y-62800000D01*
X182449505Y-62801204D01*
G37*
G04 #@! TD.AperFunction*
G04 #@! TA.AperFunction,SMDPad,CuDef*
G36*
X184499505Y-62801204D02*
G01*
X184523773Y-62804804D01*
X184547572Y-62810765D01*
X184570671Y-62819030D01*
X184592850Y-62829520D01*
X184613893Y-62842132D01*
X184633599Y-62856747D01*
X184651777Y-62873223D01*
X184668253Y-62891401D01*
X184682868Y-62911107D01*
X184695480Y-62932150D01*
X184705970Y-62954329D01*
X184714235Y-62977428D01*
X184720196Y-63001227D01*
X184723796Y-63025495D01*
X184725000Y-63049999D01*
X184725000Y-63950001D01*
X184723796Y-63974505D01*
X184720196Y-63998773D01*
X184714235Y-64022572D01*
X184705970Y-64045671D01*
X184695480Y-64067850D01*
X184682868Y-64088893D01*
X184668253Y-64108599D01*
X184651777Y-64126777D01*
X184633599Y-64143253D01*
X184613893Y-64157868D01*
X184592850Y-64170480D01*
X184570671Y-64180970D01*
X184547572Y-64189235D01*
X184523773Y-64195196D01*
X184499505Y-64198796D01*
X184475001Y-64200000D01*
X183824999Y-64200000D01*
X183800495Y-64198796D01*
X183776227Y-64195196D01*
X183752428Y-64189235D01*
X183729329Y-64180970D01*
X183707150Y-64170480D01*
X183686107Y-64157868D01*
X183666401Y-64143253D01*
X183648223Y-64126777D01*
X183631747Y-64108599D01*
X183617132Y-64088893D01*
X183604520Y-64067850D01*
X183594030Y-64045671D01*
X183585765Y-64022572D01*
X183579804Y-63998773D01*
X183576204Y-63974505D01*
X183575000Y-63950001D01*
X183575000Y-63049999D01*
X183576204Y-63025495D01*
X183579804Y-63001227D01*
X183585765Y-62977428D01*
X183594030Y-62954329D01*
X183604520Y-62932150D01*
X183617132Y-62911107D01*
X183631747Y-62891401D01*
X183648223Y-62873223D01*
X183666401Y-62856747D01*
X183686107Y-62842132D01*
X183707150Y-62829520D01*
X183729329Y-62819030D01*
X183752428Y-62810765D01*
X183776227Y-62804804D01*
X183800495Y-62801204D01*
X183824999Y-62800000D01*
X184475001Y-62800000D01*
X184499505Y-62801204D01*
G37*
G04 #@! TD.AperFunction*
D11*
X166610000Y-95406000D03*
X166610000Y-98806000D03*
X176530000Y-95406000D03*
X176530000Y-98806000D03*
X162320000Y-61490000D03*
X162320000Y-58090000D03*
X152400000Y-61490000D03*
X152400000Y-58090000D03*
D12*
X175665000Y-59670000D03*
D13*
X169365000Y-61950000D03*
X169365000Y-59670000D03*
X169365000Y-57390000D03*
D14*
X187960000Y-133800000D03*
G04 #@! TA.AperFunction,ComponentPad*
D10*
G36*
X188634505Y-131201204D02*
G01*
X188658773Y-131204804D01*
X188682572Y-131210765D01*
X188705671Y-131219030D01*
X188727850Y-131229520D01*
X188748893Y-131242132D01*
X188768599Y-131256747D01*
X188786777Y-131273223D01*
X188803253Y-131291401D01*
X188817868Y-131311107D01*
X188830480Y-131332150D01*
X188840970Y-131354329D01*
X188849235Y-131377428D01*
X188855196Y-131401227D01*
X188858796Y-131425495D01*
X188860000Y-131449999D01*
X188860000Y-132150001D01*
X188858796Y-132174505D01*
X188855196Y-132198773D01*
X188849235Y-132222572D01*
X188840970Y-132245671D01*
X188830480Y-132267850D01*
X188817868Y-132288893D01*
X188803253Y-132308599D01*
X188786777Y-132326777D01*
X188768599Y-132343253D01*
X188748893Y-132357868D01*
X188727850Y-132370480D01*
X188705671Y-132380970D01*
X188682572Y-132389235D01*
X188658773Y-132395196D01*
X188634505Y-132398796D01*
X188610001Y-132400000D01*
X187309999Y-132400000D01*
X187285495Y-132398796D01*
X187261227Y-132395196D01*
X187237428Y-132389235D01*
X187214329Y-132380970D01*
X187192150Y-132370480D01*
X187171107Y-132357868D01*
X187151401Y-132343253D01*
X187133223Y-132326777D01*
X187116747Y-132308599D01*
X187102132Y-132288893D01*
X187089520Y-132267850D01*
X187079030Y-132245671D01*
X187070765Y-132222572D01*
X187064804Y-132198773D01*
X187061204Y-132174505D01*
X187060000Y-132150001D01*
X187060000Y-131449999D01*
X187061204Y-131425495D01*
X187064804Y-131401227D01*
X187070765Y-131377428D01*
X187079030Y-131354329D01*
X187089520Y-131332150D01*
X187102132Y-131311107D01*
X187116747Y-131291401D01*
X187133223Y-131273223D01*
X187151401Y-131256747D01*
X187171107Y-131242132D01*
X187192150Y-131229520D01*
X187214329Y-131219030D01*
X187237428Y-131210765D01*
X187261227Y-131204804D01*
X187285495Y-131201204D01*
X187309999Y-131200000D01*
X188610001Y-131200000D01*
X188634505Y-131201204D01*
G37*
G04 #@! TD.AperFunction*
D14*
X187960000Y-121862000D03*
G04 #@! TA.AperFunction,ComponentPad*
D10*
G36*
X188634505Y-119263204D02*
G01*
X188658773Y-119266804D01*
X188682572Y-119272765D01*
X188705671Y-119281030D01*
X188727850Y-119291520D01*
X188748893Y-119304132D01*
X188768599Y-119318747D01*
X188786777Y-119335223D01*
X188803253Y-119353401D01*
X188817868Y-119373107D01*
X188830480Y-119394150D01*
X188840970Y-119416329D01*
X188849235Y-119439428D01*
X188855196Y-119463227D01*
X188858796Y-119487495D01*
X188860000Y-119511999D01*
X188860000Y-120212001D01*
X188858796Y-120236505D01*
X188855196Y-120260773D01*
X188849235Y-120284572D01*
X188840970Y-120307671D01*
X188830480Y-120329850D01*
X188817868Y-120350893D01*
X188803253Y-120370599D01*
X188786777Y-120388777D01*
X188768599Y-120405253D01*
X188748893Y-120419868D01*
X188727850Y-120432480D01*
X188705671Y-120442970D01*
X188682572Y-120451235D01*
X188658773Y-120457196D01*
X188634505Y-120460796D01*
X188610001Y-120462000D01*
X187309999Y-120462000D01*
X187285495Y-120460796D01*
X187261227Y-120457196D01*
X187237428Y-120451235D01*
X187214329Y-120442970D01*
X187192150Y-120432480D01*
X187171107Y-120419868D01*
X187151401Y-120405253D01*
X187133223Y-120388777D01*
X187116747Y-120370599D01*
X187102132Y-120350893D01*
X187089520Y-120329850D01*
X187079030Y-120307671D01*
X187070765Y-120284572D01*
X187064804Y-120260773D01*
X187061204Y-120236505D01*
X187060000Y-120212001D01*
X187060000Y-119511999D01*
X187061204Y-119487495D01*
X187064804Y-119463227D01*
X187070765Y-119439428D01*
X187079030Y-119416329D01*
X187089520Y-119394150D01*
X187102132Y-119373107D01*
X187116747Y-119353401D01*
X187133223Y-119335223D01*
X187151401Y-119318747D01*
X187171107Y-119304132D01*
X187192150Y-119291520D01*
X187214329Y-119281030D01*
X187237428Y-119272765D01*
X187261227Y-119266804D01*
X187285495Y-119263204D01*
X187309999Y-119262000D01*
X188610001Y-119262000D01*
X188634505Y-119263204D01*
G37*
G04 #@! TD.AperFunction*
D14*
X187960000Y-109924000D03*
G04 #@! TA.AperFunction,ComponentPad*
D10*
G36*
X188634505Y-107325204D02*
G01*
X188658773Y-107328804D01*
X188682572Y-107334765D01*
X188705671Y-107343030D01*
X188727850Y-107353520D01*
X188748893Y-107366132D01*
X188768599Y-107380747D01*
X188786777Y-107397223D01*
X188803253Y-107415401D01*
X188817868Y-107435107D01*
X188830480Y-107456150D01*
X188840970Y-107478329D01*
X188849235Y-107501428D01*
X188855196Y-107525227D01*
X188858796Y-107549495D01*
X188860000Y-107573999D01*
X188860000Y-108274001D01*
X188858796Y-108298505D01*
X188855196Y-108322773D01*
X188849235Y-108346572D01*
X188840970Y-108369671D01*
X188830480Y-108391850D01*
X188817868Y-108412893D01*
X188803253Y-108432599D01*
X188786777Y-108450777D01*
X188768599Y-108467253D01*
X188748893Y-108481868D01*
X188727850Y-108494480D01*
X188705671Y-108504970D01*
X188682572Y-108513235D01*
X188658773Y-108519196D01*
X188634505Y-108522796D01*
X188610001Y-108524000D01*
X187309999Y-108524000D01*
X187285495Y-108522796D01*
X187261227Y-108519196D01*
X187237428Y-108513235D01*
X187214329Y-108504970D01*
X187192150Y-108494480D01*
X187171107Y-108481868D01*
X187151401Y-108467253D01*
X187133223Y-108450777D01*
X187116747Y-108432599D01*
X187102132Y-108412893D01*
X187089520Y-108391850D01*
X187079030Y-108369671D01*
X187070765Y-108346572D01*
X187064804Y-108322773D01*
X187061204Y-108298505D01*
X187060000Y-108274001D01*
X187060000Y-107573999D01*
X187061204Y-107549495D01*
X187064804Y-107525227D01*
X187070765Y-107501428D01*
X187079030Y-107478329D01*
X187089520Y-107456150D01*
X187102132Y-107435107D01*
X187116747Y-107415401D01*
X187133223Y-107397223D01*
X187151401Y-107380747D01*
X187171107Y-107366132D01*
X187192150Y-107353520D01*
X187214329Y-107343030D01*
X187237428Y-107334765D01*
X187261227Y-107328804D01*
X187285495Y-107325204D01*
X187309999Y-107324000D01*
X188610001Y-107324000D01*
X188634505Y-107325204D01*
G37*
G04 #@! TD.AperFunction*
D14*
X187960000Y-97986000D03*
G04 #@! TA.AperFunction,ComponentPad*
D10*
G36*
X188634505Y-95387204D02*
G01*
X188658773Y-95390804D01*
X188682572Y-95396765D01*
X188705671Y-95405030D01*
X188727850Y-95415520D01*
X188748893Y-95428132D01*
X188768599Y-95442747D01*
X188786777Y-95459223D01*
X188803253Y-95477401D01*
X188817868Y-95497107D01*
X188830480Y-95518150D01*
X188840970Y-95540329D01*
X188849235Y-95563428D01*
X188855196Y-95587227D01*
X188858796Y-95611495D01*
X188860000Y-95635999D01*
X188860000Y-96336001D01*
X188858796Y-96360505D01*
X188855196Y-96384773D01*
X188849235Y-96408572D01*
X188840970Y-96431671D01*
X188830480Y-96453850D01*
X188817868Y-96474893D01*
X188803253Y-96494599D01*
X188786777Y-96512777D01*
X188768599Y-96529253D01*
X188748893Y-96543868D01*
X188727850Y-96556480D01*
X188705671Y-96566970D01*
X188682572Y-96575235D01*
X188658773Y-96581196D01*
X188634505Y-96584796D01*
X188610001Y-96586000D01*
X187309999Y-96586000D01*
X187285495Y-96584796D01*
X187261227Y-96581196D01*
X187237428Y-96575235D01*
X187214329Y-96566970D01*
X187192150Y-96556480D01*
X187171107Y-96543868D01*
X187151401Y-96529253D01*
X187133223Y-96512777D01*
X187116747Y-96494599D01*
X187102132Y-96474893D01*
X187089520Y-96453850D01*
X187079030Y-96431671D01*
X187070765Y-96408572D01*
X187064804Y-96384773D01*
X187061204Y-96360505D01*
X187060000Y-96336001D01*
X187060000Y-95635999D01*
X187061204Y-95611495D01*
X187064804Y-95587227D01*
X187070765Y-95563428D01*
X187079030Y-95540329D01*
X187089520Y-95518150D01*
X187102132Y-95497107D01*
X187116747Y-95477401D01*
X187133223Y-95459223D01*
X187151401Y-95442747D01*
X187171107Y-95428132D01*
X187192150Y-95415520D01*
X187214329Y-95405030D01*
X187237428Y-95396765D01*
X187261227Y-95390804D01*
X187285495Y-95387204D01*
X187309999Y-95386000D01*
X188610001Y-95386000D01*
X188634505Y-95387204D01*
G37*
G04 #@! TD.AperFunction*
D14*
X187960000Y-86048000D03*
G04 #@! TA.AperFunction,ComponentPad*
D10*
G36*
X188634505Y-83449204D02*
G01*
X188658773Y-83452804D01*
X188682572Y-83458765D01*
X188705671Y-83467030D01*
X188727850Y-83477520D01*
X188748893Y-83490132D01*
X188768599Y-83504747D01*
X188786777Y-83521223D01*
X188803253Y-83539401D01*
X188817868Y-83559107D01*
X188830480Y-83580150D01*
X188840970Y-83602329D01*
X188849235Y-83625428D01*
X188855196Y-83649227D01*
X188858796Y-83673495D01*
X188860000Y-83697999D01*
X188860000Y-84398001D01*
X188858796Y-84422505D01*
X188855196Y-84446773D01*
X188849235Y-84470572D01*
X188840970Y-84493671D01*
X188830480Y-84515850D01*
X188817868Y-84536893D01*
X188803253Y-84556599D01*
X188786777Y-84574777D01*
X188768599Y-84591253D01*
X188748893Y-84605868D01*
X188727850Y-84618480D01*
X188705671Y-84628970D01*
X188682572Y-84637235D01*
X188658773Y-84643196D01*
X188634505Y-84646796D01*
X188610001Y-84648000D01*
X187309999Y-84648000D01*
X187285495Y-84646796D01*
X187261227Y-84643196D01*
X187237428Y-84637235D01*
X187214329Y-84628970D01*
X187192150Y-84618480D01*
X187171107Y-84605868D01*
X187151401Y-84591253D01*
X187133223Y-84574777D01*
X187116747Y-84556599D01*
X187102132Y-84536893D01*
X187089520Y-84515850D01*
X187079030Y-84493671D01*
X187070765Y-84470572D01*
X187064804Y-84446773D01*
X187061204Y-84422505D01*
X187060000Y-84398001D01*
X187060000Y-83697999D01*
X187061204Y-83673495D01*
X187064804Y-83649227D01*
X187070765Y-83625428D01*
X187079030Y-83602329D01*
X187089520Y-83580150D01*
X187102132Y-83559107D01*
X187116747Y-83539401D01*
X187133223Y-83521223D01*
X187151401Y-83504747D01*
X187171107Y-83490132D01*
X187192150Y-83477520D01*
X187214329Y-83467030D01*
X187237428Y-83458765D01*
X187261227Y-83452804D01*
X187285495Y-83449204D01*
X187309999Y-83448000D01*
X188610001Y-83448000D01*
X188634505Y-83449204D01*
G37*
G04 #@! TD.AperFunction*
D14*
X187960000Y-74110000D03*
G04 #@! TA.AperFunction,ComponentPad*
D10*
G36*
X188634505Y-71511204D02*
G01*
X188658773Y-71514804D01*
X188682572Y-71520765D01*
X188705671Y-71529030D01*
X188727850Y-71539520D01*
X188748893Y-71552132D01*
X188768599Y-71566747D01*
X188786777Y-71583223D01*
X188803253Y-71601401D01*
X188817868Y-71621107D01*
X188830480Y-71642150D01*
X188840970Y-71664329D01*
X188849235Y-71687428D01*
X188855196Y-71711227D01*
X188858796Y-71735495D01*
X188860000Y-71759999D01*
X188860000Y-72460001D01*
X188858796Y-72484505D01*
X188855196Y-72508773D01*
X188849235Y-72532572D01*
X188840970Y-72555671D01*
X188830480Y-72577850D01*
X188817868Y-72598893D01*
X188803253Y-72618599D01*
X188786777Y-72636777D01*
X188768599Y-72653253D01*
X188748893Y-72667868D01*
X188727850Y-72680480D01*
X188705671Y-72690970D01*
X188682572Y-72699235D01*
X188658773Y-72705196D01*
X188634505Y-72708796D01*
X188610001Y-72710000D01*
X187309999Y-72710000D01*
X187285495Y-72708796D01*
X187261227Y-72705196D01*
X187237428Y-72699235D01*
X187214329Y-72690970D01*
X187192150Y-72680480D01*
X187171107Y-72667868D01*
X187151401Y-72653253D01*
X187133223Y-72636777D01*
X187116747Y-72618599D01*
X187102132Y-72598893D01*
X187089520Y-72577850D01*
X187079030Y-72555671D01*
X187070765Y-72532572D01*
X187064804Y-72508773D01*
X187061204Y-72484505D01*
X187060000Y-72460001D01*
X187060000Y-71759999D01*
X187061204Y-71735495D01*
X187064804Y-71711227D01*
X187070765Y-71687428D01*
X187079030Y-71664329D01*
X187089520Y-71642150D01*
X187102132Y-71621107D01*
X187116747Y-71601401D01*
X187133223Y-71583223D01*
X187151401Y-71566747D01*
X187171107Y-71552132D01*
X187192150Y-71539520D01*
X187214329Y-71529030D01*
X187237428Y-71520765D01*
X187261227Y-71514804D01*
X187285495Y-71511204D01*
X187309999Y-71510000D01*
X188610001Y-71510000D01*
X188634505Y-71511204D01*
G37*
G04 #@! TD.AperFunction*
D14*
X121920000Y-133800000D03*
G04 #@! TA.AperFunction,ComponentPad*
D10*
G36*
X122594505Y-131201204D02*
G01*
X122618773Y-131204804D01*
X122642572Y-131210765D01*
X122665671Y-131219030D01*
X122687850Y-131229520D01*
X122708893Y-131242132D01*
X122728599Y-131256747D01*
X122746777Y-131273223D01*
X122763253Y-131291401D01*
X122777868Y-131311107D01*
X122790480Y-131332150D01*
X122800970Y-131354329D01*
X122809235Y-131377428D01*
X122815196Y-131401227D01*
X122818796Y-131425495D01*
X122820000Y-131449999D01*
X122820000Y-132150001D01*
X122818796Y-132174505D01*
X122815196Y-132198773D01*
X122809235Y-132222572D01*
X122800970Y-132245671D01*
X122790480Y-132267850D01*
X122777868Y-132288893D01*
X122763253Y-132308599D01*
X122746777Y-132326777D01*
X122728599Y-132343253D01*
X122708893Y-132357868D01*
X122687850Y-132370480D01*
X122665671Y-132380970D01*
X122642572Y-132389235D01*
X122618773Y-132395196D01*
X122594505Y-132398796D01*
X122570001Y-132400000D01*
X121269999Y-132400000D01*
X121245495Y-132398796D01*
X121221227Y-132395196D01*
X121197428Y-132389235D01*
X121174329Y-132380970D01*
X121152150Y-132370480D01*
X121131107Y-132357868D01*
X121111401Y-132343253D01*
X121093223Y-132326777D01*
X121076747Y-132308599D01*
X121062132Y-132288893D01*
X121049520Y-132267850D01*
X121039030Y-132245671D01*
X121030765Y-132222572D01*
X121024804Y-132198773D01*
X121021204Y-132174505D01*
X121020000Y-132150001D01*
X121020000Y-131449999D01*
X121021204Y-131425495D01*
X121024804Y-131401227D01*
X121030765Y-131377428D01*
X121039030Y-131354329D01*
X121049520Y-131332150D01*
X121062132Y-131311107D01*
X121076747Y-131291401D01*
X121093223Y-131273223D01*
X121111401Y-131256747D01*
X121131107Y-131242132D01*
X121152150Y-131229520D01*
X121174329Y-131219030D01*
X121197428Y-131210765D01*
X121221227Y-131204804D01*
X121245495Y-131201204D01*
X121269999Y-131200000D01*
X122570001Y-131200000D01*
X122594505Y-131201204D01*
G37*
G04 #@! TD.AperFunction*
D14*
X121920000Y-121862000D03*
G04 #@! TA.AperFunction,ComponentPad*
D10*
G36*
X122594505Y-119263204D02*
G01*
X122618773Y-119266804D01*
X122642572Y-119272765D01*
X122665671Y-119281030D01*
X122687850Y-119291520D01*
X122708893Y-119304132D01*
X122728599Y-119318747D01*
X122746777Y-119335223D01*
X122763253Y-119353401D01*
X122777868Y-119373107D01*
X122790480Y-119394150D01*
X122800970Y-119416329D01*
X122809235Y-119439428D01*
X122815196Y-119463227D01*
X122818796Y-119487495D01*
X122820000Y-119511999D01*
X122820000Y-120212001D01*
X122818796Y-120236505D01*
X122815196Y-120260773D01*
X122809235Y-120284572D01*
X122800970Y-120307671D01*
X122790480Y-120329850D01*
X122777868Y-120350893D01*
X122763253Y-120370599D01*
X122746777Y-120388777D01*
X122728599Y-120405253D01*
X122708893Y-120419868D01*
X122687850Y-120432480D01*
X122665671Y-120442970D01*
X122642572Y-120451235D01*
X122618773Y-120457196D01*
X122594505Y-120460796D01*
X122570001Y-120462000D01*
X121269999Y-120462000D01*
X121245495Y-120460796D01*
X121221227Y-120457196D01*
X121197428Y-120451235D01*
X121174329Y-120442970D01*
X121152150Y-120432480D01*
X121131107Y-120419868D01*
X121111401Y-120405253D01*
X121093223Y-120388777D01*
X121076747Y-120370599D01*
X121062132Y-120350893D01*
X121049520Y-120329850D01*
X121039030Y-120307671D01*
X121030765Y-120284572D01*
X121024804Y-120260773D01*
X121021204Y-120236505D01*
X121020000Y-120212001D01*
X121020000Y-119511999D01*
X121021204Y-119487495D01*
X121024804Y-119463227D01*
X121030765Y-119439428D01*
X121039030Y-119416329D01*
X121049520Y-119394150D01*
X121062132Y-119373107D01*
X121076747Y-119353401D01*
X121093223Y-119335223D01*
X121111401Y-119318747D01*
X121131107Y-119304132D01*
X121152150Y-119291520D01*
X121174329Y-119281030D01*
X121197428Y-119272765D01*
X121221227Y-119266804D01*
X121245495Y-119263204D01*
X121269999Y-119262000D01*
X122570001Y-119262000D01*
X122594505Y-119263204D01*
G37*
G04 #@! TD.AperFunction*
D14*
X121920000Y-109924000D03*
G04 #@! TA.AperFunction,ComponentPad*
D10*
G36*
X122594505Y-107325204D02*
G01*
X122618773Y-107328804D01*
X122642572Y-107334765D01*
X122665671Y-107343030D01*
X122687850Y-107353520D01*
X122708893Y-107366132D01*
X122728599Y-107380747D01*
X122746777Y-107397223D01*
X122763253Y-107415401D01*
X122777868Y-107435107D01*
X122790480Y-107456150D01*
X122800970Y-107478329D01*
X122809235Y-107501428D01*
X122815196Y-107525227D01*
X122818796Y-107549495D01*
X122820000Y-107573999D01*
X122820000Y-108274001D01*
X122818796Y-108298505D01*
X122815196Y-108322773D01*
X122809235Y-108346572D01*
X122800970Y-108369671D01*
X122790480Y-108391850D01*
X122777868Y-108412893D01*
X122763253Y-108432599D01*
X122746777Y-108450777D01*
X122728599Y-108467253D01*
X122708893Y-108481868D01*
X122687850Y-108494480D01*
X122665671Y-108504970D01*
X122642572Y-108513235D01*
X122618773Y-108519196D01*
X122594505Y-108522796D01*
X122570001Y-108524000D01*
X121269999Y-108524000D01*
X121245495Y-108522796D01*
X121221227Y-108519196D01*
X121197428Y-108513235D01*
X121174329Y-108504970D01*
X121152150Y-108494480D01*
X121131107Y-108481868D01*
X121111401Y-108467253D01*
X121093223Y-108450777D01*
X121076747Y-108432599D01*
X121062132Y-108412893D01*
X121049520Y-108391850D01*
X121039030Y-108369671D01*
X121030765Y-108346572D01*
X121024804Y-108322773D01*
X121021204Y-108298505D01*
X121020000Y-108274001D01*
X121020000Y-107573999D01*
X121021204Y-107549495D01*
X121024804Y-107525227D01*
X121030765Y-107501428D01*
X121039030Y-107478329D01*
X121049520Y-107456150D01*
X121062132Y-107435107D01*
X121076747Y-107415401D01*
X121093223Y-107397223D01*
X121111401Y-107380747D01*
X121131107Y-107366132D01*
X121152150Y-107353520D01*
X121174329Y-107343030D01*
X121197428Y-107334765D01*
X121221227Y-107328804D01*
X121245495Y-107325204D01*
X121269999Y-107324000D01*
X122570001Y-107324000D01*
X122594505Y-107325204D01*
G37*
G04 #@! TD.AperFunction*
D14*
X121920000Y-97986000D03*
G04 #@! TA.AperFunction,ComponentPad*
D10*
G36*
X122594505Y-95387204D02*
G01*
X122618773Y-95390804D01*
X122642572Y-95396765D01*
X122665671Y-95405030D01*
X122687850Y-95415520D01*
X122708893Y-95428132D01*
X122728599Y-95442747D01*
X122746777Y-95459223D01*
X122763253Y-95477401D01*
X122777868Y-95497107D01*
X122790480Y-95518150D01*
X122800970Y-95540329D01*
X122809235Y-95563428D01*
X122815196Y-95587227D01*
X122818796Y-95611495D01*
X122820000Y-95635999D01*
X122820000Y-96336001D01*
X122818796Y-96360505D01*
X122815196Y-96384773D01*
X122809235Y-96408572D01*
X122800970Y-96431671D01*
X122790480Y-96453850D01*
X122777868Y-96474893D01*
X122763253Y-96494599D01*
X122746777Y-96512777D01*
X122728599Y-96529253D01*
X122708893Y-96543868D01*
X122687850Y-96556480D01*
X122665671Y-96566970D01*
X122642572Y-96575235D01*
X122618773Y-96581196D01*
X122594505Y-96584796D01*
X122570001Y-96586000D01*
X121269999Y-96586000D01*
X121245495Y-96584796D01*
X121221227Y-96581196D01*
X121197428Y-96575235D01*
X121174329Y-96566970D01*
X121152150Y-96556480D01*
X121131107Y-96543868D01*
X121111401Y-96529253D01*
X121093223Y-96512777D01*
X121076747Y-96494599D01*
X121062132Y-96474893D01*
X121049520Y-96453850D01*
X121039030Y-96431671D01*
X121030765Y-96408572D01*
X121024804Y-96384773D01*
X121021204Y-96360505D01*
X121020000Y-96336001D01*
X121020000Y-95635999D01*
X121021204Y-95611495D01*
X121024804Y-95587227D01*
X121030765Y-95563428D01*
X121039030Y-95540329D01*
X121049520Y-95518150D01*
X121062132Y-95497107D01*
X121076747Y-95477401D01*
X121093223Y-95459223D01*
X121111401Y-95442747D01*
X121131107Y-95428132D01*
X121152150Y-95415520D01*
X121174329Y-95405030D01*
X121197428Y-95396765D01*
X121221227Y-95390804D01*
X121245495Y-95387204D01*
X121269999Y-95386000D01*
X122570001Y-95386000D01*
X122594505Y-95387204D01*
G37*
G04 #@! TD.AperFunction*
D14*
X121920000Y-86048000D03*
G04 #@! TA.AperFunction,ComponentPad*
D10*
G36*
X122594505Y-83449204D02*
G01*
X122618773Y-83452804D01*
X122642572Y-83458765D01*
X122665671Y-83467030D01*
X122687850Y-83477520D01*
X122708893Y-83490132D01*
X122728599Y-83504747D01*
X122746777Y-83521223D01*
X122763253Y-83539401D01*
X122777868Y-83559107D01*
X122790480Y-83580150D01*
X122800970Y-83602329D01*
X122809235Y-83625428D01*
X122815196Y-83649227D01*
X122818796Y-83673495D01*
X122820000Y-83697999D01*
X122820000Y-84398001D01*
X122818796Y-84422505D01*
X122815196Y-84446773D01*
X122809235Y-84470572D01*
X122800970Y-84493671D01*
X122790480Y-84515850D01*
X122777868Y-84536893D01*
X122763253Y-84556599D01*
X122746777Y-84574777D01*
X122728599Y-84591253D01*
X122708893Y-84605868D01*
X122687850Y-84618480D01*
X122665671Y-84628970D01*
X122642572Y-84637235D01*
X122618773Y-84643196D01*
X122594505Y-84646796D01*
X122570001Y-84648000D01*
X121269999Y-84648000D01*
X121245495Y-84646796D01*
X121221227Y-84643196D01*
X121197428Y-84637235D01*
X121174329Y-84628970D01*
X121152150Y-84618480D01*
X121131107Y-84605868D01*
X121111401Y-84591253D01*
X121093223Y-84574777D01*
X121076747Y-84556599D01*
X121062132Y-84536893D01*
X121049520Y-84515850D01*
X121039030Y-84493671D01*
X121030765Y-84470572D01*
X121024804Y-84446773D01*
X121021204Y-84422505D01*
X121020000Y-84398001D01*
X121020000Y-83697999D01*
X121021204Y-83673495D01*
X121024804Y-83649227D01*
X121030765Y-83625428D01*
X121039030Y-83602329D01*
X121049520Y-83580150D01*
X121062132Y-83559107D01*
X121076747Y-83539401D01*
X121093223Y-83521223D01*
X121111401Y-83504747D01*
X121131107Y-83490132D01*
X121152150Y-83477520D01*
X121174329Y-83467030D01*
X121197428Y-83458765D01*
X121221227Y-83452804D01*
X121245495Y-83449204D01*
X121269999Y-83448000D01*
X122570001Y-83448000D01*
X122594505Y-83449204D01*
G37*
G04 #@! TD.AperFunction*
D14*
X121920000Y-74110000D03*
G04 #@! TA.AperFunction,ComponentPad*
D10*
G36*
X122594505Y-71511204D02*
G01*
X122618773Y-71514804D01*
X122642572Y-71520765D01*
X122665671Y-71529030D01*
X122687850Y-71539520D01*
X122708893Y-71552132D01*
X122728599Y-71566747D01*
X122746777Y-71583223D01*
X122763253Y-71601401D01*
X122777868Y-71621107D01*
X122790480Y-71642150D01*
X122800970Y-71664329D01*
X122809235Y-71687428D01*
X122815196Y-71711227D01*
X122818796Y-71735495D01*
X122820000Y-71759999D01*
X122820000Y-72460001D01*
X122818796Y-72484505D01*
X122815196Y-72508773D01*
X122809235Y-72532572D01*
X122800970Y-72555671D01*
X122790480Y-72577850D01*
X122777868Y-72598893D01*
X122763253Y-72618599D01*
X122746777Y-72636777D01*
X122728599Y-72653253D01*
X122708893Y-72667868D01*
X122687850Y-72680480D01*
X122665671Y-72690970D01*
X122642572Y-72699235D01*
X122618773Y-72705196D01*
X122594505Y-72708796D01*
X122570001Y-72710000D01*
X121269999Y-72710000D01*
X121245495Y-72708796D01*
X121221227Y-72705196D01*
X121197428Y-72699235D01*
X121174329Y-72690970D01*
X121152150Y-72680480D01*
X121131107Y-72667868D01*
X121111401Y-72653253D01*
X121093223Y-72636777D01*
X121076747Y-72618599D01*
X121062132Y-72598893D01*
X121049520Y-72577850D01*
X121039030Y-72555671D01*
X121030765Y-72532572D01*
X121024804Y-72508773D01*
X121021204Y-72484505D01*
X121020000Y-72460001D01*
X121020000Y-71759999D01*
X121021204Y-71735495D01*
X121024804Y-71711227D01*
X121030765Y-71687428D01*
X121039030Y-71664329D01*
X121049520Y-71642150D01*
X121062132Y-71621107D01*
X121076747Y-71601401D01*
X121093223Y-71583223D01*
X121111401Y-71566747D01*
X121131107Y-71552132D01*
X121152150Y-71539520D01*
X121174329Y-71529030D01*
X121197428Y-71520765D01*
X121221227Y-71514804D01*
X121245495Y-71511204D01*
X121269999Y-71510000D01*
X122570001Y-71510000D01*
X122594505Y-71511204D01*
G37*
G04 #@! TD.AperFunction*
D15*
X130810000Y-59690000D03*
X143510000Y-59670000D03*
D11*
X166610000Y-131220000D03*
X166610000Y-134620000D03*
X176530000Y-131220000D03*
X176530000Y-134620000D03*
X166610000Y-119282000D03*
X166610000Y-122682000D03*
X176530000Y-119282000D03*
X176530000Y-122682000D03*
X166610000Y-107344000D03*
X166610000Y-110744000D03*
X176530000Y-107344000D03*
X176530000Y-110744000D03*
X166610000Y-83468000D03*
X166610000Y-86868000D03*
X176530000Y-83468000D03*
X176530000Y-86868000D03*
X166610000Y-71530000D03*
X166610000Y-74930000D03*
X176530000Y-71530000D03*
X176530000Y-74930000D03*
X143270000Y-134620000D03*
X143270000Y-131220000D03*
X133350000Y-134620000D03*
X133350000Y-131220000D03*
X143270000Y-122682000D03*
X143270000Y-119282000D03*
X133350000Y-122682000D03*
X133350000Y-119282000D03*
X133350000Y-107344000D03*
X133350000Y-110744000D03*
X143270000Y-107344000D03*
X143270000Y-110744000D03*
X133350000Y-95406000D03*
X133350000Y-98806000D03*
X143270000Y-95406000D03*
X143270000Y-98806000D03*
X143270000Y-86868000D03*
X143270000Y-83468000D03*
X133350000Y-86868000D03*
X133350000Y-83468000D03*
X143270000Y-74930000D03*
X143270000Y-71530000D03*
X133350000Y-74930000D03*
X133350000Y-71530000D03*
D16*
X184150000Y-58420000D03*
D17*
X181610000Y-58420000D03*
D18*
X122500000Y-71530000D02*
X121920000Y-72110000D01*
X133350000Y-71530000D02*
X122500000Y-71530000D01*
X133350000Y-71530000D02*
X133350000Y-74930000D01*
D19*
X184150000Y-58420000D02*
X184150000Y-63500000D01*
X174170000Y-58090000D02*
X174870000Y-57390000D01*
X169365000Y-59670000D02*
X175665000Y-59670000D01*
X176915000Y-58420000D02*
X175665000Y-59670000D01*
X181610000Y-58420000D02*
X176915000Y-58420000D01*
D20*
X143510000Y-59670000D02*
X151110000Y-59670000D01*
X151110000Y-59670000D02*
X151010001Y-59769999D01*
D18*
X123889999Y-82078001D02*
X122520000Y-83448000D01*
X131960001Y-82078001D02*
X123889999Y-82078001D01*
X122520000Y-83448000D02*
X121920000Y-84048000D01*
X133350000Y-83468000D02*
X131960001Y-82078001D01*
X133350000Y-83468000D02*
X133350000Y-86868000D01*
X122500000Y-95406000D02*
X121920000Y-95986000D01*
X133350000Y-95406000D02*
X122500000Y-95406000D01*
X133350000Y-95406000D02*
X133350000Y-98806000D01*
X122500000Y-107344000D02*
X121920000Y-107924000D01*
X133350000Y-107344000D02*
X122500000Y-107344000D01*
X133350000Y-107344000D02*
X133350000Y-110744000D01*
X122500000Y-119282000D02*
X121920000Y-119862000D01*
X133350000Y-119282000D02*
X122500000Y-119282000D01*
X133350000Y-119282000D02*
X133350000Y-122682000D01*
X122500000Y-131220000D02*
X121920000Y-131800000D01*
X133350000Y-131220000D02*
X122500000Y-131220000D01*
X133350000Y-131220000D02*
X133350000Y-134620000D01*
X176530000Y-71530000D02*
X176530000Y-74930000D01*
X187380000Y-71530000D02*
X187960000Y-72110000D01*
X176530000Y-71530000D02*
X187380000Y-71530000D01*
X176530000Y-83468000D02*
X176530000Y-86868000D01*
X187380000Y-83468000D02*
X187960000Y-84048000D01*
X176530000Y-83468000D02*
X187380000Y-83468000D01*
X176530000Y-95406000D02*
X176530000Y-98806000D01*
X187380000Y-95406000D02*
X187960000Y-95986000D01*
X176530000Y-95406000D02*
X187380000Y-95406000D01*
X176530000Y-107344000D02*
X176530000Y-110744000D01*
X187380000Y-107344000D02*
X187960000Y-107924000D01*
X176530000Y-107344000D02*
X187380000Y-107344000D01*
X176530000Y-119282000D02*
X176530000Y-122682000D01*
X187380000Y-119282000D02*
X187960000Y-119862000D01*
X176530000Y-119282000D02*
X187380000Y-119282000D01*
X176530000Y-131220000D02*
X176530000Y-134620000D01*
X187380000Y-131220000D02*
X187960000Y-131800000D01*
X176530000Y-131220000D02*
X187380000Y-131220000D01*
D19*
X170065000Y-63500000D02*
X168910000Y-62345000D01*
X170180000Y-63500000D02*
X182100000Y-63500000D01*
X170180000Y-63500000D02*
X170065000Y-63500000D01*
D20*
X162320000Y-58090000D02*
X162320000Y-61490000D01*
D18*
X154700000Y-73420000D02*
X154940000Y-73660000D01*
X143270000Y-71530000D02*
X143270000Y-73420000D01*
D20*
X154940000Y-69850000D02*
X154940000Y-73660000D01*
D18*
X143270000Y-73420000D02*
X143270000Y-74930000D01*
X155180000Y-73420000D02*
X154940000Y-73660000D01*
X166610000Y-73420000D02*
X166610000Y-74930000D01*
X166610000Y-71530000D02*
X166610000Y-73420000D01*
X166610000Y-85330000D02*
X166610000Y-86868000D01*
X155180000Y-85330000D02*
X154940000Y-85090000D01*
X166610000Y-83468000D02*
X166610000Y-85330000D01*
D20*
X154940000Y-73660000D02*
X154940000Y-85090000D01*
D18*
X143270000Y-85330000D02*
X143270000Y-86868000D01*
X143270000Y-83468000D02*
X143270000Y-85330000D01*
X166610000Y-96280000D02*
X166370000Y-96520000D01*
X166610000Y-95406000D02*
X166610000Y-96280000D01*
X166370000Y-96520000D02*
X166370000Y-97790000D01*
X166610000Y-98030000D02*
X166370000Y-97790000D01*
X166610000Y-98806000D02*
X166610000Y-98030000D01*
X155836001Y-97416001D02*
X154940000Y-96520000D01*
D20*
X154940000Y-85090000D02*
X154940000Y-96520000D01*
D18*
X154043999Y-97416001D02*
X154940000Y-96520000D01*
X154700000Y-108980000D02*
X154940000Y-109220000D01*
X143270000Y-108980000D02*
X154700000Y-108980000D01*
X143270000Y-107344000D02*
X143270000Y-108980000D01*
X143270000Y-108980000D02*
X143270000Y-110744000D01*
D20*
X154940000Y-96520000D02*
X154940000Y-109220000D01*
D18*
X155180000Y-108980000D02*
X154940000Y-109220000D01*
X166610000Y-108980000D02*
X155180000Y-108980000D01*
X166610000Y-108980000D02*
X166610000Y-110744000D01*
X166610000Y-107344000D02*
X166610000Y-108980000D01*
X145556000Y-96520000D02*
X143510000Y-96520000D01*
X154940000Y-96520000D02*
X145556000Y-96520000D01*
X143270000Y-95406000D02*
X143510000Y-96520000D01*
X143510000Y-96520000D02*
X143270000Y-98806000D01*
X154940000Y-96520000D02*
X166370000Y-96520000D01*
X154700000Y-120890000D02*
X154940000Y-120650000D01*
X143270000Y-120890000D02*
X154700000Y-120890000D01*
X143270000Y-119282000D02*
X143270000Y-120890000D01*
X143270000Y-120890000D02*
X143270000Y-122682000D01*
D20*
X154940000Y-109220000D02*
X154940000Y-120650000D01*
D18*
X155180000Y-120890000D02*
X154940000Y-120650000D01*
X166610000Y-120890000D02*
X166610000Y-122682000D01*
X166610000Y-120890000D02*
X155180000Y-120890000D01*
X166610000Y-119282000D02*
X166610000Y-120890000D01*
X166610000Y-133110000D02*
X155180000Y-133110000D01*
X166610000Y-133110000D02*
X166610000Y-134620000D01*
X166610000Y-131220000D02*
X166610000Y-133110000D01*
X143270000Y-133590000D02*
X143510000Y-133350000D01*
X143270000Y-134620000D02*
X143270000Y-133590000D01*
X143270000Y-131220000D02*
X143510000Y-133350000D01*
X143750000Y-133110000D02*
X143510000Y-133350000D01*
X155180000Y-133110000D02*
X143750000Y-133110000D01*
D19*
X163020000Y-57390000D02*
X162320000Y-58090000D01*
X169365000Y-57390000D02*
X163020000Y-57390000D01*
D20*
X162320000Y-62470000D02*
X154940000Y-69850000D01*
X162320000Y-58090000D02*
X162320000Y-62470000D01*
X154940000Y-120650000D02*
X154940000Y-130810000D01*
D18*
X166610000Y-85330000D02*
X155180000Y-85330000D01*
X143270000Y-85330000D02*
X155180000Y-85330000D01*
X143270000Y-73420000D02*
X154700000Y-73420000D01*
X166610000Y-73420000D02*
X155180000Y-73420000D01*
M02*
