G04 #@! TF.GenerationSoftware,KiCad,Pcbnew,(5.1.5)-3*
G04 #@! TF.CreationDate,2020-03-23T11:19:51-04:00*
G04 #@! TF.ProjectId,RedLegs_pwrbrd,5265644c-6567-4735-9f70-77726272642e,rev?*
G04 #@! TF.SameCoordinates,Original*
G04 #@! TF.FileFunction,Legend,Top*
G04 #@! TF.FilePolarity,Positive*
%FSLAX46Y46*%
G04 Gerber Fmt 4.6, Leading zero omitted, Abs format (unit mm)*
G04 Created by KiCad (PCBNEW (5.1.5)-3) date 2020-03-23 11:19:51*
%MOMM*%
%LPD*%
G04 APERTURE LIST*
%ADD10C,0.300000*%
%ADD11C,0.120000*%
%ADD12C,0.150000*%
G04 APERTURE END LIST*
D10*
X142938571Y-64877142D02*
X144081428Y-64877142D01*
X143510000Y-65448571D02*
X143510000Y-64305714D01*
X130238571Y-64877142D02*
X131381428Y-64877142D01*
X135368571Y-145458571D02*
X134868571Y-144744285D01*
X134511428Y-145458571D02*
X134511428Y-143958571D01*
X135082857Y-143958571D01*
X135225714Y-144030000D01*
X135297142Y-144101428D01*
X135368571Y-144244285D01*
X135368571Y-144458571D01*
X135297142Y-144601428D01*
X135225714Y-144672857D01*
X135082857Y-144744285D01*
X134511428Y-144744285D01*
X136582857Y-145387142D02*
X136440000Y-145458571D01*
X136154285Y-145458571D01*
X136011428Y-145387142D01*
X135940000Y-145244285D01*
X135940000Y-144672857D01*
X136011428Y-144530000D01*
X136154285Y-144458571D01*
X136440000Y-144458571D01*
X136582857Y-144530000D01*
X136654285Y-144672857D01*
X136654285Y-144815714D01*
X135940000Y-144958571D01*
X137940000Y-145458571D02*
X137940000Y-143958571D01*
X137940000Y-145387142D02*
X137797142Y-145458571D01*
X137511428Y-145458571D01*
X137368571Y-145387142D01*
X137297142Y-145315714D01*
X137225714Y-145172857D01*
X137225714Y-144744285D01*
X137297142Y-144601428D01*
X137368571Y-144530000D01*
X137511428Y-144458571D01*
X137797142Y-144458571D01*
X137940000Y-144530000D01*
X140511428Y-145458571D02*
X139797142Y-145458571D01*
X139797142Y-143958571D01*
X141582857Y-145387142D02*
X141440000Y-145458571D01*
X141154285Y-145458571D01*
X141011428Y-145387142D01*
X140940000Y-145244285D01*
X140940000Y-144672857D01*
X141011428Y-144530000D01*
X141154285Y-144458571D01*
X141440000Y-144458571D01*
X141582857Y-144530000D01*
X141654285Y-144672857D01*
X141654285Y-144815714D01*
X140940000Y-144958571D01*
X142940000Y-144458571D02*
X142940000Y-145672857D01*
X142868571Y-145815714D01*
X142797142Y-145887142D01*
X142654285Y-145958571D01*
X142440000Y-145958571D01*
X142297142Y-145887142D01*
X142940000Y-145387142D02*
X142797142Y-145458571D01*
X142511428Y-145458571D01*
X142368571Y-145387142D01*
X142297142Y-145315714D01*
X142225714Y-145172857D01*
X142225714Y-144744285D01*
X142297142Y-144601428D01*
X142368571Y-144530000D01*
X142511428Y-144458571D01*
X142797142Y-144458571D01*
X142940000Y-144530000D01*
X143582857Y-145387142D02*
X143725714Y-145458571D01*
X144011428Y-145458571D01*
X144154285Y-145387142D01*
X144225714Y-145244285D01*
X144225714Y-145172857D01*
X144154285Y-145030000D01*
X144011428Y-144958571D01*
X143797142Y-144958571D01*
X143654285Y-144887142D01*
X143582857Y-144744285D01*
X143582857Y-144672857D01*
X143654285Y-144530000D01*
X143797142Y-144458571D01*
X144011428Y-144458571D01*
X144154285Y-144530000D01*
X146011428Y-145458571D02*
X146011428Y-143958571D01*
X146582857Y-143958571D01*
X146725714Y-144030000D01*
X146797142Y-144101428D01*
X146868571Y-144244285D01*
X146868571Y-144458571D01*
X146797142Y-144601428D01*
X146725714Y-144672857D01*
X146582857Y-144744285D01*
X146011428Y-144744285D01*
X147725714Y-145458571D02*
X147582857Y-145387142D01*
X147511428Y-145315714D01*
X147440000Y-145172857D01*
X147440000Y-144744285D01*
X147511428Y-144601428D01*
X147582857Y-144530000D01*
X147725714Y-144458571D01*
X147940000Y-144458571D01*
X148082857Y-144530000D01*
X148154285Y-144601428D01*
X148225714Y-144744285D01*
X148225714Y-145172857D01*
X148154285Y-145315714D01*
X148082857Y-145387142D01*
X147940000Y-145458571D01*
X147725714Y-145458571D01*
X148725714Y-144458571D02*
X149011428Y-145458571D01*
X149297142Y-144744285D01*
X149582857Y-145458571D01*
X149868571Y-144458571D01*
X151011428Y-145387142D02*
X150868571Y-145458571D01*
X150582857Y-145458571D01*
X150440000Y-145387142D01*
X150368571Y-145244285D01*
X150368571Y-144672857D01*
X150440000Y-144530000D01*
X150582857Y-144458571D01*
X150868571Y-144458571D01*
X151011428Y-144530000D01*
X151082857Y-144672857D01*
X151082857Y-144815714D01*
X150368571Y-144958571D01*
X151725714Y-145458571D02*
X151725714Y-144458571D01*
X151725714Y-144744285D02*
X151797142Y-144601428D01*
X151868571Y-144530000D01*
X152011428Y-144458571D01*
X152154285Y-144458571D01*
X154297142Y-144672857D02*
X154511428Y-144744285D01*
X154582857Y-144815714D01*
X154654285Y-144958571D01*
X154654285Y-145172857D01*
X154582857Y-145315714D01*
X154511428Y-145387142D01*
X154368571Y-145458571D01*
X153797142Y-145458571D01*
X153797142Y-143958571D01*
X154297142Y-143958571D01*
X154440000Y-144030000D01*
X154511428Y-144101428D01*
X154582857Y-144244285D01*
X154582857Y-144387142D01*
X154511428Y-144530000D01*
X154440000Y-144601428D01*
X154297142Y-144672857D01*
X153797142Y-144672857D01*
X155511428Y-145458571D02*
X155368571Y-145387142D01*
X155297142Y-145315714D01*
X155225714Y-145172857D01*
X155225714Y-144744285D01*
X155297142Y-144601428D01*
X155368571Y-144530000D01*
X155511428Y-144458571D01*
X155725714Y-144458571D01*
X155868571Y-144530000D01*
X155940000Y-144601428D01*
X156011428Y-144744285D01*
X156011428Y-145172857D01*
X155940000Y-145315714D01*
X155868571Y-145387142D01*
X155725714Y-145458571D01*
X155511428Y-145458571D01*
X157297142Y-145458571D02*
X157297142Y-144672857D01*
X157225714Y-144530000D01*
X157082857Y-144458571D01*
X156797142Y-144458571D01*
X156654285Y-144530000D01*
X157297142Y-145387142D02*
X157154285Y-145458571D01*
X156797142Y-145458571D01*
X156654285Y-145387142D01*
X156582857Y-145244285D01*
X156582857Y-145101428D01*
X156654285Y-144958571D01*
X156797142Y-144887142D01*
X157154285Y-144887142D01*
X157297142Y-144815714D01*
X158011428Y-145458571D02*
X158011428Y-144458571D01*
X158011428Y-144744285D02*
X158082857Y-144601428D01*
X158154285Y-144530000D01*
X158297142Y-144458571D01*
X158440000Y-144458571D01*
X159582857Y-145458571D02*
X159582857Y-143958571D01*
X159582857Y-145387142D02*
X159440000Y-145458571D01*
X159154285Y-145458571D01*
X159011428Y-145387142D01*
X158940000Y-145315714D01*
X158868571Y-145172857D01*
X158868571Y-144744285D01*
X158940000Y-144601428D01*
X159011428Y-144530000D01*
X159154285Y-144458571D01*
X159440000Y-144458571D01*
X159582857Y-144530000D01*
X161440000Y-144887142D02*
X162582857Y-144887142D01*
X164440000Y-145458571D02*
X164440000Y-143958571D01*
X164940000Y-145030000D01*
X165440000Y-143958571D01*
X165440000Y-145458571D01*
X166154285Y-145458571D02*
X166154285Y-143958571D01*
X166297142Y-144887142D02*
X166725714Y-145458571D01*
X166725714Y-144458571D02*
X166154285Y-145030000D01*
X168511428Y-145458571D02*
X168511428Y-143958571D01*
X170297142Y-144101428D02*
X170368571Y-144030000D01*
X170511428Y-143958571D01*
X170868571Y-143958571D01*
X171011428Y-144030000D01*
X171082857Y-144101428D01*
X171154285Y-144244285D01*
X171154285Y-144387142D01*
X171082857Y-144601428D01*
X170225714Y-145458571D01*
X171154285Y-145458571D01*
X172082857Y-143958571D02*
X172225714Y-143958571D01*
X172368571Y-144030000D01*
X172440000Y-144101428D01*
X172511428Y-144244285D01*
X172582857Y-144530000D01*
X172582857Y-144887142D01*
X172511428Y-145172857D01*
X172440000Y-145315714D01*
X172368571Y-145387142D01*
X172225714Y-145458571D01*
X172082857Y-145458571D01*
X171940000Y-145387142D01*
X171868571Y-145315714D01*
X171797142Y-145172857D01*
X171725714Y-144887142D01*
X171725714Y-144530000D01*
X171797142Y-144244285D01*
X171868571Y-144101428D01*
X171940000Y-144030000D01*
X172082857Y-143958571D01*
X173154285Y-144101428D02*
X173225714Y-144030000D01*
X173368571Y-143958571D01*
X173725714Y-143958571D01*
X173868571Y-144030000D01*
X173940000Y-144101428D01*
X174011428Y-144244285D01*
X174011428Y-144387142D01*
X173940000Y-144601428D01*
X173082857Y-145458571D01*
X174011428Y-145458571D01*
X174940000Y-143958571D02*
X175082857Y-143958571D01*
X175225714Y-144030000D01*
X175297142Y-144101428D01*
X175368571Y-144244285D01*
X175440000Y-144530000D01*
X175440000Y-144887142D01*
X175368571Y-145172857D01*
X175297142Y-145315714D01*
X175225714Y-145387142D01*
X175082857Y-145458571D01*
X174940000Y-145458571D01*
X174797142Y-145387142D01*
X174725714Y-145315714D01*
X174654285Y-145172857D01*
X174582857Y-144887142D01*
X174582857Y-144530000D01*
X174654285Y-144244285D01*
X174725714Y-144101428D01*
X174797142Y-144030000D01*
X174940000Y-143958571D01*
D11*
X183386252Y-62790000D02*
X182863748Y-62790000D01*
X183386252Y-64210000D02*
X182863748Y-64210000D01*
X173170000Y-99106000D02*
X169970000Y-99106000D01*
X169970000Y-95106000D02*
X173170000Y-95106000D01*
X172320000Y-97106000D02*
X170820000Y-97106000D01*
X163470000Y-100576000D02*
X179670000Y-100576000D01*
X163470000Y-93636000D02*
X163470000Y-100576000D01*
X179670000Y-93636000D02*
X163470000Y-93636000D01*
X179670000Y-100576000D02*
X179670000Y-93636000D01*
X155760000Y-57790000D02*
X158960000Y-57790000D01*
X158960000Y-61790000D02*
X155760000Y-61790000D01*
X156610000Y-59790000D02*
X158110000Y-59790000D01*
X165460000Y-56320000D02*
X149260000Y-56320000D01*
X165460000Y-63260000D02*
X165460000Y-56320000D01*
X149260000Y-63260000D02*
X165460000Y-63260000D01*
X149260000Y-56320000D02*
X149260000Y-63260000D01*
X171095000Y-62850000D02*
X169995000Y-62850000D01*
X171095000Y-63120000D02*
X171095000Y-62850000D01*
X172595000Y-63120000D02*
X171095000Y-63120000D01*
X171095000Y-56490000D02*
X168265000Y-56490000D01*
X171095000Y-56220000D02*
X171095000Y-56490000D01*
X172595000Y-56220000D02*
X171095000Y-56220000D01*
X187560000Y-135510000D02*
X185700000Y-135510000D01*
X187560000Y-135110000D02*
X187560000Y-135510000D01*
X187960000Y-135110000D02*
X187560000Y-135110000D01*
X187960000Y-135510000D02*
X187960000Y-135110000D01*
X189170000Y-135510000D02*
X187960000Y-135510000D01*
X189170000Y-132800000D02*
X189170000Y-135510000D01*
X187560000Y-130090000D02*
X185700000Y-130090000D01*
X187560000Y-130490000D02*
X187560000Y-130090000D01*
X187960000Y-130490000D02*
X187560000Y-130490000D01*
X187960000Y-130090000D02*
X187960000Y-130490000D01*
X189170000Y-130090000D02*
X187960000Y-130090000D01*
X189170000Y-132800000D02*
X189170000Y-130090000D01*
X187160000Y-135910000D02*
X187160000Y-135510000D01*
X187160000Y-129690000D02*
X187160000Y-130090000D01*
X189870000Y-129390000D02*
X187570000Y-129390000D01*
X189870000Y-131690000D02*
X189870000Y-129390000D01*
X189570000Y-135910000D02*
X189570000Y-129690000D01*
X185700000Y-135910000D02*
X189570000Y-135910000D01*
X185700000Y-129690000D02*
X185700000Y-135910000D01*
X189570000Y-129690000D02*
X185700000Y-129690000D01*
X187560000Y-123572000D02*
X185700000Y-123572000D01*
X187560000Y-123172000D02*
X187560000Y-123572000D01*
X187960000Y-123172000D02*
X187560000Y-123172000D01*
X187960000Y-123572000D02*
X187960000Y-123172000D01*
X189170000Y-123572000D02*
X187960000Y-123572000D01*
X189170000Y-120862000D02*
X189170000Y-123572000D01*
X187560000Y-118152000D02*
X185700000Y-118152000D01*
X187560000Y-118552000D02*
X187560000Y-118152000D01*
X187960000Y-118552000D02*
X187560000Y-118552000D01*
X187960000Y-118152000D02*
X187960000Y-118552000D01*
X189170000Y-118152000D02*
X187960000Y-118152000D01*
X189170000Y-120862000D02*
X189170000Y-118152000D01*
X187160000Y-123972000D02*
X187160000Y-123572000D01*
X187160000Y-117752000D02*
X187160000Y-118152000D01*
X189870000Y-117452000D02*
X187570000Y-117452000D01*
X189870000Y-119752000D02*
X189870000Y-117452000D01*
X189570000Y-123972000D02*
X189570000Y-117752000D01*
X185700000Y-123972000D02*
X189570000Y-123972000D01*
X185700000Y-117752000D02*
X185700000Y-123972000D01*
X189570000Y-117752000D02*
X185700000Y-117752000D01*
X187560000Y-111634000D02*
X185700000Y-111634000D01*
X187560000Y-111234000D02*
X187560000Y-111634000D01*
X187960000Y-111234000D02*
X187560000Y-111234000D01*
X187960000Y-111634000D02*
X187960000Y-111234000D01*
X189170000Y-111634000D02*
X187960000Y-111634000D01*
X189170000Y-108924000D02*
X189170000Y-111634000D01*
X187560000Y-106214000D02*
X185700000Y-106214000D01*
X187560000Y-106614000D02*
X187560000Y-106214000D01*
X187960000Y-106614000D02*
X187560000Y-106614000D01*
X187960000Y-106214000D02*
X187960000Y-106614000D01*
X189170000Y-106214000D02*
X187960000Y-106214000D01*
X189170000Y-108924000D02*
X189170000Y-106214000D01*
X187160000Y-112034000D02*
X187160000Y-111634000D01*
X187160000Y-105814000D02*
X187160000Y-106214000D01*
X189870000Y-105514000D02*
X187570000Y-105514000D01*
X189870000Y-107814000D02*
X189870000Y-105514000D01*
X189570000Y-112034000D02*
X189570000Y-105814000D01*
X185700000Y-112034000D02*
X189570000Y-112034000D01*
X185700000Y-105814000D02*
X185700000Y-112034000D01*
X189570000Y-105814000D02*
X185700000Y-105814000D01*
X187560000Y-99696000D02*
X185700000Y-99696000D01*
X187560000Y-99296000D02*
X187560000Y-99696000D01*
X187960000Y-99296000D02*
X187560000Y-99296000D01*
X187960000Y-99696000D02*
X187960000Y-99296000D01*
X189170000Y-99696000D02*
X187960000Y-99696000D01*
X189170000Y-96986000D02*
X189170000Y-99696000D01*
X187560000Y-94276000D02*
X185700000Y-94276000D01*
X187560000Y-94676000D02*
X187560000Y-94276000D01*
X187960000Y-94676000D02*
X187560000Y-94676000D01*
X187960000Y-94276000D02*
X187960000Y-94676000D01*
X189170000Y-94276000D02*
X187960000Y-94276000D01*
X189170000Y-96986000D02*
X189170000Y-94276000D01*
X187160000Y-100096000D02*
X187160000Y-99696000D01*
X187160000Y-93876000D02*
X187160000Y-94276000D01*
X189870000Y-93576000D02*
X187570000Y-93576000D01*
X189870000Y-95876000D02*
X189870000Y-93576000D01*
X189570000Y-100096000D02*
X189570000Y-93876000D01*
X185700000Y-100096000D02*
X189570000Y-100096000D01*
X185700000Y-93876000D02*
X185700000Y-100096000D01*
X189570000Y-93876000D02*
X185700000Y-93876000D01*
X187560000Y-87758000D02*
X185700000Y-87758000D01*
X187560000Y-87358000D02*
X187560000Y-87758000D01*
X187960000Y-87358000D02*
X187560000Y-87358000D01*
X187960000Y-87758000D02*
X187960000Y-87358000D01*
X189170000Y-87758000D02*
X187960000Y-87758000D01*
X189170000Y-85048000D02*
X189170000Y-87758000D01*
X187560000Y-82338000D02*
X185700000Y-82338000D01*
X187560000Y-82738000D02*
X187560000Y-82338000D01*
X187960000Y-82738000D02*
X187560000Y-82738000D01*
X187960000Y-82338000D02*
X187960000Y-82738000D01*
X189170000Y-82338000D02*
X187960000Y-82338000D01*
X189170000Y-85048000D02*
X189170000Y-82338000D01*
X187160000Y-88158000D02*
X187160000Y-87758000D01*
X187160000Y-81938000D02*
X187160000Y-82338000D01*
X189870000Y-81638000D02*
X187570000Y-81638000D01*
X189870000Y-83938000D02*
X189870000Y-81638000D01*
X189570000Y-88158000D02*
X189570000Y-81938000D01*
X185700000Y-88158000D02*
X189570000Y-88158000D01*
X185700000Y-81938000D02*
X185700000Y-88158000D01*
X189570000Y-81938000D02*
X185700000Y-81938000D01*
X187560000Y-75820000D02*
X185700000Y-75820000D01*
X187560000Y-75420000D02*
X187560000Y-75820000D01*
X187960000Y-75420000D02*
X187560000Y-75420000D01*
X187960000Y-75820000D02*
X187960000Y-75420000D01*
X189170000Y-75820000D02*
X187960000Y-75820000D01*
X189170000Y-73110000D02*
X189170000Y-75820000D01*
X187560000Y-70400000D02*
X185700000Y-70400000D01*
X187560000Y-70800000D02*
X187560000Y-70400000D01*
X187960000Y-70800000D02*
X187560000Y-70800000D01*
X187960000Y-70400000D02*
X187960000Y-70800000D01*
X189170000Y-70400000D02*
X187960000Y-70400000D01*
X189170000Y-73110000D02*
X189170000Y-70400000D01*
X187160000Y-76220000D02*
X187160000Y-75820000D01*
X187160000Y-70000000D02*
X187160000Y-70400000D01*
X189870000Y-69700000D02*
X187570000Y-69700000D01*
X189870000Y-72000000D02*
X189870000Y-69700000D01*
X189570000Y-76220000D02*
X189570000Y-70000000D01*
X185700000Y-76220000D02*
X189570000Y-76220000D01*
X185700000Y-70000000D02*
X185700000Y-76220000D01*
X189570000Y-70000000D02*
X185700000Y-70000000D01*
X121520000Y-135510000D02*
X119660000Y-135510000D01*
X121520000Y-135110000D02*
X121520000Y-135510000D01*
X121920000Y-135110000D02*
X121520000Y-135110000D01*
X121920000Y-135510000D02*
X121920000Y-135110000D01*
X123130000Y-135510000D02*
X121920000Y-135510000D01*
X123130000Y-132800000D02*
X123130000Y-135510000D01*
X121520000Y-130090000D02*
X119660000Y-130090000D01*
X121520000Y-130490000D02*
X121520000Y-130090000D01*
X121920000Y-130490000D02*
X121520000Y-130490000D01*
X121920000Y-130090000D02*
X121920000Y-130490000D01*
X123130000Y-130090000D02*
X121920000Y-130090000D01*
X123130000Y-132800000D02*
X123130000Y-130090000D01*
X121120000Y-135910000D02*
X121120000Y-135510000D01*
X121120000Y-129690000D02*
X121120000Y-130090000D01*
X123830000Y-129390000D02*
X121530000Y-129390000D01*
X123830000Y-131690000D02*
X123830000Y-129390000D01*
X123530000Y-135910000D02*
X123530000Y-129690000D01*
X119660000Y-135910000D02*
X123530000Y-135910000D01*
X119660000Y-129690000D02*
X119660000Y-135910000D01*
X123530000Y-129690000D02*
X119660000Y-129690000D01*
X121520000Y-123572000D02*
X119660000Y-123572000D01*
X121520000Y-123172000D02*
X121520000Y-123572000D01*
X121920000Y-123172000D02*
X121520000Y-123172000D01*
X121920000Y-123572000D02*
X121920000Y-123172000D01*
X123130000Y-123572000D02*
X121920000Y-123572000D01*
X123130000Y-120862000D02*
X123130000Y-123572000D01*
X121520000Y-118152000D02*
X119660000Y-118152000D01*
X121520000Y-118552000D02*
X121520000Y-118152000D01*
X121920000Y-118552000D02*
X121520000Y-118552000D01*
X121920000Y-118152000D02*
X121920000Y-118552000D01*
X123130000Y-118152000D02*
X121920000Y-118152000D01*
X123130000Y-120862000D02*
X123130000Y-118152000D01*
X121120000Y-123972000D02*
X121120000Y-123572000D01*
X121120000Y-117752000D02*
X121120000Y-118152000D01*
X123830000Y-117452000D02*
X121530000Y-117452000D01*
X123830000Y-119752000D02*
X123830000Y-117452000D01*
X123530000Y-123972000D02*
X123530000Y-117752000D01*
X119660000Y-123972000D02*
X123530000Y-123972000D01*
X119660000Y-117752000D02*
X119660000Y-123972000D01*
X123530000Y-117752000D02*
X119660000Y-117752000D01*
X121520000Y-111634000D02*
X119660000Y-111634000D01*
X121520000Y-111234000D02*
X121520000Y-111634000D01*
X121920000Y-111234000D02*
X121520000Y-111234000D01*
X121920000Y-111634000D02*
X121920000Y-111234000D01*
X123130000Y-111634000D02*
X121920000Y-111634000D01*
X123130000Y-108924000D02*
X123130000Y-111634000D01*
X121520000Y-106214000D02*
X119660000Y-106214000D01*
X121520000Y-106614000D02*
X121520000Y-106214000D01*
X121920000Y-106614000D02*
X121520000Y-106614000D01*
X121920000Y-106214000D02*
X121920000Y-106614000D01*
X123130000Y-106214000D02*
X121920000Y-106214000D01*
X123130000Y-108924000D02*
X123130000Y-106214000D01*
X121120000Y-112034000D02*
X121120000Y-111634000D01*
X121120000Y-105814000D02*
X121120000Y-106214000D01*
X123830000Y-105514000D02*
X121530000Y-105514000D01*
X123830000Y-107814000D02*
X123830000Y-105514000D01*
X123530000Y-112034000D02*
X123530000Y-105814000D01*
X119660000Y-112034000D02*
X123530000Y-112034000D01*
X119660000Y-105814000D02*
X119660000Y-112034000D01*
X123530000Y-105814000D02*
X119660000Y-105814000D01*
X121520000Y-99696000D02*
X119660000Y-99696000D01*
X121520000Y-99296000D02*
X121520000Y-99696000D01*
X121920000Y-99296000D02*
X121520000Y-99296000D01*
X121920000Y-99696000D02*
X121920000Y-99296000D01*
X123130000Y-99696000D02*
X121920000Y-99696000D01*
X123130000Y-96986000D02*
X123130000Y-99696000D01*
X121520000Y-94276000D02*
X119660000Y-94276000D01*
X121520000Y-94676000D02*
X121520000Y-94276000D01*
X121920000Y-94676000D02*
X121520000Y-94676000D01*
X121920000Y-94276000D02*
X121920000Y-94676000D01*
X123130000Y-94276000D02*
X121920000Y-94276000D01*
X123130000Y-96986000D02*
X123130000Y-94276000D01*
X121120000Y-100096000D02*
X121120000Y-99696000D01*
X121120000Y-93876000D02*
X121120000Y-94276000D01*
X123830000Y-93576000D02*
X121530000Y-93576000D01*
X123830000Y-95876000D02*
X123830000Y-93576000D01*
X123530000Y-100096000D02*
X123530000Y-93876000D01*
X119660000Y-100096000D02*
X123530000Y-100096000D01*
X119660000Y-93876000D02*
X119660000Y-100096000D01*
X123530000Y-93876000D02*
X119660000Y-93876000D01*
X121520000Y-87758000D02*
X119660000Y-87758000D01*
X121520000Y-87358000D02*
X121520000Y-87758000D01*
X121920000Y-87358000D02*
X121520000Y-87358000D01*
X121920000Y-87758000D02*
X121920000Y-87358000D01*
X123130000Y-87758000D02*
X121920000Y-87758000D01*
X123130000Y-85048000D02*
X123130000Y-87758000D01*
X121520000Y-82338000D02*
X119660000Y-82338000D01*
X121520000Y-82738000D02*
X121520000Y-82338000D01*
X121920000Y-82738000D02*
X121520000Y-82738000D01*
X121920000Y-82338000D02*
X121920000Y-82738000D01*
X123130000Y-82338000D02*
X121920000Y-82338000D01*
X123130000Y-85048000D02*
X123130000Y-82338000D01*
X121120000Y-88158000D02*
X121120000Y-87758000D01*
X121120000Y-81938000D02*
X121120000Y-82338000D01*
X123830000Y-81638000D02*
X121530000Y-81638000D01*
X123830000Y-83938000D02*
X123830000Y-81638000D01*
X123530000Y-88158000D02*
X123530000Y-81938000D01*
X119660000Y-88158000D02*
X123530000Y-88158000D01*
X119660000Y-81938000D02*
X119660000Y-88158000D01*
X123530000Y-81938000D02*
X119660000Y-81938000D01*
X121520000Y-75820000D02*
X119660000Y-75820000D01*
X121520000Y-75420000D02*
X121520000Y-75820000D01*
X121920000Y-75420000D02*
X121520000Y-75420000D01*
X121920000Y-75820000D02*
X121920000Y-75420000D01*
X123130000Y-75820000D02*
X121920000Y-75820000D01*
X123130000Y-73110000D02*
X123130000Y-75820000D01*
X121520000Y-70400000D02*
X119660000Y-70400000D01*
X121520000Y-70800000D02*
X121520000Y-70400000D01*
X121920000Y-70800000D02*
X121520000Y-70800000D01*
X121920000Y-70400000D02*
X121920000Y-70800000D01*
X123130000Y-70400000D02*
X121920000Y-70400000D01*
X123130000Y-73110000D02*
X123130000Y-70400000D01*
X121120000Y-76220000D02*
X121120000Y-75820000D01*
X121120000Y-70000000D02*
X121120000Y-70400000D01*
X123830000Y-69700000D02*
X121530000Y-69700000D01*
X123830000Y-72000000D02*
X123830000Y-69700000D01*
X123530000Y-76220000D02*
X123530000Y-70000000D01*
X119660000Y-76220000D02*
X123530000Y-76220000D01*
X119660000Y-70000000D02*
X119660000Y-76220000D01*
X123530000Y-70000000D02*
X119660000Y-70000000D01*
X173170000Y-134920000D02*
X169970000Y-134920000D01*
X169970000Y-130920000D02*
X173170000Y-130920000D01*
X172320000Y-132920000D02*
X170820000Y-132920000D01*
X163470000Y-136390000D02*
X179670000Y-136390000D01*
X163470000Y-129450000D02*
X163470000Y-136390000D01*
X179670000Y-129450000D02*
X163470000Y-129450000D01*
X179670000Y-136390000D02*
X179670000Y-129450000D01*
X173170000Y-122982000D02*
X169970000Y-122982000D01*
X169970000Y-118982000D02*
X173170000Y-118982000D01*
X172320000Y-120982000D02*
X170820000Y-120982000D01*
X163470000Y-124452000D02*
X179670000Y-124452000D01*
X163470000Y-117512000D02*
X163470000Y-124452000D01*
X179670000Y-117512000D02*
X163470000Y-117512000D01*
X179670000Y-124452000D02*
X179670000Y-117512000D01*
X173170000Y-111044000D02*
X169970000Y-111044000D01*
X169970000Y-107044000D02*
X173170000Y-107044000D01*
X172320000Y-109044000D02*
X170820000Y-109044000D01*
X163470000Y-112514000D02*
X179670000Y-112514000D01*
X163470000Y-105574000D02*
X163470000Y-112514000D01*
X179670000Y-105574000D02*
X163470000Y-105574000D01*
X179670000Y-112514000D02*
X179670000Y-105574000D01*
X173170000Y-87168000D02*
X169970000Y-87168000D01*
X169970000Y-83168000D02*
X173170000Y-83168000D01*
X172320000Y-85168000D02*
X170820000Y-85168000D01*
X163470000Y-88638000D02*
X179670000Y-88638000D01*
X163470000Y-81698000D02*
X163470000Y-88638000D01*
X179670000Y-81698000D02*
X163470000Y-81698000D01*
X179670000Y-88638000D02*
X179670000Y-81698000D01*
X173170000Y-75230000D02*
X169970000Y-75230000D01*
X169970000Y-71230000D02*
X173170000Y-71230000D01*
X172320000Y-73230000D02*
X170820000Y-73230000D01*
X163470000Y-76700000D02*
X179670000Y-76700000D01*
X163470000Y-69760000D02*
X163470000Y-76700000D01*
X179670000Y-69760000D02*
X163470000Y-69760000D01*
X179670000Y-76700000D02*
X179670000Y-69760000D01*
X136710000Y-130920000D02*
X139910000Y-130920000D01*
X139910000Y-134920000D02*
X136710000Y-134920000D01*
X137560000Y-132920000D02*
X139060000Y-132920000D01*
X146410000Y-129450000D02*
X130210000Y-129450000D01*
X146410000Y-136390000D02*
X146410000Y-129450000D01*
X130210000Y-136390000D02*
X146410000Y-136390000D01*
X130210000Y-129450000D02*
X130210000Y-136390000D01*
X136710000Y-118982000D02*
X139910000Y-118982000D01*
X139910000Y-122982000D02*
X136710000Y-122982000D01*
X137560000Y-120982000D02*
X139060000Y-120982000D01*
X146410000Y-117512000D02*
X130210000Y-117512000D01*
X146410000Y-124452000D02*
X146410000Y-117512000D01*
X130210000Y-124452000D02*
X146410000Y-124452000D01*
X130210000Y-117512000D02*
X130210000Y-124452000D01*
X130210000Y-105574000D02*
X130210000Y-112514000D01*
X130210000Y-112514000D02*
X146410000Y-112514000D01*
X146410000Y-112514000D02*
X146410000Y-105574000D01*
X146410000Y-105574000D02*
X130210000Y-105574000D01*
X137560000Y-109044000D02*
X139060000Y-109044000D01*
X139910000Y-111044000D02*
X136710000Y-111044000D01*
X136710000Y-107044000D02*
X139910000Y-107044000D01*
X130210000Y-93636000D02*
X130210000Y-100576000D01*
X130210000Y-100576000D02*
X146410000Y-100576000D01*
X146410000Y-100576000D02*
X146410000Y-93636000D01*
X146410000Y-93636000D02*
X130210000Y-93636000D01*
X137560000Y-97106000D02*
X139060000Y-97106000D01*
X139910000Y-99106000D02*
X136710000Y-99106000D01*
X136710000Y-95106000D02*
X139910000Y-95106000D01*
X136710000Y-83168000D02*
X139910000Y-83168000D01*
X139910000Y-87168000D02*
X136710000Y-87168000D01*
X137560000Y-85168000D02*
X139060000Y-85168000D01*
X146410000Y-81698000D02*
X130210000Y-81698000D01*
X146410000Y-88638000D02*
X146410000Y-81698000D01*
X130210000Y-88638000D02*
X146410000Y-88638000D01*
X130210000Y-81698000D02*
X130210000Y-88638000D01*
X136710000Y-71230000D02*
X139910000Y-71230000D01*
X139910000Y-75230000D02*
X136710000Y-75230000D01*
X137560000Y-73230000D02*
X139060000Y-73230000D01*
X146410000Y-69760000D02*
X130210000Y-69760000D01*
X146410000Y-76700000D02*
X146410000Y-69760000D01*
X130210000Y-76700000D02*
X146410000Y-76700000D01*
X130210000Y-69760000D02*
X130210000Y-76700000D01*
X181320000Y-59500000D02*
X181320000Y-59656000D01*
X181320000Y-57184000D02*
X181320000Y-57340000D01*
X183921130Y-59499837D02*
G75*
G02X181839039Y-59500000I-1041130J1079837D01*
G01*
X183921130Y-57340163D02*
G75*
G03X181839039Y-57340000I-1041130J-1079837D01*
G01*
X184552335Y-59498608D02*
G75*
G02X181320000Y-59655516I-1672335J1078608D01*
G01*
X184552335Y-57341392D02*
G75*
G03X181320000Y-57184484I-1672335J-1078608D01*
G01*
D12*
X182958333Y-65602380D02*
X182625000Y-65126190D01*
X182386904Y-65602380D02*
X182386904Y-64602380D01*
X182767857Y-64602380D01*
X182863095Y-64650000D01*
X182910714Y-64697619D01*
X182958333Y-64792857D01*
X182958333Y-64935714D01*
X182910714Y-65030952D01*
X182863095Y-65078571D01*
X182767857Y-65126190D01*
X182386904Y-65126190D01*
X183910714Y-65602380D02*
X183339285Y-65602380D01*
X183625000Y-65602380D02*
X183625000Y-64602380D01*
X183529761Y-64745238D01*
X183434523Y-64840476D01*
X183339285Y-64888095D01*
X171236666Y-101404571D02*
X170903333Y-101404571D01*
X170903333Y-101928380D02*
X170903333Y-100928380D01*
X171379523Y-100928380D01*
X171808095Y-101928380D02*
X171998571Y-101928380D01*
X172093809Y-101880761D01*
X172141428Y-101833142D01*
X172236666Y-101690285D01*
X172284285Y-101499809D01*
X172284285Y-101118857D01*
X172236666Y-101023619D01*
X172189047Y-100976000D01*
X172093809Y-100928380D01*
X171903333Y-100928380D01*
X171808095Y-100976000D01*
X171760476Y-101023619D01*
X171712857Y-101118857D01*
X171712857Y-101356952D01*
X171760476Y-101452190D01*
X171808095Y-101499809D01*
X171903333Y-101547428D01*
X172093809Y-101547428D01*
X172189047Y-101499809D01*
X172236666Y-101452190D01*
X172284285Y-101356952D01*
X157026666Y-55348571D02*
X156693333Y-55348571D01*
X156693333Y-55872380D02*
X156693333Y-54872380D01*
X157169523Y-54872380D01*
X157740952Y-54872380D02*
X157836190Y-54872380D01*
X157931428Y-54920000D01*
X157979047Y-54967619D01*
X158026666Y-55062857D01*
X158074285Y-55253333D01*
X158074285Y-55491428D01*
X158026666Y-55681904D01*
X157979047Y-55777142D01*
X157931428Y-55824761D01*
X157836190Y-55872380D01*
X157740952Y-55872380D01*
X157645714Y-55824761D01*
X157598095Y-55777142D01*
X157550476Y-55681904D01*
X157502857Y-55491428D01*
X157502857Y-55253333D01*
X157550476Y-55062857D01*
X157598095Y-54967619D01*
X157645714Y-54920000D01*
X157740952Y-54872380D01*
X170688095Y-64222380D02*
X170688095Y-65031904D01*
X170735714Y-65127142D01*
X170783333Y-65174761D01*
X170878571Y-65222380D01*
X171069047Y-65222380D01*
X171164285Y-65174761D01*
X171211904Y-65127142D01*
X171259523Y-65031904D01*
X171259523Y-64222380D01*
X172259523Y-65222380D02*
X171688095Y-65222380D01*
X171973809Y-65222380D02*
X171973809Y-64222380D01*
X171878571Y-64365238D01*
X171783333Y-64460476D01*
X171688095Y-64508095D01*
X190112380Y-133609523D02*
X190826666Y-133609523D01*
X190969523Y-133657142D01*
X191064761Y-133752380D01*
X191112380Y-133895238D01*
X191112380Y-133990476D01*
X191112380Y-132609523D02*
X191112380Y-133180952D01*
X191112380Y-132895238D02*
X190112380Y-132895238D01*
X190255238Y-132990476D01*
X190350476Y-133085714D01*
X190398095Y-133180952D01*
X190207619Y-132228571D02*
X190160000Y-132180952D01*
X190112380Y-132085714D01*
X190112380Y-131847619D01*
X190160000Y-131752380D01*
X190207619Y-131704761D01*
X190302857Y-131657142D01*
X190398095Y-131657142D01*
X190540952Y-131704761D01*
X191112380Y-132276190D01*
X191112380Y-131657142D01*
X190112380Y-121671523D02*
X190826666Y-121671523D01*
X190969523Y-121719142D01*
X191064761Y-121814380D01*
X191112380Y-121957238D01*
X191112380Y-122052476D01*
X191112380Y-120671523D02*
X191112380Y-121242952D01*
X191112380Y-120957238D02*
X190112380Y-120957238D01*
X190255238Y-121052476D01*
X190350476Y-121147714D01*
X190398095Y-121242952D01*
X191112380Y-119719142D02*
X191112380Y-120290571D01*
X191112380Y-120004857D02*
X190112380Y-120004857D01*
X190255238Y-120100095D01*
X190350476Y-120195333D01*
X190398095Y-120290571D01*
X190112380Y-109733523D02*
X190826666Y-109733523D01*
X190969523Y-109781142D01*
X191064761Y-109876380D01*
X191112380Y-110019238D01*
X191112380Y-110114476D01*
X191112380Y-108733523D02*
X191112380Y-109304952D01*
X191112380Y-109019238D02*
X190112380Y-109019238D01*
X190255238Y-109114476D01*
X190350476Y-109209714D01*
X190398095Y-109304952D01*
X190112380Y-108114476D02*
X190112380Y-108019238D01*
X190160000Y-107924000D01*
X190207619Y-107876380D01*
X190302857Y-107828761D01*
X190493333Y-107781142D01*
X190731428Y-107781142D01*
X190921904Y-107828761D01*
X191017142Y-107876380D01*
X191064761Y-107924000D01*
X191112380Y-108019238D01*
X191112380Y-108114476D01*
X191064761Y-108209714D01*
X191017142Y-108257333D01*
X190921904Y-108304952D01*
X190731428Y-108352571D01*
X190493333Y-108352571D01*
X190302857Y-108304952D01*
X190207619Y-108257333D01*
X190160000Y-108209714D01*
X190112380Y-108114476D01*
X190112380Y-97319333D02*
X190826666Y-97319333D01*
X190969523Y-97366952D01*
X191064761Y-97462190D01*
X191112380Y-97605047D01*
X191112380Y-97700285D01*
X191112380Y-96795523D02*
X191112380Y-96605047D01*
X191064761Y-96509809D01*
X191017142Y-96462190D01*
X190874285Y-96366952D01*
X190683809Y-96319333D01*
X190302857Y-96319333D01*
X190207619Y-96366952D01*
X190160000Y-96414571D01*
X190112380Y-96509809D01*
X190112380Y-96700285D01*
X190160000Y-96795523D01*
X190207619Y-96843142D01*
X190302857Y-96890761D01*
X190540952Y-96890761D01*
X190636190Y-96843142D01*
X190683809Y-96795523D01*
X190731428Y-96700285D01*
X190731428Y-96509809D01*
X190683809Y-96414571D01*
X190636190Y-96366952D01*
X190540952Y-96319333D01*
X190112380Y-85381333D02*
X190826666Y-85381333D01*
X190969523Y-85428952D01*
X191064761Y-85524190D01*
X191112380Y-85667047D01*
X191112380Y-85762285D01*
X190540952Y-84762285D02*
X190493333Y-84857523D01*
X190445714Y-84905142D01*
X190350476Y-84952761D01*
X190302857Y-84952761D01*
X190207619Y-84905142D01*
X190160000Y-84857523D01*
X190112380Y-84762285D01*
X190112380Y-84571809D01*
X190160000Y-84476571D01*
X190207619Y-84428952D01*
X190302857Y-84381333D01*
X190350476Y-84381333D01*
X190445714Y-84428952D01*
X190493333Y-84476571D01*
X190540952Y-84571809D01*
X190540952Y-84762285D01*
X190588571Y-84857523D01*
X190636190Y-84905142D01*
X190731428Y-84952761D01*
X190921904Y-84952761D01*
X191017142Y-84905142D01*
X191064761Y-84857523D01*
X191112380Y-84762285D01*
X191112380Y-84571809D01*
X191064761Y-84476571D01*
X191017142Y-84428952D01*
X190921904Y-84381333D01*
X190731428Y-84381333D01*
X190636190Y-84428952D01*
X190588571Y-84476571D01*
X190540952Y-84571809D01*
X190112380Y-73443333D02*
X190826666Y-73443333D01*
X190969523Y-73490952D01*
X191064761Y-73586190D01*
X191112380Y-73729047D01*
X191112380Y-73824285D01*
X190112380Y-73062380D02*
X190112380Y-72395714D01*
X191112380Y-72824285D01*
X124072380Y-133133333D02*
X124786666Y-133133333D01*
X124929523Y-133180952D01*
X125024761Y-133276190D01*
X125072380Y-133419047D01*
X125072380Y-133514285D01*
X124072380Y-132228571D02*
X124072380Y-132419047D01*
X124120000Y-132514285D01*
X124167619Y-132561904D01*
X124310476Y-132657142D01*
X124500952Y-132704761D01*
X124881904Y-132704761D01*
X124977142Y-132657142D01*
X125024761Y-132609523D01*
X125072380Y-132514285D01*
X125072380Y-132323809D01*
X125024761Y-132228571D01*
X124977142Y-132180952D01*
X124881904Y-132133333D01*
X124643809Y-132133333D01*
X124548571Y-132180952D01*
X124500952Y-132228571D01*
X124453333Y-132323809D01*
X124453333Y-132514285D01*
X124500952Y-132609523D01*
X124548571Y-132657142D01*
X124643809Y-132704761D01*
X124072380Y-121195333D02*
X124786666Y-121195333D01*
X124929523Y-121242952D01*
X125024761Y-121338190D01*
X125072380Y-121481047D01*
X125072380Y-121576285D01*
X124072380Y-120242952D02*
X124072380Y-120719142D01*
X124548571Y-120766761D01*
X124500952Y-120719142D01*
X124453333Y-120623904D01*
X124453333Y-120385809D01*
X124500952Y-120290571D01*
X124548571Y-120242952D01*
X124643809Y-120195333D01*
X124881904Y-120195333D01*
X124977142Y-120242952D01*
X125024761Y-120290571D01*
X125072380Y-120385809D01*
X125072380Y-120623904D01*
X125024761Y-120719142D01*
X124977142Y-120766761D01*
X124072380Y-109257333D02*
X124786666Y-109257333D01*
X124929523Y-109304952D01*
X125024761Y-109400190D01*
X125072380Y-109543047D01*
X125072380Y-109638285D01*
X124405714Y-108352571D02*
X125072380Y-108352571D01*
X124024761Y-108590666D02*
X124739047Y-108828761D01*
X124739047Y-108209714D01*
X124072380Y-97319333D02*
X124786666Y-97319333D01*
X124929523Y-97366952D01*
X125024761Y-97462190D01*
X125072380Y-97605047D01*
X125072380Y-97700285D01*
X124072380Y-96938380D02*
X124072380Y-96319333D01*
X124453333Y-96652666D01*
X124453333Y-96509809D01*
X124500952Y-96414571D01*
X124548571Y-96366952D01*
X124643809Y-96319333D01*
X124881904Y-96319333D01*
X124977142Y-96366952D01*
X125024761Y-96414571D01*
X125072380Y-96509809D01*
X125072380Y-96795523D01*
X125024761Y-96890761D01*
X124977142Y-96938380D01*
X124072380Y-85381333D02*
X124786666Y-85381333D01*
X124929523Y-85428952D01*
X125024761Y-85524190D01*
X125072380Y-85667047D01*
X125072380Y-85762285D01*
X124167619Y-84952761D02*
X124120000Y-84905142D01*
X124072380Y-84809904D01*
X124072380Y-84571809D01*
X124120000Y-84476571D01*
X124167619Y-84428952D01*
X124262857Y-84381333D01*
X124358095Y-84381333D01*
X124500952Y-84428952D01*
X125072380Y-85000380D01*
X125072380Y-84381333D01*
X124072380Y-73443333D02*
X124786666Y-73443333D01*
X124929523Y-73490952D01*
X125024761Y-73586190D01*
X125072380Y-73729047D01*
X125072380Y-73824285D01*
X125072380Y-72443333D02*
X125072380Y-73014761D01*
X125072380Y-72729047D02*
X124072380Y-72729047D01*
X124215238Y-72824285D01*
X124310476Y-72919523D01*
X124358095Y-73014761D01*
X129794095Y-55824380D02*
X129794095Y-54824380D01*
X129794095Y-55300571D02*
X130365523Y-55300571D01*
X130365523Y-55824380D02*
X130365523Y-54824380D01*
X130794095Y-54919619D02*
X130841714Y-54872000D01*
X130936952Y-54824380D01*
X131175047Y-54824380D01*
X131270285Y-54872000D01*
X131317904Y-54919619D01*
X131365523Y-55014857D01*
X131365523Y-55110095D01*
X131317904Y-55252952D01*
X130746476Y-55824380D01*
X131365523Y-55824380D01*
X142494095Y-55824380D02*
X142494095Y-54824380D01*
X142494095Y-55300571D02*
X143065523Y-55300571D01*
X143065523Y-55824380D02*
X143065523Y-54824380D01*
X144065523Y-55824380D02*
X143494095Y-55824380D01*
X143779809Y-55824380D02*
X143779809Y-54824380D01*
X143684571Y-54967238D01*
X143589333Y-55062476D01*
X143494095Y-55110095D01*
X170760476Y-137218571D02*
X170427142Y-137218571D01*
X170427142Y-137742380D02*
X170427142Y-136742380D01*
X170903333Y-136742380D01*
X171808095Y-137742380D02*
X171236666Y-137742380D01*
X171522380Y-137742380D02*
X171522380Y-136742380D01*
X171427142Y-136885238D01*
X171331904Y-136980476D01*
X171236666Y-137028095D01*
X172189047Y-136837619D02*
X172236666Y-136790000D01*
X172331904Y-136742380D01*
X172570000Y-136742380D01*
X172665238Y-136790000D01*
X172712857Y-136837619D01*
X172760476Y-136932857D01*
X172760476Y-137028095D01*
X172712857Y-137170952D01*
X172141428Y-137742380D01*
X172760476Y-137742380D01*
X170760476Y-125280571D02*
X170427142Y-125280571D01*
X170427142Y-125804380D02*
X170427142Y-124804380D01*
X170903333Y-124804380D01*
X171808095Y-125804380D02*
X171236666Y-125804380D01*
X171522380Y-125804380D02*
X171522380Y-124804380D01*
X171427142Y-124947238D01*
X171331904Y-125042476D01*
X171236666Y-125090095D01*
X172760476Y-125804380D02*
X172189047Y-125804380D01*
X172474761Y-125804380D02*
X172474761Y-124804380D01*
X172379523Y-124947238D01*
X172284285Y-125042476D01*
X172189047Y-125090095D01*
X170760476Y-113342571D02*
X170427142Y-113342571D01*
X170427142Y-113866380D02*
X170427142Y-112866380D01*
X170903333Y-112866380D01*
X171808095Y-113866380D02*
X171236666Y-113866380D01*
X171522380Y-113866380D02*
X171522380Y-112866380D01*
X171427142Y-113009238D01*
X171331904Y-113104476D01*
X171236666Y-113152095D01*
X172427142Y-112866380D02*
X172522380Y-112866380D01*
X172617619Y-112914000D01*
X172665238Y-112961619D01*
X172712857Y-113056857D01*
X172760476Y-113247333D01*
X172760476Y-113485428D01*
X172712857Y-113675904D01*
X172665238Y-113771142D01*
X172617619Y-113818761D01*
X172522380Y-113866380D01*
X172427142Y-113866380D01*
X172331904Y-113818761D01*
X172284285Y-113771142D01*
X172236666Y-113675904D01*
X172189047Y-113485428D01*
X172189047Y-113247333D01*
X172236666Y-113056857D01*
X172284285Y-112961619D01*
X172331904Y-112914000D01*
X172427142Y-112866380D01*
X171236666Y-89466571D02*
X170903333Y-89466571D01*
X170903333Y-89990380D02*
X170903333Y-88990380D01*
X171379523Y-88990380D01*
X171903333Y-89418952D02*
X171808095Y-89371333D01*
X171760476Y-89323714D01*
X171712857Y-89228476D01*
X171712857Y-89180857D01*
X171760476Y-89085619D01*
X171808095Y-89038000D01*
X171903333Y-88990380D01*
X172093809Y-88990380D01*
X172189047Y-89038000D01*
X172236666Y-89085619D01*
X172284285Y-89180857D01*
X172284285Y-89228476D01*
X172236666Y-89323714D01*
X172189047Y-89371333D01*
X172093809Y-89418952D01*
X171903333Y-89418952D01*
X171808095Y-89466571D01*
X171760476Y-89514190D01*
X171712857Y-89609428D01*
X171712857Y-89799904D01*
X171760476Y-89895142D01*
X171808095Y-89942761D01*
X171903333Y-89990380D01*
X172093809Y-89990380D01*
X172189047Y-89942761D01*
X172236666Y-89895142D01*
X172284285Y-89799904D01*
X172284285Y-89609428D01*
X172236666Y-89514190D01*
X172189047Y-89466571D01*
X172093809Y-89418952D01*
X171236666Y-77528571D02*
X170903333Y-77528571D01*
X170903333Y-78052380D02*
X170903333Y-77052380D01*
X171379523Y-77052380D01*
X171665238Y-77052380D02*
X172331904Y-77052380D01*
X171903333Y-78052380D01*
X137976666Y-128478571D02*
X137643333Y-128478571D01*
X137643333Y-129002380D02*
X137643333Y-128002380D01*
X138119523Y-128002380D01*
X138929047Y-128002380D02*
X138738571Y-128002380D01*
X138643333Y-128050000D01*
X138595714Y-128097619D01*
X138500476Y-128240476D01*
X138452857Y-128430952D01*
X138452857Y-128811904D01*
X138500476Y-128907142D01*
X138548095Y-128954761D01*
X138643333Y-129002380D01*
X138833809Y-129002380D01*
X138929047Y-128954761D01*
X138976666Y-128907142D01*
X139024285Y-128811904D01*
X139024285Y-128573809D01*
X138976666Y-128478571D01*
X138929047Y-128430952D01*
X138833809Y-128383333D01*
X138643333Y-128383333D01*
X138548095Y-128430952D01*
X138500476Y-128478571D01*
X138452857Y-128573809D01*
X137976666Y-116540571D02*
X137643333Y-116540571D01*
X137643333Y-117064380D02*
X137643333Y-116064380D01*
X138119523Y-116064380D01*
X138976666Y-116064380D02*
X138500476Y-116064380D01*
X138452857Y-116540571D01*
X138500476Y-116492952D01*
X138595714Y-116445333D01*
X138833809Y-116445333D01*
X138929047Y-116492952D01*
X138976666Y-116540571D01*
X139024285Y-116635809D01*
X139024285Y-116873904D01*
X138976666Y-116969142D01*
X138929047Y-117016761D01*
X138833809Y-117064380D01*
X138595714Y-117064380D01*
X138500476Y-117016761D01*
X138452857Y-116969142D01*
X137976666Y-104602571D02*
X137643333Y-104602571D01*
X137643333Y-105126380D02*
X137643333Y-104126380D01*
X138119523Y-104126380D01*
X138929047Y-104459714D02*
X138929047Y-105126380D01*
X138690952Y-104078761D02*
X138452857Y-104793047D01*
X139071904Y-104793047D01*
X137976666Y-92664571D02*
X137643333Y-92664571D01*
X137643333Y-93188380D02*
X137643333Y-92188380D01*
X138119523Y-92188380D01*
X138405238Y-92188380D02*
X139024285Y-92188380D01*
X138690952Y-92569333D01*
X138833809Y-92569333D01*
X138929047Y-92616952D01*
X138976666Y-92664571D01*
X139024285Y-92759809D01*
X139024285Y-92997904D01*
X138976666Y-93093142D01*
X138929047Y-93140761D01*
X138833809Y-93188380D01*
X138548095Y-93188380D01*
X138452857Y-93140761D01*
X138405238Y-93093142D01*
X137976666Y-80726571D02*
X137643333Y-80726571D01*
X137643333Y-81250380D02*
X137643333Y-80250380D01*
X138119523Y-80250380D01*
X138452857Y-80345619D02*
X138500476Y-80298000D01*
X138595714Y-80250380D01*
X138833809Y-80250380D01*
X138929047Y-80298000D01*
X138976666Y-80345619D01*
X139024285Y-80440857D01*
X139024285Y-80536095D01*
X138976666Y-80678952D01*
X138405238Y-81250380D01*
X139024285Y-81250380D01*
X137976666Y-68788571D02*
X137643333Y-68788571D01*
X137643333Y-69312380D02*
X137643333Y-68312380D01*
X138119523Y-68312380D01*
X139024285Y-69312380D02*
X138452857Y-69312380D01*
X138738571Y-69312380D02*
X138738571Y-68312380D01*
X138643333Y-68455238D01*
X138548095Y-68550476D01*
X138452857Y-68598095D01*
X183411904Y-55697380D02*
X183411904Y-54697380D01*
X183650000Y-54697380D01*
X183792857Y-54745000D01*
X183888095Y-54840238D01*
X183935714Y-54935476D01*
X183983333Y-55125952D01*
X183983333Y-55268809D01*
X183935714Y-55459285D01*
X183888095Y-55554523D01*
X183792857Y-55649761D01*
X183650000Y-55697380D01*
X183411904Y-55697380D01*
X184935714Y-55697380D02*
X184364285Y-55697380D01*
X184650000Y-55697380D02*
X184650000Y-54697380D01*
X184554761Y-54840238D01*
X184459523Y-54935476D01*
X184364285Y-54983095D01*
M02*
