M48
; DRILL file {KiCad (5.1.5)-3} date 4/8/2020 5:46:45 PM
; FORMAT={-:-/ absolute / inch / decimal}
; #@! TF.CreationDate,2020-04-08T17:46:45-04:00
; #@! TF.GenerationSoftware,Kicad,Pcbnew,(5.1.5)-3
; #@! TF.FileFunction,Plated,1,2,PTH
FMAT,2
INCH
T1C0.0157
T2C0.0236
T3C0.0315
T4C0.0335
T5C0.0394
T6C0.0400
%
G90
G05
T1
X5.74Y-3.66
X5.74Y-4.2
X5.74Y-4.72
X5.74Y-5.24
X5.74Y-5.48
X5.76Y-3.04
X5.7892Y-3.86
X5.8Y-3.2
X5.8Y-4.96
X5.8029Y-2.3
X5.84Y-2.5
X5.88Y-4.18
X5.88Y-4.96
X5.94Y-2.22
X5.94Y-2.34
X5.98Y-2.74
X6.04Y-4.04
X6.1024Y-3.1693
X6.14Y-2.9
X6.3Y-5.54
X6.32Y-2.5
X6.3345Y-3.6459
X6.34Y-3.98
X6.3689Y-3.6649
X6.38Y-2.72
X6.38Y-4.02
X6.4085Y-3.7
X6.42Y-4.06
X6.46Y-3.72
X6.46Y-4.04
X6.4885Y-4.0
X6.4979Y-2.5179
X6.52Y-2.6
X6.52Y-2.74
X6.5218Y-4.0211
X6.56Y-4.04
X6.5692Y-3.8872
X6.5761Y-2.48
X6.6Y-4.06
X6.6055Y-3.9023
X6.6246Y-5.1384
X6.6285Y-4.3337
X6.6285Y-4.3731
X6.6285Y-4.4124
X6.6285Y-4.4518
X6.6285Y-4.4912
X6.6285Y-4.5306
X6.6285Y-4.5699
X6.6285Y-4.6093
X6.6285Y-4.6487
X6.6285Y-4.688
X6.6285Y-4.7274
X6.6285Y-4.7668
X6.6285Y-4.8062
X6.6285Y-4.9326
X6.629Y-4.846
X6.629Y-4.9724
X6.6293Y-4.8861
X6.6293Y-5.0125
X6.6294Y-5.0528
X6.6295Y-5.0931
X6.6467Y-3.9015
X6.66Y-3.8
X6.6773Y-3.7627
X6.68Y-3.94
X6.72Y-2.08
X6.72Y-4.1
X6.76Y-4.14
X6.7629Y-3.6451
X6.7716Y-4.2716
X6.78Y-2.6
X6.8023Y-3.5849
X6.8085Y-2.6285
X6.8387Y-2.6787
X6.8672Y-2.84
X6.895Y-2.33
X6.94Y-4.8
X6.96Y-2.78
X6.96Y-3.84
X6.9682Y-4.0482
X6.9685Y-2.9764
X6.98Y-4.18
X6.9802Y-2.5002
X6.995Y-2.605
X7.0Y-4.22
X7.0079Y-3.0079
X7.02Y-3.78
X7.02Y-4.84
X7.0502Y-4.2102
X7.1Y-3.94
X7.16Y-2.36
X7.1755Y-2.5445
X7.18Y-3.9
X7.2Y-4.46
X7.26Y-4.06
X7.26Y-4.1171
X7.2802Y-4.0202
X7.4598Y-4.1002
X7.46Y-4.06
X7.46Y-4.14
X7.47Y-2.405
X7.47Y-2.7265
X7.54Y-2.96
X7.54Y-4.1269
X7.5446Y-5.1054
X7.5898Y-5.1102
X7.6294Y-5.1334
X7.6593Y-4.1807
X7.6629Y-5.1542
X7.67Y-2.405
X7.6794Y-4.5053
X7.68Y-4.584
X7.68Y-4.6628
X7.68Y-2.18
X7.68Y-4.7022
X7.68Y-4.7415
X7.68Y-4.7809
X7.68Y-4.6234
X7.6801Y-4.5447
X7.6802Y-4.0841
X7.6835Y-4.4661
X7.6905Y-5.0613
X7.6906Y-5.021
X7.6907Y-4.9807
X7.6909Y-4.9405
X7.6911Y-4.9004
X7.6913Y-4.8602
X7.6914Y-5.12
X7.6915Y-4.268
X7.6915Y-4.82
X7.6929Y-2.5276
X7.7Y-3.0
X7.72Y-4.1
X7.72Y-4.42
X7.7443Y-4.0655
X7.7515Y-4.3878
X7.76Y-3.32
X7.78Y-4.36
X7.7896Y-4.0704
X7.8031Y-2.5433
X7.8173Y-4.3328
X7.8459Y-4.2585
X7.885Y-4.2626
X7.9Y-3.02
X7.92Y-2.455
X7.92Y-2.53
X8.16Y-2.94
X8.2677Y-2.685
X8.3228Y-2.7535
X8.5132Y-3.0268
X8.54Y-3.4
X8.54Y-3.94
X8.54Y-4.46
X8.54Y-5.0
X8.54Y-5.52
T3
X7.4663Y-2.18
X7.545Y-2.18
X6.34Y-2.12
X6.4187Y-2.12
X5.82Y-2.66
X5.8987Y-2.66
T4
X7.0216Y-2.1776
X7.2184Y-2.1776
T5
X8.32Y-3.12
X8.32Y-3.22
X8.32Y-3.32
X8.32Y-3.42
X8.32Y-3.52
X8.32Y-3.62
X8.32Y-3.72
X8.32Y-3.82
X8.32Y-3.92
X8.32Y-4.02
X8.32Y-4.12
X8.32Y-4.22
X8.32Y-4.32
X8.32Y-4.42
X8.32Y-4.52
X8.32Y-4.62
X8.32Y-4.72
X8.32Y-4.82
X8.32Y-4.92
X8.32Y-5.02
X8.32Y-5.12
X8.32Y-5.22
X8.32Y-5.32
X8.32Y-5.42
X8.32Y-5.52
X5.62Y-2.7
X5.96Y-3.12
X5.96Y-3.22
X5.96Y-3.32
X5.96Y-3.42
X5.96Y-3.52
X5.96Y-3.62
X5.96Y-3.72
X5.96Y-3.82
X5.96Y-3.92
X5.96Y-4.02
X5.96Y-4.12
X5.96Y-4.22
X5.96Y-4.32
X5.96Y-4.42
X5.96Y-4.52
X5.96Y-4.62
X5.96Y-4.72
X5.96Y-4.82
X5.96Y-4.92
X5.96Y-5.02
X5.96Y-5.12
X5.96Y-5.22
X5.96Y-5.32
X5.96Y-5.42
X5.96Y-5.52
X6.18Y-3.12
X6.18Y-3.22
X6.18Y-3.32
X6.18Y-3.42
X6.18Y-3.52
X6.18Y-3.62
X6.18Y-3.72
X6.18Y-3.82
X6.18Y-3.92
X6.18Y-4.02
X6.18Y-4.12
X6.18Y-4.22
X6.18Y-4.32
X6.18Y-4.42
X6.18Y-4.52
X6.18Y-4.62
X6.18Y-4.72
X6.18Y-4.82
X6.18Y-4.92
X6.18Y-5.02
X6.18Y-5.12
X6.18Y-5.22
X6.18Y-5.32
X6.18Y-5.42
X6.18Y-5.52
X5.62Y-2.54
X8.1Y-3.1198
X8.1Y-3.2198
X8.1Y-3.3198
X8.1Y-3.4198
X8.1Y-3.5198
X8.1Y-3.6198
X8.1Y-3.7198
X8.1Y-3.8198
X8.1Y-3.9198
X8.1Y-4.0198
X8.1Y-4.1198
X8.1Y-4.2198
X8.1Y-4.3198
X8.1Y-4.4198
X8.1Y-4.5198
X8.1Y-4.6198
X8.1Y-4.7198
X8.1Y-4.8198
X8.1Y-4.9198
X8.1Y-5.0198
X8.1Y-5.1198
X8.1Y-5.2198
X8.1Y-5.3198
X8.1Y-5.4198
X8.1Y-5.5198
X5.62Y-2.88
X7.88Y-2.14
X7.98Y-2.14
X8.08Y-2.14
T6
X8.46Y-2.28
X8.46Y-2.38
X8.46Y-2.48
X8.46Y-2.58
X8.46Y-2.68
X8.56Y-2.28
X8.56Y-2.38
X8.56Y-2.48
X8.56Y-2.58
X8.56Y-2.68
T2
G00X6.9822Y-2.0851
M15
G01X6.9822Y-2.0575
M16
G05
G00X7.2578Y-2.0575
M15
G01X7.2578Y-2.0851
M16
G05
T0
M30
