G04 #@! TF.GenerationSoftware,KiCad,Pcbnew,(5.1.5)-3*
G04 #@! TF.CreationDate,2020-04-06T19:00:27-04:00*
G04 #@! TF.ProjectId,ControlBoard,436f6e74-726f-46c4-926f-6172642e6b69,rev?*
G04 #@! TF.SameCoordinates,Original*
G04 #@! TF.FileFunction,Legend,Top*
G04 #@! TF.FilePolarity,Positive*
%FSLAX46Y46*%
G04 Gerber Fmt 4.6, Leading zero omitted, Abs format (unit mm)*
G04 Created by KiCad (PCBNEW (5.1.5)-3) date 2020-04-06 19:00:27*
%MOMM*%
%LPD*%
G04 APERTURE LIST*
%ADD10C,0.300000*%
%ADD11C,0.150000*%
%ADD12C,0.250000*%
%ADD13C,0.120000*%
%ADD14C,0.127000*%
G04 APERTURE END LIST*
D10*
X170400000Y-59600000D02*
G75*
G03X170400000Y-59600000I-200000J0D01*
G01*
X177600000Y-61400000D02*
G75*
G03X177600000Y-61400000I-200000J0D01*
G01*
X181600000Y-93000000D02*
G75*
G03X181600000Y-93000000I-200000J0D01*
G01*
D11*
X213221428Y-140521428D02*
X213221428Y-139921428D01*
X213450000Y-139921428D01*
X213507142Y-139950000D01*
X213535714Y-139978571D01*
X213564285Y-140035714D01*
X213564285Y-140121428D01*
X213535714Y-140178571D01*
X213507142Y-140207142D01*
X213450000Y-140235714D01*
X213221428Y-140235714D01*
X214021428Y-140207142D02*
X214107142Y-140235714D01*
X214135714Y-140264285D01*
X214164285Y-140321428D01*
X214164285Y-140407142D01*
X214135714Y-140464285D01*
X214107142Y-140492857D01*
X214050000Y-140521428D01*
X213821428Y-140521428D01*
X213821428Y-139921428D01*
X214021428Y-139921428D01*
X214078571Y-139950000D01*
X214107142Y-139978571D01*
X214135714Y-140035714D01*
X214135714Y-140092857D01*
X214107142Y-140150000D01*
X214078571Y-140178571D01*
X214021428Y-140207142D01*
X213821428Y-140207142D01*
X214735714Y-140521428D02*
X214392857Y-140521428D01*
X214564285Y-140521428D02*
X214564285Y-139921428D01*
X214507142Y-140007142D01*
X214450000Y-140064285D01*
X214392857Y-140092857D01*
X214964285Y-139978571D02*
X214992857Y-139950000D01*
X215050000Y-139921428D01*
X215192857Y-139921428D01*
X215250000Y-139950000D01*
X215278571Y-139978571D01*
X215307142Y-140035714D01*
X215307142Y-140092857D01*
X215278571Y-140178571D01*
X214935714Y-140521428D01*
X215307142Y-140521428D01*
X213221428Y-138021428D02*
X213221428Y-137421428D01*
X213450000Y-137421428D01*
X213507142Y-137450000D01*
X213535714Y-137478571D01*
X213564285Y-137535714D01*
X213564285Y-137621428D01*
X213535714Y-137678571D01*
X213507142Y-137707142D01*
X213450000Y-137735714D01*
X213221428Y-137735714D01*
X214021428Y-137707142D02*
X214107142Y-137735714D01*
X214135714Y-137764285D01*
X214164285Y-137821428D01*
X214164285Y-137907142D01*
X214135714Y-137964285D01*
X214107142Y-137992857D01*
X214050000Y-138021428D01*
X213821428Y-138021428D01*
X213821428Y-137421428D01*
X214021428Y-137421428D01*
X214078571Y-137450000D01*
X214107142Y-137478571D01*
X214135714Y-137535714D01*
X214135714Y-137592857D01*
X214107142Y-137650000D01*
X214078571Y-137678571D01*
X214021428Y-137707142D01*
X213821428Y-137707142D01*
X214735714Y-138021428D02*
X214392857Y-138021428D01*
X214564285Y-138021428D02*
X214564285Y-137421428D01*
X214507142Y-137507142D01*
X214450000Y-137564285D01*
X214392857Y-137592857D01*
X214935714Y-137421428D02*
X215307142Y-137421428D01*
X215107142Y-137650000D01*
X215192857Y-137650000D01*
X215250000Y-137678571D01*
X215278571Y-137707142D01*
X215307142Y-137764285D01*
X215307142Y-137907142D01*
X215278571Y-137964285D01*
X215250000Y-137992857D01*
X215192857Y-138021428D01*
X215021428Y-138021428D01*
X214964285Y-137992857D01*
X214935714Y-137964285D01*
X213221428Y-135521428D02*
X213221428Y-134921428D01*
X213450000Y-134921428D01*
X213507142Y-134950000D01*
X213535714Y-134978571D01*
X213564285Y-135035714D01*
X213564285Y-135121428D01*
X213535714Y-135178571D01*
X213507142Y-135207142D01*
X213450000Y-135235714D01*
X213221428Y-135235714D01*
X214021428Y-135207142D02*
X214107142Y-135235714D01*
X214135714Y-135264285D01*
X214164285Y-135321428D01*
X214164285Y-135407142D01*
X214135714Y-135464285D01*
X214107142Y-135492857D01*
X214050000Y-135521428D01*
X213821428Y-135521428D01*
X213821428Y-134921428D01*
X214021428Y-134921428D01*
X214078571Y-134950000D01*
X214107142Y-134978571D01*
X214135714Y-135035714D01*
X214135714Y-135092857D01*
X214107142Y-135150000D01*
X214078571Y-135178571D01*
X214021428Y-135207142D01*
X213821428Y-135207142D01*
X214735714Y-135521428D02*
X214392857Y-135521428D01*
X214564285Y-135521428D02*
X214564285Y-134921428D01*
X214507142Y-135007142D01*
X214450000Y-135064285D01*
X214392857Y-135092857D01*
X215250000Y-135121428D02*
X215250000Y-135521428D01*
X215107142Y-134892857D02*
X214964285Y-135321428D01*
X215335714Y-135321428D01*
X213221428Y-133021428D02*
X213221428Y-132421428D01*
X213450000Y-132421428D01*
X213507142Y-132450000D01*
X213535714Y-132478571D01*
X213564285Y-132535714D01*
X213564285Y-132621428D01*
X213535714Y-132678571D01*
X213507142Y-132707142D01*
X213450000Y-132735714D01*
X213221428Y-132735714D01*
X214021428Y-132707142D02*
X214107142Y-132735714D01*
X214135714Y-132764285D01*
X214164285Y-132821428D01*
X214164285Y-132907142D01*
X214135714Y-132964285D01*
X214107142Y-132992857D01*
X214050000Y-133021428D01*
X213821428Y-133021428D01*
X213821428Y-132421428D01*
X214021428Y-132421428D01*
X214078571Y-132450000D01*
X214107142Y-132478571D01*
X214135714Y-132535714D01*
X214135714Y-132592857D01*
X214107142Y-132650000D01*
X214078571Y-132678571D01*
X214021428Y-132707142D01*
X213821428Y-132707142D01*
X214735714Y-133021428D02*
X214392857Y-133021428D01*
X214564285Y-133021428D02*
X214564285Y-132421428D01*
X214507142Y-132507142D01*
X214450000Y-132564285D01*
X214392857Y-132592857D01*
X215278571Y-132421428D02*
X214992857Y-132421428D01*
X214964285Y-132707142D01*
X214992857Y-132678571D01*
X215050000Y-132650000D01*
X215192857Y-132650000D01*
X215250000Y-132678571D01*
X215278571Y-132707142D01*
X215307142Y-132764285D01*
X215307142Y-132907142D01*
X215278571Y-132964285D01*
X215250000Y-132992857D01*
X215192857Y-133021428D01*
X215050000Y-133021428D01*
X214992857Y-132992857D01*
X214964285Y-132964285D01*
X213257142Y-130271428D02*
X213257142Y-129671428D01*
X213485714Y-129671428D01*
X213542857Y-129700000D01*
X213571428Y-129728571D01*
X213600000Y-129785714D01*
X213600000Y-129871428D01*
X213571428Y-129928571D01*
X213542857Y-129957142D01*
X213485714Y-129985714D01*
X213257142Y-129985714D01*
X213857142Y-130271428D02*
X213857142Y-129671428D01*
X214000000Y-129671428D01*
X214085714Y-129700000D01*
X214142857Y-129757142D01*
X214171428Y-129814285D01*
X214200000Y-129928571D01*
X214200000Y-130014285D01*
X214171428Y-130128571D01*
X214142857Y-130185714D01*
X214085714Y-130242857D01*
X214000000Y-130271428D01*
X213857142Y-130271428D01*
X214542857Y-129928571D02*
X214485714Y-129900000D01*
X214457142Y-129871428D01*
X214428571Y-129814285D01*
X214428571Y-129785714D01*
X214457142Y-129728571D01*
X214485714Y-129700000D01*
X214542857Y-129671428D01*
X214657142Y-129671428D01*
X214714285Y-129700000D01*
X214742857Y-129728571D01*
X214771428Y-129785714D01*
X214771428Y-129814285D01*
X214742857Y-129871428D01*
X214714285Y-129900000D01*
X214657142Y-129928571D01*
X214542857Y-129928571D01*
X214485714Y-129957142D01*
X214457142Y-129985714D01*
X214428571Y-130042857D01*
X214428571Y-130157142D01*
X214457142Y-130214285D01*
X214485714Y-130242857D01*
X214542857Y-130271428D01*
X214657142Y-130271428D01*
X214714285Y-130242857D01*
X214742857Y-130214285D01*
X214771428Y-130157142D01*
X214771428Y-130042857D01*
X214742857Y-129985714D01*
X214714285Y-129957142D01*
X214657142Y-129928571D01*
X213257142Y-127771428D02*
X213257142Y-127171428D01*
X213485714Y-127171428D01*
X213542857Y-127200000D01*
X213571428Y-127228571D01*
X213600000Y-127285714D01*
X213600000Y-127371428D01*
X213571428Y-127428571D01*
X213542857Y-127457142D01*
X213485714Y-127485714D01*
X213257142Y-127485714D01*
X213857142Y-127771428D02*
X213857142Y-127171428D01*
X214000000Y-127171428D01*
X214085714Y-127200000D01*
X214142857Y-127257142D01*
X214171428Y-127314285D01*
X214200000Y-127428571D01*
X214200000Y-127514285D01*
X214171428Y-127628571D01*
X214142857Y-127685714D01*
X214085714Y-127742857D01*
X214000000Y-127771428D01*
X213857142Y-127771428D01*
X214485714Y-127771428D02*
X214600000Y-127771428D01*
X214657142Y-127742857D01*
X214685714Y-127714285D01*
X214742857Y-127628571D01*
X214771428Y-127514285D01*
X214771428Y-127285714D01*
X214742857Y-127228571D01*
X214714285Y-127200000D01*
X214657142Y-127171428D01*
X214542857Y-127171428D01*
X214485714Y-127200000D01*
X214457142Y-127228571D01*
X214428571Y-127285714D01*
X214428571Y-127428571D01*
X214457142Y-127485714D01*
X214485714Y-127514285D01*
X214542857Y-127542857D01*
X214657142Y-127542857D01*
X214714285Y-127514285D01*
X214742857Y-127485714D01*
X214771428Y-127428571D01*
X213221428Y-125271428D02*
X213221428Y-124671428D01*
X213450000Y-124671428D01*
X213507142Y-124700000D01*
X213535714Y-124728571D01*
X213564285Y-124785714D01*
X213564285Y-124871428D01*
X213535714Y-124928571D01*
X213507142Y-124957142D01*
X213450000Y-124985714D01*
X213221428Y-124985714D01*
X213821428Y-125271428D02*
X213821428Y-124671428D01*
X213964285Y-124671428D01*
X214050000Y-124700000D01*
X214107142Y-124757142D01*
X214135714Y-124814285D01*
X214164285Y-124928571D01*
X214164285Y-125014285D01*
X214135714Y-125128571D01*
X214107142Y-125185714D01*
X214050000Y-125242857D01*
X213964285Y-125271428D01*
X213821428Y-125271428D01*
X214735714Y-125271428D02*
X214392857Y-125271428D01*
X214564285Y-125271428D02*
X214564285Y-124671428D01*
X214507142Y-124757142D01*
X214450000Y-124814285D01*
X214392857Y-124842857D01*
X215107142Y-124671428D02*
X215164285Y-124671428D01*
X215221428Y-124700000D01*
X215250000Y-124728571D01*
X215278571Y-124785714D01*
X215307142Y-124900000D01*
X215307142Y-125042857D01*
X215278571Y-125157142D01*
X215250000Y-125214285D01*
X215221428Y-125242857D01*
X215164285Y-125271428D01*
X215107142Y-125271428D01*
X215050000Y-125242857D01*
X215021428Y-125214285D01*
X214992857Y-125157142D01*
X214964285Y-125042857D01*
X214964285Y-124900000D01*
X214992857Y-124785714D01*
X215021428Y-124728571D01*
X215050000Y-124700000D01*
X215107142Y-124671428D01*
X213221428Y-122771428D02*
X213221428Y-122171428D01*
X213450000Y-122171428D01*
X213507142Y-122200000D01*
X213535714Y-122228571D01*
X213564285Y-122285714D01*
X213564285Y-122371428D01*
X213535714Y-122428571D01*
X213507142Y-122457142D01*
X213450000Y-122485714D01*
X213221428Y-122485714D01*
X213821428Y-122771428D02*
X213821428Y-122171428D01*
X213964285Y-122171428D01*
X214050000Y-122200000D01*
X214107142Y-122257142D01*
X214135714Y-122314285D01*
X214164285Y-122428571D01*
X214164285Y-122514285D01*
X214135714Y-122628571D01*
X214107142Y-122685714D01*
X214050000Y-122742857D01*
X213964285Y-122771428D01*
X213821428Y-122771428D01*
X214735714Y-122771428D02*
X214392857Y-122771428D01*
X214564285Y-122771428D02*
X214564285Y-122171428D01*
X214507142Y-122257142D01*
X214450000Y-122314285D01*
X214392857Y-122342857D01*
X215307142Y-122771428D02*
X214964285Y-122771428D01*
X215135714Y-122771428D02*
X215135714Y-122171428D01*
X215078571Y-122257142D01*
X215021428Y-122314285D01*
X214964285Y-122342857D01*
X213221428Y-120271428D02*
X213221428Y-119671428D01*
X213450000Y-119671428D01*
X213507142Y-119700000D01*
X213535714Y-119728571D01*
X213564285Y-119785714D01*
X213564285Y-119871428D01*
X213535714Y-119928571D01*
X213507142Y-119957142D01*
X213450000Y-119985714D01*
X213221428Y-119985714D01*
X213821428Y-120271428D02*
X213821428Y-119671428D01*
X213964285Y-119671428D01*
X214050000Y-119700000D01*
X214107142Y-119757142D01*
X214135714Y-119814285D01*
X214164285Y-119928571D01*
X214164285Y-120014285D01*
X214135714Y-120128571D01*
X214107142Y-120185714D01*
X214050000Y-120242857D01*
X213964285Y-120271428D01*
X213821428Y-120271428D01*
X214735714Y-120271428D02*
X214392857Y-120271428D01*
X214564285Y-120271428D02*
X214564285Y-119671428D01*
X214507142Y-119757142D01*
X214450000Y-119814285D01*
X214392857Y-119842857D01*
X214964285Y-119728571D02*
X214992857Y-119700000D01*
X215050000Y-119671428D01*
X215192857Y-119671428D01*
X215250000Y-119700000D01*
X215278571Y-119728571D01*
X215307142Y-119785714D01*
X215307142Y-119842857D01*
X215278571Y-119928571D01*
X214935714Y-120271428D01*
X215307142Y-120271428D01*
X213221428Y-117521428D02*
X213221428Y-116921428D01*
X213450000Y-116921428D01*
X213507142Y-116950000D01*
X213535714Y-116978571D01*
X213564285Y-117035714D01*
X213564285Y-117121428D01*
X213535714Y-117178571D01*
X213507142Y-117207142D01*
X213450000Y-117235714D01*
X213221428Y-117235714D01*
X213821428Y-117521428D02*
X213821428Y-116921428D01*
X213964285Y-116921428D01*
X214050000Y-116950000D01*
X214107142Y-117007142D01*
X214135714Y-117064285D01*
X214164285Y-117178571D01*
X214164285Y-117264285D01*
X214135714Y-117378571D01*
X214107142Y-117435714D01*
X214050000Y-117492857D01*
X213964285Y-117521428D01*
X213821428Y-117521428D01*
X214735714Y-117521428D02*
X214392857Y-117521428D01*
X214564285Y-117521428D02*
X214564285Y-116921428D01*
X214507142Y-117007142D01*
X214450000Y-117064285D01*
X214392857Y-117092857D01*
X214935714Y-116921428D02*
X215307142Y-116921428D01*
X215107142Y-117150000D01*
X215192857Y-117150000D01*
X215250000Y-117178571D01*
X215278571Y-117207142D01*
X215307142Y-117264285D01*
X215307142Y-117407142D01*
X215278571Y-117464285D01*
X215250000Y-117492857D01*
X215192857Y-117521428D01*
X215021428Y-117521428D01*
X214964285Y-117492857D01*
X214935714Y-117464285D01*
X213221428Y-115021428D02*
X213221428Y-114421428D01*
X213450000Y-114421428D01*
X213507142Y-114450000D01*
X213535714Y-114478571D01*
X213564285Y-114535714D01*
X213564285Y-114621428D01*
X213535714Y-114678571D01*
X213507142Y-114707142D01*
X213450000Y-114735714D01*
X213221428Y-114735714D01*
X213821428Y-115021428D02*
X213821428Y-114421428D01*
X213964285Y-114421428D01*
X214050000Y-114450000D01*
X214107142Y-114507142D01*
X214135714Y-114564285D01*
X214164285Y-114678571D01*
X214164285Y-114764285D01*
X214135714Y-114878571D01*
X214107142Y-114935714D01*
X214050000Y-114992857D01*
X213964285Y-115021428D01*
X213821428Y-115021428D01*
X214735714Y-115021428D02*
X214392857Y-115021428D01*
X214564285Y-115021428D02*
X214564285Y-114421428D01*
X214507142Y-114507142D01*
X214450000Y-114564285D01*
X214392857Y-114592857D01*
X215250000Y-114621428D02*
X215250000Y-115021428D01*
X215107142Y-114392857D02*
X214964285Y-114821428D01*
X215335714Y-114821428D01*
X213221428Y-112521428D02*
X213221428Y-111921428D01*
X213450000Y-111921428D01*
X213507142Y-111950000D01*
X213535714Y-111978571D01*
X213564285Y-112035714D01*
X213564285Y-112121428D01*
X213535714Y-112178571D01*
X213507142Y-112207142D01*
X213450000Y-112235714D01*
X213221428Y-112235714D01*
X213821428Y-112521428D02*
X213821428Y-111921428D01*
X213964285Y-111921428D01*
X214050000Y-111950000D01*
X214107142Y-112007142D01*
X214135714Y-112064285D01*
X214164285Y-112178571D01*
X214164285Y-112264285D01*
X214135714Y-112378571D01*
X214107142Y-112435714D01*
X214050000Y-112492857D01*
X213964285Y-112521428D01*
X213821428Y-112521428D01*
X214735714Y-112521428D02*
X214392857Y-112521428D01*
X214564285Y-112521428D02*
X214564285Y-111921428D01*
X214507142Y-112007142D01*
X214450000Y-112064285D01*
X214392857Y-112092857D01*
X215278571Y-111921428D02*
X214992857Y-111921428D01*
X214964285Y-112207142D01*
X214992857Y-112178571D01*
X215050000Y-112150000D01*
X215192857Y-112150000D01*
X215250000Y-112178571D01*
X215278571Y-112207142D01*
X215307142Y-112264285D01*
X215307142Y-112407142D01*
X215278571Y-112464285D01*
X215250000Y-112492857D01*
X215192857Y-112521428D01*
X215050000Y-112521428D01*
X214992857Y-112492857D01*
X214964285Y-112464285D01*
X213257142Y-110021428D02*
X213257142Y-109421428D01*
X213485714Y-109421428D01*
X213542857Y-109450000D01*
X213571428Y-109478571D01*
X213600000Y-109535714D01*
X213600000Y-109621428D01*
X213571428Y-109678571D01*
X213542857Y-109707142D01*
X213485714Y-109735714D01*
X213257142Y-109735714D01*
X214200000Y-109964285D02*
X214171428Y-109992857D01*
X214085714Y-110021428D01*
X214028571Y-110021428D01*
X213942857Y-109992857D01*
X213885714Y-109935714D01*
X213857142Y-109878571D01*
X213828571Y-109764285D01*
X213828571Y-109678571D01*
X213857142Y-109564285D01*
X213885714Y-109507142D01*
X213942857Y-109450000D01*
X214028571Y-109421428D01*
X214085714Y-109421428D01*
X214171428Y-109450000D01*
X214200000Y-109478571D01*
X214714285Y-109421428D02*
X214600000Y-109421428D01*
X214542857Y-109450000D01*
X214514285Y-109478571D01*
X214457142Y-109564285D01*
X214428571Y-109678571D01*
X214428571Y-109907142D01*
X214457142Y-109964285D01*
X214485714Y-109992857D01*
X214542857Y-110021428D01*
X214657142Y-110021428D01*
X214714285Y-109992857D01*
X214742857Y-109964285D01*
X214771428Y-109907142D01*
X214771428Y-109764285D01*
X214742857Y-109707142D01*
X214714285Y-109678571D01*
X214657142Y-109650000D01*
X214542857Y-109650000D01*
X214485714Y-109678571D01*
X214457142Y-109707142D01*
X214428571Y-109764285D01*
X213257142Y-107521428D02*
X213257142Y-106921428D01*
X213485714Y-106921428D01*
X213542857Y-106950000D01*
X213571428Y-106978571D01*
X213600000Y-107035714D01*
X213600000Y-107121428D01*
X213571428Y-107178571D01*
X213542857Y-107207142D01*
X213485714Y-107235714D01*
X213257142Y-107235714D01*
X214200000Y-107464285D02*
X214171428Y-107492857D01*
X214085714Y-107521428D01*
X214028571Y-107521428D01*
X213942857Y-107492857D01*
X213885714Y-107435714D01*
X213857142Y-107378571D01*
X213828571Y-107264285D01*
X213828571Y-107178571D01*
X213857142Y-107064285D01*
X213885714Y-107007142D01*
X213942857Y-106950000D01*
X214028571Y-106921428D01*
X214085714Y-106921428D01*
X214171428Y-106950000D01*
X214200000Y-106978571D01*
X214400000Y-106921428D02*
X214800000Y-106921428D01*
X214542857Y-107521428D01*
X213257142Y-105021428D02*
X213257142Y-104421428D01*
X213485714Y-104421428D01*
X213542857Y-104450000D01*
X213571428Y-104478571D01*
X213600000Y-104535714D01*
X213600000Y-104621428D01*
X213571428Y-104678571D01*
X213542857Y-104707142D01*
X213485714Y-104735714D01*
X213257142Y-104735714D01*
X214200000Y-104964285D02*
X214171428Y-104992857D01*
X214085714Y-105021428D01*
X214028571Y-105021428D01*
X213942857Y-104992857D01*
X213885714Y-104935714D01*
X213857142Y-104878571D01*
X213828571Y-104764285D01*
X213828571Y-104678571D01*
X213857142Y-104564285D01*
X213885714Y-104507142D01*
X213942857Y-104450000D01*
X214028571Y-104421428D01*
X214085714Y-104421428D01*
X214171428Y-104450000D01*
X214200000Y-104478571D01*
X214542857Y-104678571D02*
X214485714Y-104650000D01*
X214457142Y-104621428D01*
X214428571Y-104564285D01*
X214428571Y-104535714D01*
X214457142Y-104478571D01*
X214485714Y-104450000D01*
X214542857Y-104421428D01*
X214657142Y-104421428D01*
X214714285Y-104450000D01*
X214742857Y-104478571D01*
X214771428Y-104535714D01*
X214771428Y-104564285D01*
X214742857Y-104621428D01*
X214714285Y-104650000D01*
X214657142Y-104678571D01*
X214542857Y-104678571D01*
X214485714Y-104707142D01*
X214457142Y-104735714D01*
X214428571Y-104792857D01*
X214428571Y-104907142D01*
X214457142Y-104964285D01*
X214485714Y-104992857D01*
X214542857Y-105021428D01*
X214657142Y-105021428D01*
X214714285Y-104992857D01*
X214742857Y-104964285D01*
X214771428Y-104907142D01*
X214771428Y-104792857D01*
X214742857Y-104735714D01*
X214714285Y-104707142D01*
X214657142Y-104678571D01*
X213257142Y-102521428D02*
X213257142Y-101921428D01*
X213485714Y-101921428D01*
X213542857Y-101950000D01*
X213571428Y-101978571D01*
X213600000Y-102035714D01*
X213600000Y-102121428D01*
X213571428Y-102178571D01*
X213542857Y-102207142D01*
X213485714Y-102235714D01*
X213257142Y-102235714D01*
X214200000Y-102464285D02*
X214171428Y-102492857D01*
X214085714Y-102521428D01*
X214028571Y-102521428D01*
X213942857Y-102492857D01*
X213885714Y-102435714D01*
X213857142Y-102378571D01*
X213828571Y-102264285D01*
X213828571Y-102178571D01*
X213857142Y-102064285D01*
X213885714Y-102007142D01*
X213942857Y-101950000D01*
X214028571Y-101921428D01*
X214085714Y-101921428D01*
X214171428Y-101950000D01*
X214200000Y-101978571D01*
X214485714Y-102521428D02*
X214600000Y-102521428D01*
X214657142Y-102492857D01*
X214685714Y-102464285D01*
X214742857Y-102378571D01*
X214771428Y-102264285D01*
X214771428Y-102035714D01*
X214742857Y-101978571D01*
X214714285Y-101950000D01*
X214657142Y-101921428D01*
X214542857Y-101921428D01*
X214485714Y-101950000D01*
X214457142Y-101978571D01*
X214428571Y-102035714D01*
X214428571Y-102178571D01*
X214457142Y-102235714D01*
X214485714Y-102264285D01*
X214542857Y-102292857D01*
X214657142Y-102292857D01*
X214714285Y-102264285D01*
X214742857Y-102235714D01*
X214771428Y-102178571D01*
X213300000Y-99771428D02*
X213300000Y-99171428D01*
X213528571Y-99171428D01*
X213585714Y-99200000D01*
X213614285Y-99228571D01*
X213642857Y-99285714D01*
X213642857Y-99371428D01*
X213614285Y-99428571D01*
X213585714Y-99457142D01*
X213528571Y-99485714D01*
X213300000Y-99485714D01*
X213871428Y-99600000D02*
X214157142Y-99600000D01*
X213814285Y-99771428D02*
X214014285Y-99171428D01*
X214214285Y-99771428D01*
X214500000Y-99428571D02*
X214442857Y-99400000D01*
X214414285Y-99371428D01*
X214385714Y-99314285D01*
X214385714Y-99285714D01*
X214414285Y-99228571D01*
X214442857Y-99200000D01*
X214500000Y-99171428D01*
X214614285Y-99171428D01*
X214671428Y-99200000D01*
X214700000Y-99228571D01*
X214728571Y-99285714D01*
X214728571Y-99314285D01*
X214700000Y-99371428D01*
X214671428Y-99400000D01*
X214614285Y-99428571D01*
X214500000Y-99428571D01*
X214442857Y-99457142D01*
X214414285Y-99485714D01*
X214385714Y-99542857D01*
X214385714Y-99657142D01*
X214414285Y-99714285D01*
X214442857Y-99742857D01*
X214500000Y-99771428D01*
X214614285Y-99771428D01*
X214671428Y-99742857D01*
X214700000Y-99714285D01*
X214728571Y-99657142D01*
X214728571Y-99542857D01*
X214700000Y-99485714D01*
X214671428Y-99457142D01*
X214614285Y-99428571D01*
X213300000Y-97271428D02*
X213300000Y-96671428D01*
X213528571Y-96671428D01*
X213585714Y-96700000D01*
X213614285Y-96728571D01*
X213642857Y-96785714D01*
X213642857Y-96871428D01*
X213614285Y-96928571D01*
X213585714Y-96957142D01*
X213528571Y-96985714D01*
X213300000Y-96985714D01*
X213871428Y-97100000D02*
X214157142Y-97100000D01*
X213814285Y-97271428D02*
X214014285Y-96671428D01*
X214214285Y-97271428D01*
X214442857Y-97271428D02*
X214557142Y-97271428D01*
X214614285Y-97242857D01*
X214642857Y-97214285D01*
X214700000Y-97128571D01*
X214728571Y-97014285D01*
X214728571Y-96785714D01*
X214700000Y-96728571D01*
X214671428Y-96700000D01*
X214614285Y-96671428D01*
X214500000Y-96671428D01*
X214442857Y-96700000D01*
X214414285Y-96728571D01*
X214385714Y-96785714D01*
X214385714Y-96928571D01*
X214414285Y-96985714D01*
X214442857Y-97014285D01*
X214500000Y-97042857D01*
X214614285Y-97042857D01*
X214671428Y-97014285D01*
X214700000Y-96985714D01*
X214728571Y-96928571D01*
X213264285Y-94771428D02*
X213264285Y-94171428D01*
X213492857Y-94171428D01*
X213550000Y-94200000D01*
X213578571Y-94228571D01*
X213607142Y-94285714D01*
X213607142Y-94371428D01*
X213578571Y-94428571D01*
X213550000Y-94457142D01*
X213492857Y-94485714D01*
X213264285Y-94485714D01*
X213835714Y-94600000D02*
X214121428Y-94600000D01*
X213778571Y-94771428D02*
X213978571Y-94171428D01*
X214178571Y-94771428D01*
X214692857Y-94771428D02*
X214350000Y-94771428D01*
X214521428Y-94771428D02*
X214521428Y-94171428D01*
X214464285Y-94257142D01*
X214407142Y-94314285D01*
X214350000Y-94342857D01*
X215064285Y-94171428D02*
X215121428Y-94171428D01*
X215178571Y-94200000D01*
X215207142Y-94228571D01*
X215235714Y-94285714D01*
X215264285Y-94400000D01*
X215264285Y-94542857D01*
X215235714Y-94657142D01*
X215207142Y-94714285D01*
X215178571Y-94742857D01*
X215121428Y-94771428D01*
X215064285Y-94771428D01*
X215007142Y-94742857D01*
X214978571Y-94714285D01*
X214950000Y-94657142D01*
X214921428Y-94542857D01*
X214921428Y-94400000D01*
X214950000Y-94285714D01*
X214978571Y-94228571D01*
X215007142Y-94200000D01*
X215064285Y-94171428D01*
X213264285Y-92271428D02*
X213264285Y-91671428D01*
X213492857Y-91671428D01*
X213550000Y-91700000D01*
X213578571Y-91728571D01*
X213607142Y-91785714D01*
X213607142Y-91871428D01*
X213578571Y-91928571D01*
X213550000Y-91957142D01*
X213492857Y-91985714D01*
X213264285Y-91985714D01*
X213835714Y-92100000D02*
X214121428Y-92100000D01*
X213778571Y-92271428D02*
X213978571Y-91671428D01*
X214178571Y-92271428D01*
X214692857Y-92271428D02*
X214350000Y-92271428D01*
X214521428Y-92271428D02*
X214521428Y-91671428D01*
X214464285Y-91757142D01*
X214407142Y-91814285D01*
X214350000Y-91842857D01*
X215264285Y-92271428D02*
X214921428Y-92271428D01*
X215092857Y-92271428D02*
X215092857Y-91671428D01*
X215035714Y-91757142D01*
X214978571Y-91814285D01*
X214921428Y-91842857D01*
X213264285Y-89771428D02*
X213264285Y-89171428D01*
X213492857Y-89171428D01*
X213550000Y-89200000D01*
X213578571Y-89228571D01*
X213607142Y-89285714D01*
X213607142Y-89371428D01*
X213578571Y-89428571D01*
X213550000Y-89457142D01*
X213492857Y-89485714D01*
X213264285Y-89485714D01*
X213835714Y-89600000D02*
X214121428Y-89600000D01*
X213778571Y-89771428D02*
X213978571Y-89171428D01*
X214178571Y-89771428D01*
X214692857Y-89771428D02*
X214350000Y-89771428D01*
X214521428Y-89771428D02*
X214521428Y-89171428D01*
X214464285Y-89257142D01*
X214407142Y-89314285D01*
X214350000Y-89342857D01*
X214921428Y-89228571D02*
X214950000Y-89200000D01*
X215007142Y-89171428D01*
X215150000Y-89171428D01*
X215207142Y-89200000D01*
X215235714Y-89228571D01*
X215264285Y-89285714D01*
X215264285Y-89342857D01*
X215235714Y-89428571D01*
X214892857Y-89771428D01*
X215264285Y-89771428D01*
X213478571Y-86671428D02*
X213478571Y-87100000D01*
X213450000Y-87185714D01*
X213392857Y-87242857D01*
X213307142Y-87271428D01*
X213250000Y-87271428D01*
X213735714Y-87242857D02*
X213821428Y-87271428D01*
X213964285Y-87271428D01*
X214021428Y-87242857D01*
X214050000Y-87214285D01*
X214078571Y-87157142D01*
X214078571Y-87100000D01*
X214050000Y-87042857D01*
X214021428Y-87014285D01*
X213964285Y-86985714D01*
X213850000Y-86957142D01*
X213792857Y-86928571D01*
X213764285Y-86900000D01*
X213735714Y-86842857D01*
X213735714Y-86785714D01*
X213764285Y-86728571D01*
X213792857Y-86700000D01*
X213850000Y-86671428D01*
X213992857Y-86671428D01*
X214078571Y-86700000D01*
X214250000Y-86671428D02*
X214592857Y-86671428D01*
X214421428Y-87271428D02*
X214421428Y-86671428D01*
X214792857Y-87271428D02*
X214792857Y-86671428D01*
X214992857Y-87100000D01*
X215192857Y-86671428D01*
X215192857Y-87271428D01*
X212907142Y-83921428D02*
X213107142Y-84521428D01*
X213307142Y-83921428D01*
X213850000Y-84464285D02*
X213821428Y-84492857D01*
X213735714Y-84521428D01*
X213678571Y-84521428D01*
X213592857Y-84492857D01*
X213535714Y-84435714D01*
X213507142Y-84378571D01*
X213478571Y-84264285D01*
X213478571Y-84178571D01*
X213507142Y-84064285D01*
X213535714Y-84007142D01*
X213592857Y-83950000D01*
X213678571Y-83921428D01*
X213735714Y-83921428D01*
X213821428Y-83950000D01*
X213850000Y-83978571D01*
X214078571Y-84350000D02*
X214364285Y-84350000D01*
X214021428Y-84521428D02*
X214221428Y-83921428D01*
X214421428Y-84521428D01*
X214621428Y-84521428D02*
X214621428Y-83921428D01*
X214850000Y-83921428D01*
X214907142Y-83950000D01*
X214935714Y-83978571D01*
X214964285Y-84035714D01*
X214964285Y-84121428D01*
X214935714Y-84178571D01*
X214907142Y-84207142D01*
X214850000Y-84235714D01*
X214621428Y-84235714D01*
X215192857Y-83978571D02*
X215221428Y-83950000D01*
X215278571Y-83921428D01*
X215421428Y-83921428D01*
X215478571Y-83950000D01*
X215507142Y-83978571D01*
X215535714Y-84035714D01*
X215535714Y-84092857D01*
X215507142Y-84178571D01*
X215164285Y-84521428D01*
X215535714Y-84521428D01*
X213542857Y-81450000D02*
X213485714Y-81421428D01*
X213400000Y-81421428D01*
X213314285Y-81450000D01*
X213257142Y-81507142D01*
X213228571Y-81564285D01*
X213200000Y-81678571D01*
X213200000Y-81764285D01*
X213228571Y-81878571D01*
X213257142Y-81935714D01*
X213314285Y-81992857D01*
X213400000Y-82021428D01*
X213457142Y-82021428D01*
X213542857Y-81992857D01*
X213571428Y-81964285D01*
X213571428Y-81764285D01*
X213457142Y-81764285D01*
X213828571Y-82021428D02*
X213828571Y-81421428D01*
X214171428Y-82021428D01*
X214171428Y-81421428D01*
X214457142Y-82021428D02*
X214457142Y-81421428D01*
X214600000Y-81421428D01*
X214685714Y-81450000D01*
X214742857Y-81507142D01*
X214771428Y-81564285D01*
X214800000Y-81678571D01*
X214800000Y-81764285D01*
X214771428Y-81878571D01*
X214742857Y-81935714D01*
X214685714Y-81992857D01*
X214600000Y-82021428D01*
X214457142Y-82021428D01*
X213114285Y-78921428D02*
X213485714Y-78921428D01*
X213285714Y-79150000D01*
X213371428Y-79150000D01*
X213428571Y-79178571D01*
X213457142Y-79207142D01*
X213485714Y-79264285D01*
X213485714Y-79407142D01*
X213457142Y-79464285D01*
X213428571Y-79492857D01*
X213371428Y-79521428D01*
X213200000Y-79521428D01*
X213142857Y-79492857D01*
X213114285Y-79464285D01*
X213742857Y-79464285D02*
X213771428Y-79492857D01*
X213742857Y-79521428D01*
X213714285Y-79492857D01*
X213742857Y-79464285D01*
X213742857Y-79521428D01*
X213971428Y-78921428D02*
X214342857Y-78921428D01*
X214142857Y-79150000D01*
X214228571Y-79150000D01*
X214285714Y-79178571D01*
X214314285Y-79207142D01*
X214342857Y-79264285D01*
X214342857Y-79407142D01*
X214314285Y-79464285D01*
X214285714Y-79492857D01*
X214228571Y-79521428D01*
X214057142Y-79521428D01*
X214000000Y-79492857D01*
X213971428Y-79464285D01*
X214514285Y-78921428D02*
X214714285Y-79521428D01*
X214914285Y-78921428D01*
X207757142Y-140421428D02*
X207757142Y-140850000D01*
X207728571Y-140935714D01*
X207671428Y-140992857D01*
X207585714Y-141021428D01*
X207528571Y-141021428D01*
X207957142Y-140421428D02*
X208300000Y-140421428D01*
X208128571Y-141021428D02*
X208128571Y-140421428D01*
X208842857Y-140964285D02*
X208814285Y-140992857D01*
X208728571Y-141021428D01*
X208671428Y-141021428D01*
X208585714Y-140992857D01*
X208528571Y-140935714D01*
X208500000Y-140878571D01*
X208471428Y-140764285D01*
X208471428Y-140678571D01*
X208500000Y-140564285D01*
X208528571Y-140507142D01*
X208585714Y-140450000D01*
X208671428Y-140421428D01*
X208728571Y-140421428D01*
X208814285Y-140450000D01*
X208842857Y-140478571D01*
X209100000Y-141021428D02*
X209100000Y-140421428D01*
X209442857Y-141021428D02*
X209185714Y-140678571D01*
X209442857Y-140421428D02*
X209100000Y-140764285D01*
X207914285Y-137421428D02*
X207914285Y-137850000D01*
X207885714Y-137935714D01*
X207828571Y-137992857D01*
X207742857Y-138021428D01*
X207685714Y-138021428D01*
X208114285Y-137421428D02*
X208457142Y-137421428D01*
X208285714Y-138021428D02*
X208285714Y-137421428D01*
X208657142Y-138021428D02*
X208657142Y-137421428D01*
X208800000Y-137421428D01*
X208885714Y-137450000D01*
X208942857Y-137507142D01*
X208971428Y-137564285D01*
X209000000Y-137678571D01*
X209000000Y-137764285D01*
X208971428Y-137878571D01*
X208942857Y-137935714D01*
X208885714Y-137992857D01*
X208800000Y-138021428D01*
X208657142Y-138021428D01*
X209257142Y-138021428D02*
X209257142Y-137421428D01*
X207471428Y-135771428D02*
X207471428Y-135171428D01*
X207700000Y-135171428D01*
X207757142Y-135200000D01*
X207785714Y-135228571D01*
X207814285Y-135285714D01*
X207814285Y-135371428D01*
X207785714Y-135428571D01*
X207757142Y-135457142D01*
X207700000Y-135485714D01*
X207471428Y-135485714D01*
X208414285Y-135714285D02*
X208385714Y-135742857D01*
X208300000Y-135771428D01*
X208242857Y-135771428D01*
X208157142Y-135742857D01*
X208100000Y-135685714D01*
X208071428Y-135628571D01*
X208042857Y-135514285D01*
X208042857Y-135428571D01*
X208071428Y-135314285D01*
X208100000Y-135257142D01*
X208157142Y-135200000D01*
X208242857Y-135171428D01*
X208300000Y-135171428D01*
X208385714Y-135200000D01*
X208414285Y-135228571D01*
X208985714Y-135771428D02*
X208642857Y-135771428D01*
X208814285Y-135771428D02*
X208814285Y-135171428D01*
X208757142Y-135257142D01*
X208700000Y-135314285D01*
X208642857Y-135342857D01*
X209357142Y-135171428D02*
X209414285Y-135171428D01*
X209471428Y-135200000D01*
X209500000Y-135228571D01*
X209528571Y-135285714D01*
X209557142Y-135400000D01*
X209557142Y-135542857D01*
X209528571Y-135657142D01*
X209500000Y-135714285D01*
X209471428Y-135742857D01*
X209414285Y-135771428D01*
X209357142Y-135771428D01*
X209300000Y-135742857D01*
X209271428Y-135714285D01*
X209242857Y-135657142D01*
X209214285Y-135542857D01*
X209214285Y-135400000D01*
X209242857Y-135285714D01*
X209271428Y-135228571D01*
X209300000Y-135200000D01*
X209357142Y-135171428D01*
X207471428Y-133021428D02*
X207471428Y-132421428D01*
X207700000Y-132421428D01*
X207757142Y-132450000D01*
X207785714Y-132478571D01*
X207814285Y-132535714D01*
X207814285Y-132621428D01*
X207785714Y-132678571D01*
X207757142Y-132707142D01*
X207700000Y-132735714D01*
X207471428Y-132735714D01*
X208414285Y-132964285D02*
X208385714Y-132992857D01*
X208300000Y-133021428D01*
X208242857Y-133021428D01*
X208157142Y-132992857D01*
X208100000Y-132935714D01*
X208071428Y-132878571D01*
X208042857Y-132764285D01*
X208042857Y-132678571D01*
X208071428Y-132564285D01*
X208100000Y-132507142D01*
X208157142Y-132450000D01*
X208242857Y-132421428D01*
X208300000Y-132421428D01*
X208385714Y-132450000D01*
X208414285Y-132478571D01*
X208985714Y-133021428D02*
X208642857Y-133021428D01*
X208814285Y-133021428D02*
X208814285Y-132421428D01*
X208757142Y-132507142D01*
X208700000Y-132564285D01*
X208642857Y-132592857D01*
X209557142Y-133021428D02*
X209214285Y-133021428D01*
X209385714Y-133021428D02*
X209385714Y-132421428D01*
X209328571Y-132507142D01*
X209271428Y-132564285D01*
X209214285Y-132592857D01*
X207471428Y-130521428D02*
X207471428Y-129921428D01*
X207700000Y-129921428D01*
X207757142Y-129950000D01*
X207785714Y-129978571D01*
X207814285Y-130035714D01*
X207814285Y-130121428D01*
X207785714Y-130178571D01*
X207757142Y-130207142D01*
X207700000Y-130235714D01*
X207471428Y-130235714D01*
X208414285Y-130464285D02*
X208385714Y-130492857D01*
X208300000Y-130521428D01*
X208242857Y-130521428D01*
X208157142Y-130492857D01*
X208100000Y-130435714D01*
X208071428Y-130378571D01*
X208042857Y-130264285D01*
X208042857Y-130178571D01*
X208071428Y-130064285D01*
X208100000Y-130007142D01*
X208157142Y-129950000D01*
X208242857Y-129921428D01*
X208300000Y-129921428D01*
X208385714Y-129950000D01*
X208414285Y-129978571D01*
X208985714Y-130521428D02*
X208642857Y-130521428D01*
X208814285Y-130521428D02*
X208814285Y-129921428D01*
X208757142Y-130007142D01*
X208700000Y-130064285D01*
X208642857Y-130092857D01*
X209214285Y-129978571D02*
X209242857Y-129950000D01*
X209300000Y-129921428D01*
X209442857Y-129921428D01*
X209500000Y-129950000D01*
X209528571Y-129978571D01*
X209557142Y-130035714D01*
X209557142Y-130092857D01*
X209528571Y-130178571D01*
X209185714Y-130521428D01*
X209557142Y-130521428D01*
X207507142Y-128021428D02*
X207507142Y-127421428D01*
X207735714Y-127421428D01*
X207792857Y-127450000D01*
X207821428Y-127478571D01*
X207850000Y-127535714D01*
X207850000Y-127621428D01*
X207821428Y-127678571D01*
X207792857Y-127707142D01*
X207735714Y-127735714D01*
X207507142Y-127735714D01*
X208107142Y-128021428D02*
X208107142Y-127421428D01*
X208250000Y-127421428D01*
X208335714Y-127450000D01*
X208392857Y-127507142D01*
X208421428Y-127564285D01*
X208450000Y-127678571D01*
X208450000Y-127764285D01*
X208421428Y-127878571D01*
X208392857Y-127935714D01*
X208335714Y-127992857D01*
X208250000Y-128021428D01*
X208107142Y-128021428D01*
X208821428Y-127421428D02*
X208878571Y-127421428D01*
X208935714Y-127450000D01*
X208964285Y-127478571D01*
X208992857Y-127535714D01*
X209021428Y-127650000D01*
X209021428Y-127792857D01*
X208992857Y-127907142D01*
X208964285Y-127964285D01*
X208935714Y-127992857D01*
X208878571Y-128021428D01*
X208821428Y-128021428D01*
X208764285Y-127992857D01*
X208735714Y-127964285D01*
X208707142Y-127907142D01*
X208678571Y-127792857D01*
X208678571Y-127650000D01*
X208707142Y-127535714D01*
X208735714Y-127478571D01*
X208764285Y-127450000D01*
X208821428Y-127421428D01*
X207507142Y-125271428D02*
X207507142Y-124671428D01*
X207735714Y-124671428D01*
X207792857Y-124700000D01*
X207821428Y-124728571D01*
X207850000Y-124785714D01*
X207850000Y-124871428D01*
X207821428Y-124928571D01*
X207792857Y-124957142D01*
X207735714Y-124985714D01*
X207507142Y-124985714D01*
X208107142Y-125271428D02*
X208107142Y-124671428D01*
X208250000Y-124671428D01*
X208335714Y-124700000D01*
X208392857Y-124757142D01*
X208421428Y-124814285D01*
X208450000Y-124928571D01*
X208450000Y-125014285D01*
X208421428Y-125128571D01*
X208392857Y-125185714D01*
X208335714Y-125242857D01*
X208250000Y-125271428D01*
X208107142Y-125271428D01*
X209021428Y-125271428D02*
X208678571Y-125271428D01*
X208850000Y-125271428D02*
X208850000Y-124671428D01*
X208792857Y-124757142D01*
X208735714Y-124814285D01*
X208678571Y-124842857D01*
X207507142Y-122771428D02*
X207507142Y-122171428D01*
X207735714Y-122171428D01*
X207792857Y-122200000D01*
X207821428Y-122228571D01*
X207850000Y-122285714D01*
X207850000Y-122371428D01*
X207821428Y-122428571D01*
X207792857Y-122457142D01*
X207735714Y-122485714D01*
X207507142Y-122485714D01*
X208107142Y-122771428D02*
X208107142Y-122171428D01*
X208250000Y-122171428D01*
X208335714Y-122200000D01*
X208392857Y-122257142D01*
X208421428Y-122314285D01*
X208450000Y-122428571D01*
X208450000Y-122514285D01*
X208421428Y-122628571D01*
X208392857Y-122685714D01*
X208335714Y-122742857D01*
X208250000Y-122771428D01*
X208107142Y-122771428D01*
X208678571Y-122228571D02*
X208707142Y-122200000D01*
X208764285Y-122171428D01*
X208907142Y-122171428D01*
X208964285Y-122200000D01*
X208992857Y-122228571D01*
X209021428Y-122285714D01*
X209021428Y-122342857D01*
X208992857Y-122428571D01*
X208650000Y-122771428D01*
X209021428Y-122771428D01*
X207507142Y-120271428D02*
X207507142Y-119671428D01*
X207735714Y-119671428D01*
X207792857Y-119700000D01*
X207821428Y-119728571D01*
X207850000Y-119785714D01*
X207850000Y-119871428D01*
X207821428Y-119928571D01*
X207792857Y-119957142D01*
X207735714Y-119985714D01*
X207507142Y-119985714D01*
X208107142Y-120271428D02*
X208107142Y-119671428D01*
X208250000Y-119671428D01*
X208335714Y-119700000D01*
X208392857Y-119757142D01*
X208421428Y-119814285D01*
X208450000Y-119928571D01*
X208450000Y-120014285D01*
X208421428Y-120128571D01*
X208392857Y-120185714D01*
X208335714Y-120242857D01*
X208250000Y-120271428D01*
X208107142Y-120271428D01*
X208650000Y-119671428D02*
X209021428Y-119671428D01*
X208821428Y-119900000D01*
X208907142Y-119900000D01*
X208964285Y-119928571D01*
X208992857Y-119957142D01*
X209021428Y-120014285D01*
X209021428Y-120157142D01*
X208992857Y-120214285D01*
X208964285Y-120242857D01*
X208907142Y-120271428D01*
X208735714Y-120271428D01*
X208678571Y-120242857D01*
X208650000Y-120214285D01*
X207507142Y-117521428D02*
X207507142Y-116921428D01*
X207735714Y-116921428D01*
X207792857Y-116950000D01*
X207821428Y-116978571D01*
X207850000Y-117035714D01*
X207850000Y-117121428D01*
X207821428Y-117178571D01*
X207792857Y-117207142D01*
X207735714Y-117235714D01*
X207507142Y-117235714D01*
X208107142Y-117521428D02*
X208107142Y-116921428D01*
X208250000Y-116921428D01*
X208335714Y-116950000D01*
X208392857Y-117007142D01*
X208421428Y-117064285D01*
X208450000Y-117178571D01*
X208450000Y-117264285D01*
X208421428Y-117378571D01*
X208392857Y-117435714D01*
X208335714Y-117492857D01*
X208250000Y-117521428D01*
X208107142Y-117521428D01*
X208964285Y-117121428D02*
X208964285Y-117521428D01*
X208821428Y-116892857D02*
X208678571Y-117321428D01*
X209050000Y-117321428D01*
X207507142Y-115021428D02*
X207507142Y-114421428D01*
X207735714Y-114421428D01*
X207792857Y-114450000D01*
X207821428Y-114478571D01*
X207850000Y-114535714D01*
X207850000Y-114621428D01*
X207821428Y-114678571D01*
X207792857Y-114707142D01*
X207735714Y-114735714D01*
X207507142Y-114735714D01*
X208107142Y-115021428D02*
X208107142Y-114421428D01*
X208250000Y-114421428D01*
X208335714Y-114450000D01*
X208392857Y-114507142D01*
X208421428Y-114564285D01*
X208450000Y-114678571D01*
X208450000Y-114764285D01*
X208421428Y-114878571D01*
X208392857Y-114935714D01*
X208335714Y-114992857D01*
X208250000Y-115021428D01*
X208107142Y-115021428D01*
X208992857Y-114421428D02*
X208707142Y-114421428D01*
X208678571Y-114707142D01*
X208707142Y-114678571D01*
X208764285Y-114650000D01*
X208907142Y-114650000D01*
X208964285Y-114678571D01*
X208992857Y-114707142D01*
X209021428Y-114764285D01*
X209021428Y-114907142D01*
X208992857Y-114964285D01*
X208964285Y-114992857D01*
X208907142Y-115021428D01*
X208764285Y-115021428D01*
X208707142Y-114992857D01*
X208678571Y-114964285D01*
X207507142Y-112521428D02*
X207507142Y-111921428D01*
X207735714Y-111921428D01*
X207792857Y-111950000D01*
X207821428Y-111978571D01*
X207850000Y-112035714D01*
X207850000Y-112121428D01*
X207821428Y-112178571D01*
X207792857Y-112207142D01*
X207735714Y-112235714D01*
X207507142Y-112235714D01*
X208107142Y-112521428D02*
X208107142Y-111921428D01*
X208250000Y-111921428D01*
X208335714Y-111950000D01*
X208392857Y-112007142D01*
X208421428Y-112064285D01*
X208450000Y-112178571D01*
X208450000Y-112264285D01*
X208421428Y-112378571D01*
X208392857Y-112435714D01*
X208335714Y-112492857D01*
X208250000Y-112521428D01*
X208107142Y-112521428D01*
X208964285Y-111921428D02*
X208850000Y-111921428D01*
X208792857Y-111950000D01*
X208764285Y-111978571D01*
X208707142Y-112064285D01*
X208678571Y-112178571D01*
X208678571Y-112407142D01*
X208707142Y-112464285D01*
X208735714Y-112492857D01*
X208792857Y-112521428D01*
X208907142Y-112521428D01*
X208964285Y-112492857D01*
X208992857Y-112464285D01*
X209021428Y-112407142D01*
X209021428Y-112264285D01*
X208992857Y-112207142D01*
X208964285Y-112178571D01*
X208907142Y-112150000D01*
X208792857Y-112150000D01*
X208735714Y-112178571D01*
X208707142Y-112207142D01*
X208678571Y-112264285D01*
X207507142Y-110021428D02*
X207507142Y-109421428D01*
X207735714Y-109421428D01*
X207792857Y-109450000D01*
X207821428Y-109478571D01*
X207850000Y-109535714D01*
X207850000Y-109621428D01*
X207821428Y-109678571D01*
X207792857Y-109707142D01*
X207735714Y-109735714D01*
X207507142Y-109735714D01*
X208107142Y-110021428D02*
X208107142Y-109421428D01*
X208250000Y-109421428D01*
X208335714Y-109450000D01*
X208392857Y-109507142D01*
X208421428Y-109564285D01*
X208450000Y-109678571D01*
X208450000Y-109764285D01*
X208421428Y-109878571D01*
X208392857Y-109935714D01*
X208335714Y-109992857D01*
X208250000Y-110021428D01*
X208107142Y-110021428D01*
X208650000Y-109421428D02*
X209050000Y-109421428D01*
X208792857Y-110021428D01*
X207507142Y-107271428D02*
X207507142Y-106671428D01*
X207735714Y-106671428D01*
X207792857Y-106700000D01*
X207821428Y-106728571D01*
X207850000Y-106785714D01*
X207850000Y-106871428D01*
X207821428Y-106928571D01*
X207792857Y-106957142D01*
X207735714Y-106985714D01*
X207507142Y-106985714D01*
X208307142Y-106957142D02*
X208392857Y-106985714D01*
X208421428Y-107014285D01*
X208450000Y-107071428D01*
X208450000Y-107157142D01*
X208421428Y-107214285D01*
X208392857Y-107242857D01*
X208335714Y-107271428D01*
X208107142Y-107271428D01*
X208107142Y-106671428D01*
X208307142Y-106671428D01*
X208364285Y-106700000D01*
X208392857Y-106728571D01*
X208421428Y-106785714D01*
X208421428Y-106842857D01*
X208392857Y-106900000D01*
X208364285Y-106928571D01*
X208307142Y-106957142D01*
X208107142Y-106957142D01*
X208650000Y-106671428D02*
X209021428Y-106671428D01*
X208821428Y-106900000D01*
X208907142Y-106900000D01*
X208964285Y-106928571D01*
X208992857Y-106957142D01*
X209021428Y-107014285D01*
X209021428Y-107157142D01*
X208992857Y-107214285D01*
X208964285Y-107242857D01*
X208907142Y-107271428D01*
X208735714Y-107271428D01*
X208678571Y-107242857D01*
X208650000Y-107214285D01*
X207507142Y-104771428D02*
X207507142Y-104171428D01*
X207735714Y-104171428D01*
X207792857Y-104200000D01*
X207821428Y-104228571D01*
X207850000Y-104285714D01*
X207850000Y-104371428D01*
X207821428Y-104428571D01*
X207792857Y-104457142D01*
X207735714Y-104485714D01*
X207507142Y-104485714D01*
X208307142Y-104457142D02*
X208392857Y-104485714D01*
X208421428Y-104514285D01*
X208450000Y-104571428D01*
X208450000Y-104657142D01*
X208421428Y-104714285D01*
X208392857Y-104742857D01*
X208335714Y-104771428D01*
X208107142Y-104771428D01*
X208107142Y-104171428D01*
X208307142Y-104171428D01*
X208364285Y-104200000D01*
X208392857Y-104228571D01*
X208421428Y-104285714D01*
X208421428Y-104342857D01*
X208392857Y-104400000D01*
X208364285Y-104428571D01*
X208307142Y-104457142D01*
X208107142Y-104457142D01*
X208964285Y-104371428D02*
X208964285Y-104771428D01*
X208821428Y-104142857D02*
X208678571Y-104571428D01*
X209050000Y-104571428D01*
X207507142Y-102271428D02*
X207507142Y-101671428D01*
X207735714Y-101671428D01*
X207792857Y-101700000D01*
X207821428Y-101728571D01*
X207850000Y-101785714D01*
X207850000Y-101871428D01*
X207821428Y-101928571D01*
X207792857Y-101957142D01*
X207735714Y-101985714D01*
X207507142Y-101985714D01*
X208307142Y-101957142D02*
X208392857Y-101985714D01*
X208421428Y-102014285D01*
X208450000Y-102071428D01*
X208450000Y-102157142D01*
X208421428Y-102214285D01*
X208392857Y-102242857D01*
X208335714Y-102271428D01*
X208107142Y-102271428D01*
X208107142Y-101671428D01*
X208307142Y-101671428D01*
X208364285Y-101700000D01*
X208392857Y-101728571D01*
X208421428Y-101785714D01*
X208421428Y-101842857D01*
X208392857Y-101900000D01*
X208364285Y-101928571D01*
X208307142Y-101957142D01*
X208107142Y-101957142D01*
X208992857Y-101671428D02*
X208707142Y-101671428D01*
X208678571Y-101957142D01*
X208707142Y-101928571D01*
X208764285Y-101900000D01*
X208907142Y-101900000D01*
X208964285Y-101928571D01*
X208992857Y-101957142D01*
X209021428Y-102014285D01*
X209021428Y-102157142D01*
X208992857Y-102214285D01*
X208964285Y-102242857D01*
X208907142Y-102271428D01*
X208764285Y-102271428D01*
X208707142Y-102242857D01*
X208678571Y-102214285D01*
X207507142Y-99771428D02*
X207507142Y-99171428D01*
X207735714Y-99171428D01*
X207792857Y-99200000D01*
X207821428Y-99228571D01*
X207850000Y-99285714D01*
X207850000Y-99371428D01*
X207821428Y-99428571D01*
X207792857Y-99457142D01*
X207735714Y-99485714D01*
X207507142Y-99485714D01*
X208307142Y-99457142D02*
X208392857Y-99485714D01*
X208421428Y-99514285D01*
X208450000Y-99571428D01*
X208450000Y-99657142D01*
X208421428Y-99714285D01*
X208392857Y-99742857D01*
X208335714Y-99771428D01*
X208107142Y-99771428D01*
X208107142Y-99171428D01*
X208307142Y-99171428D01*
X208364285Y-99200000D01*
X208392857Y-99228571D01*
X208421428Y-99285714D01*
X208421428Y-99342857D01*
X208392857Y-99400000D01*
X208364285Y-99428571D01*
X208307142Y-99457142D01*
X208107142Y-99457142D01*
X208964285Y-99171428D02*
X208850000Y-99171428D01*
X208792857Y-99200000D01*
X208764285Y-99228571D01*
X208707142Y-99314285D01*
X208678571Y-99428571D01*
X208678571Y-99657142D01*
X208707142Y-99714285D01*
X208735714Y-99742857D01*
X208792857Y-99771428D01*
X208907142Y-99771428D01*
X208964285Y-99742857D01*
X208992857Y-99714285D01*
X209021428Y-99657142D01*
X209021428Y-99514285D01*
X208992857Y-99457142D01*
X208964285Y-99428571D01*
X208907142Y-99400000D01*
X208792857Y-99400000D01*
X208735714Y-99428571D01*
X208707142Y-99457142D01*
X208678571Y-99514285D01*
X207507142Y-97218148D02*
X207507142Y-96618148D01*
X207735714Y-96618148D01*
X207792857Y-96646720D01*
X207821428Y-96675291D01*
X207850000Y-96732434D01*
X207850000Y-96818148D01*
X207821428Y-96875291D01*
X207792857Y-96903862D01*
X207735714Y-96932434D01*
X207507142Y-96932434D01*
X208307142Y-96903862D02*
X208392857Y-96932434D01*
X208421428Y-96961005D01*
X208450000Y-97018148D01*
X208450000Y-97103862D01*
X208421428Y-97161005D01*
X208392857Y-97189577D01*
X208335714Y-97218148D01*
X208107142Y-97218148D01*
X208107142Y-96618148D01*
X208307142Y-96618148D01*
X208364285Y-96646720D01*
X208392857Y-96675291D01*
X208421428Y-96732434D01*
X208421428Y-96789577D01*
X208392857Y-96846720D01*
X208364285Y-96875291D01*
X208307142Y-96903862D01*
X208107142Y-96903862D01*
X208650000Y-96618148D02*
X209050000Y-96618148D01*
X208792857Y-97218148D01*
X207685714Y-94343542D02*
X207771428Y-94372114D01*
X207800000Y-94400685D01*
X207828571Y-94457828D01*
X207828571Y-94543542D01*
X207800000Y-94600685D01*
X207771428Y-94629257D01*
X207714285Y-94657828D01*
X207485714Y-94657828D01*
X207485714Y-94057828D01*
X207685714Y-94057828D01*
X207742857Y-94086400D01*
X207771428Y-94114971D01*
X207800000Y-94172114D01*
X207800000Y-94229257D01*
X207771428Y-94286400D01*
X207742857Y-94314971D01*
X207685714Y-94343542D01*
X207485714Y-94343542D01*
X208200000Y-94057828D02*
X208314285Y-94057828D01*
X208371428Y-94086400D01*
X208428571Y-94143542D01*
X208457142Y-94257828D01*
X208457142Y-94457828D01*
X208428571Y-94572114D01*
X208371428Y-94629257D01*
X208314285Y-94657828D01*
X208200000Y-94657828D01*
X208142857Y-94629257D01*
X208085714Y-94572114D01*
X208057142Y-94457828D01*
X208057142Y-94257828D01*
X208085714Y-94143542D01*
X208142857Y-94086400D01*
X208200000Y-94057828D01*
X208828571Y-94057828D02*
X208942857Y-94057828D01*
X209000000Y-94086400D01*
X209057142Y-94143542D01*
X209085714Y-94257828D01*
X209085714Y-94457828D01*
X209057142Y-94572114D01*
X209000000Y-94629257D01*
X208942857Y-94657828D01*
X208828571Y-94657828D01*
X208771428Y-94629257D01*
X208714285Y-94572114D01*
X208685714Y-94457828D01*
X208685714Y-94257828D01*
X208714285Y-94143542D01*
X208771428Y-94086400D01*
X208828571Y-94057828D01*
X209257142Y-94057828D02*
X209600000Y-94057828D01*
X209428571Y-94657828D02*
X209428571Y-94057828D01*
X207537142Y-92219428D02*
X207537142Y-91619428D01*
X207765714Y-91619428D01*
X207822857Y-91648000D01*
X207851428Y-91676571D01*
X207880000Y-91733714D01*
X207880000Y-91819428D01*
X207851428Y-91876571D01*
X207822857Y-91905142D01*
X207765714Y-91933714D01*
X207537142Y-91933714D01*
X208337142Y-91905142D02*
X208422857Y-91933714D01*
X208451428Y-91962285D01*
X208480000Y-92019428D01*
X208480000Y-92105142D01*
X208451428Y-92162285D01*
X208422857Y-92190857D01*
X208365714Y-92219428D01*
X208137142Y-92219428D01*
X208137142Y-91619428D01*
X208337142Y-91619428D01*
X208394285Y-91648000D01*
X208422857Y-91676571D01*
X208451428Y-91733714D01*
X208451428Y-91790857D01*
X208422857Y-91848000D01*
X208394285Y-91876571D01*
X208337142Y-91905142D01*
X208137142Y-91905142D01*
X208822857Y-91876571D02*
X208765714Y-91848000D01*
X208737142Y-91819428D01*
X208708571Y-91762285D01*
X208708571Y-91733714D01*
X208737142Y-91676571D01*
X208765714Y-91648000D01*
X208822857Y-91619428D01*
X208937142Y-91619428D01*
X208994285Y-91648000D01*
X209022857Y-91676571D01*
X209051428Y-91733714D01*
X209051428Y-91762285D01*
X209022857Y-91819428D01*
X208994285Y-91848000D01*
X208937142Y-91876571D01*
X208822857Y-91876571D01*
X208765714Y-91905142D01*
X208737142Y-91933714D01*
X208708571Y-91990857D01*
X208708571Y-92105142D01*
X208737142Y-92162285D01*
X208765714Y-92190857D01*
X208822857Y-92219428D01*
X208937142Y-92219428D01*
X208994285Y-92190857D01*
X209022857Y-92162285D01*
X209051428Y-92105142D01*
X209051428Y-91990857D01*
X209022857Y-91933714D01*
X208994285Y-91905142D01*
X208937142Y-91876571D01*
X207537142Y-89679428D02*
X207537142Y-89079428D01*
X207765714Y-89079428D01*
X207822857Y-89108000D01*
X207851428Y-89136571D01*
X207880000Y-89193714D01*
X207880000Y-89279428D01*
X207851428Y-89336571D01*
X207822857Y-89365142D01*
X207765714Y-89393714D01*
X207537142Y-89393714D01*
X208337142Y-89365142D02*
X208422857Y-89393714D01*
X208451428Y-89422285D01*
X208480000Y-89479428D01*
X208480000Y-89565142D01*
X208451428Y-89622285D01*
X208422857Y-89650857D01*
X208365714Y-89679428D01*
X208137142Y-89679428D01*
X208137142Y-89079428D01*
X208337142Y-89079428D01*
X208394285Y-89108000D01*
X208422857Y-89136571D01*
X208451428Y-89193714D01*
X208451428Y-89250857D01*
X208422857Y-89308000D01*
X208394285Y-89336571D01*
X208337142Y-89365142D01*
X208137142Y-89365142D01*
X208765714Y-89679428D02*
X208880000Y-89679428D01*
X208937142Y-89650857D01*
X208965714Y-89622285D01*
X209022857Y-89536571D01*
X209051428Y-89422285D01*
X209051428Y-89193714D01*
X209022857Y-89136571D01*
X208994285Y-89108000D01*
X208937142Y-89079428D01*
X208822857Y-89079428D01*
X208765714Y-89108000D01*
X208737142Y-89136571D01*
X208708571Y-89193714D01*
X208708571Y-89336571D01*
X208737142Y-89393714D01*
X208765714Y-89422285D01*
X208822857Y-89450857D01*
X208937142Y-89450857D01*
X208994285Y-89422285D01*
X209022857Y-89393714D01*
X209051428Y-89336571D01*
X207565714Y-87139428D02*
X207565714Y-86539428D01*
X207794285Y-86539428D01*
X207851428Y-86568000D01*
X207880000Y-86596571D01*
X207908571Y-86653714D01*
X207908571Y-86739428D01*
X207880000Y-86796571D01*
X207851428Y-86825142D01*
X207794285Y-86853714D01*
X207565714Y-86853714D01*
X208165714Y-86825142D02*
X208365714Y-86825142D01*
X208451428Y-87139428D02*
X208165714Y-87139428D01*
X208165714Y-86539428D01*
X208451428Y-86539428D01*
X208822857Y-86539428D02*
X208880000Y-86539428D01*
X208937142Y-86568000D01*
X208965714Y-86596571D01*
X208994285Y-86653714D01*
X209022857Y-86768000D01*
X209022857Y-86910857D01*
X208994285Y-87025142D01*
X208965714Y-87082285D01*
X208937142Y-87110857D01*
X208880000Y-87139428D01*
X208822857Y-87139428D01*
X208765714Y-87110857D01*
X208737142Y-87082285D01*
X208708571Y-87025142D01*
X208680000Y-86910857D01*
X208680000Y-86768000D01*
X208708571Y-86653714D01*
X208737142Y-86596571D01*
X208765714Y-86568000D01*
X208822857Y-86539428D01*
X207565714Y-84599428D02*
X207565714Y-83999428D01*
X207794285Y-83999428D01*
X207851428Y-84028000D01*
X207880000Y-84056571D01*
X207908571Y-84113714D01*
X207908571Y-84199428D01*
X207880000Y-84256571D01*
X207851428Y-84285142D01*
X207794285Y-84313714D01*
X207565714Y-84313714D01*
X208165714Y-84285142D02*
X208365714Y-84285142D01*
X208451428Y-84599428D02*
X208165714Y-84599428D01*
X208165714Y-83999428D01*
X208451428Y-83999428D01*
X209022857Y-84599428D02*
X208680000Y-84599428D01*
X208851428Y-84599428D02*
X208851428Y-83999428D01*
X208794285Y-84085142D01*
X208737142Y-84142285D01*
X208680000Y-84170857D01*
X207822857Y-81488000D02*
X207765714Y-81459428D01*
X207680000Y-81459428D01*
X207594285Y-81488000D01*
X207537142Y-81545142D01*
X207508571Y-81602285D01*
X207480000Y-81716571D01*
X207480000Y-81802285D01*
X207508571Y-81916571D01*
X207537142Y-81973714D01*
X207594285Y-82030857D01*
X207680000Y-82059428D01*
X207737142Y-82059428D01*
X207822857Y-82030857D01*
X207851428Y-82002285D01*
X207851428Y-81802285D01*
X207737142Y-81802285D01*
X208108571Y-82059428D02*
X208108571Y-81459428D01*
X208451428Y-82059428D01*
X208451428Y-81459428D01*
X208737142Y-82059428D02*
X208737142Y-81459428D01*
X208880000Y-81459428D01*
X208965714Y-81488000D01*
X209022857Y-81545142D01*
X209051428Y-81602285D01*
X209080000Y-81716571D01*
X209080000Y-81802285D01*
X209051428Y-81916571D01*
X209022857Y-81973714D01*
X208965714Y-82030857D01*
X208880000Y-82059428D01*
X208737142Y-82059428D01*
X207394285Y-78919428D02*
X207765714Y-78919428D01*
X207565714Y-79148000D01*
X207651428Y-79148000D01*
X207708571Y-79176571D01*
X207737142Y-79205142D01*
X207765714Y-79262285D01*
X207765714Y-79405142D01*
X207737142Y-79462285D01*
X207708571Y-79490857D01*
X207651428Y-79519428D01*
X207480000Y-79519428D01*
X207422857Y-79490857D01*
X207394285Y-79462285D01*
X208022857Y-79462285D02*
X208051428Y-79490857D01*
X208022857Y-79519428D01*
X207994285Y-79490857D01*
X208022857Y-79462285D01*
X208022857Y-79519428D01*
X208251428Y-78919428D02*
X208622857Y-78919428D01*
X208422857Y-79148000D01*
X208508571Y-79148000D01*
X208565714Y-79176571D01*
X208594285Y-79205142D01*
X208622857Y-79262285D01*
X208622857Y-79405142D01*
X208594285Y-79462285D01*
X208565714Y-79490857D01*
X208508571Y-79519428D01*
X208337142Y-79519428D01*
X208280000Y-79490857D01*
X208251428Y-79462285D01*
X208794285Y-78919428D02*
X208994285Y-79519428D01*
X209194285Y-78919428D01*
X147958285Y-140387428D02*
X148329714Y-140387428D01*
X148129714Y-140616000D01*
X148215428Y-140616000D01*
X148272571Y-140644571D01*
X148301142Y-140673142D01*
X148329714Y-140730285D01*
X148329714Y-140873142D01*
X148301142Y-140930285D01*
X148272571Y-140958857D01*
X148215428Y-140987428D01*
X148044000Y-140987428D01*
X147986857Y-140958857D01*
X147958285Y-140930285D01*
X148586857Y-140930285D02*
X148615428Y-140958857D01*
X148586857Y-140987428D01*
X148558285Y-140958857D01*
X148586857Y-140930285D01*
X148586857Y-140987428D01*
X148815428Y-140387428D02*
X149186857Y-140387428D01*
X148986857Y-140616000D01*
X149072571Y-140616000D01*
X149129714Y-140644571D01*
X149158285Y-140673142D01*
X149186857Y-140730285D01*
X149186857Y-140873142D01*
X149158285Y-140930285D01*
X149129714Y-140958857D01*
X149072571Y-140987428D01*
X148901142Y-140987428D01*
X148844000Y-140958857D01*
X148815428Y-140930285D01*
X149358285Y-140387428D02*
X149558285Y-140987428D01*
X149758285Y-140387428D01*
X147501142Y-137339428D02*
X147701142Y-137939428D01*
X147901142Y-137339428D01*
X148444000Y-137882285D02*
X148415428Y-137910857D01*
X148329714Y-137939428D01*
X148272571Y-137939428D01*
X148186857Y-137910857D01*
X148129714Y-137853714D01*
X148101142Y-137796571D01*
X148072571Y-137682285D01*
X148072571Y-137596571D01*
X148101142Y-137482285D01*
X148129714Y-137425142D01*
X148186857Y-137368000D01*
X148272571Y-137339428D01*
X148329714Y-137339428D01*
X148415428Y-137368000D01*
X148444000Y-137396571D01*
X148672571Y-137768000D02*
X148958285Y-137768000D01*
X148615428Y-137939428D02*
X148815428Y-137339428D01*
X149015428Y-137939428D01*
X149215428Y-137939428D02*
X149215428Y-137339428D01*
X149444000Y-137339428D01*
X149501142Y-137368000D01*
X149529714Y-137396571D01*
X149558285Y-137453714D01*
X149558285Y-137539428D01*
X149529714Y-137596571D01*
X149501142Y-137625142D01*
X149444000Y-137653714D01*
X149215428Y-137653714D01*
X150129714Y-137939428D02*
X149786857Y-137939428D01*
X149958285Y-137939428D02*
X149958285Y-137339428D01*
X149901142Y-137425142D01*
X149844000Y-137482285D01*
X149786857Y-137510857D01*
X147815428Y-135399428D02*
X147815428Y-134799428D01*
X148044000Y-134799428D01*
X148101142Y-134828000D01*
X148129714Y-134856571D01*
X148158285Y-134913714D01*
X148158285Y-134999428D01*
X148129714Y-135056571D01*
X148101142Y-135085142D01*
X148044000Y-135113714D01*
X147815428Y-135113714D01*
X148615428Y-135085142D02*
X148701142Y-135113714D01*
X148729714Y-135142285D01*
X148758285Y-135199428D01*
X148758285Y-135285142D01*
X148729714Y-135342285D01*
X148701142Y-135370857D01*
X148644000Y-135399428D01*
X148415428Y-135399428D01*
X148415428Y-134799428D01*
X148615428Y-134799428D01*
X148672571Y-134828000D01*
X148701142Y-134856571D01*
X148729714Y-134913714D01*
X148729714Y-134970857D01*
X148701142Y-135028000D01*
X148672571Y-135056571D01*
X148615428Y-135085142D01*
X148415428Y-135085142D01*
X149329714Y-135399428D02*
X148986857Y-135399428D01*
X149158285Y-135399428D02*
X149158285Y-134799428D01*
X149101142Y-134885142D01*
X149044000Y-134942285D01*
X148986857Y-134970857D01*
X149901142Y-135399428D02*
X149558285Y-135399428D01*
X149729714Y-135399428D02*
X149729714Y-134799428D01*
X149672571Y-134885142D01*
X149615428Y-134942285D01*
X149558285Y-134970857D01*
X147815428Y-132859428D02*
X147815428Y-132259428D01*
X148044000Y-132259428D01*
X148101142Y-132288000D01*
X148129714Y-132316571D01*
X148158285Y-132373714D01*
X148158285Y-132459428D01*
X148129714Y-132516571D01*
X148101142Y-132545142D01*
X148044000Y-132573714D01*
X147815428Y-132573714D01*
X148615428Y-132545142D02*
X148701142Y-132573714D01*
X148729714Y-132602285D01*
X148758285Y-132659428D01*
X148758285Y-132745142D01*
X148729714Y-132802285D01*
X148701142Y-132830857D01*
X148644000Y-132859428D01*
X148415428Y-132859428D01*
X148415428Y-132259428D01*
X148615428Y-132259428D01*
X148672571Y-132288000D01*
X148701142Y-132316571D01*
X148729714Y-132373714D01*
X148729714Y-132430857D01*
X148701142Y-132488000D01*
X148672571Y-132516571D01*
X148615428Y-132545142D01*
X148415428Y-132545142D01*
X149329714Y-132859428D02*
X148986857Y-132859428D01*
X149158285Y-132859428D02*
X149158285Y-132259428D01*
X149101142Y-132345142D01*
X149044000Y-132402285D01*
X148986857Y-132430857D01*
X149701142Y-132259428D02*
X149758285Y-132259428D01*
X149815428Y-132288000D01*
X149844000Y-132316571D01*
X149872571Y-132373714D01*
X149901142Y-132488000D01*
X149901142Y-132630857D01*
X149872571Y-132745142D01*
X149844000Y-132802285D01*
X149815428Y-132830857D01*
X149758285Y-132859428D01*
X149701142Y-132859428D01*
X149644000Y-132830857D01*
X149615428Y-132802285D01*
X149586857Y-132745142D01*
X149558285Y-132630857D01*
X149558285Y-132488000D01*
X149586857Y-132373714D01*
X149615428Y-132316571D01*
X149644000Y-132288000D01*
X149701142Y-132259428D01*
X147844000Y-130319428D02*
X147844000Y-129719428D01*
X148072571Y-129719428D01*
X148129714Y-129748000D01*
X148158285Y-129776571D01*
X148186857Y-129833714D01*
X148186857Y-129919428D01*
X148158285Y-129976571D01*
X148129714Y-130005142D01*
X148072571Y-130033714D01*
X147844000Y-130033714D01*
X148444000Y-130005142D02*
X148644000Y-130005142D01*
X148729714Y-130319428D02*
X148444000Y-130319428D01*
X148444000Y-129719428D01*
X148729714Y-129719428D01*
X149301142Y-130319428D02*
X148958285Y-130319428D01*
X149129714Y-130319428D02*
X149129714Y-129719428D01*
X149072571Y-129805142D01*
X149015428Y-129862285D01*
X148958285Y-129890857D01*
X149844000Y-129719428D02*
X149558285Y-129719428D01*
X149529714Y-130005142D01*
X149558285Y-129976571D01*
X149615428Y-129948000D01*
X149758285Y-129948000D01*
X149815428Y-129976571D01*
X149844000Y-130005142D01*
X149872571Y-130062285D01*
X149872571Y-130205142D01*
X149844000Y-130262285D01*
X149815428Y-130290857D01*
X149758285Y-130319428D01*
X149615428Y-130319428D01*
X149558285Y-130290857D01*
X149529714Y-130262285D01*
X147844000Y-127779428D02*
X147844000Y-127179428D01*
X148072571Y-127179428D01*
X148129714Y-127208000D01*
X148158285Y-127236571D01*
X148186857Y-127293714D01*
X148186857Y-127379428D01*
X148158285Y-127436571D01*
X148129714Y-127465142D01*
X148072571Y-127493714D01*
X147844000Y-127493714D01*
X148444000Y-127465142D02*
X148644000Y-127465142D01*
X148729714Y-127779428D02*
X148444000Y-127779428D01*
X148444000Y-127179428D01*
X148729714Y-127179428D01*
X149301142Y-127779428D02*
X148958285Y-127779428D01*
X149129714Y-127779428D02*
X149129714Y-127179428D01*
X149072571Y-127265142D01*
X149015428Y-127322285D01*
X148958285Y-127350857D01*
X149815428Y-127379428D02*
X149815428Y-127779428D01*
X149672571Y-127150857D02*
X149529714Y-127579428D01*
X149901142Y-127579428D01*
X147844000Y-125239428D02*
X147844000Y-124639428D01*
X148072571Y-124639428D01*
X148129714Y-124668000D01*
X148158285Y-124696571D01*
X148186857Y-124753714D01*
X148186857Y-124839428D01*
X148158285Y-124896571D01*
X148129714Y-124925142D01*
X148072571Y-124953714D01*
X147844000Y-124953714D01*
X148444000Y-124925142D02*
X148644000Y-124925142D01*
X148729714Y-125239428D02*
X148444000Y-125239428D01*
X148444000Y-124639428D01*
X148729714Y-124639428D01*
X149301142Y-125239428D02*
X148958285Y-125239428D01*
X149129714Y-125239428D02*
X149129714Y-124639428D01*
X149072571Y-124725142D01*
X149015428Y-124782285D01*
X148958285Y-124810857D01*
X149501142Y-124639428D02*
X149872571Y-124639428D01*
X149672571Y-124868000D01*
X149758285Y-124868000D01*
X149815428Y-124896571D01*
X149844000Y-124925142D01*
X149872571Y-124982285D01*
X149872571Y-125125142D01*
X149844000Y-125182285D01*
X149815428Y-125210857D01*
X149758285Y-125239428D01*
X149586857Y-125239428D01*
X149529714Y-125210857D01*
X149501142Y-125182285D01*
X147844000Y-122699428D02*
X147844000Y-122099428D01*
X148072571Y-122099428D01*
X148129714Y-122128000D01*
X148158285Y-122156571D01*
X148186857Y-122213714D01*
X148186857Y-122299428D01*
X148158285Y-122356571D01*
X148129714Y-122385142D01*
X148072571Y-122413714D01*
X147844000Y-122413714D01*
X148444000Y-122385142D02*
X148644000Y-122385142D01*
X148729714Y-122699428D02*
X148444000Y-122699428D01*
X148444000Y-122099428D01*
X148729714Y-122099428D01*
X149301142Y-122699428D02*
X148958285Y-122699428D01*
X149129714Y-122699428D02*
X149129714Y-122099428D01*
X149072571Y-122185142D01*
X149015428Y-122242285D01*
X148958285Y-122270857D01*
X149529714Y-122156571D02*
X149558285Y-122128000D01*
X149615428Y-122099428D01*
X149758285Y-122099428D01*
X149815428Y-122128000D01*
X149844000Y-122156571D01*
X149872571Y-122213714D01*
X149872571Y-122270857D01*
X149844000Y-122356571D01*
X149501142Y-122699428D01*
X149872571Y-122699428D01*
X147844000Y-120159428D02*
X147844000Y-119559428D01*
X148072571Y-119559428D01*
X148129714Y-119588000D01*
X148158285Y-119616571D01*
X148186857Y-119673714D01*
X148186857Y-119759428D01*
X148158285Y-119816571D01*
X148129714Y-119845142D01*
X148072571Y-119873714D01*
X147844000Y-119873714D01*
X148444000Y-119845142D02*
X148644000Y-119845142D01*
X148729714Y-120159428D02*
X148444000Y-120159428D01*
X148444000Y-119559428D01*
X148729714Y-119559428D01*
X149301142Y-120159428D02*
X148958285Y-120159428D01*
X149129714Y-120159428D02*
X149129714Y-119559428D01*
X149072571Y-119645142D01*
X149015428Y-119702285D01*
X148958285Y-119730857D01*
X149872571Y-120159428D02*
X149529714Y-120159428D01*
X149701142Y-120159428D02*
X149701142Y-119559428D01*
X149644000Y-119645142D01*
X149586857Y-119702285D01*
X149529714Y-119730857D01*
X147844000Y-117619428D02*
X147844000Y-117019428D01*
X148072571Y-117019428D01*
X148129714Y-117048000D01*
X148158285Y-117076571D01*
X148186857Y-117133714D01*
X148186857Y-117219428D01*
X148158285Y-117276571D01*
X148129714Y-117305142D01*
X148072571Y-117333714D01*
X147844000Y-117333714D01*
X148444000Y-117305142D02*
X148644000Y-117305142D01*
X148729714Y-117619428D02*
X148444000Y-117619428D01*
X148444000Y-117019428D01*
X148729714Y-117019428D01*
X149301142Y-117619428D02*
X148958285Y-117619428D01*
X149129714Y-117619428D02*
X149129714Y-117019428D01*
X149072571Y-117105142D01*
X149015428Y-117162285D01*
X148958285Y-117190857D01*
X149672571Y-117019428D02*
X149729714Y-117019428D01*
X149786857Y-117048000D01*
X149815428Y-117076571D01*
X149844000Y-117133714D01*
X149872571Y-117248000D01*
X149872571Y-117390857D01*
X149844000Y-117505142D01*
X149815428Y-117562285D01*
X149786857Y-117590857D01*
X149729714Y-117619428D01*
X149672571Y-117619428D01*
X149615428Y-117590857D01*
X149586857Y-117562285D01*
X149558285Y-117505142D01*
X149529714Y-117390857D01*
X149529714Y-117248000D01*
X149558285Y-117133714D01*
X149586857Y-117076571D01*
X149615428Y-117048000D01*
X149672571Y-117019428D01*
X148129714Y-115079428D02*
X148129714Y-114479428D01*
X148358285Y-114479428D01*
X148415428Y-114508000D01*
X148444000Y-114536571D01*
X148472571Y-114593714D01*
X148472571Y-114679428D01*
X148444000Y-114736571D01*
X148415428Y-114765142D01*
X148358285Y-114793714D01*
X148129714Y-114793714D01*
X148729714Y-114765142D02*
X148929714Y-114765142D01*
X149015428Y-115079428D02*
X148729714Y-115079428D01*
X148729714Y-114479428D01*
X149015428Y-114479428D01*
X149301142Y-115079428D02*
X149415428Y-115079428D01*
X149472571Y-115050857D01*
X149501142Y-115022285D01*
X149558285Y-114936571D01*
X149586857Y-114822285D01*
X149586857Y-114593714D01*
X149558285Y-114536571D01*
X149529714Y-114508000D01*
X149472571Y-114479428D01*
X149358285Y-114479428D01*
X149301142Y-114508000D01*
X149272571Y-114536571D01*
X149244000Y-114593714D01*
X149244000Y-114736571D01*
X149272571Y-114793714D01*
X149301142Y-114822285D01*
X149358285Y-114850857D01*
X149472571Y-114850857D01*
X149529714Y-114822285D01*
X149558285Y-114793714D01*
X149586857Y-114736571D01*
X148129714Y-112539428D02*
X148129714Y-111939428D01*
X148358285Y-111939428D01*
X148415428Y-111968000D01*
X148444000Y-111996571D01*
X148472571Y-112053714D01*
X148472571Y-112139428D01*
X148444000Y-112196571D01*
X148415428Y-112225142D01*
X148358285Y-112253714D01*
X148129714Y-112253714D01*
X148729714Y-112225142D02*
X148929714Y-112225142D01*
X149015428Y-112539428D02*
X148729714Y-112539428D01*
X148729714Y-111939428D01*
X149015428Y-111939428D01*
X149358285Y-112196571D02*
X149301142Y-112168000D01*
X149272571Y-112139428D01*
X149244000Y-112082285D01*
X149244000Y-112053714D01*
X149272571Y-111996571D01*
X149301142Y-111968000D01*
X149358285Y-111939428D01*
X149472571Y-111939428D01*
X149529714Y-111968000D01*
X149558285Y-111996571D01*
X149586857Y-112053714D01*
X149586857Y-112082285D01*
X149558285Y-112139428D01*
X149529714Y-112168000D01*
X149472571Y-112196571D01*
X149358285Y-112196571D01*
X149301142Y-112225142D01*
X149272571Y-112253714D01*
X149244000Y-112310857D01*
X149244000Y-112425142D01*
X149272571Y-112482285D01*
X149301142Y-112510857D01*
X149358285Y-112539428D01*
X149472571Y-112539428D01*
X149529714Y-112510857D01*
X149558285Y-112482285D01*
X149586857Y-112425142D01*
X149586857Y-112310857D01*
X149558285Y-112253714D01*
X149529714Y-112225142D01*
X149472571Y-112196571D01*
X148129714Y-109999428D02*
X148129714Y-109399428D01*
X148358285Y-109399428D01*
X148415428Y-109428000D01*
X148444000Y-109456571D01*
X148472571Y-109513714D01*
X148472571Y-109599428D01*
X148444000Y-109656571D01*
X148415428Y-109685142D01*
X148358285Y-109713714D01*
X148129714Y-109713714D01*
X148729714Y-109685142D02*
X148929714Y-109685142D01*
X149015428Y-109999428D02*
X148729714Y-109999428D01*
X148729714Y-109399428D01*
X149015428Y-109399428D01*
X149215428Y-109399428D02*
X149615428Y-109399428D01*
X149358285Y-109999428D01*
X148101142Y-107459428D02*
X148101142Y-106859428D01*
X148329714Y-106859428D01*
X148386857Y-106888000D01*
X148415428Y-106916571D01*
X148444000Y-106973714D01*
X148444000Y-107059428D01*
X148415428Y-107116571D01*
X148386857Y-107145142D01*
X148329714Y-107173714D01*
X148101142Y-107173714D01*
X148901142Y-107145142D02*
X148986857Y-107173714D01*
X149015428Y-107202285D01*
X149044000Y-107259428D01*
X149044000Y-107345142D01*
X149015428Y-107402285D01*
X148986857Y-107430857D01*
X148929714Y-107459428D01*
X148701142Y-107459428D01*
X148701142Y-106859428D01*
X148901142Y-106859428D01*
X148958285Y-106888000D01*
X148986857Y-106916571D01*
X149015428Y-106973714D01*
X149015428Y-107030857D01*
X148986857Y-107088000D01*
X148958285Y-107116571D01*
X148901142Y-107145142D01*
X148701142Y-107145142D01*
X149272571Y-106916571D02*
X149301142Y-106888000D01*
X149358285Y-106859428D01*
X149501142Y-106859428D01*
X149558285Y-106888000D01*
X149586857Y-106916571D01*
X149615428Y-106973714D01*
X149615428Y-107030857D01*
X149586857Y-107116571D01*
X149244000Y-107459428D01*
X149615428Y-107459428D01*
X148101142Y-104919428D02*
X148101142Y-104319428D01*
X148329714Y-104319428D01*
X148386857Y-104348000D01*
X148415428Y-104376571D01*
X148444000Y-104433714D01*
X148444000Y-104519428D01*
X148415428Y-104576571D01*
X148386857Y-104605142D01*
X148329714Y-104633714D01*
X148101142Y-104633714D01*
X148901142Y-104605142D02*
X148986857Y-104633714D01*
X149015428Y-104662285D01*
X149044000Y-104719428D01*
X149044000Y-104805142D01*
X149015428Y-104862285D01*
X148986857Y-104890857D01*
X148929714Y-104919428D01*
X148701142Y-104919428D01*
X148701142Y-104319428D01*
X148901142Y-104319428D01*
X148958285Y-104348000D01*
X148986857Y-104376571D01*
X149015428Y-104433714D01*
X149015428Y-104490857D01*
X148986857Y-104548000D01*
X148958285Y-104576571D01*
X148901142Y-104605142D01*
X148701142Y-104605142D01*
X149615428Y-104919428D02*
X149272571Y-104919428D01*
X149444000Y-104919428D02*
X149444000Y-104319428D01*
X149386857Y-104405142D01*
X149329714Y-104462285D01*
X149272571Y-104490857D01*
X148101142Y-102379428D02*
X148101142Y-101779428D01*
X148329714Y-101779428D01*
X148386857Y-101808000D01*
X148415428Y-101836571D01*
X148444000Y-101893714D01*
X148444000Y-101979428D01*
X148415428Y-102036571D01*
X148386857Y-102065142D01*
X148329714Y-102093714D01*
X148101142Y-102093714D01*
X148901142Y-102065142D02*
X148986857Y-102093714D01*
X149015428Y-102122285D01*
X149044000Y-102179428D01*
X149044000Y-102265142D01*
X149015428Y-102322285D01*
X148986857Y-102350857D01*
X148929714Y-102379428D01*
X148701142Y-102379428D01*
X148701142Y-101779428D01*
X148901142Y-101779428D01*
X148958285Y-101808000D01*
X148986857Y-101836571D01*
X149015428Y-101893714D01*
X149015428Y-101950857D01*
X148986857Y-102008000D01*
X148958285Y-102036571D01*
X148901142Y-102065142D01*
X148701142Y-102065142D01*
X149415428Y-101779428D02*
X149472571Y-101779428D01*
X149529714Y-101808000D01*
X149558285Y-101836571D01*
X149586857Y-101893714D01*
X149615428Y-102008000D01*
X149615428Y-102150857D01*
X149586857Y-102265142D01*
X149558285Y-102322285D01*
X149529714Y-102350857D01*
X149472571Y-102379428D01*
X149415428Y-102379428D01*
X149358285Y-102350857D01*
X149329714Y-102322285D01*
X149301142Y-102265142D01*
X149272571Y-102150857D01*
X149272571Y-102008000D01*
X149301142Y-101893714D01*
X149329714Y-101836571D01*
X149358285Y-101808000D01*
X149415428Y-101779428D01*
X148101142Y-99839428D02*
X148101142Y-99239428D01*
X148329714Y-99239428D01*
X148386857Y-99268000D01*
X148415428Y-99296571D01*
X148444000Y-99353714D01*
X148444000Y-99439428D01*
X148415428Y-99496571D01*
X148386857Y-99525142D01*
X148329714Y-99553714D01*
X148101142Y-99553714D01*
X149044000Y-99782285D02*
X149015428Y-99810857D01*
X148929714Y-99839428D01*
X148872571Y-99839428D01*
X148786857Y-99810857D01*
X148729714Y-99753714D01*
X148701142Y-99696571D01*
X148672571Y-99582285D01*
X148672571Y-99496571D01*
X148701142Y-99382285D01*
X148729714Y-99325142D01*
X148786857Y-99268000D01*
X148872571Y-99239428D01*
X148929714Y-99239428D01*
X149015428Y-99268000D01*
X149044000Y-99296571D01*
X149586857Y-99239428D02*
X149301142Y-99239428D01*
X149272571Y-99525142D01*
X149301142Y-99496571D01*
X149358285Y-99468000D01*
X149501142Y-99468000D01*
X149558285Y-99496571D01*
X149586857Y-99525142D01*
X149615428Y-99582285D01*
X149615428Y-99725142D01*
X149586857Y-99782285D01*
X149558285Y-99810857D01*
X149501142Y-99839428D01*
X149358285Y-99839428D01*
X149301142Y-99810857D01*
X149272571Y-99782285D01*
X148101142Y-97299428D02*
X148101142Y-96699428D01*
X148329714Y-96699428D01*
X148386857Y-96728000D01*
X148415428Y-96756571D01*
X148444000Y-96813714D01*
X148444000Y-96899428D01*
X148415428Y-96956571D01*
X148386857Y-96985142D01*
X148329714Y-97013714D01*
X148101142Y-97013714D01*
X149044000Y-97242285D02*
X149015428Y-97270857D01*
X148929714Y-97299428D01*
X148872571Y-97299428D01*
X148786857Y-97270857D01*
X148729714Y-97213714D01*
X148701142Y-97156571D01*
X148672571Y-97042285D01*
X148672571Y-96956571D01*
X148701142Y-96842285D01*
X148729714Y-96785142D01*
X148786857Y-96728000D01*
X148872571Y-96699428D01*
X148929714Y-96699428D01*
X149015428Y-96728000D01*
X149044000Y-96756571D01*
X149558285Y-96899428D02*
X149558285Y-97299428D01*
X149415428Y-96670857D02*
X149272571Y-97099428D01*
X149644000Y-97099428D01*
X148144000Y-94759428D02*
X148144000Y-94159428D01*
X148372571Y-94159428D01*
X148429714Y-94188000D01*
X148458285Y-94216571D01*
X148486857Y-94273714D01*
X148486857Y-94359428D01*
X148458285Y-94416571D01*
X148429714Y-94445142D01*
X148372571Y-94473714D01*
X148144000Y-94473714D01*
X148715428Y-94588000D02*
X149001142Y-94588000D01*
X148658285Y-94759428D02*
X148858285Y-94159428D01*
X149058285Y-94759428D01*
X149201142Y-94159428D02*
X149601142Y-94159428D01*
X149344000Y-94759428D01*
X148144000Y-92219428D02*
X148144000Y-91619428D01*
X148372571Y-91619428D01*
X148429714Y-91648000D01*
X148458285Y-91676571D01*
X148486857Y-91733714D01*
X148486857Y-91819428D01*
X148458285Y-91876571D01*
X148429714Y-91905142D01*
X148372571Y-91933714D01*
X148144000Y-91933714D01*
X148715428Y-92048000D02*
X149001142Y-92048000D01*
X148658285Y-92219428D02*
X148858285Y-91619428D01*
X149058285Y-92219428D01*
X149515428Y-91619428D02*
X149401142Y-91619428D01*
X149344000Y-91648000D01*
X149315428Y-91676571D01*
X149258285Y-91762285D01*
X149229714Y-91876571D01*
X149229714Y-92105142D01*
X149258285Y-92162285D01*
X149286857Y-92190857D01*
X149344000Y-92219428D01*
X149458285Y-92219428D01*
X149515428Y-92190857D01*
X149544000Y-92162285D01*
X149572571Y-92105142D01*
X149572571Y-91962285D01*
X149544000Y-91905142D01*
X149515428Y-91876571D01*
X149458285Y-91848000D01*
X149344000Y-91848000D01*
X149286857Y-91876571D01*
X149258285Y-91905142D01*
X149229714Y-91962285D01*
X148144000Y-89679428D02*
X148144000Y-89079428D01*
X148372571Y-89079428D01*
X148429714Y-89108000D01*
X148458285Y-89136571D01*
X148486857Y-89193714D01*
X148486857Y-89279428D01*
X148458285Y-89336571D01*
X148429714Y-89365142D01*
X148372571Y-89393714D01*
X148144000Y-89393714D01*
X148715428Y-89508000D02*
X149001142Y-89508000D01*
X148658285Y-89679428D02*
X148858285Y-89079428D01*
X149058285Y-89679428D01*
X149544000Y-89079428D02*
X149258285Y-89079428D01*
X149229714Y-89365142D01*
X149258285Y-89336571D01*
X149315428Y-89308000D01*
X149458285Y-89308000D01*
X149515428Y-89336571D01*
X149544000Y-89365142D01*
X149572571Y-89422285D01*
X149572571Y-89565142D01*
X149544000Y-89622285D01*
X149515428Y-89650857D01*
X149458285Y-89679428D01*
X149315428Y-89679428D01*
X149258285Y-89650857D01*
X149229714Y-89622285D01*
X148144000Y-87139428D02*
X148144000Y-86539428D01*
X148372571Y-86539428D01*
X148429714Y-86568000D01*
X148458285Y-86596571D01*
X148486857Y-86653714D01*
X148486857Y-86739428D01*
X148458285Y-86796571D01*
X148429714Y-86825142D01*
X148372571Y-86853714D01*
X148144000Y-86853714D01*
X148715428Y-86968000D02*
X149001142Y-86968000D01*
X148658285Y-87139428D02*
X148858285Y-86539428D01*
X149058285Y-87139428D01*
X149515428Y-86739428D02*
X149515428Y-87139428D01*
X149372571Y-86510857D02*
X149229714Y-86939428D01*
X149601142Y-86939428D01*
X147958285Y-83999428D02*
X148329714Y-83999428D01*
X148129714Y-84228000D01*
X148215428Y-84228000D01*
X148272571Y-84256571D01*
X148301142Y-84285142D01*
X148329714Y-84342285D01*
X148329714Y-84485142D01*
X148301142Y-84542285D01*
X148272571Y-84570857D01*
X148215428Y-84599428D01*
X148044000Y-84599428D01*
X147986857Y-84570857D01*
X147958285Y-84542285D01*
X148586857Y-84542285D02*
X148615428Y-84570857D01*
X148586857Y-84599428D01*
X148558285Y-84570857D01*
X148586857Y-84542285D01*
X148586857Y-84599428D01*
X148815428Y-83999428D02*
X149186857Y-83999428D01*
X148986857Y-84228000D01*
X149072571Y-84228000D01*
X149129714Y-84256571D01*
X149158285Y-84285142D01*
X149186857Y-84342285D01*
X149186857Y-84485142D01*
X149158285Y-84542285D01*
X149129714Y-84570857D01*
X149072571Y-84599428D01*
X148901142Y-84599428D01*
X148844000Y-84570857D01*
X148815428Y-84542285D01*
X149358285Y-83999428D02*
X149558285Y-84599428D01*
X149758285Y-83999428D01*
X148386857Y-81488000D02*
X148329714Y-81459428D01*
X148244000Y-81459428D01*
X148158285Y-81488000D01*
X148101142Y-81545142D01*
X148072571Y-81602285D01*
X148044000Y-81716571D01*
X148044000Y-81802285D01*
X148072571Y-81916571D01*
X148101142Y-81973714D01*
X148158285Y-82030857D01*
X148244000Y-82059428D01*
X148301142Y-82059428D01*
X148386857Y-82030857D01*
X148415428Y-82002285D01*
X148415428Y-81802285D01*
X148301142Y-81802285D01*
X148672571Y-82059428D02*
X148672571Y-81459428D01*
X149015428Y-82059428D01*
X149015428Y-81459428D01*
X149301142Y-82059428D02*
X149301142Y-81459428D01*
X149444000Y-81459428D01*
X149529714Y-81488000D01*
X149586857Y-81545142D01*
X149615428Y-81602285D01*
X149644000Y-81716571D01*
X149644000Y-81802285D01*
X149615428Y-81916571D01*
X149586857Y-81973714D01*
X149529714Y-82030857D01*
X149444000Y-82059428D01*
X149301142Y-82059428D01*
X148144000Y-79519428D02*
X148144000Y-78919428D01*
X148372571Y-78919428D01*
X148429714Y-78948000D01*
X148458285Y-78976571D01*
X148486857Y-79033714D01*
X148486857Y-79119428D01*
X148458285Y-79176571D01*
X148429714Y-79205142D01*
X148372571Y-79233714D01*
X148144000Y-79233714D01*
X148715428Y-79348000D02*
X149001142Y-79348000D01*
X148658285Y-79519428D02*
X148858285Y-78919428D01*
X149058285Y-79519428D01*
X149201142Y-78919428D02*
X149572571Y-78919428D01*
X149372571Y-79148000D01*
X149458285Y-79148000D01*
X149515428Y-79176571D01*
X149544000Y-79205142D01*
X149572571Y-79262285D01*
X149572571Y-79405142D01*
X149544000Y-79462285D01*
X149515428Y-79490857D01*
X149458285Y-79519428D01*
X149286857Y-79519428D01*
X149229714Y-79490857D01*
X149201142Y-79462285D01*
X153732000Y-140479428D02*
X153732000Y-139879428D01*
X153960571Y-139879428D01*
X154017714Y-139908000D01*
X154046285Y-139936571D01*
X154074857Y-139993714D01*
X154074857Y-140079428D01*
X154046285Y-140136571D01*
X154017714Y-140165142D01*
X153960571Y-140193714D01*
X153732000Y-140193714D01*
X154303428Y-140308000D02*
X154589142Y-140308000D01*
X154246285Y-140479428D02*
X154446285Y-139879428D01*
X154646285Y-140479428D01*
X154817714Y-139936571D02*
X154846285Y-139908000D01*
X154903428Y-139879428D01*
X155046285Y-139879428D01*
X155103428Y-139908000D01*
X155132000Y-139936571D01*
X155160571Y-139993714D01*
X155160571Y-140050857D01*
X155132000Y-140136571D01*
X154789142Y-140479428D01*
X155160571Y-140479428D01*
X154103428Y-137939428D02*
X153903428Y-137653714D01*
X153760571Y-137939428D02*
X153760571Y-137339428D01*
X153989142Y-137339428D01*
X154046285Y-137368000D01*
X154074857Y-137396571D01*
X154103428Y-137453714D01*
X154103428Y-137539428D01*
X154074857Y-137596571D01*
X154046285Y-137625142D01*
X153989142Y-137653714D01*
X153760571Y-137653714D01*
X154274857Y-137339428D02*
X154617714Y-137339428D01*
X154446285Y-137939428D02*
X154446285Y-137339428D01*
X154789142Y-137910857D02*
X154874857Y-137939428D01*
X155017714Y-137939428D01*
X155074857Y-137910857D01*
X155103428Y-137882285D01*
X155132000Y-137825142D01*
X155132000Y-137768000D01*
X155103428Y-137710857D01*
X155074857Y-137682285D01*
X155017714Y-137653714D01*
X154903428Y-137625142D01*
X154846285Y-137596571D01*
X154817714Y-137568000D01*
X154789142Y-137510857D01*
X154789142Y-137453714D01*
X154817714Y-137396571D01*
X154846285Y-137368000D01*
X154903428Y-137339428D01*
X155046285Y-137339428D01*
X155132000Y-137368000D01*
X153732000Y-135399428D02*
X153732000Y-134799428D01*
X153960571Y-134799428D01*
X154017714Y-134828000D01*
X154046285Y-134856571D01*
X154074857Y-134913714D01*
X154074857Y-134999428D01*
X154046285Y-135056571D01*
X154017714Y-135085142D01*
X153960571Y-135113714D01*
X153732000Y-135113714D01*
X154303428Y-135228000D02*
X154589142Y-135228000D01*
X154246285Y-135399428D02*
X154446285Y-134799428D01*
X154646285Y-135399428D01*
X154960571Y-134799428D02*
X155017714Y-134799428D01*
X155074857Y-134828000D01*
X155103428Y-134856571D01*
X155132000Y-134913714D01*
X155160571Y-135028000D01*
X155160571Y-135170857D01*
X155132000Y-135285142D01*
X155103428Y-135342285D01*
X155074857Y-135370857D01*
X155017714Y-135399428D01*
X154960571Y-135399428D01*
X154903428Y-135370857D01*
X154874857Y-135342285D01*
X154846285Y-135285142D01*
X154817714Y-135170857D01*
X154817714Y-135028000D01*
X154846285Y-134913714D01*
X154874857Y-134856571D01*
X154903428Y-134828000D01*
X154960571Y-134799428D01*
X153374857Y-132259428D02*
X153574857Y-132859428D01*
X153774857Y-132259428D01*
X153974857Y-132859428D02*
X153974857Y-132259428D01*
X154117714Y-132259428D01*
X154203428Y-132288000D01*
X154260571Y-132345142D01*
X154289142Y-132402285D01*
X154317714Y-132516571D01*
X154317714Y-132602285D01*
X154289142Y-132716571D01*
X154260571Y-132773714D01*
X154203428Y-132830857D01*
X154117714Y-132859428D01*
X153974857Y-132859428D01*
X154574857Y-132859428D02*
X154574857Y-132259428D01*
X154717714Y-132259428D01*
X154803428Y-132288000D01*
X154860571Y-132345142D01*
X154889142Y-132402285D01*
X154917714Y-132516571D01*
X154917714Y-132602285D01*
X154889142Y-132716571D01*
X154860571Y-132773714D01*
X154803428Y-132830857D01*
X154717714Y-132859428D01*
X154574857Y-132859428D01*
X155146285Y-132688000D02*
X155432000Y-132688000D01*
X155089142Y-132859428D02*
X155289142Y-132259428D01*
X155489142Y-132859428D01*
X153374857Y-129719428D02*
X153574857Y-130319428D01*
X153774857Y-129719428D01*
X153974857Y-130319428D02*
X153974857Y-129719428D01*
X154117714Y-129719428D01*
X154203428Y-129748000D01*
X154260571Y-129805142D01*
X154289142Y-129862285D01*
X154317714Y-129976571D01*
X154317714Y-130062285D01*
X154289142Y-130176571D01*
X154260571Y-130233714D01*
X154203428Y-130290857D01*
X154117714Y-130319428D01*
X153974857Y-130319428D01*
X154574857Y-130319428D02*
X154574857Y-129719428D01*
X154717714Y-129719428D01*
X154803428Y-129748000D01*
X154860571Y-129805142D01*
X154889142Y-129862285D01*
X154917714Y-129976571D01*
X154917714Y-130062285D01*
X154889142Y-130176571D01*
X154860571Y-130233714D01*
X154803428Y-130290857D01*
X154717714Y-130319428D01*
X154574857Y-130319428D01*
X155146285Y-130148000D02*
X155432000Y-130148000D01*
X155089142Y-130319428D02*
X155289142Y-129719428D01*
X155489142Y-130319428D01*
X153974857Y-127208000D02*
X153917714Y-127179428D01*
X153832000Y-127179428D01*
X153746285Y-127208000D01*
X153689142Y-127265142D01*
X153660571Y-127322285D01*
X153632000Y-127436571D01*
X153632000Y-127522285D01*
X153660571Y-127636571D01*
X153689142Y-127693714D01*
X153746285Y-127750857D01*
X153832000Y-127779428D01*
X153889142Y-127779428D01*
X153974857Y-127750857D01*
X154003428Y-127722285D01*
X154003428Y-127522285D01*
X153889142Y-127522285D01*
X154260571Y-127779428D02*
X154260571Y-127179428D01*
X154603428Y-127779428D01*
X154603428Y-127179428D01*
X154889142Y-127779428D02*
X154889142Y-127179428D01*
X155032000Y-127179428D01*
X155117714Y-127208000D01*
X155174857Y-127265142D01*
X155203428Y-127322285D01*
X155232000Y-127436571D01*
X155232000Y-127522285D01*
X155203428Y-127636571D01*
X155174857Y-127693714D01*
X155117714Y-127750857D01*
X155032000Y-127779428D01*
X154889142Y-127779428D01*
X153546285Y-124639428D02*
X153917714Y-124639428D01*
X153717714Y-124868000D01*
X153803428Y-124868000D01*
X153860571Y-124896571D01*
X153889142Y-124925142D01*
X153917714Y-124982285D01*
X153917714Y-125125142D01*
X153889142Y-125182285D01*
X153860571Y-125210857D01*
X153803428Y-125239428D01*
X153632000Y-125239428D01*
X153574857Y-125210857D01*
X153546285Y-125182285D01*
X154174857Y-125182285D02*
X154203428Y-125210857D01*
X154174857Y-125239428D01*
X154146285Y-125210857D01*
X154174857Y-125182285D01*
X154174857Y-125239428D01*
X154403428Y-124639428D02*
X154774857Y-124639428D01*
X154574857Y-124868000D01*
X154660571Y-124868000D01*
X154717714Y-124896571D01*
X154746285Y-124925142D01*
X154774857Y-124982285D01*
X154774857Y-125125142D01*
X154746285Y-125182285D01*
X154717714Y-125210857D01*
X154660571Y-125239428D01*
X154489142Y-125239428D01*
X154432000Y-125210857D01*
X154403428Y-125182285D01*
X154946285Y-124639428D02*
X155146285Y-125239428D01*
X155346285Y-124639428D01*
X153689142Y-122699428D02*
X153689142Y-122099428D01*
X153917714Y-122099428D01*
X153974857Y-122128000D01*
X154003428Y-122156571D01*
X154032000Y-122213714D01*
X154032000Y-122299428D01*
X154003428Y-122356571D01*
X153974857Y-122385142D01*
X153917714Y-122413714D01*
X153689142Y-122413714D01*
X154632000Y-122642285D02*
X154603428Y-122670857D01*
X154517714Y-122699428D01*
X154460571Y-122699428D01*
X154374857Y-122670857D01*
X154317714Y-122613714D01*
X154289142Y-122556571D01*
X154260571Y-122442285D01*
X154260571Y-122356571D01*
X154289142Y-122242285D01*
X154317714Y-122185142D01*
X154374857Y-122128000D01*
X154460571Y-122099428D01*
X154517714Y-122099428D01*
X154603428Y-122128000D01*
X154632000Y-122156571D01*
X154832000Y-122099428D02*
X155203428Y-122099428D01*
X155003428Y-122328000D01*
X155089142Y-122328000D01*
X155146285Y-122356571D01*
X155174857Y-122385142D01*
X155203428Y-122442285D01*
X155203428Y-122585142D01*
X155174857Y-122642285D01*
X155146285Y-122670857D01*
X155089142Y-122699428D01*
X154917714Y-122699428D01*
X154860571Y-122670857D01*
X154832000Y-122642285D01*
X153689142Y-120159428D02*
X153689142Y-119559428D01*
X153917714Y-119559428D01*
X153974857Y-119588000D01*
X154003428Y-119616571D01*
X154032000Y-119673714D01*
X154032000Y-119759428D01*
X154003428Y-119816571D01*
X153974857Y-119845142D01*
X153917714Y-119873714D01*
X153689142Y-119873714D01*
X154632000Y-120102285D02*
X154603428Y-120130857D01*
X154517714Y-120159428D01*
X154460571Y-120159428D01*
X154374857Y-120130857D01*
X154317714Y-120073714D01*
X154289142Y-120016571D01*
X154260571Y-119902285D01*
X154260571Y-119816571D01*
X154289142Y-119702285D01*
X154317714Y-119645142D01*
X154374857Y-119588000D01*
X154460571Y-119559428D01*
X154517714Y-119559428D01*
X154603428Y-119588000D01*
X154632000Y-119616571D01*
X154860571Y-119616571D02*
X154889142Y-119588000D01*
X154946285Y-119559428D01*
X155089142Y-119559428D01*
X155146285Y-119588000D01*
X155174857Y-119616571D01*
X155203428Y-119673714D01*
X155203428Y-119730857D01*
X155174857Y-119816571D01*
X154832000Y-120159428D01*
X155203428Y-120159428D01*
X153689142Y-117619428D02*
X153689142Y-117019428D01*
X153917714Y-117019428D01*
X153974857Y-117048000D01*
X154003428Y-117076571D01*
X154032000Y-117133714D01*
X154032000Y-117219428D01*
X154003428Y-117276571D01*
X153974857Y-117305142D01*
X153917714Y-117333714D01*
X153689142Y-117333714D01*
X154632000Y-117562285D02*
X154603428Y-117590857D01*
X154517714Y-117619428D01*
X154460571Y-117619428D01*
X154374857Y-117590857D01*
X154317714Y-117533714D01*
X154289142Y-117476571D01*
X154260571Y-117362285D01*
X154260571Y-117276571D01*
X154289142Y-117162285D01*
X154317714Y-117105142D01*
X154374857Y-117048000D01*
X154460571Y-117019428D01*
X154517714Y-117019428D01*
X154603428Y-117048000D01*
X154632000Y-117076571D01*
X155203428Y-117619428D02*
X154860571Y-117619428D01*
X155032000Y-117619428D02*
X155032000Y-117019428D01*
X154974857Y-117105142D01*
X154917714Y-117162285D01*
X154860571Y-117190857D01*
X153689142Y-115079428D02*
X153689142Y-114479428D01*
X153917714Y-114479428D01*
X153974857Y-114508000D01*
X154003428Y-114536571D01*
X154032000Y-114593714D01*
X154032000Y-114679428D01*
X154003428Y-114736571D01*
X153974857Y-114765142D01*
X153917714Y-114793714D01*
X153689142Y-114793714D01*
X154632000Y-115022285D02*
X154603428Y-115050857D01*
X154517714Y-115079428D01*
X154460571Y-115079428D01*
X154374857Y-115050857D01*
X154317714Y-114993714D01*
X154289142Y-114936571D01*
X154260571Y-114822285D01*
X154260571Y-114736571D01*
X154289142Y-114622285D01*
X154317714Y-114565142D01*
X154374857Y-114508000D01*
X154460571Y-114479428D01*
X154517714Y-114479428D01*
X154603428Y-114508000D01*
X154632000Y-114536571D01*
X155003428Y-114479428D02*
X155060571Y-114479428D01*
X155117714Y-114508000D01*
X155146285Y-114536571D01*
X155174857Y-114593714D01*
X155203428Y-114708000D01*
X155203428Y-114850857D01*
X155174857Y-114965142D01*
X155146285Y-115022285D01*
X155117714Y-115050857D01*
X155060571Y-115079428D01*
X155003428Y-115079428D01*
X154946285Y-115050857D01*
X154917714Y-115022285D01*
X154889142Y-114965142D01*
X154860571Y-114850857D01*
X154860571Y-114708000D01*
X154889142Y-114593714D01*
X154917714Y-114536571D01*
X154946285Y-114508000D01*
X155003428Y-114479428D01*
X154103428Y-112539428D02*
X153903428Y-112253714D01*
X153760571Y-112539428D02*
X153760571Y-111939428D01*
X153989142Y-111939428D01*
X154046285Y-111968000D01*
X154074857Y-111996571D01*
X154103428Y-112053714D01*
X154103428Y-112139428D01*
X154074857Y-112196571D01*
X154046285Y-112225142D01*
X153989142Y-112253714D01*
X153760571Y-112253714D01*
X154332000Y-112510857D02*
X154417714Y-112539428D01*
X154560571Y-112539428D01*
X154617714Y-112510857D01*
X154646285Y-112482285D01*
X154674857Y-112425142D01*
X154674857Y-112368000D01*
X154646285Y-112310857D01*
X154617714Y-112282285D01*
X154560571Y-112253714D01*
X154446285Y-112225142D01*
X154389142Y-112196571D01*
X154360571Y-112168000D01*
X154332000Y-112110857D01*
X154332000Y-112053714D01*
X154360571Y-111996571D01*
X154389142Y-111968000D01*
X154446285Y-111939428D01*
X154589142Y-111939428D01*
X154674857Y-111968000D01*
X154846285Y-111939428D02*
X155189142Y-111939428D01*
X155017714Y-112539428D02*
X155017714Y-111939428D01*
X153960571Y-109999428D02*
X153960571Y-109399428D01*
X154303428Y-109999428D01*
X154303428Y-109399428D01*
X154932000Y-109942285D02*
X154903428Y-109970857D01*
X154817714Y-109999428D01*
X154760571Y-109999428D01*
X154674857Y-109970857D01*
X154617714Y-109913714D01*
X154589142Y-109856571D01*
X154560571Y-109742285D01*
X154560571Y-109656571D01*
X154589142Y-109542285D01*
X154617714Y-109485142D01*
X154674857Y-109428000D01*
X154760571Y-109399428D01*
X154817714Y-109399428D01*
X154903428Y-109428000D01*
X154932000Y-109456571D01*
X153960571Y-107459428D02*
X153960571Y-106859428D01*
X154303428Y-107459428D01*
X154303428Y-106859428D01*
X154932000Y-107402285D02*
X154903428Y-107430857D01*
X154817714Y-107459428D01*
X154760571Y-107459428D01*
X154674857Y-107430857D01*
X154617714Y-107373714D01*
X154589142Y-107316571D01*
X154560571Y-107202285D01*
X154560571Y-107116571D01*
X154589142Y-107002285D01*
X154617714Y-106945142D01*
X154674857Y-106888000D01*
X154760571Y-106859428D01*
X154817714Y-106859428D01*
X154903428Y-106888000D01*
X154932000Y-106916571D01*
X153546285Y-104319428D02*
X153917714Y-104319428D01*
X153717714Y-104548000D01*
X153803428Y-104548000D01*
X153860571Y-104576571D01*
X153889142Y-104605142D01*
X153917714Y-104662285D01*
X153917714Y-104805142D01*
X153889142Y-104862285D01*
X153860571Y-104890857D01*
X153803428Y-104919428D01*
X153632000Y-104919428D01*
X153574857Y-104890857D01*
X153546285Y-104862285D01*
X154174857Y-104862285D02*
X154203428Y-104890857D01*
X154174857Y-104919428D01*
X154146285Y-104890857D01*
X154174857Y-104862285D01*
X154174857Y-104919428D01*
X154403428Y-104319428D02*
X154774857Y-104319428D01*
X154574857Y-104548000D01*
X154660571Y-104548000D01*
X154717714Y-104576571D01*
X154746285Y-104605142D01*
X154774857Y-104662285D01*
X154774857Y-104805142D01*
X154746285Y-104862285D01*
X154717714Y-104890857D01*
X154660571Y-104919428D01*
X154489142Y-104919428D01*
X154432000Y-104890857D01*
X154403428Y-104862285D01*
X154946285Y-104319428D02*
X155146285Y-104919428D01*
X155346285Y-104319428D01*
X153974857Y-101808000D02*
X153917714Y-101779428D01*
X153832000Y-101779428D01*
X153746285Y-101808000D01*
X153689142Y-101865142D01*
X153660571Y-101922285D01*
X153632000Y-102036571D01*
X153632000Y-102122285D01*
X153660571Y-102236571D01*
X153689142Y-102293714D01*
X153746285Y-102350857D01*
X153832000Y-102379428D01*
X153889142Y-102379428D01*
X153974857Y-102350857D01*
X154003428Y-102322285D01*
X154003428Y-102122285D01*
X153889142Y-102122285D01*
X154260571Y-102379428D02*
X154260571Y-101779428D01*
X154603428Y-102379428D01*
X154603428Y-101779428D01*
X154889142Y-102379428D02*
X154889142Y-101779428D01*
X155032000Y-101779428D01*
X155117714Y-101808000D01*
X155174857Y-101865142D01*
X155203428Y-101922285D01*
X155232000Y-102036571D01*
X155232000Y-102122285D01*
X155203428Y-102236571D01*
X155174857Y-102293714D01*
X155117714Y-102350857D01*
X155032000Y-102379428D01*
X154889142Y-102379428D01*
X153960571Y-99839428D02*
X153960571Y-99239428D01*
X154303428Y-99839428D01*
X154303428Y-99239428D01*
X154932000Y-99782285D02*
X154903428Y-99810857D01*
X154817714Y-99839428D01*
X154760571Y-99839428D01*
X154674857Y-99810857D01*
X154617714Y-99753714D01*
X154589142Y-99696571D01*
X154560571Y-99582285D01*
X154560571Y-99496571D01*
X154589142Y-99382285D01*
X154617714Y-99325142D01*
X154674857Y-99268000D01*
X154760571Y-99239428D01*
X154817714Y-99239428D01*
X154903428Y-99268000D01*
X154932000Y-99296571D01*
X153960571Y-97299428D02*
X153960571Y-96699428D01*
X154303428Y-97299428D01*
X154303428Y-96699428D01*
X154932000Y-97242285D02*
X154903428Y-97270857D01*
X154817714Y-97299428D01*
X154760571Y-97299428D01*
X154674857Y-97270857D01*
X154617714Y-97213714D01*
X154589142Y-97156571D01*
X154560571Y-97042285D01*
X154560571Y-96956571D01*
X154589142Y-96842285D01*
X154617714Y-96785142D01*
X154674857Y-96728000D01*
X154760571Y-96699428D01*
X154817714Y-96699428D01*
X154903428Y-96728000D01*
X154932000Y-96756571D01*
X153403428Y-94759428D02*
X153403428Y-94159428D01*
X153632000Y-94159428D01*
X153689142Y-94188000D01*
X153717714Y-94216571D01*
X153746285Y-94273714D01*
X153746285Y-94359428D01*
X153717714Y-94416571D01*
X153689142Y-94445142D01*
X153632000Y-94473714D01*
X153403428Y-94473714D01*
X154346285Y-94702285D02*
X154317714Y-94730857D01*
X154232000Y-94759428D01*
X154174857Y-94759428D01*
X154089142Y-94730857D01*
X154032000Y-94673714D01*
X154003428Y-94616571D01*
X153974857Y-94502285D01*
X153974857Y-94416571D01*
X154003428Y-94302285D01*
X154032000Y-94245142D01*
X154089142Y-94188000D01*
X154174857Y-94159428D01*
X154232000Y-94159428D01*
X154317714Y-94188000D01*
X154346285Y-94216571D01*
X154917714Y-94759428D02*
X154574857Y-94759428D01*
X154746285Y-94759428D02*
X154746285Y-94159428D01*
X154689142Y-94245142D01*
X154632000Y-94302285D01*
X154574857Y-94330857D01*
X155117714Y-94159428D02*
X155489142Y-94159428D01*
X155289142Y-94388000D01*
X155374857Y-94388000D01*
X155432000Y-94416571D01*
X155460571Y-94445142D01*
X155489142Y-94502285D01*
X155489142Y-94645142D01*
X155460571Y-94702285D01*
X155432000Y-94730857D01*
X155374857Y-94759428D01*
X155203428Y-94759428D01*
X155146285Y-94730857D01*
X155117714Y-94702285D01*
X153546285Y-91619428D02*
X153917714Y-91619428D01*
X153717714Y-91848000D01*
X153803428Y-91848000D01*
X153860571Y-91876571D01*
X153889142Y-91905142D01*
X153917714Y-91962285D01*
X153917714Y-92105142D01*
X153889142Y-92162285D01*
X153860571Y-92190857D01*
X153803428Y-92219428D01*
X153632000Y-92219428D01*
X153574857Y-92190857D01*
X153546285Y-92162285D01*
X154174857Y-92162285D02*
X154203428Y-92190857D01*
X154174857Y-92219428D01*
X154146285Y-92190857D01*
X154174857Y-92162285D01*
X154174857Y-92219428D01*
X154403428Y-91619428D02*
X154774857Y-91619428D01*
X154574857Y-91848000D01*
X154660571Y-91848000D01*
X154717714Y-91876571D01*
X154746285Y-91905142D01*
X154774857Y-91962285D01*
X154774857Y-92105142D01*
X154746285Y-92162285D01*
X154717714Y-92190857D01*
X154660571Y-92219428D01*
X154489142Y-92219428D01*
X154432000Y-92190857D01*
X154403428Y-92162285D01*
X154946285Y-91619428D02*
X155146285Y-92219428D01*
X155346285Y-91619428D01*
X153717714Y-89679428D02*
X153717714Y-89079428D01*
X153946285Y-89079428D01*
X154003428Y-89108000D01*
X154032000Y-89136571D01*
X154060571Y-89193714D01*
X154060571Y-89279428D01*
X154032000Y-89336571D01*
X154003428Y-89365142D01*
X153946285Y-89393714D01*
X153717714Y-89393714D01*
X154317714Y-89365142D02*
X154517714Y-89365142D01*
X154603428Y-89679428D02*
X154317714Y-89679428D01*
X154317714Y-89079428D01*
X154603428Y-89079428D01*
X155117714Y-89079428D02*
X155003428Y-89079428D01*
X154946285Y-89108000D01*
X154917714Y-89136571D01*
X154860571Y-89222285D01*
X154832000Y-89336571D01*
X154832000Y-89565142D01*
X154860571Y-89622285D01*
X154889142Y-89650857D01*
X154946285Y-89679428D01*
X155060571Y-89679428D01*
X155117714Y-89650857D01*
X155146285Y-89622285D01*
X155174857Y-89565142D01*
X155174857Y-89422285D01*
X155146285Y-89365142D01*
X155117714Y-89336571D01*
X155060571Y-89308000D01*
X154946285Y-89308000D01*
X154889142Y-89336571D01*
X154860571Y-89365142D01*
X154832000Y-89422285D01*
X153717714Y-87139428D02*
X153717714Y-86539428D01*
X153946285Y-86539428D01*
X154003428Y-86568000D01*
X154032000Y-86596571D01*
X154060571Y-86653714D01*
X154060571Y-86739428D01*
X154032000Y-86796571D01*
X154003428Y-86825142D01*
X153946285Y-86853714D01*
X153717714Y-86853714D01*
X154317714Y-86825142D02*
X154517714Y-86825142D01*
X154603428Y-87139428D02*
X154317714Y-87139428D01*
X154317714Y-86539428D01*
X154603428Y-86539428D01*
X155146285Y-86539428D02*
X154860571Y-86539428D01*
X154832000Y-86825142D01*
X154860571Y-86796571D01*
X154917714Y-86768000D01*
X155060571Y-86768000D01*
X155117714Y-86796571D01*
X155146285Y-86825142D01*
X155174857Y-86882285D01*
X155174857Y-87025142D01*
X155146285Y-87082285D01*
X155117714Y-87110857D01*
X155060571Y-87139428D01*
X154917714Y-87139428D01*
X154860571Y-87110857D01*
X154832000Y-87082285D01*
X153717714Y-84599428D02*
X153717714Y-83999428D01*
X153946285Y-83999428D01*
X154003428Y-84028000D01*
X154032000Y-84056571D01*
X154060571Y-84113714D01*
X154060571Y-84199428D01*
X154032000Y-84256571D01*
X154003428Y-84285142D01*
X153946285Y-84313714D01*
X153717714Y-84313714D01*
X154317714Y-84285142D02*
X154517714Y-84285142D01*
X154603428Y-84599428D02*
X154317714Y-84599428D01*
X154317714Y-83999428D01*
X154603428Y-83999428D01*
X155117714Y-84199428D02*
X155117714Y-84599428D01*
X154974857Y-83970857D02*
X154832000Y-84399428D01*
X155203428Y-84399428D01*
X153717714Y-82059428D02*
X153717714Y-81459428D01*
X153946285Y-81459428D01*
X154003428Y-81488000D01*
X154032000Y-81516571D01*
X154060571Y-81573714D01*
X154060571Y-81659428D01*
X154032000Y-81716571D01*
X154003428Y-81745142D01*
X153946285Y-81773714D01*
X153717714Y-81773714D01*
X154317714Y-81745142D02*
X154517714Y-81745142D01*
X154603428Y-82059428D02*
X154317714Y-82059428D01*
X154317714Y-81459428D01*
X154603428Y-81459428D01*
X154803428Y-81459428D02*
X155174857Y-81459428D01*
X154974857Y-81688000D01*
X155060571Y-81688000D01*
X155117714Y-81716571D01*
X155146285Y-81745142D01*
X155174857Y-81802285D01*
X155174857Y-81945142D01*
X155146285Y-82002285D01*
X155117714Y-82030857D01*
X155060571Y-82059428D01*
X154889142Y-82059428D01*
X154832000Y-82030857D01*
X154803428Y-82002285D01*
X153717714Y-79519428D02*
X153717714Y-78919428D01*
X153946285Y-78919428D01*
X154003428Y-78948000D01*
X154032000Y-78976571D01*
X154060571Y-79033714D01*
X154060571Y-79119428D01*
X154032000Y-79176571D01*
X154003428Y-79205142D01*
X153946285Y-79233714D01*
X153717714Y-79233714D01*
X154317714Y-79205142D02*
X154517714Y-79205142D01*
X154603428Y-79519428D02*
X154317714Y-79519428D01*
X154317714Y-78919428D01*
X154603428Y-78919428D01*
X154832000Y-78976571D02*
X154860571Y-78948000D01*
X154917714Y-78919428D01*
X155060571Y-78919428D01*
X155117714Y-78948000D01*
X155146285Y-78976571D01*
X155174857Y-79033714D01*
X155174857Y-79090857D01*
X155146285Y-79176571D01*
X154803428Y-79519428D01*
X155174857Y-79519428D01*
D12*
X166243047Y-53919428D02*
X167004952Y-53919428D01*
X157099047Y-53919428D02*
X157860952Y-53919428D01*
X157480000Y-54300380D02*
X157480000Y-53538476D01*
X206025714Y-57348380D02*
X205454285Y-57348380D01*
X205740000Y-57348380D02*
X205740000Y-56348380D01*
X205644761Y-56491238D01*
X205549523Y-56586476D01*
X205454285Y-56634095D01*
X200104380Y-56348380D02*
X200199619Y-56348380D01*
X200294857Y-56396000D01*
X200342476Y-56443619D01*
X200390095Y-56538857D01*
X200437714Y-56729333D01*
X200437714Y-56967428D01*
X200390095Y-57157904D01*
X200342476Y-57253142D01*
X200294857Y-57300761D01*
X200199619Y-57348380D01*
X200104380Y-57348380D01*
X200009142Y-57300761D01*
X199961523Y-57253142D01*
X199913904Y-57157904D01*
X199866285Y-56967428D01*
X199866285Y-56729333D01*
X199913904Y-56538857D01*
X199961523Y-56443619D01*
X200009142Y-56396000D01*
X200104380Y-56348380D01*
D13*
X168600000Y-77160000D02*
X171460000Y-77160000D01*
X171460000Y-77160000D02*
X171460000Y-75240000D01*
X171460000Y-75240000D02*
X168600000Y-75240000D01*
X171460000Y-78240000D02*
X168600000Y-78240000D01*
X171460000Y-80160000D02*
X171460000Y-78240000D01*
X168600000Y-80160000D02*
X171460000Y-80160000D01*
X208710000Y-67061252D02*
X208710000Y-66538748D01*
X207290000Y-67061252D02*
X207290000Y-66538748D01*
X205710000Y-68610000D02*
X205710000Y-65750000D01*
X203790000Y-68610000D02*
X205710000Y-68610000D01*
X203790000Y-65750000D02*
X203790000Y-68610000D01*
X144248000Y-68580000D02*
G75*
G03X144248000Y-68580000I-1500000J0D01*
G01*
X144248000Y-73152000D02*
G75*
G03X144248000Y-73152000I-1500000J0D01*
G01*
X144248000Y-64516000D02*
G75*
G03X144248000Y-64516000I-1500000J0D01*
G01*
X212658000Y-141538000D02*
X211328000Y-141538000D01*
X212658000Y-140208000D02*
X212658000Y-141538000D01*
X212658000Y-138938000D02*
X209998000Y-138938000D01*
X209998000Y-138938000D02*
X209998000Y-77918000D01*
X212658000Y-138938000D02*
X212658000Y-77918000D01*
X212658000Y-77918000D02*
X209998000Y-77918000D01*
X171816437Y-91540529D02*
X172185903Y-91909995D01*
X172820529Y-90536437D02*
X173189995Y-90905903D01*
X174573221Y-94297313D02*
X174942687Y-94666779D01*
X175577313Y-93293221D02*
X175946779Y-93662687D01*
X182639025Y-95087916D02*
X181673824Y-94122716D01*
X183134000Y-94592942D02*
X182639025Y-95087916D01*
X183628975Y-95087916D02*
X183134000Y-94592942D01*
X193189058Y-104648000D02*
X192694084Y-105142975D01*
X192694084Y-104153025D02*
X193189058Y-104648000D01*
X173078942Y-104648000D02*
X173573916Y-104153025D01*
X173573916Y-105142975D02*
X173078942Y-104648000D01*
X183134000Y-114703058D02*
X183628975Y-114208084D01*
X182639025Y-114208084D02*
X183134000Y-114703058D01*
X150054000Y-77918000D02*
X151384000Y-77918000D01*
X150054000Y-79248000D02*
X150054000Y-77918000D01*
X150054000Y-80518000D02*
X152714000Y-80518000D01*
X152714000Y-80518000D02*
X152714000Y-141538000D01*
X150054000Y-80518000D02*
X150054000Y-141538000D01*
X150054000Y-141538000D02*
X152714000Y-141538000D01*
X196394000Y-54094748D02*
X196394000Y-54617252D01*
X197814000Y-54094748D02*
X197814000Y-54617252D01*
X164746000Y-54248000D02*
X164746000Y-56108000D01*
X164346000Y-54248000D02*
X164746000Y-54248000D01*
X164346000Y-53848000D02*
X164346000Y-54248000D01*
X164746000Y-53848000D02*
X164346000Y-53848000D01*
X164746000Y-52638000D02*
X164746000Y-53848000D01*
X162036000Y-52638000D02*
X164746000Y-52638000D01*
X159326000Y-54248000D02*
X159326000Y-56108000D01*
X159726000Y-54248000D02*
X159326000Y-54248000D01*
X159726000Y-53848000D02*
X159726000Y-54248000D01*
X159326000Y-53848000D02*
X159726000Y-53848000D01*
X159326000Y-52638000D02*
X159326000Y-53848000D01*
X162036000Y-52638000D02*
X159326000Y-52638000D01*
X165146000Y-54648000D02*
X164746000Y-54648000D01*
X158926000Y-54648000D02*
X159326000Y-54648000D01*
X158626000Y-51938000D02*
X158626000Y-54238000D01*
X160926000Y-51938000D02*
X158626000Y-51938000D01*
X165146000Y-52238000D02*
X158926000Y-52238000D01*
X165146000Y-56108000D02*
X165146000Y-52238000D01*
X158926000Y-56108000D02*
X165146000Y-56108000D01*
X158926000Y-52238000D02*
X158926000Y-56108000D01*
X221079000Y-73672000D02*
X218539000Y-73672000D01*
X221079000Y-73672000D02*
X221079000Y-71132000D01*
X220829000Y-73422000D02*
X211479000Y-73422000D01*
X220829000Y-52562000D02*
X220829000Y-73422000D01*
X211479000Y-52562000D02*
X220829000Y-52562000D01*
X211479000Y-73422000D02*
X211479000Y-52562000D01*
X207070000Y-141532000D02*
X205740000Y-141532000D01*
X207070000Y-140202000D02*
X207070000Y-141532000D01*
X207070000Y-138932000D02*
X204410000Y-138932000D01*
X204410000Y-138932000D02*
X204410000Y-77912000D01*
X207070000Y-138932000D02*
X207070000Y-77912000D01*
X207070000Y-77912000D02*
X204410000Y-77912000D01*
X155642000Y-77918000D02*
X156972000Y-77918000D01*
X155642000Y-79248000D02*
X155642000Y-77918000D01*
X155642000Y-80518000D02*
X158302000Y-80518000D01*
X158302000Y-80518000D02*
X158302000Y-141538000D01*
X155642000Y-80518000D02*
X155642000Y-141538000D01*
X155642000Y-141538000D02*
X158302000Y-141538000D01*
X181026779Y-122237313D02*
X180657313Y-122606779D01*
X180022687Y-121233221D02*
X179653221Y-121602687D01*
D11*
X178208000Y-61537000D02*
X183483000Y-61537000D01*
X179483000Y-66937000D02*
X183483000Y-66937000D01*
D13*
X190048000Y-65802000D02*
X190048000Y-68662000D01*
X190048000Y-68662000D02*
X191968000Y-68662000D01*
X191968000Y-68662000D02*
X191968000Y-65802000D01*
X197110000Y-66585748D02*
X197110000Y-67108252D01*
X195690000Y-66585748D02*
X195690000Y-67108252D01*
X198090000Y-66538748D02*
X198090000Y-67061252D01*
X199510000Y-66538748D02*
X199510000Y-67061252D01*
X193473000Y-66585748D02*
X193473000Y-67108252D01*
X194893000Y-66585748D02*
X194893000Y-67108252D01*
X161873221Y-100393313D02*
X162242687Y-100762779D01*
X162877313Y-99389221D02*
X163246779Y-99758687D01*
X161238000Y-72382748D02*
X161238000Y-72905252D01*
X159818000Y-72382748D02*
X159818000Y-72905252D01*
X146273225Y-65839000D02*
X146273225Y-66339000D01*
X146023225Y-66089000D02*
X146523225Y-66089000D01*
X151429000Y-67280000D02*
X151429000Y-67848000D01*
X151389000Y-67046000D02*
X151389000Y-68082000D01*
X151349000Y-66887000D02*
X151349000Y-68241000D01*
X151309000Y-66759000D02*
X151309000Y-68369000D01*
X151269000Y-66649000D02*
X151269000Y-68479000D01*
X151229000Y-66553000D02*
X151229000Y-68575000D01*
X151189000Y-66466000D02*
X151189000Y-68662000D01*
X151149000Y-66386000D02*
X151149000Y-68742000D01*
X151109000Y-66313000D02*
X151109000Y-68815000D01*
X151069000Y-66245000D02*
X151069000Y-68883000D01*
X151029000Y-66181000D02*
X151029000Y-68947000D01*
X150989000Y-66121000D02*
X150989000Y-69007000D01*
X150949000Y-66064000D02*
X150949000Y-69064000D01*
X150909000Y-66010000D02*
X150909000Y-69118000D01*
X150869000Y-65959000D02*
X150869000Y-69169000D01*
X150829000Y-68604000D02*
X150829000Y-69217000D01*
X150829000Y-65911000D02*
X150829000Y-66524000D01*
X150789000Y-68604000D02*
X150789000Y-69263000D01*
X150789000Y-65865000D02*
X150789000Y-66524000D01*
X150749000Y-68604000D02*
X150749000Y-69307000D01*
X150749000Y-65821000D02*
X150749000Y-66524000D01*
X150709000Y-68604000D02*
X150709000Y-69349000D01*
X150709000Y-65779000D02*
X150709000Y-66524000D01*
X150669000Y-68604000D02*
X150669000Y-69390000D01*
X150669000Y-65738000D02*
X150669000Y-66524000D01*
X150629000Y-68604000D02*
X150629000Y-69428000D01*
X150629000Y-65700000D02*
X150629000Y-66524000D01*
X150589000Y-68604000D02*
X150589000Y-69465000D01*
X150589000Y-65663000D02*
X150589000Y-66524000D01*
X150549000Y-68604000D02*
X150549000Y-69501000D01*
X150549000Y-65627000D02*
X150549000Y-66524000D01*
X150509000Y-68604000D02*
X150509000Y-69535000D01*
X150509000Y-65593000D02*
X150509000Y-66524000D01*
X150469000Y-68604000D02*
X150469000Y-69568000D01*
X150469000Y-65560000D02*
X150469000Y-66524000D01*
X150429000Y-68604000D02*
X150429000Y-69599000D01*
X150429000Y-65529000D02*
X150429000Y-66524000D01*
X150389000Y-68604000D02*
X150389000Y-69629000D01*
X150389000Y-65499000D02*
X150389000Y-66524000D01*
X150349000Y-68604000D02*
X150349000Y-69659000D01*
X150349000Y-65469000D02*
X150349000Y-66524000D01*
X150309000Y-68604000D02*
X150309000Y-69686000D01*
X150309000Y-65442000D02*
X150309000Y-66524000D01*
X150269000Y-68604000D02*
X150269000Y-69713000D01*
X150269000Y-65415000D02*
X150269000Y-66524000D01*
X150229000Y-68604000D02*
X150229000Y-69739000D01*
X150229000Y-65389000D02*
X150229000Y-66524000D01*
X150189000Y-68604000D02*
X150189000Y-69764000D01*
X150189000Y-65364000D02*
X150189000Y-66524000D01*
X150149000Y-68604000D02*
X150149000Y-69788000D01*
X150149000Y-65340000D02*
X150149000Y-66524000D01*
X150109000Y-68604000D02*
X150109000Y-69811000D01*
X150109000Y-65317000D02*
X150109000Y-66524000D01*
X150069000Y-68604000D02*
X150069000Y-69832000D01*
X150069000Y-65296000D02*
X150069000Y-66524000D01*
X150029000Y-68604000D02*
X150029000Y-69854000D01*
X150029000Y-65274000D02*
X150029000Y-66524000D01*
X149989000Y-68604000D02*
X149989000Y-69874000D01*
X149989000Y-65254000D02*
X149989000Y-66524000D01*
X149949000Y-68604000D02*
X149949000Y-69893000D01*
X149949000Y-65235000D02*
X149949000Y-66524000D01*
X149909000Y-68604000D02*
X149909000Y-69912000D01*
X149909000Y-65216000D02*
X149909000Y-66524000D01*
X149869000Y-68604000D02*
X149869000Y-69929000D01*
X149869000Y-65199000D02*
X149869000Y-66524000D01*
X149829000Y-68604000D02*
X149829000Y-69946000D01*
X149829000Y-65182000D02*
X149829000Y-66524000D01*
X149789000Y-68604000D02*
X149789000Y-69962000D01*
X149789000Y-65166000D02*
X149789000Y-66524000D01*
X149749000Y-68604000D02*
X149749000Y-69978000D01*
X149749000Y-65150000D02*
X149749000Y-66524000D01*
X149709000Y-68604000D02*
X149709000Y-69992000D01*
X149709000Y-65136000D02*
X149709000Y-66524000D01*
X149669000Y-68604000D02*
X149669000Y-70006000D01*
X149669000Y-65122000D02*
X149669000Y-66524000D01*
X149629000Y-68604000D02*
X149629000Y-70019000D01*
X149629000Y-65109000D02*
X149629000Y-66524000D01*
X149589000Y-68604000D02*
X149589000Y-70032000D01*
X149589000Y-65096000D02*
X149589000Y-66524000D01*
X149549000Y-68604000D02*
X149549000Y-70044000D01*
X149549000Y-65084000D02*
X149549000Y-66524000D01*
X149508000Y-68604000D02*
X149508000Y-70055000D01*
X149508000Y-65073000D02*
X149508000Y-66524000D01*
X149468000Y-68604000D02*
X149468000Y-70065000D01*
X149468000Y-65063000D02*
X149468000Y-66524000D01*
X149428000Y-68604000D02*
X149428000Y-70075000D01*
X149428000Y-65053000D02*
X149428000Y-66524000D01*
X149388000Y-68604000D02*
X149388000Y-70084000D01*
X149388000Y-65044000D02*
X149388000Y-66524000D01*
X149348000Y-68604000D02*
X149348000Y-70092000D01*
X149348000Y-65036000D02*
X149348000Y-66524000D01*
X149308000Y-68604000D02*
X149308000Y-70100000D01*
X149308000Y-65028000D02*
X149308000Y-66524000D01*
X149268000Y-68604000D02*
X149268000Y-70107000D01*
X149268000Y-65021000D02*
X149268000Y-66524000D01*
X149228000Y-68604000D02*
X149228000Y-70114000D01*
X149228000Y-65014000D02*
X149228000Y-66524000D01*
X149188000Y-68604000D02*
X149188000Y-70120000D01*
X149188000Y-65008000D02*
X149188000Y-66524000D01*
X149148000Y-68604000D02*
X149148000Y-70125000D01*
X149148000Y-65003000D02*
X149148000Y-66524000D01*
X149108000Y-68604000D02*
X149108000Y-70129000D01*
X149108000Y-64999000D02*
X149108000Y-66524000D01*
X149068000Y-68604000D02*
X149068000Y-70133000D01*
X149068000Y-64995000D02*
X149068000Y-66524000D01*
X149028000Y-68604000D02*
X149028000Y-70137000D01*
X149028000Y-64991000D02*
X149028000Y-66524000D01*
X148988000Y-68604000D02*
X148988000Y-70140000D01*
X148988000Y-64988000D02*
X148988000Y-66524000D01*
X148948000Y-68604000D02*
X148948000Y-70142000D01*
X148948000Y-64986000D02*
X148948000Y-66524000D01*
X148908000Y-68604000D02*
X148908000Y-70143000D01*
X148908000Y-64985000D02*
X148908000Y-66524000D01*
X148868000Y-64984000D02*
X148868000Y-66524000D01*
X148868000Y-68604000D02*
X148868000Y-70144000D01*
X148828000Y-64984000D02*
X148828000Y-66524000D01*
X148828000Y-68604000D02*
X148828000Y-70144000D01*
X151448000Y-67564000D02*
G75*
G03X151448000Y-67564000I-2620000J0D01*
G01*
X193263000Y-55372000D02*
G75*
G03X193263000Y-55372000I-2620000J0D01*
G01*
X190643000Y-54332000D02*
X190643000Y-52792000D01*
X190643000Y-57952000D02*
X190643000Y-56412000D01*
X190603000Y-54332000D02*
X190603000Y-52792000D01*
X190603000Y-57952000D02*
X190603000Y-56412000D01*
X190563000Y-57951000D02*
X190563000Y-56412000D01*
X190563000Y-54332000D02*
X190563000Y-52793000D01*
X190523000Y-57950000D02*
X190523000Y-56412000D01*
X190523000Y-54332000D02*
X190523000Y-52794000D01*
X190483000Y-57948000D02*
X190483000Y-56412000D01*
X190483000Y-54332000D02*
X190483000Y-52796000D01*
X190443000Y-57945000D02*
X190443000Y-56412000D01*
X190443000Y-54332000D02*
X190443000Y-52799000D01*
X190403000Y-57941000D02*
X190403000Y-56412000D01*
X190403000Y-54332000D02*
X190403000Y-52803000D01*
X190363000Y-57937000D02*
X190363000Y-56412000D01*
X190363000Y-54332000D02*
X190363000Y-52807000D01*
X190323000Y-57933000D02*
X190323000Y-56412000D01*
X190323000Y-54332000D02*
X190323000Y-52811000D01*
X190283000Y-57928000D02*
X190283000Y-56412000D01*
X190283000Y-54332000D02*
X190283000Y-52816000D01*
X190243000Y-57922000D02*
X190243000Y-56412000D01*
X190243000Y-54332000D02*
X190243000Y-52822000D01*
X190203000Y-57915000D02*
X190203000Y-56412000D01*
X190203000Y-54332000D02*
X190203000Y-52829000D01*
X190163000Y-57908000D02*
X190163000Y-56412000D01*
X190163000Y-54332000D02*
X190163000Y-52836000D01*
X190123000Y-57900000D02*
X190123000Y-56412000D01*
X190123000Y-54332000D02*
X190123000Y-52844000D01*
X190083000Y-57892000D02*
X190083000Y-56412000D01*
X190083000Y-54332000D02*
X190083000Y-52852000D01*
X190043000Y-57883000D02*
X190043000Y-56412000D01*
X190043000Y-54332000D02*
X190043000Y-52861000D01*
X190003000Y-57873000D02*
X190003000Y-56412000D01*
X190003000Y-54332000D02*
X190003000Y-52871000D01*
X189963000Y-57863000D02*
X189963000Y-56412000D01*
X189963000Y-54332000D02*
X189963000Y-52881000D01*
X189922000Y-57852000D02*
X189922000Y-56412000D01*
X189922000Y-54332000D02*
X189922000Y-52892000D01*
X189882000Y-57840000D02*
X189882000Y-56412000D01*
X189882000Y-54332000D02*
X189882000Y-52904000D01*
X189842000Y-57827000D02*
X189842000Y-56412000D01*
X189842000Y-54332000D02*
X189842000Y-52917000D01*
X189802000Y-57814000D02*
X189802000Y-56412000D01*
X189802000Y-54332000D02*
X189802000Y-52930000D01*
X189762000Y-57800000D02*
X189762000Y-56412000D01*
X189762000Y-54332000D02*
X189762000Y-52944000D01*
X189722000Y-57786000D02*
X189722000Y-56412000D01*
X189722000Y-54332000D02*
X189722000Y-52958000D01*
X189682000Y-57770000D02*
X189682000Y-56412000D01*
X189682000Y-54332000D02*
X189682000Y-52974000D01*
X189642000Y-57754000D02*
X189642000Y-56412000D01*
X189642000Y-54332000D02*
X189642000Y-52990000D01*
X189602000Y-57737000D02*
X189602000Y-56412000D01*
X189602000Y-54332000D02*
X189602000Y-53007000D01*
X189562000Y-57720000D02*
X189562000Y-56412000D01*
X189562000Y-54332000D02*
X189562000Y-53024000D01*
X189522000Y-57701000D02*
X189522000Y-56412000D01*
X189522000Y-54332000D02*
X189522000Y-53043000D01*
X189482000Y-57682000D02*
X189482000Y-56412000D01*
X189482000Y-54332000D02*
X189482000Y-53062000D01*
X189442000Y-57662000D02*
X189442000Y-56412000D01*
X189442000Y-54332000D02*
X189442000Y-53082000D01*
X189402000Y-57640000D02*
X189402000Y-56412000D01*
X189402000Y-54332000D02*
X189402000Y-53104000D01*
X189362000Y-57619000D02*
X189362000Y-56412000D01*
X189362000Y-54332000D02*
X189362000Y-53125000D01*
X189322000Y-57596000D02*
X189322000Y-56412000D01*
X189322000Y-54332000D02*
X189322000Y-53148000D01*
X189282000Y-57572000D02*
X189282000Y-56412000D01*
X189282000Y-54332000D02*
X189282000Y-53172000D01*
X189242000Y-57547000D02*
X189242000Y-56412000D01*
X189242000Y-54332000D02*
X189242000Y-53197000D01*
X189202000Y-57521000D02*
X189202000Y-56412000D01*
X189202000Y-54332000D02*
X189202000Y-53223000D01*
X189162000Y-57494000D02*
X189162000Y-56412000D01*
X189162000Y-54332000D02*
X189162000Y-53250000D01*
X189122000Y-57467000D02*
X189122000Y-56412000D01*
X189122000Y-54332000D02*
X189122000Y-53277000D01*
X189082000Y-57437000D02*
X189082000Y-56412000D01*
X189082000Y-54332000D02*
X189082000Y-53307000D01*
X189042000Y-57407000D02*
X189042000Y-56412000D01*
X189042000Y-54332000D02*
X189042000Y-53337000D01*
X189002000Y-57376000D02*
X189002000Y-56412000D01*
X189002000Y-54332000D02*
X189002000Y-53368000D01*
X188962000Y-57343000D02*
X188962000Y-56412000D01*
X188962000Y-54332000D02*
X188962000Y-53401000D01*
X188922000Y-57309000D02*
X188922000Y-56412000D01*
X188922000Y-54332000D02*
X188922000Y-53435000D01*
X188882000Y-57273000D02*
X188882000Y-56412000D01*
X188882000Y-54332000D02*
X188882000Y-53471000D01*
X188842000Y-57236000D02*
X188842000Y-56412000D01*
X188842000Y-54332000D02*
X188842000Y-53508000D01*
X188802000Y-57198000D02*
X188802000Y-56412000D01*
X188802000Y-54332000D02*
X188802000Y-53546000D01*
X188762000Y-57157000D02*
X188762000Y-56412000D01*
X188762000Y-54332000D02*
X188762000Y-53587000D01*
X188722000Y-57115000D02*
X188722000Y-56412000D01*
X188722000Y-54332000D02*
X188722000Y-53629000D01*
X188682000Y-57071000D02*
X188682000Y-56412000D01*
X188682000Y-54332000D02*
X188682000Y-53673000D01*
X188642000Y-57025000D02*
X188642000Y-56412000D01*
X188642000Y-54332000D02*
X188642000Y-53719000D01*
X188602000Y-56977000D02*
X188602000Y-53767000D01*
X188562000Y-56926000D02*
X188562000Y-53818000D01*
X188522000Y-56872000D02*
X188522000Y-53872000D01*
X188482000Y-56815000D02*
X188482000Y-53929000D01*
X188442000Y-56755000D02*
X188442000Y-53989000D01*
X188402000Y-56691000D02*
X188402000Y-54053000D01*
X188362000Y-56623000D02*
X188362000Y-54121000D01*
X188322000Y-56550000D02*
X188322000Y-54194000D01*
X188282000Y-56470000D02*
X188282000Y-54274000D01*
X188242000Y-56383000D02*
X188242000Y-54361000D01*
X188202000Y-56287000D02*
X188202000Y-54457000D01*
X188162000Y-56177000D02*
X188162000Y-54567000D01*
X188122000Y-56049000D02*
X188122000Y-54695000D01*
X188082000Y-55890000D02*
X188082000Y-54854000D01*
X188042000Y-55656000D02*
X188042000Y-55088000D01*
X193447775Y-56847000D02*
X192947775Y-56847000D01*
X193197775Y-57097000D02*
X193197775Y-56597000D01*
X198412000Y-74352000D02*
X198412000Y-71502000D01*
X198412000Y-71502000D02*
X196812000Y-71502000D01*
X196812000Y-71502000D02*
X196812000Y-74352000D01*
X186634000Y-71090000D02*
X179384000Y-71090000D01*
X179384000Y-71090000D02*
X179384000Y-74690000D01*
X179384000Y-74690000D02*
X186634000Y-74690000D01*
X186873000Y-65802000D02*
X186873000Y-68662000D01*
X186873000Y-68662000D02*
X188793000Y-68662000D01*
X188793000Y-68662000D02*
X188793000Y-65802000D01*
X163905221Y-98361313D02*
X164274687Y-98730779D01*
X164909313Y-97357221D02*
X165278779Y-97726687D01*
X187769313Y-91618779D02*
X188138779Y-91249313D01*
X186765221Y-90614687D02*
X187134687Y-90245221D01*
X157278000Y-72391748D02*
X157278000Y-72914252D01*
X158698000Y-72391748D02*
X158698000Y-72914252D01*
X198449221Y-105981313D02*
X198818687Y-106350779D01*
X199453313Y-104977221D02*
X199822779Y-105346687D01*
X156158000Y-60704252D02*
X156158000Y-60181748D01*
X154738000Y-60704252D02*
X154738000Y-60181748D01*
X165937221Y-96837313D02*
X166306687Y-97206779D01*
X166941313Y-95833221D02*
X167310779Y-96202687D01*
X178046748Y-67870000D02*
X178569252Y-67870000D01*
X178046748Y-69290000D02*
X178569252Y-69290000D01*
X201093000Y-66585748D02*
X201093000Y-67108252D01*
X202513000Y-66585748D02*
X202513000Y-67108252D01*
X168985221Y-107378687D02*
X169354687Y-107009221D01*
X169989313Y-108382779D02*
X170358779Y-108013313D01*
X173244252Y-57202000D02*
X172721748Y-57202000D01*
X173244252Y-58622000D02*
X172721748Y-58622000D01*
X173244252Y-56082000D02*
X172721748Y-56082000D01*
X173244252Y-54662000D02*
X172721748Y-54662000D01*
X194766000Y-72890748D02*
X194766000Y-73413252D01*
X193346000Y-72890748D02*
X193346000Y-73413252D01*
X200458000Y-73413252D02*
X200458000Y-72890748D01*
X201878000Y-73413252D02*
X201878000Y-72890748D01*
X197130097Y-107226005D02*
X197499563Y-107595471D01*
X196126005Y-108230097D02*
X196495471Y-108599563D01*
X150062000Y-60704252D02*
X150062000Y-60181748D01*
X148642000Y-60704252D02*
X148642000Y-60181748D01*
X178994779Y-120205313D02*
X178625313Y-120574779D01*
X177990687Y-119201221D02*
X177621221Y-119570687D01*
X189282000Y-73201252D02*
X189282000Y-72678748D01*
X190702000Y-73201252D02*
X190702000Y-72678748D01*
X178510000Y-72678748D02*
X178510000Y-73201252D01*
X177090000Y-72678748D02*
X177090000Y-73201252D01*
X144381000Y-133792000D02*
X144831000Y-133792000D01*
X144831000Y-133792000D02*
X144831000Y-134742000D01*
X144831000Y-134742000D02*
X146321000Y-134742000D01*
X144381000Y-139512000D02*
X144831000Y-139512000D01*
X144831000Y-139512000D02*
X144831000Y-138562000D01*
X140861000Y-133792000D02*
X140411000Y-133792000D01*
X140411000Y-133792000D02*
X140411000Y-139512000D01*
X140411000Y-139512000D02*
X140861000Y-139512000D01*
X144381000Y-120393500D02*
X144831000Y-120393500D01*
X144831000Y-120393500D02*
X144831000Y-121343500D01*
X144831000Y-121343500D02*
X146321000Y-121343500D01*
X144381000Y-126113500D02*
X144831000Y-126113500D01*
X144831000Y-126113500D02*
X144831000Y-125163500D01*
X140861000Y-120393500D02*
X140411000Y-120393500D01*
X140411000Y-120393500D02*
X140411000Y-126113500D01*
X140411000Y-126113500D02*
X140861000Y-126113500D01*
X144381000Y-106995000D02*
X144831000Y-106995000D01*
X144831000Y-106995000D02*
X144831000Y-107945000D01*
X144831000Y-107945000D02*
X146321000Y-107945000D01*
X144381000Y-112715000D02*
X144831000Y-112715000D01*
X144831000Y-112715000D02*
X144831000Y-111765000D01*
X140861000Y-106995000D02*
X140411000Y-106995000D01*
X140411000Y-106995000D02*
X140411000Y-112715000D01*
X140411000Y-112715000D02*
X140861000Y-112715000D01*
X144381000Y-93596500D02*
X144831000Y-93596500D01*
X144831000Y-93596500D02*
X144831000Y-94546500D01*
X144831000Y-94546500D02*
X146321000Y-94546500D01*
X144381000Y-99316500D02*
X144831000Y-99316500D01*
X144831000Y-99316500D02*
X144831000Y-98366500D01*
X140861000Y-93596500D02*
X140411000Y-93596500D01*
X140411000Y-93596500D02*
X140411000Y-99316500D01*
X140411000Y-99316500D02*
X140861000Y-99316500D01*
X144381000Y-79942000D02*
X144831000Y-79942000D01*
X144831000Y-79942000D02*
X144831000Y-80892000D01*
X144831000Y-80892000D02*
X146321000Y-80892000D01*
X144381000Y-85662000D02*
X144831000Y-85662000D01*
X144831000Y-85662000D02*
X144831000Y-84712000D01*
X140861000Y-79942000D02*
X140411000Y-79942000D01*
X140411000Y-79942000D02*
X140411000Y-85662000D01*
X140411000Y-85662000D02*
X140861000Y-85662000D01*
X218069000Y-139512000D02*
X217619000Y-139512000D01*
X217619000Y-139512000D02*
X217619000Y-138562000D01*
X217619000Y-138562000D02*
X216129000Y-138562000D01*
X218069000Y-133792000D02*
X217619000Y-133792000D01*
X217619000Y-133792000D02*
X217619000Y-134742000D01*
X221589000Y-139512000D02*
X222039000Y-139512000D01*
X222039000Y-139512000D02*
X222039000Y-133792000D01*
X222039000Y-133792000D02*
X221589000Y-133792000D01*
X218069000Y-126049500D02*
X217619000Y-126049500D01*
X217619000Y-126049500D02*
X217619000Y-125099500D01*
X217619000Y-125099500D02*
X216129000Y-125099500D01*
X218069000Y-120329500D02*
X217619000Y-120329500D01*
X217619000Y-120329500D02*
X217619000Y-121279500D01*
X221589000Y-126049500D02*
X222039000Y-126049500D01*
X222039000Y-126049500D02*
X222039000Y-120329500D01*
X222039000Y-120329500D02*
X221589000Y-120329500D01*
X218069000Y-112587000D02*
X217619000Y-112587000D01*
X217619000Y-112587000D02*
X217619000Y-111637000D01*
X217619000Y-111637000D02*
X216129000Y-111637000D01*
X218069000Y-106867000D02*
X217619000Y-106867000D01*
X217619000Y-106867000D02*
X217619000Y-107817000D01*
X221589000Y-112587000D02*
X222039000Y-112587000D01*
X222039000Y-112587000D02*
X222039000Y-106867000D01*
X222039000Y-106867000D02*
X221589000Y-106867000D01*
X218069000Y-99124500D02*
X217619000Y-99124500D01*
X217619000Y-99124500D02*
X217619000Y-98174500D01*
X217619000Y-98174500D02*
X216129000Y-98174500D01*
X218069000Y-93404500D02*
X217619000Y-93404500D01*
X217619000Y-93404500D02*
X217619000Y-94354500D01*
X221589000Y-99124500D02*
X222039000Y-99124500D01*
X222039000Y-99124500D02*
X222039000Y-93404500D01*
X222039000Y-93404500D02*
X221589000Y-93404500D01*
X218069000Y-85662000D02*
X217619000Y-85662000D01*
X217619000Y-85662000D02*
X217619000Y-84712000D01*
X217619000Y-84712000D02*
X216129000Y-84712000D01*
X218069000Y-79942000D02*
X217619000Y-79942000D01*
X217619000Y-79942000D02*
X217619000Y-80892000D01*
X221589000Y-85662000D02*
X222039000Y-85662000D01*
X222039000Y-85662000D02*
X222039000Y-79942000D01*
X222039000Y-79942000D02*
X221589000Y-79942000D01*
X147227000Y-58094000D02*
X153687000Y-58094000D01*
X147227000Y-53564000D02*
X147227000Y-56164000D01*
X147227000Y-51634000D02*
X153687000Y-51634000D01*
X153687000Y-53564000D02*
X153687000Y-56164000D01*
X147227000Y-51664000D02*
X147227000Y-51634000D01*
X147227000Y-58094000D02*
X147227000Y-58064000D01*
X153687000Y-58094000D02*
X153687000Y-58064000D01*
X153687000Y-51634000D02*
X153687000Y-51664000D01*
X166318000Y-72914252D02*
X166318000Y-72391748D01*
X164898000Y-72914252D02*
X164898000Y-72391748D01*
X162231000Y-72914252D02*
X162231000Y-72391748D01*
X163651000Y-72914252D02*
X163651000Y-72391748D01*
X187123000Y-62095748D02*
X187123000Y-62618252D01*
X188543000Y-62095748D02*
X188543000Y-62618252D01*
X169419748Y-74370000D02*
X169942252Y-74370000D01*
X169419748Y-72950000D02*
X169942252Y-72950000D01*
X190298000Y-62095748D02*
X190298000Y-62618252D01*
X191718000Y-62095748D02*
X191718000Y-62618252D01*
X169401748Y-69290000D02*
X169924252Y-69290000D01*
X169401748Y-67870000D02*
X169924252Y-67870000D01*
X169419748Y-71830000D02*
X169942252Y-71830000D01*
X169419748Y-70410000D02*
X169942252Y-70410000D01*
X169410748Y-66750000D02*
X169933252Y-66750000D01*
X169410748Y-65330000D02*
X169933252Y-65330000D01*
X153110000Y-60713252D02*
X153110000Y-60190748D01*
X151690000Y-60713252D02*
X151690000Y-60190748D01*
X169493000Y-62033252D02*
X169493000Y-61510748D01*
X168073000Y-62033252D02*
X168073000Y-61510748D01*
X172721748Y-53542000D02*
X173244252Y-53542000D01*
X172721748Y-52122000D02*
X173244252Y-52122000D01*
X145594000Y-60181748D02*
X145594000Y-60704252D01*
X147014000Y-60181748D02*
X147014000Y-60704252D01*
X208990000Y-54617252D02*
X208990000Y-54094748D01*
X207570000Y-54617252D02*
X207570000Y-54094748D01*
X198822000Y-55686000D02*
X198822000Y-54356000D01*
X200152000Y-55686000D02*
X198822000Y-55686000D01*
X201422000Y-55686000D02*
X201422000Y-53026000D01*
X201422000Y-53026000D02*
X206562000Y-53026000D01*
X201422000Y-55686000D02*
X206562000Y-55686000D01*
X206562000Y-55686000D02*
X206562000Y-53026000D01*
D10*
X157775000Y-58166000D02*
G75*
G03X157775000Y-58166000I-150000J0D01*
G01*
D14*
X159925000Y-62601000D02*
X163925000Y-62601000D01*
X163925000Y-57541000D02*
X163825000Y-57571000D01*
X159925000Y-57541000D02*
X163925000Y-57541000D01*
D13*
X195593000Y-59307000D02*
X196793000Y-59307000D01*
X195593000Y-63307000D02*
X195593000Y-59307000D01*
X200393000Y-59307000D02*
X200393000Y-62007000D01*
X199193000Y-59307000D02*
X200393000Y-59307000D01*
X173493000Y-60112000D02*
X171043000Y-60112000D01*
X171693000Y-63332000D02*
X173493000Y-63332000D01*
X184748000Y-55610500D02*
X184298000Y-55610500D01*
X184748000Y-53760500D02*
X184748000Y-55610500D01*
X176948000Y-51210500D02*
X176948000Y-51460500D01*
X184748000Y-51210500D02*
X184748000Y-51460500D01*
X176948000Y-53760500D02*
X176948000Y-55610500D01*
X176948000Y-55610500D02*
X177398000Y-55610500D01*
X182548000Y-56160500D02*
X182098000Y-56160500D01*
X182548000Y-56160500D02*
X182548000Y-55710500D01*
D11*
X168861904Y-78302380D02*
X168861904Y-77302380D01*
X169100000Y-77302380D01*
X169242857Y-77350000D01*
X169338095Y-77445238D01*
X169385714Y-77540476D01*
X169433333Y-77730952D01*
X169433333Y-77873809D01*
X169385714Y-78064285D01*
X169338095Y-78159523D01*
X169242857Y-78254761D01*
X169100000Y-78302380D01*
X168861904Y-78302380D01*
X170338095Y-77302380D02*
X169861904Y-77302380D01*
X169814285Y-77778571D01*
X169861904Y-77730952D01*
X169957142Y-77683333D01*
X170195238Y-77683333D01*
X170290476Y-77730952D01*
X170338095Y-77778571D01*
X170385714Y-77873809D01*
X170385714Y-78111904D01*
X170338095Y-78207142D01*
X170290476Y-78254761D01*
X170195238Y-78302380D01*
X169957142Y-78302380D01*
X169861904Y-78254761D01*
X169814285Y-78207142D01*
X168861904Y-81302380D02*
X168861904Y-80302380D01*
X169100000Y-80302380D01*
X169242857Y-80350000D01*
X169338095Y-80445238D01*
X169385714Y-80540476D01*
X169433333Y-80730952D01*
X169433333Y-80873809D01*
X169385714Y-81064285D01*
X169338095Y-81159523D01*
X169242857Y-81254761D01*
X169100000Y-81302380D01*
X168861904Y-81302380D01*
X170290476Y-80635714D02*
X170290476Y-81302380D01*
X170052380Y-80254761D02*
X169814285Y-80969047D01*
X170433333Y-80969047D01*
X207614285Y-69471428D02*
X207414285Y-69185714D01*
X207271428Y-69471428D02*
X207271428Y-68871428D01*
X207500000Y-68871428D01*
X207557142Y-68900000D01*
X207585714Y-68928571D01*
X207614285Y-68985714D01*
X207614285Y-69071428D01*
X207585714Y-69128571D01*
X207557142Y-69157142D01*
X207500000Y-69185714D01*
X207271428Y-69185714D01*
X208185714Y-69471428D02*
X207842857Y-69471428D01*
X208014285Y-69471428D02*
X208014285Y-68871428D01*
X207957142Y-68957142D01*
X207900000Y-69014285D01*
X207842857Y-69042857D01*
X208728571Y-68871428D02*
X208442857Y-68871428D01*
X208414285Y-69157142D01*
X208442857Y-69128571D01*
X208500000Y-69100000D01*
X208642857Y-69100000D01*
X208700000Y-69128571D01*
X208728571Y-69157142D01*
X208757142Y-69214285D01*
X208757142Y-69357142D01*
X208728571Y-69414285D01*
X208700000Y-69442857D01*
X208642857Y-69471428D01*
X208500000Y-69471428D01*
X208442857Y-69442857D01*
X208414285Y-69414285D01*
X204357142Y-69471428D02*
X204357142Y-68871428D01*
X204500000Y-68871428D01*
X204585714Y-68900000D01*
X204642857Y-68957142D01*
X204671428Y-69014285D01*
X204700000Y-69128571D01*
X204700000Y-69214285D01*
X204671428Y-69328571D01*
X204642857Y-69385714D01*
X204585714Y-69442857D01*
X204500000Y-69471428D01*
X204357142Y-69471428D01*
X204900000Y-68871428D02*
X205271428Y-68871428D01*
X205071428Y-69100000D01*
X205157142Y-69100000D01*
X205214285Y-69128571D01*
X205242857Y-69157142D01*
X205271428Y-69214285D01*
X205271428Y-69357142D01*
X205242857Y-69414285D01*
X205214285Y-69442857D01*
X205157142Y-69471428D01*
X204985714Y-69471428D01*
X204928571Y-69442857D01*
X204900000Y-69414285D01*
X193452380Y-140559523D02*
X192452380Y-140559523D01*
X193166666Y-140226190D01*
X192452380Y-139892857D01*
X193452380Y-139892857D01*
X192547619Y-139464285D02*
X192500000Y-139416666D01*
X192452380Y-139321428D01*
X192452380Y-139083333D01*
X192500000Y-138988095D01*
X192547619Y-138940476D01*
X192642857Y-138892857D01*
X192738095Y-138892857D01*
X192880952Y-138940476D01*
X193452380Y-139511904D01*
X193452380Y-138892857D01*
X165952380Y-140559523D02*
X164952380Y-140559523D01*
X165666666Y-140226190D01*
X164952380Y-139892857D01*
X165952380Y-139892857D01*
X165047619Y-139464285D02*
X165000000Y-139416666D01*
X164952380Y-139321428D01*
X164952380Y-139083333D01*
X165000000Y-138988095D01*
X165047619Y-138940476D01*
X165142857Y-138892857D01*
X165238095Y-138892857D01*
X165380952Y-138940476D01*
X165952380Y-139511904D01*
X165952380Y-138892857D01*
X141938476Y-53640380D02*
X141938476Y-52640380D01*
X142271809Y-53354666D01*
X142605142Y-52640380D01*
X142605142Y-53640380D01*
X143033714Y-52735619D02*
X143081333Y-52688000D01*
X143176571Y-52640380D01*
X143414666Y-52640380D01*
X143509904Y-52688000D01*
X143557523Y-52735619D01*
X143605142Y-52830857D01*
X143605142Y-52926095D01*
X143557523Y-53068952D01*
X142986095Y-53640380D01*
X143605142Y-53640380D01*
X139660380Y-69841904D02*
X139660380Y-69270476D01*
X140660380Y-69556190D02*
X139660380Y-69556190D01*
X140660380Y-68937142D02*
X139660380Y-68937142D01*
X139660380Y-68556190D01*
X139708000Y-68460952D01*
X139755619Y-68413333D01*
X139850857Y-68365714D01*
X139993714Y-68365714D01*
X140088952Y-68413333D01*
X140136571Y-68460952D01*
X140184190Y-68556190D01*
X140184190Y-68937142D01*
X139660380Y-68032380D02*
X139660380Y-67413333D01*
X140041333Y-67746666D01*
X140041333Y-67603809D01*
X140088952Y-67508571D01*
X140136571Y-67460952D01*
X140231809Y-67413333D01*
X140469904Y-67413333D01*
X140565142Y-67460952D01*
X140612761Y-67508571D01*
X140660380Y-67603809D01*
X140660380Y-67889523D01*
X140612761Y-67984761D01*
X140565142Y-68032380D01*
X139660380Y-74413904D02*
X139660380Y-73842476D01*
X140660380Y-74128190D02*
X139660380Y-74128190D01*
X140660380Y-73509142D02*
X139660380Y-73509142D01*
X139660380Y-73128190D01*
X139708000Y-73032952D01*
X139755619Y-72985333D01*
X139850857Y-72937714D01*
X139993714Y-72937714D01*
X140088952Y-72985333D01*
X140136571Y-73032952D01*
X140184190Y-73128190D01*
X140184190Y-73509142D01*
X139755619Y-72556761D02*
X139708000Y-72509142D01*
X139660380Y-72413904D01*
X139660380Y-72175809D01*
X139708000Y-72080571D01*
X139755619Y-72032952D01*
X139850857Y-71985333D01*
X139946095Y-71985333D01*
X140088952Y-72032952D01*
X140660380Y-72604380D01*
X140660380Y-71985333D01*
X139660380Y-65777904D02*
X139660380Y-65206476D01*
X140660380Y-65492190D02*
X139660380Y-65492190D01*
X140660380Y-64873142D02*
X139660380Y-64873142D01*
X139660380Y-64492190D01*
X139708000Y-64396952D01*
X139755619Y-64349333D01*
X139850857Y-64301714D01*
X139993714Y-64301714D01*
X140088952Y-64349333D01*
X140136571Y-64396952D01*
X140184190Y-64492190D01*
X140184190Y-64873142D01*
X140660380Y-63349333D02*
X140660380Y-63920761D01*
X140660380Y-63635047D02*
X139660380Y-63635047D01*
X139803238Y-63730285D01*
X139898476Y-63825523D01*
X139946095Y-63920761D01*
X210518476Y-76160380D02*
X210518476Y-76874666D01*
X210470857Y-77017523D01*
X210375619Y-77112761D01*
X210232761Y-77160380D01*
X210137523Y-77160380D01*
X211518476Y-77160380D02*
X210947047Y-77160380D01*
X211232761Y-77160380D02*
X211232761Y-76160380D01*
X211137523Y-76303238D01*
X211042285Y-76398476D01*
X210947047Y-76446095D01*
X212089904Y-76588952D02*
X211994666Y-76541333D01*
X211947047Y-76493714D01*
X211899428Y-76398476D01*
X211899428Y-76350857D01*
X211947047Y-76255619D01*
X211994666Y-76208000D01*
X212089904Y-76160380D01*
X212280380Y-76160380D01*
X212375619Y-76208000D01*
X212423238Y-76255619D01*
X212470857Y-76350857D01*
X212470857Y-76398476D01*
X212423238Y-76493714D01*
X212375619Y-76541333D01*
X212280380Y-76588952D01*
X212089904Y-76588952D01*
X211994666Y-76636571D01*
X211947047Y-76684190D01*
X211899428Y-76779428D01*
X211899428Y-76969904D01*
X211947047Y-77065142D01*
X211994666Y-77112761D01*
X212089904Y-77160380D01*
X212280380Y-77160380D01*
X212375619Y-77112761D01*
X212423238Y-77065142D01*
X212470857Y-76969904D01*
X212470857Y-76779428D01*
X212423238Y-76684190D01*
X212375619Y-76636571D01*
X212280380Y-76588952D01*
X170628781Y-89924264D02*
X170628781Y-89964670D01*
X170588375Y-90045482D01*
X170547969Y-90085888D01*
X170467157Y-90126294D01*
X170386345Y-90126294D01*
X170325735Y-90106091D01*
X170224720Y-90045482D01*
X170164111Y-89984873D01*
X170103502Y-89883857D01*
X170083299Y-89823248D01*
X170083299Y-89742436D01*
X170123705Y-89661624D01*
X170164111Y-89621218D01*
X170244923Y-89580812D01*
X170285329Y-89580812D01*
X171073248Y-89560609D02*
X170830812Y-89803045D01*
X170952030Y-89681827D02*
X170527766Y-89257563D01*
X170547969Y-89358578D01*
X170547969Y-89439390D01*
X170527766Y-89500000D01*
X171275279Y-89358578D02*
X171356091Y-89277766D01*
X171376294Y-89217157D01*
X171376294Y-89176751D01*
X171356091Y-89075735D01*
X171295482Y-88974720D01*
X171133857Y-88813096D01*
X171073248Y-88792893D01*
X171032842Y-88792893D01*
X170972233Y-88813096D01*
X170891421Y-88893908D01*
X170871218Y-88954517D01*
X170871218Y-88994923D01*
X170891421Y-89055532D01*
X170992436Y-89156548D01*
X171053045Y-89176751D01*
X171093451Y-89176751D01*
X171154061Y-89156548D01*
X171234873Y-89075735D01*
X171255076Y-89015126D01*
X171255076Y-88974720D01*
X171234873Y-88914111D01*
X177128781Y-95924264D02*
X177128781Y-95964670D01*
X177088375Y-96045482D01*
X177047969Y-96085888D01*
X176967157Y-96126294D01*
X176886345Y-96126294D01*
X176825735Y-96106091D01*
X176724720Y-96045482D01*
X176664111Y-95984873D01*
X176603502Y-95883857D01*
X176583299Y-95823248D01*
X176583299Y-95742436D01*
X176623705Y-95661624D01*
X176664111Y-95621218D01*
X176744923Y-95580812D01*
X176785329Y-95580812D01*
X176946954Y-95419187D02*
X176946954Y-95378781D01*
X176967157Y-95318172D01*
X177068172Y-95217157D01*
X177128781Y-95196954D01*
X177169187Y-95196954D01*
X177229796Y-95217157D01*
X177270203Y-95257563D01*
X177310609Y-95338375D01*
X177310609Y-95823248D01*
X177573248Y-95560609D01*
X177290406Y-94994923D02*
X177553045Y-94732284D01*
X177573248Y-95035329D01*
X177633857Y-94974720D01*
X177694467Y-94954517D01*
X177734873Y-94954517D01*
X177795482Y-94974720D01*
X177896497Y-95075735D01*
X177916700Y-95136345D01*
X177916700Y-95176751D01*
X177896497Y-95237360D01*
X177775279Y-95358578D01*
X177714670Y-95378781D01*
X177674264Y-95378781D01*
X182159086Y-93444416D02*
X181815634Y-93787867D01*
X181795431Y-93848477D01*
X181795431Y-93888883D01*
X181815634Y-93949492D01*
X181896446Y-94030304D01*
X181957055Y-94050507D01*
X181997461Y-94050507D01*
X182058071Y-94030304D01*
X182401522Y-93686852D01*
X182401522Y-94535380D02*
X182159086Y-94292944D01*
X182280304Y-94414162D02*
X182704568Y-93989898D01*
X182603553Y-94010101D01*
X182522741Y-94010101D01*
X182462132Y-93989898D01*
X150574476Y-76370380D02*
X150574476Y-77084666D01*
X150526857Y-77227523D01*
X150431619Y-77322761D01*
X150288761Y-77370380D01*
X150193523Y-77370380D01*
X151574476Y-77370380D02*
X151003047Y-77370380D01*
X151288761Y-77370380D02*
X151288761Y-76370380D01*
X151193523Y-76513238D01*
X151098285Y-76608476D01*
X151003047Y-76656095D01*
X152431619Y-76370380D02*
X152241142Y-76370380D01*
X152145904Y-76418000D01*
X152098285Y-76465619D01*
X152003047Y-76608476D01*
X151955428Y-76798952D01*
X151955428Y-77179904D01*
X152003047Y-77275142D01*
X152050666Y-77322761D01*
X152145904Y-77370380D01*
X152336380Y-77370380D01*
X152431619Y-77322761D01*
X152479238Y-77275142D01*
X152526857Y-77179904D01*
X152526857Y-76941809D01*
X152479238Y-76846571D01*
X152431619Y-76798952D01*
X152336380Y-76751333D01*
X152145904Y-76751333D01*
X152050666Y-76798952D01*
X152003047Y-76846571D01*
X151955428Y-76941809D01*
X197004000Y-52078428D02*
X196804000Y-51792714D01*
X196661142Y-52078428D02*
X196661142Y-51478428D01*
X196889714Y-51478428D01*
X196946857Y-51507000D01*
X196975428Y-51535571D01*
X197004000Y-51592714D01*
X197004000Y-51678428D01*
X196975428Y-51735571D01*
X196946857Y-51764142D01*
X196889714Y-51792714D01*
X196661142Y-51792714D01*
X197232571Y-51535571D02*
X197261142Y-51507000D01*
X197318285Y-51478428D01*
X197461142Y-51478428D01*
X197518285Y-51507000D01*
X197546857Y-51535571D01*
X197575428Y-51592714D01*
X197575428Y-51649857D01*
X197546857Y-51735571D01*
X197204000Y-52078428D01*
X197575428Y-52078428D01*
X161550285Y-56567428D02*
X161550285Y-56996000D01*
X161521714Y-57081714D01*
X161464571Y-57138857D01*
X161378857Y-57167428D01*
X161321714Y-57167428D01*
X162150285Y-57167428D02*
X161807428Y-57167428D01*
X161978857Y-57167428D02*
X161978857Y-56567428D01*
X161921714Y-56653142D01*
X161864571Y-56710285D01*
X161807428Y-56738857D01*
X162350285Y-56567428D02*
X162721714Y-56567428D01*
X162521714Y-56796000D01*
X162607428Y-56796000D01*
X162664571Y-56824571D01*
X162693142Y-56853142D01*
X162721714Y-56910285D01*
X162721714Y-57053142D01*
X162693142Y-57110285D01*
X162664571Y-57138857D01*
X162607428Y-57167428D01*
X162436000Y-57167428D01*
X162378857Y-57138857D01*
X162350285Y-57110285D01*
X215344476Y-73952380D02*
X215344476Y-74666666D01*
X215296857Y-74809523D01*
X215201619Y-74904761D01*
X215058761Y-74952380D01*
X214963523Y-74952380D01*
X216344476Y-74952380D02*
X215773047Y-74952380D01*
X216058761Y-74952380D02*
X216058761Y-73952380D01*
X215963523Y-74095238D01*
X215868285Y-74190476D01*
X215773047Y-74238095D01*
X217296857Y-74952380D02*
X216725428Y-74952380D01*
X217011142Y-74952380D02*
X217011142Y-73952380D01*
X216915904Y-74095238D01*
X216820666Y-74190476D01*
X216725428Y-74238095D01*
X204930476Y-76160380D02*
X204930476Y-76874666D01*
X204882857Y-77017523D01*
X204787619Y-77112761D01*
X204644761Y-77160380D01*
X204549523Y-77160380D01*
X205930476Y-77160380D02*
X205359047Y-77160380D01*
X205644761Y-77160380D02*
X205644761Y-76160380D01*
X205549523Y-76303238D01*
X205454285Y-76398476D01*
X205359047Y-76446095D01*
X206263809Y-76160380D02*
X206930476Y-76160380D01*
X206501904Y-77160380D01*
X156162476Y-76370380D02*
X156162476Y-77084666D01*
X156114857Y-77227523D01*
X156019619Y-77322761D01*
X155876761Y-77370380D01*
X155781523Y-77370380D01*
X157162476Y-77370380D02*
X156591047Y-77370380D01*
X156876761Y-77370380D02*
X156876761Y-76370380D01*
X156781523Y-76513238D01*
X156686285Y-76608476D01*
X156591047Y-76656095D01*
X158067238Y-76370380D02*
X157591047Y-76370380D01*
X157543428Y-76846571D01*
X157591047Y-76798952D01*
X157686285Y-76751333D01*
X157924380Y-76751333D01*
X158019619Y-76798952D01*
X158067238Y-76846571D01*
X158114857Y-76941809D01*
X158114857Y-77179904D01*
X158067238Y-77275142D01*
X158019619Y-77322761D01*
X157924380Y-77370380D01*
X157686285Y-77370380D01*
X157591047Y-77322761D01*
X157543428Y-77275142D01*
X181947735Y-120274781D02*
X181907329Y-120274781D01*
X181826517Y-120234375D01*
X181786111Y-120193969D01*
X181745705Y-120113157D01*
X181745705Y-120032345D01*
X181765908Y-119971735D01*
X181826517Y-119870720D01*
X181887126Y-119810111D01*
X181988142Y-119749502D01*
X182048751Y-119729299D01*
X182129563Y-119729299D01*
X182210375Y-119769705D01*
X182250781Y-119810111D01*
X182291187Y-119890923D01*
X182291187Y-119931329D01*
X182452812Y-120092954D02*
X182493218Y-120092954D01*
X182553827Y-120113157D01*
X182654842Y-120214172D01*
X182675045Y-120274781D01*
X182675045Y-120315187D01*
X182654842Y-120375796D01*
X182614436Y-120416203D01*
X182533624Y-120456609D01*
X182048751Y-120456609D01*
X182311390Y-120719248D01*
X182957888Y-120800061D02*
X182675045Y-121082903D01*
X183018497Y-120537421D02*
X182614436Y-120739451D01*
X182877076Y-121002091D01*
X181025857Y-67235428D02*
X181025857Y-67721142D01*
X181054428Y-67778285D01*
X181083000Y-67806857D01*
X181140142Y-67835428D01*
X181254428Y-67835428D01*
X181311571Y-67806857D01*
X181340142Y-67778285D01*
X181368714Y-67721142D01*
X181368714Y-67235428D01*
X181911571Y-67435428D02*
X181911571Y-67835428D01*
X181768714Y-67206857D02*
X181625857Y-67635428D01*
X181997285Y-67635428D01*
X190565142Y-69613428D02*
X190565142Y-69013428D01*
X190708000Y-69013428D01*
X190793714Y-69042000D01*
X190850857Y-69099142D01*
X190879428Y-69156285D01*
X190908000Y-69270571D01*
X190908000Y-69356285D01*
X190879428Y-69470571D01*
X190850857Y-69527714D01*
X190793714Y-69584857D01*
X190708000Y-69613428D01*
X190565142Y-69613428D01*
X191479428Y-69613428D02*
X191136571Y-69613428D01*
X191308000Y-69613428D02*
X191308000Y-69013428D01*
X191250857Y-69099142D01*
X191193714Y-69156285D01*
X191136571Y-69184857D01*
X196300000Y-69356285D02*
X196271428Y-69384857D01*
X196185714Y-69413428D01*
X196128571Y-69413428D01*
X196042857Y-69384857D01*
X195985714Y-69327714D01*
X195957142Y-69270571D01*
X195928571Y-69156285D01*
X195928571Y-69070571D01*
X195957142Y-68956285D01*
X195985714Y-68899142D01*
X196042857Y-68842000D01*
X196128571Y-68813428D01*
X196185714Y-68813428D01*
X196271428Y-68842000D01*
X196300000Y-68870571D01*
X196585714Y-69413428D02*
X196700000Y-69413428D01*
X196757142Y-69384857D01*
X196785714Y-69356285D01*
X196842857Y-69270571D01*
X196871428Y-69156285D01*
X196871428Y-68927714D01*
X196842857Y-68870571D01*
X196814285Y-68842000D01*
X196757142Y-68813428D01*
X196642857Y-68813428D01*
X196585714Y-68842000D01*
X196557142Y-68870571D01*
X196528571Y-68927714D01*
X196528571Y-69070571D01*
X196557142Y-69127714D01*
X196585714Y-69156285D01*
X196642857Y-69184857D01*
X196757142Y-69184857D01*
X196814285Y-69156285D01*
X196842857Y-69127714D01*
X196871428Y-69070571D01*
X198414285Y-69309285D02*
X198385714Y-69337857D01*
X198300000Y-69366428D01*
X198242857Y-69366428D01*
X198157142Y-69337857D01*
X198100000Y-69280714D01*
X198071428Y-69223571D01*
X198042857Y-69109285D01*
X198042857Y-69023571D01*
X198071428Y-68909285D01*
X198100000Y-68852142D01*
X198157142Y-68795000D01*
X198242857Y-68766428D01*
X198300000Y-68766428D01*
X198385714Y-68795000D01*
X198414285Y-68823571D01*
X198985714Y-69366428D02*
X198642857Y-69366428D01*
X198814285Y-69366428D02*
X198814285Y-68766428D01*
X198757142Y-68852142D01*
X198700000Y-68909285D01*
X198642857Y-68937857D01*
X199185714Y-68766428D02*
X199557142Y-68766428D01*
X199357142Y-68995000D01*
X199442857Y-68995000D01*
X199500000Y-69023571D01*
X199528571Y-69052142D01*
X199557142Y-69109285D01*
X199557142Y-69252142D01*
X199528571Y-69309285D01*
X199500000Y-69337857D01*
X199442857Y-69366428D01*
X199271428Y-69366428D01*
X199214285Y-69337857D01*
X199185714Y-69309285D01*
X194083000Y-69356285D02*
X194054428Y-69384857D01*
X193968714Y-69413428D01*
X193911571Y-69413428D01*
X193825857Y-69384857D01*
X193768714Y-69327714D01*
X193740142Y-69270571D01*
X193711571Y-69156285D01*
X193711571Y-69070571D01*
X193740142Y-68956285D01*
X193768714Y-68899142D01*
X193825857Y-68842000D01*
X193911571Y-68813428D01*
X193968714Y-68813428D01*
X194054428Y-68842000D01*
X194083000Y-68870571D01*
X194425857Y-69070571D02*
X194368714Y-69042000D01*
X194340142Y-69013428D01*
X194311571Y-68956285D01*
X194311571Y-68927714D01*
X194340142Y-68870571D01*
X194368714Y-68842000D01*
X194425857Y-68813428D01*
X194540142Y-68813428D01*
X194597285Y-68842000D01*
X194625857Y-68870571D01*
X194654428Y-68927714D01*
X194654428Y-68956285D01*
X194625857Y-69013428D01*
X194597285Y-69042000D01*
X194540142Y-69070571D01*
X194425857Y-69070571D01*
X194368714Y-69099142D01*
X194340142Y-69127714D01*
X194311571Y-69184857D01*
X194311571Y-69299142D01*
X194340142Y-69356285D01*
X194368714Y-69384857D01*
X194425857Y-69413428D01*
X194540142Y-69413428D01*
X194597285Y-69384857D01*
X194625857Y-69356285D01*
X194654428Y-69299142D01*
X194654428Y-69184857D01*
X194625857Y-69127714D01*
X194597285Y-69099142D01*
X194540142Y-69070571D01*
X160914781Y-98468264D02*
X160914781Y-98508670D01*
X160874375Y-98589482D01*
X160833969Y-98629888D01*
X160753157Y-98670294D01*
X160672345Y-98670294D01*
X160611735Y-98650091D01*
X160510720Y-98589482D01*
X160450111Y-98528873D01*
X160389502Y-98427857D01*
X160369299Y-98367248D01*
X160369299Y-98286436D01*
X160409705Y-98205624D01*
X160450111Y-98165218D01*
X160530923Y-98124812D01*
X160571329Y-98124812D01*
X160732954Y-97963187D02*
X160732954Y-97922781D01*
X160753157Y-97862172D01*
X160854172Y-97761157D01*
X160914781Y-97740954D01*
X160955187Y-97740954D01*
X161015796Y-97761157D01*
X161056203Y-97801563D01*
X161096609Y-97882375D01*
X161096609Y-98367248D01*
X161359248Y-98104609D01*
X161298639Y-97316690D02*
X161217827Y-97397502D01*
X161197624Y-97458111D01*
X161197624Y-97498517D01*
X161217827Y-97599532D01*
X161278436Y-97700548D01*
X161440061Y-97862172D01*
X161500670Y-97882375D01*
X161541076Y-97882375D01*
X161601685Y-97862172D01*
X161682497Y-97781360D01*
X161702700Y-97720751D01*
X161702700Y-97680345D01*
X161682497Y-97619735D01*
X161581482Y-97518720D01*
X161520873Y-97498517D01*
X161480467Y-97498517D01*
X161419857Y-97518720D01*
X161339045Y-97599532D01*
X161318842Y-97660142D01*
X161318842Y-97700548D01*
X161339045Y-97761157D01*
X160555000Y-70375428D02*
X160269285Y-70375428D01*
X160269285Y-69775428D01*
X160726428Y-69832571D02*
X160755000Y-69804000D01*
X160812142Y-69775428D01*
X160955000Y-69775428D01*
X161012142Y-69804000D01*
X161040714Y-69832571D01*
X161069285Y-69889714D01*
X161069285Y-69946857D01*
X161040714Y-70032571D01*
X160697857Y-70375428D01*
X161069285Y-70375428D01*
X148442285Y-71334285D02*
X148413714Y-71362857D01*
X148328000Y-71391428D01*
X148270857Y-71391428D01*
X148185142Y-71362857D01*
X148128000Y-71305714D01*
X148099428Y-71248571D01*
X148070857Y-71134285D01*
X148070857Y-71048571D01*
X148099428Y-70934285D01*
X148128000Y-70877142D01*
X148185142Y-70820000D01*
X148270857Y-70791428D01*
X148328000Y-70791428D01*
X148413714Y-70820000D01*
X148442285Y-70848571D01*
X148670857Y-70848571D02*
X148699428Y-70820000D01*
X148756571Y-70791428D01*
X148899428Y-70791428D01*
X148956571Y-70820000D01*
X148985142Y-70848571D01*
X149013714Y-70905714D01*
X149013714Y-70962857D01*
X148985142Y-71048571D01*
X148642285Y-71391428D01*
X149013714Y-71391428D01*
X149242285Y-70848571D02*
X149270857Y-70820000D01*
X149328000Y-70791428D01*
X149470857Y-70791428D01*
X149528000Y-70820000D01*
X149556571Y-70848571D01*
X149585142Y-70905714D01*
X149585142Y-70962857D01*
X149556571Y-71048571D01*
X149213714Y-71391428D01*
X149585142Y-71391428D01*
X187317285Y-55757714D02*
X187345857Y-55786285D01*
X187374428Y-55872000D01*
X187374428Y-55929142D01*
X187345857Y-56014857D01*
X187288714Y-56072000D01*
X187231571Y-56100571D01*
X187117285Y-56129142D01*
X187031571Y-56129142D01*
X186917285Y-56100571D01*
X186860142Y-56072000D01*
X186803000Y-56014857D01*
X186774428Y-55929142D01*
X186774428Y-55872000D01*
X186803000Y-55786285D01*
X186831571Y-55757714D01*
X187374428Y-55186285D02*
X187374428Y-55529142D01*
X187374428Y-55357714D02*
X186774428Y-55357714D01*
X186860142Y-55414857D01*
X186917285Y-55472000D01*
X186945857Y-55529142D01*
X186831571Y-54957714D02*
X186803000Y-54929142D01*
X186774428Y-54872000D01*
X186774428Y-54729142D01*
X186803000Y-54672000D01*
X186831571Y-54643428D01*
X186888714Y-54614857D01*
X186945857Y-54614857D01*
X187031571Y-54643428D01*
X187374428Y-54986285D01*
X187374428Y-54614857D01*
X197278666Y-70595333D02*
X197278666Y-70928666D01*
X197045333Y-70228666D02*
X197278666Y-70595333D01*
X197512000Y-70228666D01*
X197712000Y-70295333D02*
X197745333Y-70262000D01*
X197812000Y-70228666D01*
X197978666Y-70228666D01*
X198045333Y-70262000D01*
X198078666Y-70295333D01*
X198112000Y-70362000D01*
X198112000Y-70428666D01*
X198078666Y-70528666D01*
X197678666Y-70928666D01*
X198112000Y-70928666D01*
X183562666Y-70087333D02*
X183562666Y-70420666D01*
X183329333Y-69720666D02*
X183562666Y-70087333D01*
X183796000Y-69720666D01*
X184396000Y-70420666D02*
X183996000Y-70420666D01*
X184196000Y-70420666D02*
X184196000Y-69720666D01*
X184129333Y-69820666D01*
X184062666Y-69887333D01*
X183996000Y-69920666D01*
X194083000Y-63898428D02*
X193797285Y-63898428D01*
X193797285Y-63298428D01*
X194597285Y-63898428D02*
X194254428Y-63898428D01*
X194425857Y-63898428D02*
X194425857Y-63298428D01*
X194368714Y-63384142D01*
X194311571Y-63441285D01*
X194254428Y-63469857D01*
X187390142Y-69613428D02*
X187390142Y-69013428D01*
X187533000Y-69013428D01*
X187618714Y-69042000D01*
X187675857Y-69099142D01*
X187704428Y-69156285D01*
X187733000Y-69270571D01*
X187733000Y-69356285D01*
X187704428Y-69470571D01*
X187675857Y-69527714D01*
X187618714Y-69584857D01*
X187533000Y-69613428D01*
X187390142Y-69613428D01*
X187961571Y-69070571D02*
X187990142Y-69042000D01*
X188047285Y-69013428D01*
X188190142Y-69013428D01*
X188247285Y-69042000D01*
X188275857Y-69070571D01*
X188304428Y-69127714D01*
X188304428Y-69184857D01*
X188275857Y-69270571D01*
X187933000Y-69613428D01*
X188304428Y-69613428D01*
X162438781Y-96436264D02*
X162438781Y-96476670D01*
X162398375Y-96557482D01*
X162357969Y-96597888D01*
X162277157Y-96638294D01*
X162196345Y-96638294D01*
X162135735Y-96618091D01*
X162034720Y-96557482D01*
X161974111Y-96496873D01*
X161913502Y-96395857D01*
X161893299Y-96335248D01*
X161893299Y-96254436D01*
X161933705Y-96173624D01*
X161974111Y-96133218D01*
X162054923Y-96092812D01*
X162095329Y-96092812D01*
X162256954Y-95931187D02*
X162256954Y-95890781D01*
X162277157Y-95830172D01*
X162378172Y-95729157D01*
X162438781Y-95708954D01*
X162479187Y-95708954D01*
X162539796Y-95729157D01*
X162580203Y-95769563D01*
X162620609Y-95850375D01*
X162620609Y-96335248D01*
X162883248Y-96072609D01*
X162600406Y-95506923D02*
X162883248Y-95224081D01*
X163125685Y-95830172D01*
X186164055Y-90189538D02*
X186164055Y-90229944D01*
X186123649Y-90310756D01*
X186083243Y-90351162D01*
X186002431Y-90391568D01*
X185921619Y-90391568D01*
X185861009Y-90371365D01*
X185759994Y-90310756D01*
X185699385Y-90250147D01*
X185638776Y-90149131D01*
X185618573Y-90088522D01*
X185618573Y-90007710D01*
X185658979Y-89926898D01*
X185699385Y-89886492D01*
X185780197Y-89846086D01*
X185820603Y-89846086D01*
X185982228Y-89684461D02*
X185982228Y-89644055D01*
X186002431Y-89583446D01*
X186103446Y-89482431D01*
X186164055Y-89462228D01*
X186204461Y-89462228D01*
X186265070Y-89482431D01*
X186305477Y-89522837D01*
X186345883Y-89603649D01*
X186345883Y-90088522D01*
X186608522Y-89825883D01*
X186568116Y-89017761D02*
X186366086Y-89219791D01*
X186547913Y-89442025D01*
X186547913Y-89401619D01*
X186568116Y-89341009D01*
X186669131Y-89239994D01*
X186729741Y-89219791D01*
X186770147Y-89219791D01*
X186830756Y-89239994D01*
X186931771Y-89341009D01*
X186951974Y-89401619D01*
X186951974Y-89442025D01*
X186931771Y-89502634D01*
X186830756Y-89603649D01*
X186770147Y-89623852D01*
X186729741Y-89623852D01*
X157602285Y-70318285D02*
X157573714Y-70346857D01*
X157488000Y-70375428D01*
X157430857Y-70375428D01*
X157345142Y-70346857D01*
X157288000Y-70289714D01*
X157259428Y-70232571D01*
X157230857Y-70118285D01*
X157230857Y-70032571D01*
X157259428Y-69918285D01*
X157288000Y-69861142D01*
X157345142Y-69804000D01*
X157430857Y-69775428D01*
X157488000Y-69775428D01*
X157573714Y-69804000D01*
X157602285Y-69832571D01*
X157830857Y-69832571D02*
X157859428Y-69804000D01*
X157916571Y-69775428D01*
X158059428Y-69775428D01*
X158116571Y-69804000D01*
X158145142Y-69832571D01*
X158173714Y-69889714D01*
X158173714Y-69946857D01*
X158145142Y-70032571D01*
X157802285Y-70375428D01*
X158173714Y-70375428D01*
X158545142Y-69775428D02*
X158602285Y-69775428D01*
X158659428Y-69804000D01*
X158688000Y-69832571D01*
X158716571Y-69889714D01*
X158745142Y-70004000D01*
X158745142Y-70146857D01*
X158716571Y-70261142D01*
X158688000Y-70318285D01*
X158659428Y-70346857D01*
X158602285Y-70375428D01*
X158545142Y-70375428D01*
X158488000Y-70346857D01*
X158459428Y-70318285D01*
X158430857Y-70261142D01*
X158402285Y-70146857D01*
X158402285Y-70004000D01*
X158430857Y-69889714D01*
X158459428Y-69832571D01*
X158488000Y-69804000D01*
X158545142Y-69775428D01*
X196982781Y-104564264D02*
X196982781Y-104604670D01*
X196942375Y-104685482D01*
X196901969Y-104725888D01*
X196821157Y-104766294D01*
X196740345Y-104766294D01*
X196679735Y-104746091D01*
X196578720Y-104685482D01*
X196518111Y-104624873D01*
X196457502Y-104523857D01*
X196437299Y-104463248D01*
X196437299Y-104382436D01*
X196477705Y-104301624D01*
X196518111Y-104261218D01*
X196598923Y-104220812D01*
X196639329Y-104220812D01*
X196800954Y-104059187D02*
X196800954Y-104018781D01*
X196821157Y-103958172D01*
X196922172Y-103857157D01*
X196982781Y-103836954D01*
X197023187Y-103836954D01*
X197083796Y-103857157D01*
X197124203Y-103897563D01*
X197164609Y-103978375D01*
X197164609Y-104463248D01*
X197427248Y-104200609D01*
X197831309Y-103796548D02*
X197588873Y-104038984D01*
X197710091Y-103917766D02*
X197285827Y-103493502D01*
X197306030Y-103594517D01*
X197306030Y-103675329D01*
X197285827Y-103735938D01*
X155062285Y-63714285D02*
X155033714Y-63742857D01*
X154948000Y-63771428D01*
X154890857Y-63771428D01*
X154805142Y-63742857D01*
X154748000Y-63685714D01*
X154719428Y-63628571D01*
X154690857Y-63514285D01*
X154690857Y-63428571D01*
X154719428Y-63314285D01*
X154748000Y-63257142D01*
X154805142Y-63200000D01*
X154890857Y-63171428D01*
X154948000Y-63171428D01*
X155033714Y-63200000D01*
X155062285Y-63228571D01*
X155633714Y-63771428D02*
X155290857Y-63771428D01*
X155462285Y-63771428D02*
X155462285Y-63171428D01*
X155405142Y-63257142D01*
X155348000Y-63314285D01*
X155290857Y-63342857D01*
X156148000Y-63371428D02*
X156148000Y-63771428D01*
X156005142Y-63142857D02*
X155862285Y-63571428D01*
X156233714Y-63571428D01*
X167366461Y-95232055D02*
X167326055Y-95232055D01*
X167245243Y-95191649D01*
X167204837Y-95151243D01*
X167164431Y-95070431D01*
X167164431Y-94989619D01*
X167184634Y-94929009D01*
X167245243Y-94827994D01*
X167305852Y-94767385D01*
X167406868Y-94706776D01*
X167467477Y-94686573D01*
X167548289Y-94686573D01*
X167629101Y-94726979D01*
X167669507Y-94767385D01*
X167709913Y-94848197D01*
X167709913Y-94888603D01*
X167730116Y-95676522D02*
X167487680Y-95434086D01*
X167608898Y-95555304D02*
X168033162Y-95131040D01*
X167932147Y-95151243D01*
X167851335Y-95151243D01*
X167790726Y-95131040D01*
X168214990Y-95676522D02*
X168194787Y-95615913D01*
X168194787Y-95575507D01*
X168214990Y-95514898D01*
X168235193Y-95494695D01*
X168295802Y-95474492D01*
X168336208Y-95474492D01*
X168396817Y-95494695D01*
X168477629Y-95575507D01*
X168497832Y-95636116D01*
X168497832Y-95676522D01*
X168477629Y-95737131D01*
X168457426Y-95757335D01*
X168396817Y-95777538D01*
X168356411Y-95777538D01*
X168295802Y-95757335D01*
X168214990Y-95676522D01*
X168154380Y-95656319D01*
X168113974Y-95656319D01*
X168053365Y-95676522D01*
X167972553Y-95757335D01*
X167952350Y-95817944D01*
X167952350Y-95858350D01*
X167972553Y-95918959D01*
X168053365Y-95999771D01*
X168113974Y-96019974D01*
X168154380Y-96019974D01*
X168214990Y-95999771D01*
X168295802Y-95918959D01*
X168316005Y-95858350D01*
X168316005Y-95817944D01*
X168295802Y-95757335D01*
X180970285Y-69302285D02*
X180941714Y-69330857D01*
X180856000Y-69359428D01*
X180798857Y-69359428D01*
X180713142Y-69330857D01*
X180656000Y-69273714D01*
X180627428Y-69216571D01*
X180598857Y-69102285D01*
X180598857Y-69016571D01*
X180627428Y-68902285D01*
X180656000Y-68845142D01*
X180713142Y-68788000D01*
X180798857Y-68759428D01*
X180856000Y-68759428D01*
X180941714Y-68788000D01*
X180970285Y-68816571D01*
X181541714Y-69359428D02*
X181198857Y-69359428D01*
X181370285Y-69359428D02*
X181370285Y-68759428D01*
X181313142Y-68845142D01*
X181256000Y-68902285D01*
X181198857Y-68930857D01*
X181741714Y-68759428D02*
X182141714Y-68759428D01*
X181884571Y-69359428D01*
X201417285Y-69356285D02*
X201388714Y-69384857D01*
X201303000Y-69413428D01*
X201245857Y-69413428D01*
X201160142Y-69384857D01*
X201103000Y-69327714D01*
X201074428Y-69270571D01*
X201045857Y-69156285D01*
X201045857Y-69070571D01*
X201074428Y-68956285D01*
X201103000Y-68899142D01*
X201160142Y-68842000D01*
X201245857Y-68813428D01*
X201303000Y-68813428D01*
X201388714Y-68842000D01*
X201417285Y-68870571D01*
X201988714Y-69413428D02*
X201645857Y-69413428D01*
X201817285Y-69413428D02*
X201817285Y-68813428D01*
X201760142Y-68899142D01*
X201703000Y-68956285D01*
X201645857Y-68984857D01*
X202503000Y-68813428D02*
X202388714Y-68813428D01*
X202331571Y-68842000D01*
X202303000Y-68870571D01*
X202245857Y-68956285D01*
X202217285Y-69070571D01*
X202217285Y-69299142D01*
X202245857Y-69356285D01*
X202274428Y-69384857D01*
X202331571Y-69413428D01*
X202445857Y-69413428D01*
X202503000Y-69384857D01*
X202531571Y-69356285D01*
X202560142Y-69299142D01*
X202560142Y-69156285D01*
X202531571Y-69099142D01*
X202503000Y-69070571D01*
X202445857Y-69042000D01*
X202331571Y-69042000D01*
X202274428Y-69070571D01*
X202245857Y-69099142D01*
X202217285Y-69156285D01*
X168384055Y-106953538D02*
X168384055Y-106993944D01*
X168343649Y-107074756D01*
X168303243Y-107115162D01*
X168222431Y-107155568D01*
X168141619Y-107155568D01*
X168081009Y-107135365D01*
X167979994Y-107074756D01*
X167919385Y-107014147D01*
X167858776Y-106913131D01*
X167838573Y-106852522D01*
X167838573Y-106771710D01*
X167878979Y-106690898D01*
X167919385Y-106650492D01*
X168000197Y-106610086D01*
X168040603Y-106610086D01*
X168828522Y-106589883D02*
X168586086Y-106832319D01*
X168707304Y-106711101D02*
X168283040Y-106286837D01*
X168303243Y-106387852D01*
X168303243Y-106468664D01*
X168283040Y-106529274D01*
X168788116Y-105781761D02*
X168586086Y-105983791D01*
X168767913Y-106206025D01*
X168767913Y-106165619D01*
X168788116Y-106105009D01*
X168889131Y-106003994D01*
X168949741Y-105983791D01*
X168990147Y-105983791D01*
X169050756Y-106003994D01*
X169151771Y-106105009D01*
X169171974Y-106165619D01*
X169171974Y-106206025D01*
X169151771Y-106266634D01*
X169050756Y-106367649D01*
X168990147Y-106387852D01*
X168949741Y-106387852D01*
X170394285Y-58297714D02*
X170422857Y-58326285D01*
X170451428Y-58412000D01*
X170451428Y-58469142D01*
X170422857Y-58554857D01*
X170365714Y-58612000D01*
X170308571Y-58640571D01*
X170194285Y-58669142D01*
X170108571Y-58669142D01*
X169994285Y-58640571D01*
X169937142Y-58612000D01*
X169880000Y-58554857D01*
X169851428Y-58469142D01*
X169851428Y-58412000D01*
X169880000Y-58326285D01*
X169908571Y-58297714D01*
X170451428Y-57726285D02*
X170451428Y-58069142D01*
X170451428Y-57897714D02*
X169851428Y-57897714D01*
X169937142Y-57954857D01*
X169994285Y-58012000D01*
X170022857Y-58069142D01*
X170451428Y-57154857D02*
X170451428Y-57497714D01*
X170451428Y-57326285D02*
X169851428Y-57326285D01*
X169937142Y-57383428D01*
X169994285Y-57440571D01*
X170022857Y-57497714D01*
X170267285Y-55757714D02*
X170295857Y-55786285D01*
X170324428Y-55872000D01*
X170324428Y-55929142D01*
X170295857Y-56014857D01*
X170238714Y-56072000D01*
X170181571Y-56100571D01*
X170067285Y-56129142D01*
X169981571Y-56129142D01*
X169867285Y-56100571D01*
X169810142Y-56072000D01*
X169753000Y-56014857D01*
X169724428Y-55929142D01*
X169724428Y-55872000D01*
X169753000Y-55786285D01*
X169781571Y-55757714D01*
X170324428Y-55186285D02*
X170324428Y-55529142D01*
X170324428Y-55357714D02*
X169724428Y-55357714D01*
X169810142Y-55414857D01*
X169867285Y-55472000D01*
X169895857Y-55529142D01*
X169724428Y-54814857D02*
X169724428Y-54757714D01*
X169753000Y-54700571D01*
X169781571Y-54672000D01*
X169838714Y-54643428D01*
X169953000Y-54614857D01*
X170095857Y-54614857D01*
X170210142Y-54643428D01*
X170267285Y-54672000D01*
X170295857Y-54700571D01*
X170324428Y-54757714D01*
X170324428Y-54814857D01*
X170295857Y-54872000D01*
X170267285Y-54900571D01*
X170210142Y-54929142D01*
X170095857Y-54957714D01*
X169953000Y-54957714D01*
X169838714Y-54929142D01*
X169781571Y-54900571D01*
X169753000Y-54872000D01*
X169724428Y-54814857D01*
X193956000Y-70826285D02*
X193927428Y-70854857D01*
X193841714Y-70883428D01*
X193784571Y-70883428D01*
X193698857Y-70854857D01*
X193641714Y-70797714D01*
X193613142Y-70740571D01*
X193584571Y-70626285D01*
X193584571Y-70540571D01*
X193613142Y-70426285D01*
X193641714Y-70369142D01*
X193698857Y-70312000D01*
X193784571Y-70283428D01*
X193841714Y-70283428D01*
X193927428Y-70312000D01*
X193956000Y-70340571D01*
X194156000Y-70283428D02*
X194556000Y-70283428D01*
X194298857Y-70883428D01*
X201068000Y-70826285D02*
X201039428Y-70854857D01*
X200953714Y-70883428D01*
X200896571Y-70883428D01*
X200810857Y-70854857D01*
X200753714Y-70797714D01*
X200725142Y-70740571D01*
X200696571Y-70626285D01*
X200696571Y-70540571D01*
X200725142Y-70426285D01*
X200753714Y-70369142D01*
X200810857Y-70312000D01*
X200896571Y-70283428D01*
X200953714Y-70283428D01*
X201039428Y-70312000D01*
X201068000Y-70340571D01*
X201582285Y-70283428D02*
X201468000Y-70283428D01*
X201410857Y-70312000D01*
X201382285Y-70340571D01*
X201325142Y-70426285D01*
X201296571Y-70540571D01*
X201296571Y-70769142D01*
X201325142Y-70826285D01*
X201353714Y-70854857D01*
X201410857Y-70883428D01*
X201525142Y-70883428D01*
X201582285Y-70854857D01*
X201610857Y-70826285D01*
X201639428Y-70769142D01*
X201639428Y-70626285D01*
X201610857Y-70569142D01*
X201582285Y-70540571D01*
X201525142Y-70512000D01*
X201410857Y-70512000D01*
X201353714Y-70540571D01*
X201325142Y-70569142D01*
X201296571Y-70626285D01*
X197757276Y-106826870D02*
X197716870Y-106826870D01*
X197636058Y-106786464D01*
X197595652Y-106746057D01*
X197555245Y-106665245D01*
X197555245Y-106584433D01*
X197575448Y-106523824D01*
X197636058Y-106422809D01*
X197696667Y-106362200D01*
X197797682Y-106301590D01*
X197858291Y-106281387D01*
X197939103Y-106281387D01*
X198019916Y-106321793D01*
X198060322Y-106362200D01*
X198100728Y-106443012D01*
X198100728Y-106483418D01*
X198524992Y-106826870D02*
X198322961Y-106624839D01*
X198100728Y-106806667D01*
X198141134Y-106806667D01*
X198201743Y-106826870D01*
X198302758Y-106927885D01*
X198322961Y-106988494D01*
X198322961Y-107028900D01*
X198302758Y-107089509D01*
X198201743Y-107190525D01*
X198141134Y-107210728D01*
X198100728Y-107210728D01*
X198040119Y-107190525D01*
X197939103Y-107089509D01*
X197918900Y-107028900D01*
X197918900Y-106988494D01*
X149252000Y-63714285D02*
X149223428Y-63742857D01*
X149137714Y-63771428D01*
X149080571Y-63771428D01*
X148994857Y-63742857D01*
X148937714Y-63685714D01*
X148909142Y-63628571D01*
X148880571Y-63514285D01*
X148880571Y-63428571D01*
X148909142Y-63314285D01*
X148937714Y-63257142D01*
X148994857Y-63200000D01*
X149080571Y-63171428D01*
X149137714Y-63171428D01*
X149223428Y-63200000D01*
X149252000Y-63228571D01*
X149766285Y-63371428D02*
X149766285Y-63771428D01*
X149623428Y-63142857D02*
X149480571Y-63571428D01*
X149852000Y-63571428D01*
X180117766Y-118444812D02*
X180077360Y-118444812D01*
X179996548Y-118404406D01*
X179956142Y-118363999D01*
X179915735Y-118283187D01*
X179915735Y-118202375D01*
X179935938Y-118141766D01*
X179996548Y-118040751D01*
X180057157Y-117980142D01*
X180158172Y-117919532D01*
X180218781Y-117899329D01*
X180299593Y-117899329D01*
X180380406Y-117939735D01*
X180420812Y-117980142D01*
X180461218Y-118060954D01*
X180461218Y-118101360D01*
X180643045Y-118202375D02*
X180905685Y-118465015D01*
X180602639Y-118485218D01*
X180663248Y-118545827D01*
X180683451Y-118606436D01*
X180683451Y-118646842D01*
X180663248Y-118707451D01*
X180562233Y-118808467D01*
X180501624Y-118828670D01*
X180461218Y-118828670D01*
X180400609Y-118808467D01*
X180279390Y-118687248D01*
X180259187Y-118626639D01*
X180259187Y-118586233D01*
X189892000Y-70826285D02*
X189863428Y-70854857D01*
X189777714Y-70883428D01*
X189720571Y-70883428D01*
X189634857Y-70854857D01*
X189577714Y-70797714D01*
X189549142Y-70740571D01*
X189520571Y-70626285D01*
X189520571Y-70540571D01*
X189549142Y-70426285D01*
X189577714Y-70369142D01*
X189634857Y-70312000D01*
X189720571Y-70283428D01*
X189777714Y-70283428D01*
X189863428Y-70312000D01*
X189892000Y-70340571D01*
X190120571Y-70340571D02*
X190149142Y-70312000D01*
X190206285Y-70283428D01*
X190349142Y-70283428D01*
X190406285Y-70312000D01*
X190434857Y-70340571D01*
X190463428Y-70397714D01*
X190463428Y-70454857D01*
X190434857Y-70540571D01*
X190092000Y-70883428D01*
X190463428Y-70883428D01*
X177700000Y-70318285D02*
X177671428Y-70346857D01*
X177585714Y-70375428D01*
X177528571Y-70375428D01*
X177442857Y-70346857D01*
X177385714Y-70289714D01*
X177357142Y-70232571D01*
X177328571Y-70118285D01*
X177328571Y-70032571D01*
X177357142Y-69918285D01*
X177385714Y-69861142D01*
X177442857Y-69804000D01*
X177528571Y-69775428D01*
X177585714Y-69775428D01*
X177671428Y-69804000D01*
X177700000Y-69832571D01*
X178271428Y-70375428D02*
X177928571Y-70375428D01*
X178100000Y-70375428D02*
X178100000Y-69775428D01*
X178042857Y-69861142D01*
X177985714Y-69918285D01*
X177928571Y-69946857D01*
X142200380Y-137461523D02*
X142914666Y-137461523D01*
X143057523Y-137509142D01*
X143152761Y-137604380D01*
X143200380Y-137747238D01*
X143200380Y-137842476D01*
X143200380Y-136461523D02*
X143200380Y-137032952D01*
X143200380Y-136747238D02*
X142200380Y-136747238D01*
X142343238Y-136842476D01*
X142438476Y-136937714D01*
X142486095Y-137032952D01*
X142533714Y-135604380D02*
X143200380Y-135604380D01*
X142152761Y-135842476D02*
X142867047Y-136080571D01*
X142867047Y-135461523D01*
X142200380Y-124063023D02*
X142914666Y-124063023D01*
X143057523Y-124110642D01*
X143152761Y-124205880D01*
X143200380Y-124348738D01*
X143200380Y-124443976D01*
X143200380Y-123063023D02*
X143200380Y-123634452D01*
X143200380Y-123348738D02*
X142200380Y-123348738D01*
X142343238Y-123443976D01*
X142438476Y-123539214D01*
X142486095Y-123634452D01*
X142295619Y-122682071D02*
X142248000Y-122634452D01*
X142200380Y-122539214D01*
X142200380Y-122301119D01*
X142248000Y-122205880D01*
X142295619Y-122158261D01*
X142390857Y-122110642D01*
X142486095Y-122110642D01*
X142628952Y-122158261D01*
X143200380Y-122729690D01*
X143200380Y-122110642D01*
X142200380Y-110664523D02*
X142914666Y-110664523D01*
X143057523Y-110712142D01*
X143152761Y-110807380D01*
X143200380Y-110950238D01*
X143200380Y-111045476D01*
X143200380Y-109664523D02*
X143200380Y-110235952D01*
X143200380Y-109950238D02*
X142200380Y-109950238D01*
X142343238Y-110045476D01*
X142438476Y-110140714D01*
X142486095Y-110235952D01*
X142200380Y-109045476D02*
X142200380Y-108950238D01*
X142248000Y-108855000D01*
X142295619Y-108807380D01*
X142390857Y-108759761D01*
X142581333Y-108712142D01*
X142819428Y-108712142D01*
X143009904Y-108759761D01*
X143105142Y-108807380D01*
X143152761Y-108855000D01*
X143200380Y-108950238D01*
X143200380Y-109045476D01*
X143152761Y-109140714D01*
X143105142Y-109188333D01*
X143009904Y-109235952D01*
X142819428Y-109283571D01*
X142581333Y-109283571D01*
X142390857Y-109235952D01*
X142295619Y-109188333D01*
X142248000Y-109140714D01*
X142200380Y-109045476D01*
X142200380Y-96853333D02*
X142914666Y-96853333D01*
X143057523Y-96900952D01*
X143152761Y-96996190D01*
X143200380Y-97139047D01*
X143200380Y-97234285D01*
X142628952Y-96234285D02*
X142581333Y-96329523D01*
X142533714Y-96377142D01*
X142438476Y-96424761D01*
X142390857Y-96424761D01*
X142295619Y-96377142D01*
X142248000Y-96329523D01*
X142200380Y-96234285D01*
X142200380Y-96043809D01*
X142248000Y-95948571D01*
X142295619Y-95900952D01*
X142390857Y-95853333D01*
X142438476Y-95853333D01*
X142533714Y-95900952D01*
X142581333Y-95948571D01*
X142628952Y-96043809D01*
X142628952Y-96234285D01*
X142676571Y-96329523D01*
X142724190Y-96377142D01*
X142819428Y-96424761D01*
X143009904Y-96424761D01*
X143105142Y-96377142D01*
X143152761Y-96329523D01*
X143200380Y-96234285D01*
X143200380Y-96043809D01*
X143152761Y-95948571D01*
X143105142Y-95900952D01*
X143009904Y-95853333D01*
X142819428Y-95853333D01*
X142724190Y-95900952D01*
X142676571Y-95948571D01*
X142628952Y-96043809D01*
X142200380Y-83135333D02*
X142914666Y-83135333D01*
X143057523Y-83182952D01*
X143152761Y-83278190D01*
X143200380Y-83421047D01*
X143200380Y-83516285D01*
X142200380Y-82754380D02*
X142200380Y-82087714D01*
X143200380Y-82516285D01*
X218908380Y-136985333D02*
X219622666Y-136985333D01*
X219765523Y-137032952D01*
X219860761Y-137128190D01*
X219908380Y-137271047D01*
X219908380Y-137366285D01*
X218908380Y-136080571D02*
X218908380Y-136271047D01*
X218956000Y-136366285D01*
X219003619Y-136413904D01*
X219146476Y-136509142D01*
X219336952Y-136556761D01*
X219717904Y-136556761D01*
X219813142Y-136509142D01*
X219860761Y-136461523D01*
X219908380Y-136366285D01*
X219908380Y-136175809D01*
X219860761Y-136080571D01*
X219813142Y-136032952D01*
X219717904Y-135985333D01*
X219479809Y-135985333D01*
X219384571Y-136032952D01*
X219336952Y-136080571D01*
X219289333Y-136175809D01*
X219289333Y-136366285D01*
X219336952Y-136461523D01*
X219384571Y-136509142D01*
X219479809Y-136556761D01*
X219416380Y-123522833D02*
X220130666Y-123522833D01*
X220273523Y-123570452D01*
X220368761Y-123665690D01*
X220416380Y-123808547D01*
X220416380Y-123903785D01*
X219416380Y-122570452D02*
X219416380Y-123046642D01*
X219892571Y-123094261D01*
X219844952Y-123046642D01*
X219797333Y-122951404D01*
X219797333Y-122713309D01*
X219844952Y-122618071D01*
X219892571Y-122570452D01*
X219987809Y-122522833D01*
X220225904Y-122522833D01*
X220321142Y-122570452D01*
X220368761Y-122618071D01*
X220416380Y-122713309D01*
X220416380Y-122951404D01*
X220368761Y-123046642D01*
X220321142Y-123094261D01*
X219416380Y-110060333D02*
X220130666Y-110060333D01*
X220273523Y-110107952D01*
X220368761Y-110203190D01*
X220416380Y-110346047D01*
X220416380Y-110441285D01*
X219749714Y-109155571D02*
X220416380Y-109155571D01*
X219368761Y-109393666D02*
X220083047Y-109631761D01*
X220083047Y-109012714D01*
X219416380Y-96597833D02*
X220130666Y-96597833D01*
X220273523Y-96645452D01*
X220368761Y-96740690D01*
X220416380Y-96883547D01*
X220416380Y-96978785D01*
X219416380Y-96216880D02*
X219416380Y-95597833D01*
X219797333Y-95931166D01*
X219797333Y-95788309D01*
X219844952Y-95693071D01*
X219892571Y-95645452D01*
X219987809Y-95597833D01*
X220225904Y-95597833D01*
X220321142Y-95645452D01*
X220368761Y-95693071D01*
X220416380Y-95788309D01*
X220416380Y-96074023D01*
X220368761Y-96169261D01*
X220321142Y-96216880D01*
X218908380Y-83137333D02*
X219622666Y-83137333D01*
X219765523Y-83184952D01*
X219860761Y-83280190D01*
X219908380Y-83423047D01*
X219908380Y-83518285D01*
X219003619Y-82708761D02*
X218956000Y-82661142D01*
X218908380Y-82565904D01*
X218908380Y-82327809D01*
X218956000Y-82232571D01*
X219003619Y-82184952D01*
X219098857Y-82137333D01*
X219194095Y-82137333D01*
X219336952Y-82184952D01*
X219908380Y-82756380D01*
X219908380Y-82137333D01*
X149034666Y-54252761D02*
X149177523Y-54300380D01*
X149415619Y-54300380D01*
X149510857Y-54252761D01*
X149558476Y-54205142D01*
X149606095Y-54109904D01*
X149606095Y-54014666D01*
X149558476Y-53919428D01*
X149510857Y-53871809D01*
X149415619Y-53824190D01*
X149225142Y-53776571D01*
X149129904Y-53728952D01*
X149082285Y-53681333D01*
X149034666Y-53586095D01*
X149034666Y-53490857D01*
X149082285Y-53395619D01*
X149129904Y-53348000D01*
X149225142Y-53300380D01*
X149463238Y-53300380D01*
X149606095Y-53348000D01*
X149939428Y-53300380D02*
X150177523Y-54300380D01*
X150368000Y-53586095D01*
X150558476Y-54300380D01*
X150796571Y-53300380D01*
X151701333Y-54300380D02*
X151129904Y-54300380D01*
X151415619Y-54300380D02*
X151415619Y-53300380D01*
X151320380Y-53443238D01*
X151225142Y-53538476D01*
X151129904Y-53586095D01*
X165508000Y-75414428D02*
X165308000Y-75128714D01*
X165165142Y-75414428D02*
X165165142Y-74814428D01*
X165393714Y-74814428D01*
X165450857Y-74843000D01*
X165479428Y-74871571D01*
X165508000Y-74928714D01*
X165508000Y-75014428D01*
X165479428Y-75071571D01*
X165450857Y-75100142D01*
X165393714Y-75128714D01*
X165165142Y-75128714D01*
X165850857Y-75071571D02*
X165793714Y-75043000D01*
X165765142Y-75014428D01*
X165736571Y-74957285D01*
X165736571Y-74928714D01*
X165765142Y-74871571D01*
X165793714Y-74843000D01*
X165850857Y-74814428D01*
X165965142Y-74814428D01*
X166022285Y-74843000D01*
X166050857Y-74871571D01*
X166079428Y-74928714D01*
X166079428Y-74957285D01*
X166050857Y-75014428D01*
X166022285Y-75043000D01*
X165965142Y-75071571D01*
X165850857Y-75071571D01*
X165793714Y-75100142D01*
X165765142Y-75128714D01*
X165736571Y-75185857D01*
X165736571Y-75300142D01*
X165765142Y-75357285D01*
X165793714Y-75385857D01*
X165850857Y-75414428D01*
X165965142Y-75414428D01*
X166022285Y-75385857D01*
X166050857Y-75357285D01*
X166079428Y-75300142D01*
X166079428Y-75185857D01*
X166050857Y-75128714D01*
X166022285Y-75100142D01*
X165965142Y-75071571D01*
X162841000Y-75414428D02*
X162641000Y-75128714D01*
X162498142Y-75414428D02*
X162498142Y-74814428D01*
X162726714Y-74814428D01*
X162783857Y-74843000D01*
X162812428Y-74871571D01*
X162841000Y-74928714D01*
X162841000Y-75014428D01*
X162812428Y-75071571D01*
X162783857Y-75100142D01*
X162726714Y-75128714D01*
X162498142Y-75128714D01*
X163041000Y-74814428D02*
X163441000Y-74814428D01*
X163183857Y-75414428D01*
X187447285Y-60088428D02*
X187247285Y-59802714D01*
X187104428Y-60088428D02*
X187104428Y-59488428D01*
X187333000Y-59488428D01*
X187390142Y-59517000D01*
X187418714Y-59545571D01*
X187447285Y-59602714D01*
X187447285Y-59688428D01*
X187418714Y-59745571D01*
X187390142Y-59774142D01*
X187333000Y-59802714D01*
X187104428Y-59802714D01*
X188018714Y-60088428D02*
X187675857Y-60088428D01*
X187847285Y-60088428D02*
X187847285Y-59488428D01*
X187790142Y-59574142D01*
X187733000Y-59631285D01*
X187675857Y-59659857D01*
X188533000Y-59688428D02*
X188533000Y-60088428D01*
X188390142Y-59459857D02*
X188247285Y-59888428D01*
X188618714Y-59888428D01*
X167403428Y-74045714D02*
X167117714Y-74245714D01*
X167403428Y-74388571D02*
X166803428Y-74388571D01*
X166803428Y-74160000D01*
X166832000Y-74102857D01*
X166860571Y-74074285D01*
X166917714Y-74045714D01*
X167003428Y-74045714D01*
X167060571Y-74074285D01*
X167089142Y-74102857D01*
X167117714Y-74160000D01*
X167117714Y-74388571D01*
X167403428Y-73474285D02*
X167403428Y-73817142D01*
X167403428Y-73645714D02*
X166803428Y-73645714D01*
X166889142Y-73702857D01*
X166946285Y-73760000D01*
X166974857Y-73817142D01*
X166803428Y-73274285D02*
X166803428Y-72902857D01*
X167032000Y-73102857D01*
X167032000Y-73017142D01*
X167060571Y-72960000D01*
X167089142Y-72931428D01*
X167146285Y-72902857D01*
X167289142Y-72902857D01*
X167346285Y-72931428D01*
X167374857Y-72960000D01*
X167403428Y-73017142D01*
X167403428Y-73188571D01*
X167374857Y-73245714D01*
X167346285Y-73274285D01*
X190622285Y-60088428D02*
X190422285Y-59802714D01*
X190279428Y-60088428D02*
X190279428Y-59488428D01*
X190508000Y-59488428D01*
X190565142Y-59517000D01*
X190593714Y-59545571D01*
X190622285Y-59602714D01*
X190622285Y-59688428D01*
X190593714Y-59745571D01*
X190565142Y-59774142D01*
X190508000Y-59802714D01*
X190279428Y-59802714D01*
X191193714Y-60088428D02*
X190850857Y-60088428D01*
X191022285Y-60088428D02*
X191022285Y-59488428D01*
X190965142Y-59574142D01*
X190908000Y-59631285D01*
X190850857Y-59659857D01*
X191422285Y-59545571D02*
X191450857Y-59517000D01*
X191508000Y-59488428D01*
X191650857Y-59488428D01*
X191708000Y-59517000D01*
X191736571Y-59545571D01*
X191765142Y-59602714D01*
X191765142Y-59659857D01*
X191736571Y-59745571D01*
X191393714Y-60088428D01*
X191765142Y-60088428D01*
X167403428Y-68965714D02*
X167117714Y-69165714D01*
X167403428Y-69308571D02*
X166803428Y-69308571D01*
X166803428Y-69080000D01*
X166832000Y-69022857D01*
X166860571Y-68994285D01*
X166917714Y-68965714D01*
X167003428Y-68965714D01*
X167060571Y-68994285D01*
X167089142Y-69022857D01*
X167117714Y-69080000D01*
X167117714Y-69308571D01*
X167403428Y-68394285D02*
X167403428Y-68737142D01*
X167403428Y-68565714D02*
X166803428Y-68565714D01*
X166889142Y-68622857D01*
X166946285Y-68680000D01*
X166974857Y-68737142D01*
X167403428Y-67822857D02*
X167403428Y-68165714D01*
X167403428Y-67994285D02*
X166803428Y-67994285D01*
X166889142Y-68051428D01*
X166946285Y-68108571D01*
X166974857Y-68165714D01*
X167403428Y-71505714D02*
X167117714Y-71705714D01*
X167403428Y-71848571D02*
X166803428Y-71848571D01*
X166803428Y-71620000D01*
X166832000Y-71562857D01*
X166860571Y-71534285D01*
X166917714Y-71505714D01*
X167003428Y-71505714D01*
X167060571Y-71534285D01*
X167089142Y-71562857D01*
X167117714Y-71620000D01*
X167117714Y-71848571D01*
X167403428Y-70934285D02*
X167403428Y-71277142D01*
X167403428Y-71105714D02*
X166803428Y-71105714D01*
X166889142Y-71162857D01*
X166946285Y-71220000D01*
X166974857Y-71277142D01*
X166803428Y-70562857D02*
X166803428Y-70505714D01*
X166832000Y-70448571D01*
X166860571Y-70420000D01*
X166917714Y-70391428D01*
X167032000Y-70362857D01*
X167174857Y-70362857D01*
X167289142Y-70391428D01*
X167346285Y-70420000D01*
X167374857Y-70448571D01*
X167403428Y-70505714D01*
X167403428Y-70562857D01*
X167374857Y-70620000D01*
X167346285Y-70648571D01*
X167289142Y-70677142D01*
X167174857Y-70705714D01*
X167032000Y-70705714D01*
X166917714Y-70677142D01*
X166860571Y-70648571D01*
X166832000Y-70620000D01*
X166803428Y-70562857D01*
X167403428Y-66140000D02*
X167117714Y-66340000D01*
X167403428Y-66482857D02*
X166803428Y-66482857D01*
X166803428Y-66254285D01*
X166832000Y-66197142D01*
X166860571Y-66168571D01*
X166917714Y-66140000D01*
X167003428Y-66140000D01*
X167060571Y-66168571D01*
X167089142Y-66197142D01*
X167117714Y-66254285D01*
X167117714Y-66482857D01*
X167403428Y-65854285D02*
X167403428Y-65740000D01*
X167374857Y-65682857D01*
X167346285Y-65654285D01*
X167260571Y-65597142D01*
X167146285Y-65568571D01*
X166917714Y-65568571D01*
X166860571Y-65597142D01*
X166832000Y-65625714D01*
X166803428Y-65682857D01*
X166803428Y-65797142D01*
X166832000Y-65854285D01*
X166860571Y-65882857D01*
X166917714Y-65911428D01*
X167060571Y-65911428D01*
X167117714Y-65882857D01*
X167146285Y-65854285D01*
X167174857Y-65797142D01*
X167174857Y-65682857D01*
X167146285Y-65625714D01*
X167117714Y-65597142D01*
X167060571Y-65568571D01*
X152300000Y-63771428D02*
X152100000Y-63485714D01*
X151957142Y-63771428D02*
X151957142Y-63171428D01*
X152185714Y-63171428D01*
X152242857Y-63200000D01*
X152271428Y-63228571D01*
X152300000Y-63285714D01*
X152300000Y-63371428D01*
X152271428Y-63428571D01*
X152242857Y-63457142D01*
X152185714Y-63485714D01*
X151957142Y-63485714D01*
X152814285Y-63171428D02*
X152700000Y-63171428D01*
X152642857Y-63200000D01*
X152614285Y-63228571D01*
X152557142Y-63314285D01*
X152528571Y-63428571D01*
X152528571Y-63657142D01*
X152557142Y-63714285D01*
X152585714Y-63742857D01*
X152642857Y-63771428D01*
X152757142Y-63771428D01*
X152814285Y-63742857D01*
X152842857Y-63714285D01*
X152871428Y-63657142D01*
X152871428Y-63514285D01*
X152842857Y-63457142D01*
X152814285Y-63428571D01*
X152757142Y-63400000D01*
X152642857Y-63400000D01*
X152585714Y-63428571D01*
X152557142Y-63457142D01*
X152528571Y-63514285D01*
X168556000Y-59199428D02*
X168356000Y-58913714D01*
X168213142Y-59199428D02*
X168213142Y-58599428D01*
X168441714Y-58599428D01*
X168498857Y-58628000D01*
X168527428Y-58656571D01*
X168556000Y-58713714D01*
X168556000Y-58799428D01*
X168527428Y-58856571D01*
X168498857Y-58885142D01*
X168441714Y-58913714D01*
X168213142Y-58913714D01*
X169098857Y-58599428D02*
X168813142Y-58599428D01*
X168784571Y-58885142D01*
X168813142Y-58856571D01*
X168870285Y-58828000D01*
X169013142Y-58828000D01*
X169070285Y-58856571D01*
X169098857Y-58885142D01*
X169127428Y-58942285D01*
X169127428Y-59085142D01*
X169098857Y-59142285D01*
X169070285Y-59170857D01*
X169013142Y-59199428D01*
X168870285Y-59199428D01*
X168813142Y-59170857D01*
X168784571Y-59142285D01*
X170324428Y-52932000D02*
X170038714Y-53132000D01*
X170324428Y-53274857D02*
X169724428Y-53274857D01*
X169724428Y-53046285D01*
X169753000Y-52989142D01*
X169781571Y-52960571D01*
X169838714Y-52932000D01*
X169924428Y-52932000D01*
X169981571Y-52960571D01*
X170010142Y-52989142D01*
X170038714Y-53046285D01*
X170038714Y-53274857D01*
X169924428Y-52417714D02*
X170324428Y-52417714D01*
X169695857Y-52560571D02*
X170124428Y-52703428D01*
X170124428Y-52332000D01*
X146204000Y-63771428D02*
X146004000Y-63485714D01*
X145861142Y-63771428D02*
X145861142Y-63171428D01*
X146089714Y-63171428D01*
X146146857Y-63200000D01*
X146175428Y-63228571D01*
X146204000Y-63285714D01*
X146204000Y-63371428D01*
X146175428Y-63428571D01*
X146146857Y-63457142D01*
X146089714Y-63485714D01*
X145861142Y-63485714D01*
X146404000Y-63171428D02*
X146775428Y-63171428D01*
X146575428Y-63400000D01*
X146661142Y-63400000D01*
X146718285Y-63428571D01*
X146746857Y-63457142D01*
X146775428Y-63514285D01*
X146775428Y-63657142D01*
X146746857Y-63714285D01*
X146718285Y-63742857D01*
X146661142Y-63771428D01*
X146489714Y-63771428D01*
X146432571Y-63742857D01*
X146404000Y-63714285D01*
X208180000Y-52096428D02*
X207980000Y-51810714D01*
X207837142Y-52096428D02*
X207837142Y-51496428D01*
X208065714Y-51496428D01*
X208122857Y-51525000D01*
X208151428Y-51553571D01*
X208180000Y-51610714D01*
X208180000Y-51696428D01*
X208151428Y-51753571D01*
X208122857Y-51782142D01*
X208065714Y-51810714D01*
X207837142Y-51810714D01*
X208751428Y-52096428D02*
X208408571Y-52096428D01*
X208580000Y-52096428D02*
X208580000Y-51496428D01*
X208522857Y-51582142D01*
X208465714Y-51639285D01*
X208408571Y-51667857D01*
X202492000Y-56567428D02*
X202492000Y-56996000D01*
X202463428Y-57081714D01*
X202406285Y-57138857D01*
X202320571Y-57167428D01*
X202263428Y-57167428D01*
X203092000Y-57167428D02*
X202749142Y-57167428D01*
X202920571Y-57167428D02*
X202920571Y-56567428D01*
X202863428Y-56653142D01*
X202806285Y-56710285D01*
X202749142Y-56738857D01*
X161266285Y-63171428D02*
X161466285Y-63771428D01*
X161666285Y-63171428D01*
X162209142Y-63771428D02*
X162009142Y-63485714D01*
X161866285Y-63771428D02*
X161866285Y-63171428D01*
X162094857Y-63171428D01*
X162152000Y-63200000D01*
X162180571Y-63228571D01*
X162209142Y-63285714D01*
X162209142Y-63371428D01*
X162180571Y-63428571D01*
X162152000Y-63457142D01*
X162094857Y-63485714D01*
X161866285Y-63485714D01*
X162780571Y-63771428D02*
X162437714Y-63771428D01*
X162609142Y-63771428D02*
X162609142Y-63171428D01*
X162552000Y-63257142D01*
X162494857Y-63314285D01*
X162437714Y-63342857D01*
X194489428Y-60274142D02*
X194975142Y-60274142D01*
X195032285Y-60245571D01*
X195060857Y-60217000D01*
X195089428Y-60159857D01*
X195089428Y-60045571D01*
X195060857Y-59988428D01*
X195032285Y-59959857D01*
X194975142Y-59931285D01*
X194489428Y-59931285D01*
X194489428Y-59702714D02*
X194489428Y-59331285D01*
X194718000Y-59531285D01*
X194718000Y-59445571D01*
X194746571Y-59388428D01*
X194775142Y-59359857D01*
X194832285Y-59331285D01*
X194975142Y-59331285D01*
X195032285Y-59359857D01*
X195060857Y-59388428D01*
X195089428Y-59445571D01*
X195089428Y-59617000D01*
X195060857Y-59674142D01*
X195032285Y-59702714D01*
X172135857Y-59488428D02*
X172135857Y-59974142D01*
X172164428Y-60031285D01*
X172193000Y-60059857D01*
X172250142Y-60088428D01*
X172364428Y-60088428D01*
X172421571Y-60059857D01*
X172450142Y-60031285D01*
X172478714Y-59974142D01*
X172478714Y-59488428D01*
X172735857Y-59545571D02*
X172764428Y-59517000D01*
X172821571Y-59488428D01*
X172964428Y-59488428D01*
X173021571Y-59517000D01*
X173050142Y-59545571D01*
X173078714Y-59602714D01*
X173078714Y-59659857D01*
X173050142Y-59745571D01*
X172707285Y-60088428D01*
X173078714Y-60088428D01*
X175439428Y-52778000D02*
X175868000Y-52778000D01*
X175953714Y-52806571D01*
X176010857Y-52863714D01*
X176039428Y-52949428D01*
X176039428Y-53006571D01*
X176039428Y-52463714D02*
X176039428Y-52349428D01*
X176010857Y-52292285D01*
X175982285Y-52263714D01*
X175896571Y-52206571D01*
X175782285Y-52178000D01*
X175553714Y-52178000D01*
X175496571Y-52206571D01*
X175468000Y-52235142D01*
X175439428Y-52292285D01*
X175439428Y-52406571D01*
X175468000Y-52463714D01*
X175496571Y-52492285D01*
X175553714Y-52520857D01*
X175696571Y-52520857D01*
X175753714Y-52492285D01*
X175782285Y-52463714D01*
X175810857Y-52406571D01*
X175810857Y-52292285D01*
X175782285Y-52235142D01*
X175753714Y-52206571D01*
X175696571Y-52178000D01*
M02*
