G04 #@! TF.GenerationSoftware,KiCad,Pcbnew,(5.1.5)-3*
G04 #@! TF.CreationDate,2020-04-08T17:46:41-04:00*
G04 #@! TF.ProjectId,ControlBoard,436f6e74-726f-46c4-926f-6172642e6b69,rev?*
G04 #@! TF.SameCoordinates,Original*
G04 #@! TF.FileFunction,Soldermask,Bot*
G04 #@! TF.FilePolarity,Negative*
%FSLAX46Y46*%
G04 Gerber Fmt 4.6, Leading zero omitted, Abs format (unit mm)*
G04 Created by KiCad (PCBNEW (5.1.5)-3) date 2020-04-08 17:46:41*
%MOMM*%
%LPD*%
G04 APERTURE LIST*
%ADD10C,0.100000*%
G04 APERTURE END LIST*
D10*
G36*
X151497512Y-139311927D02*
G01*
X151646812Y-139341624D01*
X151810784Y-139409544D01*
X151958354Y-139508147D01*
X152083853Y-139633646D01*
X152182456Y-139781216D01*
X152250376Y-139945188D01*
X152285000Y-140119259D01*
X152285000Y-140296741D01*
X152250376Y-140470812D01*
X152182456Y-140634784D01*
X152083853Y-140782354D01*
X151958354Y-140907853D01*
X151810784Y-141006456D01*
X151646812Y-141074376D01*
X151502906Y-141103000D01*
X151472742Y-141109000D01*
X151295258Y-141109000D01*
X151265094Y-141103000D01*
X151121188Y-141074376D01*
X150957216Y-141006456D01*
X150809646Y-140907853D01*
X150684147Y-140782354D01*
X150585544Y-140634784D01*
X150517624Y-140470812D01*
X150483000Y-140296741D01*
X150483000Y-140119259D01*
X150517624Y-139945188D01*
X150585544Y-139781216D01*
X150684147Y-139633646D01*
X150809646Y-139508147D01*
X150957216Y-139409544D01*
X151121188Y-139341624D01*
X151270488Y-139311927D01*
X151295258Y-139307000D01*
X151472742Y-139307000D01*
X151497512Y-139311927D01*
G37*
G36*
X157085512Y-139311927D02*
G01*
X157234812Y-139341624D01*
X157398784Y-139409544D01*
X157546354Y-139508147D01*
X157671853Y-139633646D01*
X157770456Y-139781216D01*
X157838376Y-139945188D01*
X157873000Y-140119259D01*
X157873000Y-140296741D01*
X157838376Y-140470812D01*
X157770456Y-140634784D01*
X157671853Y-140782354D01*
X157546354Y-140907853D01*
X157398784Y-141006456D01*
X157234812Y-141074376D01*
X157090906Y-141103000D01*
X157060742Y-141109000D01*
X156883258Y-141109000D01*
X156853094Y-141103000D01*
X156709188Y-141074376D01*
X156545216Y-141006456D01*
X156397646Y-140907853D01*
X156272147Y-140782354D01*
X156173544Y-140634784D01*
X156105624Y-140470812D01*
X156071000Y-140296741D01*
X156071000Y-140119259D01*
X156105624Y-139945188D01*
X156173544Y-139781216D01*
X156272147Y-139633646D01*
X156397646Y-139508147D01*
X156545216Y-139409544D01*
X156709188Y-139341624D01*
X156858488Y-139311927D01*
X156883258Y-139307000D01*
X157060742Y-139307000D01*
X157085512Y-139311927D01*
G37*
G36*
X212229000Y-141109000D02*
G01*
X210427000Y-141109000D01*
X210427000Y-139307000D01*
X212229000Y-139307000D01*
X212229000Y-141109000D01*
G37*
G36*
X206641000Y-141103000D02*
G01*
X204839000Y-141103000D01*
X204839000Y-139301000D01*
X206641000Y-139301000D01*
X206641000Y-141103000D01*
G37*
G36*
X168839747Y-138563000D02*
G01*
X168991734Y-138593232D01*
X169201203Y-138679997D01*
X169389720Y-138805960D01*
X169550040Y-138966280D01*
X169676003Y-139154797D01*
X169762768Y-139364266D01*
X169807000Y-139586636D01*
X169807000Y-139813364D01*
X169762768Y-140035734D01*
X169676003Y-140245203D01*
X169550040Y-140433720D01*
X169389720Y-140594040D01*
X169201203Y-140720003D01*
X168991734Y-140806768D01*
X168880549Y-140828884D01*
X168769365Y-140851000D01*
X168542635Y-140851000D01*
X168431451Y-140828884D01*
X168320266Y-140806768D01*
X168110797Y-140720003D01*
X167922280Y-140594040D01*
X167761960Y-140433720D01*
X167635997Y-140245203D01*
X167549232Y-140035734D01*
X167505000Y-139813364D01*
X167505000Y-139586636D01*
X167549232Y-139364266D01*
X167635997Y-139154797D01*
X167761960Y-138966280D01*
X167922280Y-138805960D01*
X168110797Y-138679997D01*
X168320266Y-138593232D01*
X168472253Y-138563000D01*
X168542635Y-138549000D01*
X168769365Y-138549000D01*
X168839747Y-138563000D01*
G37*
G36*
X196271747Y-138563000D02*
G01*
X196423734Y-138593232D01*
X196633203Y-138679997D01*
X196821720Y-138805960D01*
X196982040Y-138966280D01*
X197108003Y-139154797D01*
X197194768Y-139364266D01*
X197239000Y-139586636D01*
X197239000Y-139813364D01*
X197194768Y-140035734D01*
X197108003Y-140245203D01*
X196982040Y-140433720D01*
X196821720Y-140594040D01*
X196633203Y-140720003D01*
X196423734Y-140806768D01*
X196312549Y-140828884D01*
X196201365Y-140851000D01*
X195974635Y-140851000D01*
X195863451Y-140828884D01*
X195752266Y-140806768D01*
X195542797Y-140720003D01*
X195354280Y-140594040D01*
X195193960Y-140433720D01*
X195067997Y-140245203D01*
X194981232Y-140035734D01*
X194937000Y-139813364D01*
X194937000Y-139586636D01*
X194981232Y-139364266D01*
X195067997Y-139154797D01*
X195193960Y-138966280D01*
X195354280Y-138805960D01*
X195542797Y-138679997D01*
X195752266Y-138593232D01*
X195904253Y-138563000D01*
X195974635Y-138549000D01*
X196201365Y-138549000D01*
X196271747Y-138563000D01*
G37*
G36*
X157085512Y-136771927D02*
G01*
X157234812Y-136801624D01*
X157398784Y-136869544D01*
X157546354Y-136968147D01*
X157671853Y-137093646D01*
X157770456Y-137241216D01*
X157838376Y-137405188D01*
X157868073Y-137554488D01*
X157871807Y-137573258D01*
X157873000Y-137579259D01*
X157873000Y-137756741D01*
X157838376Y-137930812D01*
X157770456Y-138094784D01*
X157671853Y-138242354D01*
X157546354Y-138367853D01*
X157398784Y-138466456D01*
X157234812Y-138534376D01*
X157090906Y-138563000D01*
X157060742Y-138569000D01*
X156883258Y-138569000D01*
X156853094Y-138563000D01*
X156709188Y-138534376D01*
X156545216Y-138466456D01*
X156397646Y-138367853D01*
X156272147Y-138242354D01*
X156173544Y-138094784D01*
X156105624Y-137930812D01*
X156071000Y-137756741D01*
X156071000Y-137579259D01*
X156072194Y-137573258D01*
X156075927Y-137554488D01*
X156105624Y-137405188D01*
X156173544Y-137241216D01*
X156272147Y-137093646D01*
X156397646Y-136968147D01*
X156545216Y-136869544D01*
X156709188Y-136801624D01*
X156858488Y-136771927D01*
X156883258Y-136767000D01*
X157060742Y-136767000D01*
X157085512Y-136771927D01*
G37*
G36*
X151497512Y-136771927D02*
G01*
X151646812Y-136801624D01*
X151810784Y-136869544D01*
X151958354Y-136968147D01*
X152083853Y-137093646D01*
X152182456Y-137241216D01*
X152250376Y-137405188D01*
X152280073Y-137554488D01*
X152283807Y-137573258D01*
X152285000Y-137579259D01*
X152285000Y-137756741D01*
X152250376Y-137930812D01*
X152182456Y-138094784D01*
X152083853Y-138242354D01*
X151958354Y-138367853D01*
X151810784Y-138466456D01*
X151646812Y-138534376D01*
X151502906Y-138563000D01*
X151472742Y-138569000D01*
X151295258Y-138569000D01*
X151265094Y-138563000D01*
X151121188Y-138534376D01*
X150957216Y-138466456D01*
X150809646Y-138367853D01*
X150684147Y-138242354D01*
X150585544Y-138094784D01*
X150517624Y-137930812D01*
X150483000Y-137756741D01*
X150483000Y-137579259D01*
X150484194Y-137573258D01*
X150487927Y-137554488D01*
X150517624Y-137405188D01*
X150585544Y-137241216D01*
X150684147Y-137093646D01*
X150809646Y-136968147D01*
X150957216Y-136869544D01*
X151121188Y-136801624D01*
X151270488Y-136771927D01*
X151295258Y-136767000D01*
X151472742Y-136767000D01*
X151497512Y-136771927D01*
G37*
G36*
X211441512Y-136771927D02*
G01*
X211590812Y-136801624D01*
X211754784Y-136869544D01*
X211902354Y-136968147D01*
X212027853Y-137093646D01*
X212126456Y-137241216D01*
X212194376Y-137405188D01*
X212224073Y-137554488D01*
X212227807Y-137573258D01*
X212229000Y-137579259D01*
X212229000Y-137756741D01*
X212194376Y-137930812D01*
X212126456Y-138094784D01*
X212027853Y-138242354D01*
X211902354Y-138367853D01*
X211754784Y-138466456D01*
X211590812Y-138534376D01*
X211446906Y-138563000D01*
X211416742Y-138569000D01*
X211239258Y-138569000D01*
X211209094Y-138563000D01*
X211065188Y-138534376D01*
X210901216Y-138466456D01*
X210753646Y-138367853D01*
X210628147Y-138242354D01*
X210529544Y-138094784D01*
X210461624Y-137930812D01*
X210427000Y-137756741D01*
X210427000Y-137579259D01*
X210428194Y-137573258D01*
X210431927Y-137554488D01*
X210461624Y-137405188D01*
X210529544Y-137241216D01*
X210628147Y-137093646D01*
X210753646Y-136968147D01*
X210901216Y-136869544D01*
X211065188Y-136801624D01*
X211214488Y-136771927D01*
X211239258Y-136767000D01*
X211416742Y-136767000D01*
X211441512Y-136771927D01*
G37*
G36*
X205853512Y-136765927D02*
G01*
X206002812Y-136795624D01*
X206166784Y-136863544D01*
X206314354Y-136962147D01*
X206439853Y-137087646D01*
X206538456Y-137235216D01*
X206606376Y-137399188D01*
X206636073Y-137548488D01*
X206641000Y-137573258D01*
X206641000Y-137750742D01*
X206636073Y-137775512D01*
X206606376Y-137924812D01*
X206538456Y-138088784D01*
X206439853Y-138236354D01*
X206314354Y-138361853D01*
X206166784Y-138460456D01*
X206002812Y-138528376D01*
X205853512Y-138558073D01*
X205828742Y-138563000D01*
X205651258Y-138563000D01*
X205626488Y-138558073D01*
X205477188Y-138528376D01*
X205313216Y-138460456D01*
X205165646Y-138361853D01*
X205040147Y-138236354D01*
X204941544Y-138088784D01*
X204873624Y-137924812D01*
X204843927Y-137775512D01*
X204839000Y-137750742D01*
X204839000Y-137573258D01*
X204843927Y-137548488D01*
X204873624Y-137399188D01*
X204941544Y-137235216D01*
X205040147Y-137087646D01*
X205165646Y-136962147D01*
X205313216Y-136863544D01*
X205477188Y-136795624D01*
X205626488Y-136765927D01*
X205651258Y-136761000D01*
X205828742Y-136761000D01*
X205853512Y-136765927D01*
G37*
G36*
X157085512Y-134231927D02*
G01*
X157234812Y-134261624D01*
X157398784Y-134329544D01*
X157546354Y-134428147D01*
X157671853Y-134553646D01*
X157770456Y-134701216D01*
X157838376Y-134865188D01*
X157868073Y-135014488D01*
X157871807Y-135033258D01*
X157873000Y-135039259D01*
X157873000Y-135216741D01*
X157838376Y-135390812D01*
X157770456Y-135554784D01*
X157671853Y-135702354D01*
X157546354Y-135827853D01*
X157398784Y-135926456D01*
X157234812Y-135994376D01*
X157090906Y-136023000D01*
X157060742Y-136029000D01*
X156883258Y-136029000D01*
X156853094Y-136023000D01*
X156709188Y-135994376D01*
X156545216Y-135926456D01*
X156397646Y-135827853D01*
X156272147Y-135702354D01*
X156173544Y-135554784D01*
X156105624Y-135390812D01*
X156071000Y-135216741D01*
X156071000Y-135039259D01*
X156072194Y-135033258D01*
X156075927Y-135014488D01*
X156105624Y-134865188D01*
X156173544Y-134701216D01*
X156272147Y-134553646D01*
X156397646Y-134428147D01*
X156545216Y-134329544D01*
X156709188Y-134261624D01*
X156858488Y-134231927D01*
X156883258Y-134227000D01*
X157060742Y-134227000D01*
X157085512Y-134231927D01*
G37*
G36*
X151497512Y-134231927D02*
G01*
X151646812Y-134261624D01*
X151810784Y-134329544D01*
X151958354Y-134428147D01*
X152083853Y-134553646D01*
X152182456Y-134701216D01*
X152250376Y-134865188D01*
X152280073Y-135014488D01*
X152283807Y-135033258D01*
X152285000Y-135039259D01*
X152285000Y-135216741D01*
X152250376Y-135390812D01*
X152182456Y-135554784D01*
X152083853Y-135702354D01*
X151958354Y-135827853D01*
X151810784Y-135926456D01*
X151646812Y-135994376D01*
X151502906Y-136023000D01*
X151472742Y-136029000D01*
X151295258Y-136029000D01*
X151265094Y-136023000D01*
X151121188Y-135994376D01*
X150957216Y-135926456D01*
X150809646Y-135827853D01*
X150684147Y-135702354D01*
X150585544Y-135554784D01*
X150517624Y-135390812D01*
X150483000Y-135216741D01*
X150483000Y-135039259D01*
X150484194Y-135033258D01*
X150487927Y-135014488D01*
X150517624Y-134865188D01*
X150585544Y-134701216D01*
X150684147Y-134553646D01*
X150809646Y-134428147D01*
X150957216Y-134329544D01*
X151121188Y-134261624D01*
X151270488Y-134231927D01*
X151295258Y-134227000D01*
X151472742Y-134227000D01*
X151497512Y-134231927D01*
G37*
G36*
X211441512Y-134231927D02*
G01*
X211590812Y-134261624D01*
X211754784Y-134329544D01*
X211902354Y-134428147D01*
X212027853Y-134553646D01*
X212126456Y-134701216D01*
X212194376Y-134865188D01*
X212224073Y-135014488D01*
X212227807Y-135033258D01*
X212229000Y-135039259D01*
X212229000Y-135216741D01*
X212194376Y-135390812D01*
X212126456Y-135554784D01*
X212027853Y-135702354D01*
X211902354Y-135827853D01*
X211754784Y-135926456D01*
X211590812Y-135994376D01*
X211446906Y-136023000D01*
X211416742Y-136029000D01*
X211239258Y-136029000D01*
X211209094Y-136023000D01*
X211065188Y-135994376D01*
X210901216Y-135926456D01*
X210753646Y-135827853D01*
X210628147Y-135702354D01*
X210529544Y-135554784D01*
X210461624Y-135390812D01*
X210427000Y-135216741D01*
X210427000Y-135039259D01*
X210428194Y-135033258D01*
X210431927Y-135014488D01*
X210461624Y-134865188D01*
X210529544Y-134701216D01*
X210628147Y-134553646D01*
X210753646Y-134428147D01*
X210901216Y-134329544D01*
X211065188Y-134261624D01*
X211214488Y-134231927D01*
X211239258Y-134227000D01*
X211416742Y-134227000D01*
X211441512Y-134231927D01*
G37*
G36*
X205853512Y-134225927D02*
G01*
X206002812Y-134255624D01*
X206166784Y-134323544D01*
X206314354Y-134422147D01*
X206439853Y-134547646D01*
X206538456Y-134695216D01*
X206606376Y-134859188D01*
X206636073Y-135008488D01*
X206641000Y-135033258D01*
X206641000Y-135210742D01*
X206636073Y-135235512D01*
X206606376Y-135384812D01*
X206538456Y-135548784D01*
X206439853Y-135696354D01*
X206314354Y-135821853D01*
X206166784Y-135920456D01*
X206002812Y-135988376D01*
X205853512Y-136018073D01*
X205828742Y-136023000D01*
X205651258Y-136023000D01*
X205626488Y-136018073D01*
X205477188Y-135988376D01*
X205313216Y-135920456D01*
X205165646Y-135821853D01*
X205040147Y-135696354D01*
X204941544Y-135548784D01*
X204873624Y-135384812D01*
X204843927Y-135235512D01*
X204839000Y-135210742D01*
X204839000Y-135033258D01*
X204843927Y-135008488D01*
X204873624Y-134859188D01*
X204941544Y-134695216D01*
X205040147Y-134547646D01*
X205165646Y-134422147D01*
X205313216Y-134323544D01*
X205477188Y-134255624D01*
X205626488Y-134225927D01*
X205651258Y-134221000D01*
X205828742Y-134221000D01*
X205853512Y-134225927D01*
G37*
G36*
X151497512Y-131691927D02*
G01*
X151646812Y-131721624D01*
X151810784Y-131789544D01*
X151958354Y-131888147D01*
X152083853Y-132013646D01*
X152182456Y-132161216D01*
X152250376Y-132325188D01*
X152280073Y-132474488D01*
X152283807Y-132493258D01*
X152285000Y-132499259D01*
X152285000Y-132676741D01*
X152250376Y-132850812D01*
X152182456Y-133014784D01*
X152083853Y-133162354D01*
X151958354Y-133287853D01*
X151810784Y-133386456D01*
X151646812Y-133454376D01*
X151502906Y-133483000D01*
X151472742Y-133489000D01*
X151295258Y-133489000D01*
X151265094Y-133483000D01*
X151121188Y-133454376D01*
X150957216Y-133386456D01*
X150809646Y-133287853D01*
X150684147Y-133162354D01*
X150585544Y-133014784D01*
X150517624Y-132850812D01*
X150483000Y-132676741D01*
X150483000Y-132499259D01*
X150484194Y-132493258D01*
X150487927Y-132474488D01*
X150517624Y-132325188D01*
X150585544Y-132161216D01*
X150684147Y-132013646D01*
X150809646Y-131888147D01*
X150957216Y-131789544D01*
X151121188Y-131721624D01*
X151270488Y-131691927D01*
X151295258Y-131687000D01*
X151472742Y-131687000D01*
X151497512Y-131691927D01*
G37*
G36*
X211441512Y-131691927D02*
G01*
X211590812Y-131721624D01*
X211754784Y-131789544D01*
X211902354Y-131888147D01*
X212027853Y-132013646D01*
X212126456Y-132161216D01*
X212194376Y-132325188D01*
X212224073Y-132474488D01*
X212227807Y-132493258D01*
X212229000Y-132499259D01*
X212229000Y-132676741D01*
X212194376Y-132850812D01*
X212126456Y-133014784D01*
X212027853Y-133162354D01*
X211902354Y-133287853D01*
X211754784Y-133386456D01*
X211590812Y-133454376D01*
X211446906Y-133483000D01*
X211416742Y-133489000D01*
X211239258Y-133489000D01*
X211209094Y-133483000D01*
X211065188Y-133454376D01*
X210901216Y-133386456D01*
X210753646Y-133287853D01*
X210628147Y-133162354D01*
X210529544Y-133014784D01*
X210461624Y-132850812D01*
X210427000Y-132676741D01*
X210427000Y-132499259D01*
X210428194Y-132493258D01*
X210431927Y-132474488D01*
X210461624Y-132325188D01*
X210529544Y-132161216D01*
X210628147Y-132013646D01*
X210753646Y-131888147D01*
X210901216Y-131789544D01*
X211065188Y-131721624D01*
X211214488Y-131691927D01*
X211239258Y-131687000D01*
X211416742Y-131687000D01*
X211441512Y-131691927D01*
G37*
G36*
X157085512Y-131691927D02*
G01*
X157234812Y-131721624D01*
X157398784Y-131789544D01*
X157546354Y-131888147D01*
X157671853Y-132013646D01*
X157770456Y-132161216D01*
X157838376Y-132325188D01*
X157868073Y-132474488D01*
X157871807Y-132493258D01*
X157873000Y-132499259D01*
X157873000Y-132676741D01*
X157838376Y-132850812D01*
X157770456Y-133014784D01*
X157671853Y-133162354D01*
X157546354Y-133287853D01*
X157398784Y-133386456D01*
X157234812Y-133454376D01*
X157090906Y-133483000D01*
X157060742Y-133489000D01*
X156883258Y-133489000D01*
X156853094Y-133483000D01*
X156709188Y-133454376D01*
X156545216Y-133386456D01*
X156397646Y-133287853D01*
X156272147Y-133162354D01*
X156173544Y-133014784D01*
X156105624Y-132850812D01*
X156071000Y-132676741D01*
X156071000Y-132499259D01*
X156072194Y-132493258D01*
X156075927Y-132474488D01*
X156105624Y-132325188D01*
X156173544Y-132161216D01*
X156272147Y-132013646D01*
X156397646Y-131888147D01*
X156545216Y-131789544D01*
X156709188Y-131721624D01*
X156858488Y-131691927D01*
X156883258Y-131687000D01*
X157060742Y-131687000D01*
X157085512Y-131691927D01*
G37*
G36*
X205853512Y-131685927D02*
G01*
X206002812Y-131715624D01*
X206166784Y-131783544D01*
X206314354Y-131882147D01*
X206439853Y-132007646D01*
X206538456Y-132155216D01*
X206606376Y-132319188D01*
X206636073Y-132468488D01*
X206641000Y-132493258D01*
X206641000Y-132670742D01*
X206636073Y-132695512D01*
X206606376Y-132844812D01*
X206538456Y-133008784D01*
X206439853Y-133156354D01*
X206314354Y-133281853D01*
X206166784Y-133380456D01*
X206002812Y-133448376D01*
X205853512Y-133478073D01*
X205828742Y-133483000D01*
X205651258Y-133483000D01*
X205626488Y-133478073D01*
X205477188Y-133448376D01*
X205313216Y-133380456D01*
X205165646Y-133281853D01*
X205040147Y-133156354D01*
X204941544Y-133008784D01*
X204873624Y-132844812D01*
X204843927Y-132695512D01*
X204839000Y-132670742D01*
X204839000Y-132493258D01*
X204843927Y-132468488D01*
X204873624Y-132319188D01*
X204941544Y-132155216D01*
X205040147Y-132007646D01*
X205165646Y-131882147D01*
X205313216Y-131783544D01*
X205477188Y-131715624D01*
X205626488Y-131685927D01*
X205651258Y-131681000D01*
X205828742Y-131681000D01*
X205853512Y-131685927D01*
G37*
G36*
X157085512Y-129151927D02*
G01*
X157234812Y-129181624D01*
X157398784Y-129249544D01*
X157546354Y-129348147D01*
X157671853Y-129473646D01*
X157770456Y-129621216D01*
X157838376Y-129785188D01*
X157868073Y-129934488D01*
X157871807Y-129953258D01*
X157873000Y-129959259D01*
X157873000Y-130136741D01*
X157838376Y-130310812D01*
X157770456Y-130474784D01*
X157671853Y-130622354D01*
X157546354Y-130747853D01*
X157398784Y-130846456D01*
X157234812Y-130914376D01*
X157090906Y-130943000D01*
X157060742Y-130949000D01*
X156883258Y-130949000D01*
X156853094Y-130943000D01*
X156709188Y-130914376D01*
X156545216Y-130846456D01*
X156397646Y-130747853D01*
X156272147Y-130622354D01*
X156173544Y-130474784D01*
X156105624Y-130310812D01*
X156071000Y-130136741D01*
X156071000Y-129959259D01*
X156072194Y-129953258D01*
X156075927Y-129934488D01*
X156105624Y-129785188D01*
X156173544Y-129621216D01*
X156272147Y-129473646D01*
X156397646Y-129348147D01*
X156545216Y-129249544D01*
X156709188Y-129181624D01*
X156858488Y-129151927D01*
X156883258Y-129147000D01*
X157060742Y-129147000D01*
X157085512Y-129151927D01*
G37*
G36*
X211441512Y-129151927D02*
G01*
X211590812Y-129181624D01*
X211754784Y-129249544D01*
X211902354Y-129348147D01*
X212027853Y-129473646D01*
X212126456Y-129621216D01*
X212194376Y-129785188D01*
X212224073Y-129934488D01*
X212227807Y-129953258D01*
X212229000Y-129959259D01*
X212229000Y-130136741D01*
X212194376Y-130310812D01*
X212126456Y-130474784D01*
X212027853Y-130622354D01*
X211902354Y-130747853D01*
X211754784Y-130846456D01*
X211590812Y-130914376D01*
X211446906Y-130943000D01*
X211416742Y-130949000D01*
X211239258Y-130949000D01*
X211209094Y-130943000D01*
X211065188Y-130914376D01*
X210901216Y-130846456D01*
X210753646Y-130747853D01*
X210628147Y-130622354D01*
X210529544Y-130474784D01*
X210461624Y-130310812D01*
X210427000Y-130136741D01*
X210427000Y-129959259D01*
X210428194Y-129953258D01*
X210431927Y-129934488D01*
X210461624Y-129785188D01*
X210529544Y-129621216D01*
X210628147Y-129473646D01*
X210753646Y-129348147D01*
X210901216Y-129249544D01*
X211065188Y-129181624D01*
X211214488Y-129151927D01*
X211239258Y-129147000D01*
X211416742Y-129147000D01*
X211441512Y-129151927D01*
G37*
G36*
X151497512Y-129151927D02*
G01*
X151646812Y-129181624D01*
X151810784Y-129249544D01*
X151958354Y-129348147D01*
X152083853Y-129473646D01*
X152182456Y-129621216D01*
X152250376Y-129785188D01*
X152280073Y-129934488D01*
X152283807Y-129953258D01*
X152285000Y-129959259D01*
X152285000Y-130136741D01*
X152250376Y-130310812D01*
X152182456Y-130474784D01*
X152083853Y-130622354D01*
X151958354Y-130747853D01*
X151810784Y-130846456D01*
X151646812Y-130914376D01*
X151502906Y-130943000D01*
X151472742Y-130949000D01*
X151295258Y-130949000D01*
X151265094Y-130943000D01*
X151121188Y-130914376D01*
X150957216Y-130846456D01*
X150809646Y-130747853D01*
X150684147Y-130622354D01*
X150585544Y-130474784D01*
X150517624Y-130310812D01*
X150483000Y-130136741D01*
X150483000Y-129959259D01*
X150484194Y-129953258D01*
X150487927Y-129934488D01*
X150517624Y-129785188D01*
X150585544Y-129621216D01*
X150684147Y-129473646D01*
X150809646Y-129348147D01*
X150957216Y-129249544D01*
X151121188Y-129181624D01*
X151270488Y-129151927D01*
X151295258Y-129147000D01*
X151472742Y-129147000D01*
X151497512Y-129151927D01*
G37*
G36*
X205853512Y-129145927D02*
G01*
X206002812Y-129175624D01*
X206166784Y-129243544D01*
X206314354Y-129342147D01*
X206439853Y-129467646D01*
X206538456Y-129615216D01*
X206606376Y-129779188D01*
X206636073Y-129928488D01*
X206641000Y-129953258D01*
X206641000Y-130130742D01*
X206636073Y-130155512D01*
X206606376Y-130304812D01*
X206538456Y-130468784D01*
X206439853Y-130616354D01*
X206314354Y-130741853D01*
X206166784Y-130840456D01*
X206002812Y-130908376D01*
X205853512Y-130938073D01*
X205828742Y-130943000D01*
X205651258Y-130943000D01*
X205626488Y-130938073D01*
X205477188Y-130908376D01*
X205313216Y-130840456D01*
X205165646Y-130741853D01*
X205040147Y-130616354D01*
X204941544Y-130468784D01*
X204873624Y-130304812D01*
X204843927Y-130155512D01*
X204839000Y-130130742D01*
X204839000Y-129953258D01*
X204843927Y-129928488D01*
X204873624Y-129779188D01*
X204941544Y-129615216D01*
X205040147Y-129467646D01*
X205165646Y-129342147D01*
X205313216Y-129243544D01*
X205477188Y-129175624D01*
X205626488Y-129145927D01*
X205651258Y-129141000D01*
X205828742Y-129141000D01*
X205853512Y-129145927D01*
G37*
G36*
X151497512Y-126611927D02*
G01*
X151646812Y-126641624D01*
X151810784Y-126709544D01*
X151958354Y-126808147D01*
X152083853Y-126933646D01*
X152182456Y-127081216D01*
X152250376Y-127245188D01*
X152280073Y-127394488D01*
X152283807Y-127413258D01*
X152285000Y-127419259D01*
X152285000Y-127596741D01*
X152250376Y-127770812D01*
X152182456Y-127934784D01*
X152083853Y-128082354D01*
X151958354Y-128207853D01*
X151810784Y-128306456D01*
X151646812Y-128374376D01*
X151502906Y-128403000D01*
X151472742Y-128409000D01*
X151295258Y-128409000D01*
X151265094Y-128403000D01*
X151121188Y-128374376D01*
X150957216Y-128306456D01*
X150809646Y-128207853D01*
X150684147Y-128082354D01*
X150585544Y-127934784D01*
X150517624Y-127770812D01*
X150483000Y-127596741D01*
X150483000Y-127419259D01*
X150484194Y-127413258D01*
X150487927Y-127394488D01*
X150517624Y-127245188D01*
X150585544Y-127081216D01*
X150684147Y-126933646D01*
X150809646Y-126808147D01*
X150957216Y-126709544D01*
X151121188Y-126641624D01*
X151270488Y-126611927D01*
X151295258Y-126607000D01*
X151472742Y-126607000D01*
X151497512Y-126611927D01*
G37*
G36*
X157085512Y-126611927D02*
G01*
X157234812Y-126641624D01*
X157398784Y-126709544D01*
X157546354Y-126808147D01*
X157671853Y-126933646D01*
X157770456Y-127081216D01*
X157838376Y-127245188D01*
X157868073Y-127394488D01*
X157871807Y-127413258D01*
X157873000Y-127419259D01*
X157873000Y-127596741D01*
X157838376Y-127770812D01*
X157770456Y-127934784D01*
X157671853Y-128082354D01*
X157546354Y-128207853D01*
X157398784Y-128306456D01*
X157234812Y-128374376D01*
X157090906Y-128403000D01*
X157060742Y-128409000D01*
X156883258Y-128409000D01*
X156853094Y-128403000D01*
X156709188Y-128374376D01*
X156545216Y-128306456D01*
X156397646Y-128207853D01*
X156272147Y-128082354D01*
X156173544Y-127934784D01*
X156105624Y-127770812D01*
X156071000Y-127596741D01*
X156071000Y-127419259D01*
X156072194Y-127413258D01*
X156075927Y-127394488D01*
X156105624Y-127245188D01*
X156173544Y-127081216D01*
X156272147Y-126933646D01*
X156397646Y-126808147D01*
X156545216Y-126709544D01*
X156709188Y-126641624D01*
X156858488Y-126611927D01*
X156883258Y-126607000D01*
X157060742Y-126607000D01*
X157085512Y-126611927D01*
G37*
G36*
X211441512Y-126611927D02*
G01*
X211590812Y-126641624D01*
X211754784Y-126709544D01*
X211902354Y-126808147D01*
X212027853Y-126933646D01*
X212126456Y-127081216D01*
X212194376Y-127245188D01*
X212224073Y-127394488D01*
X212227807Y-127413258D01*
X212229000Y-127419259D01*
X212229000Y-127596741D01*
X212194376Y-127770812D01*
X212126456Y-127934784D01*
X212027853Y-128082354D01*
X211902354Y-128207853D01*
X211754784Y-128306456D01*
X211590812Y-128374376D01*
X211446906Y-128403000D01*
X211416742Y-128409000D01*
X211239258Y-128409000D01*
X211209094Y-128403000D01*
X211065188Y-128374376D01*
X210901216Y-128306456D01*
X210753646Y-128207853D01*
X210628147Y-128082354D01*
X210529544Y-127934784D01*
X210461624Y-127770812D01*
X210427000Y-127596741D01*
X210427000Y-127419259D01*
X210428194Y-127413258D01*
X210431927Y-127394488D01*
X210461624Y-127245188D01*
X210529544Y-127081216D01*
X210628147Y-126933646D01*
X210753646Y-126808147D01*
X210901216Y-126709544D01*
X211065188Y-126641624D01*
X211214488Y-126611927D01*
X211239258Y-126607000D01*
X211416742Y-126607000D01*
X211441512Y-126611927D01*
G37*
G36*
X205853512Y-126605927D02*
G01*
X206002812Y-126635624D01*
X206166784Y-126703544D01*
X206314354Y-126802147D01*
X206439853Y-126927646D01*
X206538456Y-127075216D01*
X206606376Y-127239188D01*
X206636073Y-127388488D01*
X206641000Y-127413258D01*
X206641000Y-127590742D01*
X206636073Y-127615512D01*
X206606376Y-127764812D01*
X206538456Y-127928784D01*
X206439853Y-128076354D01*
X206314354Y-128201853D01*
X206166784Y-128300456D01*
X206002812Y-128368376D01*
X205853512Y-128398073D01*
X205828742Y-128403000D01*
X205651258Y-128403000D01*
X205626488Y-128398073D01*
X205477188Y-128368376D01*
X205313216Y-128300456D01*
X205165646Y-128201853D01*
X205040147Y-128076354D01*
X204941544Y-127928784D01*
X204873624Y-127764812D01*
X204843927Y-127615512D01*
X204839000Y-127590742D01*
X204839000Y-127413258D01*
X204843927Y-127388488D01*
X204873624Y-127239188D01*
X204941544Y-127075216D01*
X205040147Y-126927646D01*
X205165646Y-126802147D01*
X205313216Y-126703544D01*
X205477188Y-126635624D01*
X205626488Y-126605927D01*
X205651258Y-126601000D01*
X205828742Y-126601000D01*
X205853512Y-126605927D01*
G37*
G36*
X151497512Y-124071927D02*
G01*
X151646812Y-124101624D01*
X151810784Y-124169544D01*
X151958354Y-124268147D01*
X152083853Y-124393646D01*
X152182456Y-124541216D01*
X152250376Y-124705188D01*
X152280073Y-124854488D01*
X152283807Y-124873258D01*
X152285000Y-124879259D01*
X152285000Y-125056741D01*
X152250376Y-125230812D01*
X152182456Y-125394784D01*
X152083853Y-125542354D01*
X151958354Y-125667853D01*
X151810784Y-125766456D01*
X151646812Y-125834376D01*
X151502906Y-125863000D01*
X151472742Y-125869000D01*
X151295258Y-125869000D01*
X151265094Y-125863000D01*
X151121188Y-125834376D01*
X150957216Y-125766456D01*
X150809646Y-125667853D01*
X150684147Y-125542354D01*
X150585544Y-125394784D01*
X150517624Y-125230812D01*
X150483000Y-125056741D01*
X150483000Y-124879259D01*
X150484194Y-124873258D01*
X150487927Y-124854488D01*
X150517624Y-124705188D01*
X150585544Y-124541216D01*
X150684147Y-124393646D01*
X150809646Y-124268147D01*
X150957216Y-124169544D01*
X151121188Y-124101624D01*
X151270488Y-124071927D01*
X151295258Y-124067000D01*
X151472742Y-124067000D01*
X151497512Y-124071927D01*
G37*
G36*
X211441512Y-124071927D02*
G01*
X211590812Y-124101624D01*
X211754784Y-124169544D01*
X211902354Y-124268147D01*
X212027853Y-124393646D01*
X212126456Y-124541216D01*
X212194376Y-124705188D01*
X212224073Y-124854488D01*
X212227807Y-124873258D01*
X212229000Y-124879259D01*
X212229000Y-125056741D01*
X212194376Y-125230812D01*
X212126456Y-125394784D01*
X212027853Y-125542354D01*
X211902354Y-125667853D01*
X211754784Y-125766456D01*
X211590812Y-125834376D01*
X211446906Y-125863000D01*
X211416742Y-125869000D01*
X211239258Y-125869000D01*
X211209094Y-125863000D01*
X211065188Y-125834376D01*
X210901216Y-125766456D01*
X210753646Y-125667853D01*
X210628147Y-125542354D01*
X210529544Y-125394784D01*
X210461624Y-125230812D01*
X210427000Y-125056741D01*
X210427000Y-124879259D01*
X210428194Y-124873258D01*
X210431927Y-124854488D01*
X210461624Y-124705188D01*
X210529544Y-124541216D01*
X210628147Y-124393646D01*
X210753646Y-124268147D01*
X210901216Y-124169544D01*
X211065188Y-124101624D01*
X211214488Y-124071927D01*
X211239258Y-124067000D01*
X211416742Y-124067000D01*
X211441512Y-124071927D01*
G37*
G36*
X157085512Y-124071927D02*
G01*
X157234812Y-124101624D01*
X157398784Y-124169544D01*
X157546354Y-124268147D01*
X157671853Y-124393646D01*
X157770456Y-124541216D01*
X157838376Y-124705188D01*
X157868073Y-124854488D01*
X157871807Y-124873258D01*
X157873000Y-124879259D01*
X157873000Y-125056741D01*
X157838376Y-125230812D01*
X157770456Y-125394784D01*
X157671853Y-125542354D01*
X157546354Y-125667853D01*
X157398784Y-125766456D01*
X157234812Y-125834376D01*
X157090906Y-125863000D01*
X157060742Y-125869000D01*
X156883258Y-125869000D01*
X156853094Y-125863000D01*
X156709188Y-125834376D01*
X156545216Y-125766456D01*
X156397646Y-125667853D01*
X156272147Y-125542354D01*
X156173544Y-125394784D01*
X156105624Y-125230812D01*
X156071000Y-125056741D01*
X156071000Y-124879259D01*
X156072194Y-124873258D01*
X156075927Y-124854488D01*
X156105624Y-124705188D01*
X156173544Y-124541216D01*
X156272147Y-124393646D01*
X156397646Y-124268147D01*
X156545216Y-124169544D01*
X156709188Y-124101624D01*
X156858488Y-124071927D01*
X156883258Y-124067000D01*
X157060742Y-124067000D01*
X157085512Y-124071927D01*
G37*
G36*
X205853512Y-124065927D02*
G01*
X206002812Y-124095624D01*
X206166784Y-124163544D01*
X206314354Y-124262147D01*
X206439853Y-124387646D01*
X206538456Y-124535216D01*
X206606376Y-124699188D01*
X206636073Y-124848488D01*
X206641000Y-124873258D01*
X206641000Y-125050742D01*
X206636073Y-125075512D01*
X206606376Y-125224812D01*
X206538456Y-125388784D01*
X206439853Y-125536354D01*
X206314354Y-125661853D01*
X206166784Y-125760456D01*
X206002812Y-125828376D01*
X205853512Y-125858073D01*
X205828742Y-125863000D01*
X205651258Y-125863000D01*
X205626488Y-125858073D01*
X205477188Y-125828376D01*
X205313216Y-125760456D01*
X205165646Y-125661853D01*
X205040147Y-125536354D01*
X204941544Y-125388784D01*
X204873624Y-125224812D01*
X204843927Y-125075512D01*
X204839000Y-125050742D01*
X204839000Y-124873258D01*
X204843927Y-124848488D01*
X204873624Y-124699188D01*
X204941544Y-124535216D01*
X205040147Y-124387646D01*
X205165646Y-124262147D01*
X205313216Y-124163544D01*
X205477188Y-124095624D01*
X205626488Y-124065927D01*
X205651258Y-124061000D01*
X205828742Y-124061000D01*
X205853512Y-124065927D01*
G37*
G36*
X157085512Y-121531927D02*
G01*
X157234812Y-121561624D01*
X157398784Y-121629544D01*
X157546354Y-121728147D01*
X157671853Y-121853646D01*
X157770456Y-122001216D01*
X157838376Y-122165188D01*
X157868073Y-122314488D01*
X157871807Y-122333258D01*
X157873000Y-122339259D01*
X157873000Y-122516741D01*
X157838376Y-122690812D01*
X157770456Y-122854784D01*
X157671853Y-123002354D01*
X157546354Y-123127853D01*
X157398784Y-123226456D01*
X157234812Y-123294376D01*
X157090906Y-123323000D01*
X157060742Y-123329000D01*
X156883258Y-123329000D01*
X156853094Y-123323000D01*
X156709188Y-123294376D01*
X156545216Y-123226456D01*
X156397646Y-123127853D01*
X156272147Y-123002354D01*
X156173544Y-122854784D01*
X156105624Y-122690812D01*
X156071000Y-122516741D01*
X156071000Y-122339259D01*
X156072194Y-122333258D01*
X156075927Y-122314488D01*
X156105624Y-122165188D01*
X156173544Y-122001216D01*
X156272147Y-121853646D01*
X156397646Y-121728147D01*
X156545216Y-121629544D01*
X156709188Y-121561624D01*
X156858488Y-121531927D01*
X156883258Y-121527000D01*
X157060742Y-121527000D01*
X157085512Y-121531927D01*
G37*
G36*
X211441512Y-121531927D02*
G01*
X211590812Y-121561624D01*
X211754784Y-121629544D01*
X211902354Y-121728147D01*
X212027853Y-121853646D01*
X212126456Y-122001216D01*
X212194376Y-122165188D01*
X212224073Y-122314488D01*
X212227807Y-122333258D01*
X212229000Y-122339259D01*
X212229000Y-122516741D01*
X212194376Y-122690812D01*
X212126456Y-122854784D01*
X212027853Y-123002354D01*
X211902354Y-123127853D01*
X211754784Y-123226456D01*
X211590812Y-123294376D01*
X211446906Y-123323000D01*
X211416742Y-123329000D01*
X211239258Y-123329000D01*
X211209094Y-123323000D01*
X211065188Y-123294376D01*
X210901216Y-123226456D01*
X210753646Y-123127853D01*
X210628147Y-123002354D01*
X210529544Y-122854784D01*
X210461624Y-122690812D01*
X210427000Y-122516741D01*
X210427000Y-122339259D01*
X210428194Y-122333258D01*
X210431927Y-122314488D01*
X210461624Y-122165188D01*
X210529544Y-122001216D01*
X210628147Y-121853646D01*
X210753646Y-121728147D01*
X210901216Y-121629544D01*
X211065188Y-121561624D01*
X211214488Y-121531927D01*
X211239258Y-121527000D01*
X211416742Y-121527000D01*
X211441512Y-121531927D01*
G37*
G36*
X151497512Y-121531927D02*
G01*
X151646812Y-121561624D01*
X151810784Y-121629544D01*
X151958354Y-121728147D01*
X152083853Y-121853646D01*
X152182456Y-122001216D01*
X152250376Y-122165188D01*
X152280073Y-122314488D01*
X152283807Y-122333258D01*
X152285000Y-122339259D01*
X152285000Y-122516741D01*
X152250376Y-122690812D01*
X152182456Y-122854784D01*
X152083853Y-123002354D01*
X151958354Y-123127853D01*
X151810784Y-123226456D01*
X151646812Y-123294376D01*
X151502906Y-123323000D01*
X151472742Y-123329000D01*
X151295258Y-123329000D01*
X151265094Y-123323000D01*
X151121188Y-123294376D01*
X150957216Y-123226456D01*
X150809646Y-123127853D01*
X150684147Y-123002354D01*
X150585544Y-122854784D01*
X150517624Y-122690812D01*
X150483000Y-122516741D01*
X150483000Y-122339259D01*
X150484194Y-122333258D01*
X150487927Y-122314488D01*
X150517624Y-122165188D01*
X150585544Y-122001216D01*
X150684147Y-121853646D01*
X150809646Y-121728147D01*
X150957216Y-121629544D01*
X151121188Y-121561624D01*
X151270488Y-121531927D01*
X151295258Y-121527000D01*
X151472742Y-121527000D01*
X151497512Y-121531927D01*
G37*
G36*
X205853512Y-121525927D02*
G01*
X206002812Y-121555624D01*
X206166784Y-121623544D01*
X206314354Y-121722147D01*
X206439853Y-121847646D01*
X206538456Y-121995216D01*
X206606376Y-122159188D01*
X206636073Y-122308488D01*
X206641000Y-122333258D01*
X206641000Y-122510742D01*
X206636073Y-122535512D01*
X206606376Y-122684812D01*
X206538456Y-122848784D01*
X206439853Y-122996354D01*
X206314354Y-123121853D01*
X206166784Y-123220456D01*
X206002812Y-123288376D01*
X205853512Y-123318073D01*
X205828742Y-123323000D01*
X205651258Y-123323000D01*
X205626488Y-123318073D01*
X205477188Y-123288376D01*
X205313216Y-123220456D01*
X205165646Y-123121853D01*
X205040147Y-122996354D01*
X204941544Y-122848784D01*
X204873624Y-122684812D01*
X204843927Y-122535512D01*
X204839000Y-122510742D01*
X204839000Y-122333258D01*
X204843927Y-122308488D01*
X204873624Y-122159188D01*
X204941544Y-121995216D01*
X205040147Y-121847646D01*
X205165646Y-121722147D01*
X205313216Y-121623544D01*
X205477188Y-121555624D01*
X205626488Y-121525927D01*
X205651258Y-121521000D01*
X205828742Y-121521000D01*
X205853512Y-121525927D01*
G37*
G36*
X157085512Y-118991927D02*
G01*
X157234812Y-119021624D01*
X157398784Y-119089544D01*
X157546354Y-119188147D01*
X157671853Y-119313646D01*
X157770456Y-119461216D01*
X157838376Y-119625188D01*
X157868073Y-119774488D01*
X157871807Y-119793258D01*
X157873000Y-119799259D01*
X157873000Y-119976741D01*
X157838376Y-120150812D01*
X157770456Y-120314784D01*
X157671853Y-120462354D01*
X157546354Y-120587853D01*
X157398784Y-120686456D01*
X157234812Y-120754376D01*
X157090906Y-120783000D01*
X157060742Y-120789000D01*
X156883258Y-120789000D01*
X156853094Y-120783000D01*
X156709188Y-120754376D01*
X156545216Y-120686456D01*
X156397646Y-120587853D01*
X156272147Y-120462354D01*
X156173544Y-120314784D01*
X156105624Y-120150812D01*
X156071000Y-119976741D01*
X156071000Y-119799259D01*
X156072194Y-119793258D01*
X156075927Y-119774488D01*
X156105624Y-119625188D01*
X156173544Y-119461216D01*
X156272147Y-119313646D01*
X156397646Y-119188147D01*
X156545216Y-119089544D01*
X156709188Y-119021624D01*
X156858488Y-118991927D01*
X156883258Y-118987000D01*
X157060742Y-118987000D01*
X157085512Y-118991927D01*
G37*
G36*
X151497512Y-118991927D02*
G01*
X151646812Y-119021624D01*
X151810784Y-119089544D01*
X151958354Y-119188147D01*
X152083853Y-119313646D01*
X152182456Y-119461216D01*
X152250376Y-119625188D01*
X152280073Y-119774488D01*
X152283807Y-119793258D01*
X152285000Y-119799259D01*
X152285000Y-119976741D01*
X152250376Y-120150812D01*
X152182456Y-120314784D01*
X152083853Y-120462354D01*
X151958354Y-120587853D01*
X151810784Y-120686456D01*
X151646812Y-120754376D01*
X151502906Y-120783000D01*
X151472742Y-120789000D01*
X151295258Y-120789000D01*
X151265094Y-120783000D01*
X151121188Y-120754376D01*
X150957216Y-120686456D01*
X150809646Y-120587853D01*
X150684147Y-120462354D01*
X150585544Y-120314784D01*
X150517624Y-120150812D01*
X150483000Y-119976741D01*
X150483000Y-119799259D01*
X150484194Y-119793258D01*
X150487927Y-119774488D01*
X150517624Y-119625188D01*
X150585544Y-119461216D01*
X150684147Y-119313646D01*
X150809646Y-119188147D01*
X150957216Y-119089544D01*
X151121188Y-119021624D01*
X151270488Y-118991927D01*
X151295258Y-118987000D01*
X151472742Y-118987000D01*
X151497512Y-118991927D01*
G37*
G36*
X211441512Y-118991927D02*
G01*
X211590812Y-119021624D01*
X211754784Y-119089544D01*
X211902354Y-119188147D01*
X212027853Y-119313646D01*
X212126456Y-119461216D01*
X212194376Y-119625188D01*
X212224073Y-119774488D01*
X212227807Y-119793258D01*
X212229000Y-119799259D01*
X212229000Y-119976741D01*
X212194376Y-120150812D01*
X212126456Y-120314784D01*
X212027853Y-120462354D01*
X211902354Y-120587853D01*
X211754784Y-120686456D01*
X211590812Y-120754376D01*
X211446906Y-120783000D01*
X211416742Y-120789000D01*
X211239258Y-120789000D01*
X211209094Y-120783000D01*
X211065188Y-120754376D01*
X210901216Y-120686456D01*
X210753646Y-120587853D01*
X210628147Y-120462354D01*
X210529544Y-120314784D01*
X210461624Y-120150812D01*
X210427000Y-119976741D01*
X210427000Y-119799259D01*
X210428194Y-119793258D01*
X210431927Y-119774488D01*
X210461624Y-119625188D01*
X210529544Y-119461216D01*
X210628147Y-119313646D01*
X210753646Y-119188147D01*
X210901216Y-119089544D01*
X211065188Y-119021624D01*
X211214488Y-118991927D01*
X211239258Y-118987000D01*
X211416742Y-118987000D01*
X211441512Y-118991927D01*
G37*
G36*
X205853512Y-118985927D02*
G01*
X206002812Y-119015624D01*
X206166784Y-119083544D01*
X206314354Y-119182147D01*
X206439853Y-119307646D01*
X206538456Y-119455216D01*
X206606376Y-119619188D01*
X206636073Y-119768488D01*
X206641000Y-119793258D01*
X206641000Y-119970742D01*
X206636073Y-119995512D01*
X206606376Y-120144812D01*
X206538456Y-120308784D01*
X206439853Y-120456354D01*
X206314354Y-120581853D01*
X206166784Y-120680456D01*
X206002812Y-120748376D01*
X205853512Y-120778073D01*
X205828742Y-120783000D01*
X205651258Y-120783000D01*
X205626488Y-120778073D01*
X205477188Y-120748376D01*
X205313216Y-120680456D01*
X205165646Y-120581853D01*
X205040147Y-120456354D01*
X204941544Y-120308784D01*
X204873624Y-120144812D01*
X204843927Y-119995512D01*
X204839000Y-119970742D01*
X204839000Y-119793258D01*
X204843927Y-119768488D01*
X204873624Y-119619188D01*
X204941544Y-119455216D01*
X205040147Y-119307646D01*
X205165646Y-119182147D01*
X205313216Y-119083544D01*
X205477188Y-119015624D01*
X205626488Y-118985927D01*
X205651258Y-118981000D01*
X205828742Y-118981000D01*
X205853512Y-118985927D01*
G37*
G36*
X211441512Y-116451927D02*
G01*
X211590812Y-116481624D01*
X211754784Y-116549544D01*
X211902354Y-116648147D01*
X212027853Y-116773646D01*
X212126456Y-116921216D01*
X212194376Y-117085188D01*
X212224073Y-117234488D01*
X212227807Y-117253258D01*
X212229000Y-117259259D01*
X212229000Y-117436741D01*
X212194376Y-117610812D01*
X212126456Y-117774784D01*
X212027853Y-117922354D01*
X211902354Y-118047853D01*
X211754784Y-118146456D01*
X211590812Y-118214376D01*
X211446906Y-118243000D01*
X211416742Y-118249000D01*
X211239258Y-118249000D01*
X211209094Y-118243000D01*
X211065188Y-118214376D01*
X210901216Y-118146456D01*
X210753646Y-118047853D01*
X210628147Y-117922354D01*
X210529544Y-117774784D01*
X210461624Y-117610812D01*
X210427000Y-117436741D01*
X210427000Y-117259259D01*
X210428194Y-117253258D01*
X210431927Y-117234488D01*
X210461624Y-117085188D01*
X210529544Y-116921216D01*
X210628147Y-116773646D01*
X210753646Y-116648147D01*
X210901216Y-116549544D01*
X211065188Y-116481624D01*
X211214488Y-116451927D01*
X211239258Y-116447000D01*
X211416742Y-116447000D01*
X211441512Y-116451927D01*
G37*
G36*
X157085512Y-116451927D02*
G01*
X157234812Y-116481624D01*
X157398784Y-116549544D01*
X157546354Y-116648147D01*
X157671853Y-116773646D01*
X157770456Y-116921216D01*
X157838376Y-117085188D01*
X157868073Y-117234488D01*
X157871807Y-117253258D01*
X157873000Y-117259259D01*
X157873000Y-117436741D01*
X157838376Y-117610812D01*
X157770456Y-117774784D01*
X157671853Y-117922354D01*
X157546354Y-118047853D01*
X157398784Y-118146456D01*
X157234812Y-118214376D01*
X157090906Y-118243000D01*
X157060742Y-118249000D01*
X156883258Y-118249000D01*
X156853094Y-118243000D01*
X156709188Y-118214376D01*
X156545216Y-118146456D01*
X156397646Y-118047853D01*
X156272147Y-117922354D01*
X156173544Y-117774784D01*
X156105624Y-117610812D01*
X156071000Y-117436741D01*
X156071000Y-117259259D01*
X156072194Y-117253258D01*
X156075927Y-117234488D01*
X156105624Y-117085188D01*
X156173544Y-116921216D01*
X156272147Y-116773646D01*
X156397646Y-116648147D01*
X156545216Y-116549544D01*
X156709188Y-116481624D01*
X156858488Y-116451927D01*
X156883258Y-116447000D01*
X157060742Y-116447000D01*
X157085512Y-116451927D01*
G37*
G36*
X151497512Y-116451927D02*
G01*
X151646812Y-116481624D01*
X151810784Y-116549544D01*
X151958354Y-116648147D01*
X152083853Y-116773646D01*
X152182456Y-116921216D01*
X152250376Y-117085188D01*
X152280073Y-117234488D01*
X152283807Y-117253258D01*
X152285000Y-117259259D01*
X152285000Y-117436741D01*
X152250376Y-117610812D01*
X152182456Y-117774784D01*
X152083853Y-117922354D01*
X151958354Y-118047853D01*
X151810784Y-118146456D01*
X151646812Y-118214376D01*
X151502906Y-118243000D01*
X151472742Y-118249000D01*
X151295258Y-118249000D01*
X151265094Y-118243000D01*
X151121188Y-118214376D01*
X150957216Y-118146456D01*
X150809646Y-118047853D01*
X150684147Y-117922354D01*
X150585544Y-117774784D01*
X150517624Y-117610812D01*
X150483000Y-117436741D01*
X150483000Y-117259259D01*
X150484194Y-117253258D01*
X150487927Y-117234488D01*
X150517624Y-117085188D01*
X150585544Y-116921216D01*
X150684147Y-116773646D01*
X150809646Y-116648147D01*
X150957216Y-116549544D01*
X151121188Y-116481624D01*
X151270488Y-116451927D01*
X151295258Y-116447000D01*
X151472742Y-116447000D01*
X151497512Y-116451927D01*
G37*
G36*
X205853512Y-116445927D02*
G01*
X206002812Y-116475624D01*
X206166784Y-116543544D01*
X206314354Y-116642147D01*
X206439853Y-116767646D01*
X206538456Y-116915216D01*
X206606376Y-117079188D01*
X206636073Y-117228488D01*
X206641000Y-117253258D01*
X206641000Y-117430742D01*
X206636073Y-117455512D01*
X206606376Y-117604812D01*
X206538456Y-117768784D01*
X206439853Y-117916354D01*
X206314354Y-118041853D01*
X206166784Y-118140456D01*
X206002812Y-118208376D01*
X205853512Y-118238073D01*
X205828742Y-118243000D01*
X205651258Y-118243000D01*
X205626488Y-118238073D01*
X205477188Y-118208376D01*
X205313216Y-118140456D01*
X205165646Y-118041853D01*
X205040147Y-117916354D01*
X204941544Y-117768784D01*
X204873624Y-117604812D01*
X204843927Y-117455512D01*
X204839000Y-117430742D01*
X204839000Y-117253258D01*
X204843927Y-117228488D01*
X204873624Y-117079188D01*
X204941544Y-116915216D01*
X205040147Y-116767646D01*
X205165646Y-116642147D01*
X205313216Y-116543544D01*
X205477188Y-116475624D01*
X205626488Y-116445927D01*
X205651258Y-116441000D01*
X205828742Y-116441000D01*
X205853512Y-116445927D01*
G37*
G36*
X151497512Y-113911927D02*
G01*
X151646812Y-113941624D01*
X151810784Y-114009544D01*
X151958354Y-114108147D01*
X152083853Y-114233646D01*
X152182456Y-114381216D01*
X152250376Y-114545188D01*
X152280073Y-114694488D01*
X152283807Y-114713258D01*
X152285000Y-114719259D01*
X152285000Y-114896741D01*
X152250376Y-115070812D01*
X152182456Y-115234784D01*
X152083853Y-115382354D01*
X151958354Y-115507853D01*
X151810784Y-115606456D01*
X151646812Y-115674376D01*
X151502906Y-115703000D01*
X151472742Y-115709000D01*
X151295258Y-115709000D01*
X151265094Y-115703000D01*
X151121188Y-115674376D01*
X150957216Y-115606456D01*
X150809646Y-115507853D01*
X150684147Y-115382354D01*
X150585544Y-115234784D01*
X150517624Y-115070812D01*
X150483000Y-114896741D01*
X150483000Y-114719259D01*
X150484194Y-114713258D01*
X150487927Y-114694488D01*
X150517624Y-114545188D01*
X150585544Y-114381216D01*
X150684147Y-114233646D01*
X150809646Y-114108147D01*
X150957216Y-114009544D01*
X151121188Y-113941624D01*
X151270488Y-113911927D01*
X151295258Y-113907000D01*
X151472742Y-113907000D01*
X151497512Y-113911927D01*
G37*
G36*
X157085512Y-113911927D02*
G01*
X157234812Y-113941624D01*
X157398784Y-114009544D01*
X157546354Y-114108147D01*
X157671853Y-114233646D01*
X157770456Y-114381216D01*
X157838376Y-114545188D01*
X157868073Y-114694488D01*
X157871807Y-114713258D01*
X157873000Y-114719259D01*
X157873000Y-114896741D01*
X157838376Y-115070812D01*
X157770456Y-115234784D01*
X157671853Y-115382354D01*
X157546354Y-115507853D01*
X157398784Y-115606456D01*
X157234812Y-115674376D01*
X157090906Y-115703000D01*
X157060742Y-115709000D01*
X156883258Y-115709000D01*
X156853094Y-115703000D01*
X156709188Y-115674376D01*
X156545216Y-115606456D01*
X156397646Y-115507853D01*
X156272147Y-115382354D01*
X156173544Y-115234784D01*
X156105624Y-115070812D01*
X156071000Y-114896741D01*
X156071000Y-114719259D01*
X156072194Y-114713258D01*
X156075927Y-114694488D01*
X156105624Y-114545188D01*
X156173544Y-114381216D01*
X156272147Y-114233646D01*
X156397646Y-114108147D01*
X156545216Y-114009544D01*
X156709188Y-113941624D01*
X156858488Y-113911927D01*
X156883258Y-113907000D01*
X157060742Y-113907000D01*
X157085512Y-113911927D01*
G37*
G36*
X211441512Y-113911927D02*
G01*
X211590812Y-113941624D01*
X211754784Y-114009544D01*
X211902354Y-114108147D01*
X212027853Y-114233646D01*
X212126456Y-114381216D01*
X212194376Y-114545188D01*
X212224073Y-114694488D01*
X212227807Y-114713258D01*
X212229000Y-114719259D01*
X212229000Y-114896741D01*
X212194376Y-115070812D01*
X212126456Y-115234784D01*
X212027853Y-115382354D01*
X211902354Y-115507853D01*
X211754784Y-115606456D01*
X211590812Y-115674376D01*
X211446906Y-115703000D01*
X211416742Y-115709000D01*
X211239258Y-115709000D01*
X211209094Y-115703000D01*
X211065188Y-115674376D01*
X210901216Y-115606456D01*
X210753646Y-115507853D01*
X210628147Y-115382354D01*
X210529544Y-115234784D01*
X210461624Y-115070812D01*
X210427000Y-114896741D01*
X210427000Y-114719259D01*
X210428194Y-114713258D01*
X210431927Y-114694488D01*
X210461624Y-114545188D01*
X210529544Y-114381216D01*
X210628147Y-114233646D01*
X210753646Y-114108147D01*
X210901216Y-114009544D01*
X211065188Y-113941624D01*
X211214488Y-113911927D01*
X211239258Y-113907000D01*
X211416742Y-113907000D01*
X211441512Y-113911927D01*
G37*
G36*
X205853512Y-113905927D02*
G01*
X206002812Y-113935624D01*
X206166784Y-114003544D01*
X206314354Y-114102147D01*
X206439853Y-114227646D01*
X206538456Y-114375216D01*
X206606376Y-114539188D01*
X206636073Y-114688488D01*
X206641000Y-114713258D01*
X206641000Y-114890742D01*
X206636073Y-114915512D01*
X206606376Y-115064812D01*
X206538456Y-115228784D01*
X206439853Y-115376354D01*
X206314354Y-115501853D01*
X206166784Y-115600456D01*
X206002812Y-115668376D01*
X205853512Y-115698073D01*
X205828742Y-115703000D01*
X205651258Y-115703000D01*
X205626488Y-115698073D01*
X205477188Y-115668376D01*
X205313216Y-115600456D01*
X205165646Y-115501853D01*
X205040147Y-115376354D01*
X204941544Y-115228784D01*
X204873624Y-115064812D01*
X204843927Y-114915512D01*
X204839000Y-114890742D01*
X204839000Y-114713258D01*
X204843927Y-114688488D01*
X204873624Y-114539188D01*
X204941544Y-114375216D01*
X205040147Y-114227646D01*
X205165646Y-114102147D01*
X205313216Y-114003544D01*
X205477188Y-113935624D01*
X205626488Y-113905927D01*
X205651258Y-113901000D01*
X205828742Y-113901000D01*
X205853512Y-113905927D01*
G37*
G36*
X151497512Y-111371927D02*
G01*
X151646812Y-111401624D01*
X151810784Y-111469544D01*
X151958354Y-111568147D01*
X152083853Y-111693646D01*
X152182456Y-111841216D01*
X152250376Y-112005188D01*
X152280073Y-112154488D01*
X152283807Y-112173258D01*
X152285000Y-112179259D01*
X152285000Y-112356741D01*
X152250376Y-112530812D01*
X152182456Y-112694784D01*
X152083853Y-112842354D01*
X151958354Y-112967853D01*
X151810784Y-113066456D01*
X151646812Y-113134376D01*
X151502906Y-113163000D01*
X151472742Y-113169000D01*
X151295258Y-113169000D01*
X151265094Y-113163000D01*
X151121188Y-113134376D01*
X150957216Y-113066456D01*
X150809646Y-112967853D01*
X150684147Y-112842354D01*
X150585544Y-112694784D01*
X150517624Y-112530812D01*
X150483000Y-112356741D01*
X150483000Y-112179259D01*
X150484194Y-112173258D01*
X150487927Y-112154488D01*
X150517624Y-112005188D01*
X150585544Y-111841216D01*
X150684147Y-111693646D01*
X150809646Y-111568147D01*
X150957216Y-111469544D01*
X151121188Y-111401624D01*
X151270488Y-111371927D01*
X151295258Y-111367000D01*
X151472742Y-111367000D01*
X151497512Y-111371927D01*
G37*
G36*
X157085512Y-111371927D02*
G01*
X157234812Y-111401624D01*
X157398784Y-111469544D01*
X157546354Y-111568147D01*
X157671853Y-111693646D01*
X157770456Y-111841216D01*
X157838376Y-112005188D01*
X157868073Y-112154488D01*
X157871807Y-112173258D01*
X157873000Y-112179259D01*
X157873000Y-112356741D01*
X157838376Y-112530812D01*
X157770456Y-112694784D01*
X157671853Y-112842354D01*
X157546354Y-112967853D01*
X157398784Y-113066456D01*
X157234812Y-113134376D01*
X157090906Y-113163000D01*
X157060742Y-113169000D01*
X156883258Y-113169000D01*
X156853094Y-113163000D01*
X156709188Y-113134376D01*
X156545216Y-113066456D01*
X156397646Y-112967853D01*
X156272147Y-112842354D01*
X156173544Y-112694784D01*
X156105624Y-112530812D01*
X156071000Y-112356741D01*
X156071000Y-112179259D01*
X156072194Y-112173258D01*
X156075927Y-112154488D01*
X156105624Y-112005188D01*
X156173544Y-111841216D01*
X156272147Y-111693646D01*
X156397646Y-111568147D01*
X156545216Y-111469544D01*
X156709188Y-111401624D01*
X156858488Y-111371927D01*
X156883258Y-111367000D01*
X157060742Y-111367000D01*
X157085512Y-111371927D01*
G37*
G36*
X211441512Y-111371927D02*
G01*
X211590812Y-111401624D01*
X211754784Y-111469544D01*
X211902354Y-111568147D01*
X212027853Y-111693646D01*
X212126456Y-111841216D01*
X212194376Y-112005188D01*
X212224073Y-112154488D01*
X212227807Y-112173258D01*
X212229000Y-112179259D01*
X212229000Y-112356741D01*
X212194376Y-112530812D01*
X212126456Y-112694784D01*
X212027853Y-112842354D01*
X211902354Y-112967853D01*
X211754784Y-113066456D01*
X211590812Y-113134376D01*
X211446906Y-113163000D01*
X211416742Y-113169000D01*
X211239258Y-113169000D01*
X211209094Y-113163000D01*
X211065188Y-113134376D01*
X210901216Y-113066456D01*
X210753646Y-112967853D01*
X210628147Y-112842354D01*
X210529544Y-112694784D01*
X210461624Y-112530812D01*
X210427000Y-112356741D01*
X210427000Y-112179259D01*
X210428194Y-112173258D01*
X210431927Y-112154488D01*
X210461624Y-112005188D01*
X210529544Y-111841216D01*
X210628147Y-111693646D01*
X210753646Y-111568147D01*
X210901216Y-111469544D01*
X211065188Y-111401624D01*
X211214488Y-111371927D01*
X211239258Y-111367000D01*
X211416742Y-111367000D01*
X211441512Y-111371927D01*
G37*
G36*
X205853512Y-111365927D02*
G01*
X206002812Y-111395624D01*
X206166784Y-111463544D01*
X206314354Y-111562147D01*
X206439853Y-111687646D01*
X206538456Y-111835216D01*
X206606376Y-111999188D01*
X206636073Y-112148488D01*
X206641000Y-112173258D01*
X206641000Y-112350742D01*
X206636073Y-112375512D01*
X206606376Y-112524812D01*
X206538456Y-112688784D01*
X206439853Y-112836354D01*
X206314354Y-112961853D01*
X206166784Y-113060456D01*
X206002812Y-113128376D01*
X205853512Y-113158073D01*
X205828742Y-113163000D01*
X205651258Y-113163000D01*
X205626488Y-113158073D01*
X205477188Y-113128376D01*
X205313216Y-113060456D01*
X205165646Y-112961853D01*
X205040147Y-112836354D01*
X204941544Y-112688784D01*
X204873624Y-112524812D01*
X204843927Y-112375512D01*
X204839000Y-112350742D01*
X204839000Y-112173258D01*
X204843927Y-112148488D01*
X204873624Y-111999188D01*
X204941544Y-111835216D01*
X205040147Y-111687646D01*
X205165646Y-111562147D01*
X205313216Y-111463544D01*
X205477188Y-111395624D01*
X205626488Y-111365927D01*
X205651258Y-111361000D01*
X205828742Y-111361000D01*
X205853512Y-111365927D01*
G37*
G36*
X211441512Y-108831927D02*
G01*
X211590812Y-108861624D01*
X211754784Y-108929544D01*
X211902354Y-109028147D01*
X212027853Y-109153646D01*
X212126456Y-109301216D01*
X212194376Y-109465188D01*
X212224073Y-109614488D01*
X212227807Y-109633258D01*
X212229000Y-109639259D01*
X212229000Y-109816741D01*
X212194376Y-109990812D01*
X212126456Y-110154784D01*
X212027853Y-110302354D01*
X211902354Y-110427853D01*
X211754784Y-110526456D01*
X211590812Y-110594376D01*
X211446906Y-110623000D01*
X211416742Y-110629000D01*
X211239258Y-110629000D01*
X211209094Y-110623000D01*
X211065188Y-110594376D01*
X210901216Y-110526456D01*
X210753646Y-110427853D01*
X210628147Y-110302354D01*
X210529544Y-110154784D01*
X210461624Y-109990812D01*
X210427000Y-109816741D01*
X210427000Y-109639259D01*
X210428194Y-109633258D01*
X210431927Y-109614488D01*
X210461624Y-109465188D01*
X210529544Y-109301216D01*
X210628147Y-109153646D01*
X210753646Y-109028147D01*
X210901216Y-108929544D01*
X211065188Y-108861624D01*
X211214488Y-108831927D01*
X211239258Y-108827000D01*
X211416742Y-108827000D01*
X211441512Y-108831927D01*
G37*
G36*
X157085512Y-108831927D02*
G01*
X157234812Y-108861624D01*
X157398784Y-108929544D01*
X157546354Y-109028147D01*
X157671853Y-109153646D01*
X157770456Y-109301216D01*
X157838376Y-109465188D01*
X157868073Y-109614488D01*
X157871807Y-109633258D01*
X157873000Y-109639259D01*
X157873000Y-109816741D01*
X157838376Y-109990812D01*
X157770456Y-110154784D01*
X157671853Y-110302354D01*
X157546354Y-110427853D01*
X157398784Y-110526456D01*
X157234812Y-110594376D01*
X157090906Y-110623000D01*
X157060742Y-110629000D01*
X156883258Y-110629000D01*
X156853094Y-110623000D01*
X156709188Y-110594376D01*
X156545216Y-110526456D01*
X156397646Y-110427853D01*
X156272147Y-110302354D01*
X156173544Y-110154784D01*
X156105624Y-109990812D01*
X156071000Y-109816741D01*
X156071000Y-109639259D01*
X156072194Y-109633258D01*
X156075927Y-109614488D01*
X156105624Y-109465188D01*
X156173544Y-109301216D01*
X156272147Y-109153646D01*
X156397646Y-109028147D01*
X156545216Y-108929544D01*
X156709188Y-108861624D01*
X156858488Y-108831927D01*
X156883258Y-108827000D01*
X157060742Y-108827000D01*
X157085512Y-108831927D01*
G37*
G36*
X151497512Y-108831927D02*
G01*
X151646812Y-108861624D01*
X151810784Y-108929544D01*
X151958354Y-109028147D01*
X152083853Y-109153646D01*
X152182456Y-109301216D01*
X152250376Y-109465188D01*
X152280073Y-109614488D01*
X152283807Y-109633258D01*
X152285000Y-109639259D01*
X152285000Y-109816741D01*
X152250376Y-109990812D01*
X152182456Y-110154784D01*
X152083853Y-110302354D01*
X151958354Y-110427853D01*
X151810784Y-110526456D01*
X151646812Y-110594376D01*
X151502906Y-110623000D01*
X151472742Y-110629000D01*
X151295258Y-110629000D01*
X151265094Y-110623000D01*
X151121188Y-110594376D01*
X150957216Y-110526456D01*
X150809646Y-110427853D01*
X150684147Y-110302354D01*
X150585544Y-110154784D01*
X150517624Y-109990812D01*
X150483000Y-109816741D01*
X150483000Y-109639259D01*
X150484194Y-109633258D01*
X150487927Y-109614488D01*
X150517624Y-109465188D01*
X150585544Y-109301216D01*
X150684147Y-109153646D01*
X150809646Y-109028147D01*
X150957216Y-108929544D01*
X151121188Y-108861624D01*
X151270488Y-108831927D01*
X151295258Y-108827000D01*
X151472742Y-108827000D01*
X151497512Y-108831927D01*
G37*
G36*
X205853512Y-108825927D02*
G01*
X206002812Y-108855624D01*
X206166784Y-108923544D01*
X206314354Y-109022147D01*
X206439853Y-109147646D01*
X206538456Y-109295216D01*
X206606376Y-109459188D01*
X206636073Y-109608488D01*
X206641000Y-109633258D01*
X206641000Y-109810742D01*
X206636073Y-109835512D01*
X206606376Y-109984812D01*
X206538456Y-110148784D01*
X206439853Y-110296354D01*
X206314354Y-110421853D01*
X206166784Y-110520456D01*
X206002812Y-110588376D01*
X205853512Y-110618073D01*
X205828742Y-110623000D01*
X205651258Y-110623000D01*
X205626488Y-110618073D01*
X205477188Y-110588376D01*
X205313216Y-110520456D01*
X205165646Y-110421853D01*
X205040147Y-110296354D01*
X204941544Y-110148784D01*
X204873624Y-109984812D01*
X204843927Y-109835512D01*
X204839000Y-109810742D01*
X204839000Y-109633258D01*
X204843927Y-109608488D01*
X204873624Y-109459188D01*
X204941544Y-109295216D01*
X205040147Y-109147646D01*
X205165646Y-109022147D01*
X205313216Y-108923544D01*
X205477188Y-108855624D01*
X205626488Y-108825927D01*
X205651258Y-108821000D01*
X205828742Y-108821000D01*
X205853512Y-108825927D01*
G37*
G36*
X211441512Y-106291927D02*
G01*
X211590812Y-106321624D01*
X211754784Y-106389544D01*
X211902354Y-106488147D01*
X212027853Y-106613646D01*
X212126456Y-106761216D01*
X212194376Y-106925188D01*
X212224073Y-107074488D01*
X212227807Y-107093258D01*
X212229000Y-107099259D01*
X212229000Y-107276741D01*
X212194376Y-107450812D01*
X212126456Y-107614784D01*
X212027853Y-107762354D01*
X211902354Y-107887853D01*
X211754784Y-107986456D01*
X211590812Y-108054376D01*
X211446906Y-108083000D01*
X211416742Y-108089000D01*
X211239258Y-108089000D01*
X211209094Y-108083000D01*
X211065188Y-108054376D01*
X210901216Y-107986456D01*
X210753646Y-107887853D01*
X210628147Y-107762354D01*
X210529544Y-107614784D01*
X210461624Y-107450812D01*
X210427000Y-107276741D01*
X210427000Y-107099259D01*
X210428194Y-107093258D01*
X210431927Y-107074488D01*
X210461624Y-106925188D01*
X210529544Y-106761216D01*
X210628147Y-106613646D01*
X210753646Y-106488147D01*
X210901216Y-106389544D01*
X211065188Y-106321624D01*
X211214488Y-106291927D01*
X211239258Y-106287000D01*
X211416742Y-106287000D01*
X211441512Y-106291927D01*
G37*
G36*
X151497512Y-106291927D02*
G01*
X151646812Y-106321624D01*
X151810784Y-106389544D01*
X151958354Y-106488147D01*
X152083853Y-106613646D01*
X152182456Y-106761216D01*
X152250376Y-106925188D01*
X152280073Y-107074488D01*
X152283807Y-107093258D01*
X152285000Y-107099259D01*
X152285000Y-107276741D01*
X152250376Y-107450812D01*
X152182456Y-107614784D01*
X152083853Y-107762354D01*
X151958354Y-107887853D01*
X151810784Y-107986456D01*
X151646812Y-108054376D01*
X151502906Y-108083000D01*
X151472742Y-108089000D01*
X151295258Y-108089000D01*
X151265094Y-108083000D01*
X151121188Y-108054376D01*
X150957216Y-107986456D01*
X150809646Y-107887853D01*
X150684147Y-107762354D01*
X150585544Y-107614784D01*
X150517624Y-107450812D01*
X150483000Y-107276741D01*
X150483000Y-107099259D01*
X150484194Y-107093258D01*
X150487927Y-107074488D01*
X150517624Y-106925188D01*
X150585544Y-106761216D01*
X150684147Y-106613646D01*
X150809646Y-106488147D01*
X150957216Y-106389544D01*
X151121188Y-106321624D01*
X151270488Y-106291927D01*
X151295258Y-106287000D01*
X151472742Y-106287000D01*
X151497512Y-106291927D01*
G37*
G36*
X157085512Y-106291927D02*
G01*
X157234812Y-106321624D01*
X157398784Y-106389544D01*
X157546354Y-106488147D01*
X157671853Y-106613646D01*
X157770456Y-106761216D01*
X157838376Y-106925188D01*
X157868073Y-107074488D01*
X157871807Y-107093258D01*
X157873000Y-107099259D01*
X157873000Y-107276741D01*
X157838376Y-107450812D01*
X157770456Y-107614784D01*
X157671853Y-107762354D01*
X157546354Y-107887853D01*
X157398784Y-107986456D01*
X157234812Y-108054376D01*
X157090906Y-108083000D01*
X157060742Y-108089000D01*
X156883258Y-108089000D01*
X156853094Y-108083000D01*
X156709188Y-108054376D01*
X156545216Y-107986456D01*
X156397646Y-107887853D01*
X156272147Y-107762354D01*
X156173544Y-107614784D01*
X156105624Y-107450812D01*
X156071000Y-107276741D01*
X156071000Y-107099259D01*
X156072194Y-107093258D01*
X156075927Y-107074488D01*
X156105624Y-106925188D01*
X156173544Y-106761216D01*
X156272147Y-106613646D01*
X156397646Y-106488147D01*
X156545216Y-106389544D01*
X156709188Y-106321624D01*
X156858488Y-106291927D01*
X156883258Y-106287000D01*
X157060742Y-106287000D01*
X157085512Y-106291927D01*
G37*
G36*
X205853512Y-106285927D02*
G01*
X206002812Y-106315624D01*
X206166784Y-106383544D01*
X206314354Y-106482147D01*
X206439853Y-106607646D01*
X206538456Y-106755216D01*
X206606376Y-106919188D01*
X206636073Y-107068488D01*
X206641000Y-107093258D01*
X206641000Y-107270742D01*
X206636073Y-107295512D01*
X206606376Y-107444812D01*
X206538456Y-107608784D01*
X206439853Y-107756354D01*
X206314354Y-107881853D01*
X206166784Y-107980456D01*
X206002812Y-108048376D01*
X205853512Y-108078073D01*
X205828742Y-108083000D01*
X205651258Y-108083000D01*
X205626488Y-108078073D01*
X205477188Y-108048376D01*
X205313216Y-107980456D01*
X205165646Y-107881853D01*
X205040147Y-107756354D01*
X204941544Y-107608784D01*
X204873624Y-107444812D01*
X204843927Y-107295512D01*
X204839000Y-107270742D01*
X204839000Y-107093258D01*
X204843927Y-107068488D01*
X204873624Y-106919188D01*
X204941544Y-106755216D01*
X205040147Y-106607646D01*
X205165646Y-106482147D01*
X205313216Y-106383544D01*
X205477188Y-106315624D01*
X205626488Y-106285927D01*
X205651258Y-106281000D01*
X205828742Y-106281000D01*
X205853512Y-106285927D01*
G37*
G36*
X211441512Y-103751927D02*
G01*
X211590812Y-103781624D01*
X211754784Y-103849544D01*
X211902354Y-103948147D01*
X212027853Y-104073646D01*
X212126456Y-104221216D01*
X212194376Y-104385188D01*
X212224073Y-104534488D01*
X212227807Y-104553258D01*
X212229000Y-104559259D01*
X212229000Y-104736741D01*
X212194376Y-104910812D01*
X212126456Y-105074784D01*
X212027853Y-105222354D01*
X211902354Y-105347853D01*
X211754784Y-105446456D01*
X211590812Y-105514376D01*
X211446906Y-105543000D01*
X211416742Y-105549000D01*
X211239258Y-105549000D01*
X211209094Y-105543000D01*
X211065188Y-105514376D01*
X210901216Y-105446456D01*
X210753646Y-105347853D01*
X210628147Y-105222354D01*
X210529544Y-105074784D01*
X210461624Y-104910812D01*
X210427000Y-104736741D01*
X210427000Y-104559259D01*
X210428194Y-104553258D01*
X210431927Y-104534488D01*
X210461624Y-104385188D01*
X210529544Y-104221216D01*
X210628147Y-104073646D01*
X210753646Y-103948147D01*
X210901216Y-103849544D01*
X211065188Y-103781624D01*
X211214488Y-103751927D01*
X211239258Y-103747000D01*
X211416742Y-103747000D01*
X211441512Y-103751927D01*
G37*
G36*
X157085512Y-103751927D02*
G01*
X157234812Y-103781624D01*
X157398784Y-103849544D01*
X157546354Y-103948147D01*
X157671853Y-104073646D01*
X157770456Y-104221216D01*
X157838376Y-104385188D01*
X157868073Y-104534488D01*
X157871807Y-104553258D01*
X157873000Y-104559259D01*
X157873000Y-104736741D01*
X157838376Y-104910812D01*
X157770456Y-105074784D01*
X157671853Y-105222354D01*
X157546354Y-105347853D01*
X157398784Y-105446456D01*
X157234812Y-105514376D01*
X157090906Y-105543000D01*
X157060742Y-105549000D01*
X156883258Y-105549000D01*
X156853094Y-105543000D01*
X156709188Y-105514376D01*
X156545216Y-105446456D01*
X156397646Y-105347853D01*
X156272147Y-105222354D01*
X156173544Y-105074784D01*
X156105624Y-104910812D01*
X156071000Y-104736741D01*
X156071000Y-104559259D01*
X156072194Y-104553258D01*
X156075927Y-104534488D01*
X156105624Y-104385188D01*
X156173544Y-104221216D01*
X156272147Y-104073646D01*
X156397646Y-103948147D01*
X156545216Y-103849544D01*
X156709188Y-103781624D01*
X156858488Y-103751927D01*
X156883258Y-103747000D01*
X157060742Y-103747000D01*
X157085512Y-103751927D01*
G37*
G36*
X151497512Y-103751927D02*
G01*
X151646812Y-103781624D01*
X151810784Y-103849544D01*
X151958354Y-103948147D01*
X152083853Y-104073646D01*
X152182456Y-104221216D01*
X152250376Y-104385188D01*
X152280073Y-104534488D01*
X152283807Y-104553258D01*
X152285000Y-104559259D01*
X152285000Y-104736741D01*
X152250376Y-104910812D01*
X152182456Y-105074784D01*
X152083853Y-105222354D01*
X151958354Y-105347853D01*
X151810784Y-105446456D01*
X151646812Y-105514376D01*
X151502906Y-105543000D01*
X151472742Y-105549000D01*
X151295258Y-105549000D01*
X151265094Y-105543000D01*
X151121188Y-105514376D01*
X150957216Y-105446456D01*
X150809646Y-105347853D01*
X150684147Y-105222354D01*
X150585544Y-105074784D01*
X150517624Y-104910812D01*
X150483000Y-104736741D01*
X150483000Y-104559259D01*
X150484194Y-104553258D01*
X150487927Y-104534488D01*
X150517624Y-104385188D01*
X150585544Y-104221216D01*
X150684147Y-104073646D01*
X150809646Y-103948147D01*
X150957216Y-103849544D01*
X151121188Y-103781624D01*
X151270488Y-103751927D01*
X151295258Y-103747000D01*
X151472742Y-103747000D01*
X151497512Y-103751927D01*
G37*
G36*
X205853512Y-103745927D02*
G01*
X206002812Y-103775624D01*
X206166784Y-103843544D01*
X206314354Y-103942147D01*
X206439853Y-104067646D01*
X206538456Y-104215216D01*
X206606376Y-104379188D01*
X206636073Y-104528488D01*
X206641000Y-104553258D01*
X206641000Y-104730742D01*
X206636073Y-104755512D01*
X206606376Y-104904812D01*
X206538456Y-105068784D01*
X206439853Y-105216354D01*
X206314354Y-105341853D01*
X206166784Y-105440456D01*
X206002812Y-105508376D01*
X205853512Y-105538073D01*
X205828742Y-105543000D01*
X205651258Y-105543000D01*
X205626488Y-105538073D01*
X205477188Y-105508376D01*
X205313216Y-105440456D01*
X205165646Y-105341853D01*
X205040147Y-105216354D01*
X204941544Y-105068784D01*
X204873624Y-104904812D01*
X204843927Y-104755512D01*
X204839000Y-104730742D01*
X204839000Y-104553258D01*
X204843927Y-104528488D01*
X204873624Y-104379188D01*
X204941544Y-104215216D01*
X205040147Y-104067646D01*
X205165646Y-103942147D01*
X205313216Y-103843544D01*
X205477188Y-103775624D01*
X205626488Y-103745927D01*
X205651258Y-103741000D01*
X205828742Y-103741000D01*
X205853512Y-103745927D01*
G37*
G36*
X157085512Y-101211927D02*
G01*
X157234812Y-101241624D01*
X157398784Y-101309544D01*
X157546354Y-101408147D01*
X157671853Y-101533646D01*
X157770456Y-101681216D01*
X157838376Y-101845188D01*
X157868073Y-101994488D01*
X157871807Y-102013258D01*
X157873000Y-102019259D01*
X157873000Y-102196741D01*
X157838376Y-102370812D01*
X157770456Y-102534784D01*
X157671853Y-102682354D01*
X157546354Y-102807853D01*
X157398784Y-102906456D01*
X157234812Y-102974376D01*
X157090906Y-103003000D01*
X157060742Y-103009000D01*
X156883258Y-103009000D01*
X156853094Y-103003000D01*
X156709188Y-102974376D01*
X156545216Y-102906456D01*
X156397646Y-102807853D01*
X156272147Y-102682354D01*
X156173544Y-102534784D01*
X156105624Y-102370812D01*
X156071000Y-102196741D01*
X156071000Y-102019259D01*
X156072194Y-102013258D01*
X156075927Y-101994488D01*
X156105624Y-101845188D01*
X156173544Y-101681216D01*
X156272147Y-101533646D01*
X156397646Y-101408147D01*
X156545216Y-101309544D01*
X156709188Y-101241624D01*
X156858488Y-101211927D01*
X156883258Y-101207000D01*
X157060742Y-101207000D01*
X157085512Y-101211927D01*
G37*
G36*
X211441512Y-101211927D02*
G01*
X211590812Y-101241624D01*
X211754784Y-101309544D01*
X211902354Y-101408147D01*
X212027853Y-101533646D01*
X212126456Y-101681216D01*
X212194376Y-101845188D01*
X212224073Y-101994488D01*
X212227807Y-102013258D01*
X212229000Y-102019259D01*
X212229000Y-102196741D01*
X212194376Y-102370812D01*
X212126456Y-102534784D01*
X212027853Y-102682354D01*
X211902354Y-102807853D01*
X211754784Y-102906456D01*
X211590812Y-102974376D01*
X211446906Y-103003000D01*
X211416742Y-103009000D01*
X211239258Y-103009000D01*
X211209094Y-103003000D01*
X211065188Y-102974376D01*
X210901216Y-102906456D01*
X210753646Y-102807853D01*
X210628147Y-102682354D01*
X210529544Y-102534784D01*
X210461624Y-102370812D01*
X210427000Y-102196741D01*
X210427000Y-102019259D01*
X210428194Y-102013258D01*
X210431927Y-101994488D01*
X210461624Y-101845188D01*
X210529544Y-101681216D01*
X210628147Y-101533646D01*
X210753646Y-101408147D01*
X210901216Y-101309544D01*
X211065188Y-101241624D01*
X211214488Y-101211927D01*
X211239258Y-101207000D01*
X211416742Y-101207000D01*
X211441512Y-101211927D01*
G37*
G36*
X151497512Y-101211927D02*
G01*
X151646812Y-101241624D01*
X151810784Y-101309544D01*
X151958354Y-101408147D01*
X152083853Y-101533646D01*
X152182456Y-101681216D01*
X152250376Y-101845188D01*
X152280073Y-101994488D01*
X152283807Y-102013258D01*
X152285000Y-102019259D01*
X152285000Y-102196741D01*
X152250376Y-102370812D01*
X152182456Y-102534784D01*
X152083853Y-102682354D01*
X151958354Y-102807853D01*
X151810784Y-102906456D01*
X151646812Y-102974376D01*
X151502906Y-103003000D01*
X151472742Y-103009000D01*
X151295258Y-103009000D01*
X151265094Y-103003000D01*
X151121188Y-102974376D01*
X150957216Y-102906456D01*
X150809646Y-102807853D01*
X150684147Y-102682354D01*
X150585544Y-102534784D01*
X150517624Y-102370812D01*
X150483000Y-102196741D01*
X150483000Y-102019259D01*
X150484194Y-102013258D01*
X150487927Y-101994488D01*
X150517624Y-101845188D01*
X150585544Y-101681216D01*
X150684147Y-101533646D01*
X150809646Y-101408147D01*
X150957216Y-101309544D01*
X151121188Y-101241624D01*
X151270488Y-101211927D01*
X151295258Y-101207000D01*
X151472742Y-101207000D01*
X151497512Y-101211927D01*
G37*
G36*
X205853512Y-101205927D02*
G01*
X206002812Y-101235624D01*
X206166784Y-101303544D01*
X206314354Y-101402147D01*
X206439853Y-101527646D01*
X206538456Y-101675216D01*
X206606376Y-101839188D01*
X206636073Y-101988488D01*
X206641000Y-102013258D01*
X206641000Y-102190742D01*
X206636073Y-102215512D01*
X206606376Y-102364812D01*
X206538456Y-102528784D01*
X206439853Y-102676354D01*
X206314354Y-102801853D01*
X206166784Y-102900456D01*
X206002812Y-102968376D01*
X205853512Y-102998073D01*
X205828742Y-103003000D01*
X205651258Y-103003000D01*
X205626488Y-102998073D01*
X205477188Y-102968376D01*
X205313216Y-102900456D01*
X205165646Y-102801853D01*
X205040147Y-102676354D01*
X204941544Y-102528784D01*
X204873624Y-102364812D01*
X204843927Y-102215512D01*
X204839000Y-102190742D01*
X204839000Y-102013258D01*
X204843927Y-101988488D01*
X204873624Y-101839188D01*
X204941544Y-101675216D01*
X205040147Y-101527646D01*
X205165646Y-101402147D01*
X205313216Y-101303544D01*
X205477188Y-101235624D01*
X205626488Y-101205927D01*
X205651258Y-101201000D01*
X205828742Y-101201000D01*
X205853512Y-101205927D01*
G37*
G36*
X211441512Y-98671927D02*
G01*
X211590812Y-98701624D01*
X211754784Y-98769544D01*
X211902354Y-98868147D01*
X212027853Y-98993646D01*
X212126456Y-99141216D01*
X212194376Y-99305188D01*
X212224073Y-99454488D01*
X212227807Y-99473258D01*
X212229000Y-99479259D01*
X212229000Y-99656741D01*
X212194376Y-99830812D01*
X212126456Y-99994784D01*
X212027853Y-100142354D01*
X211902354Y-100267853D01*
X211754784Y-100366456D01*
X211590812Y-100434376D01*
X211446906Y-100463000D01*
X211416742Y-100469000D01*
X211239258Y-100469000D01*
X211209094Y-100463000D01*
X211065188Y-100434376D01*
X210901216Y-100366456D01*
X210753646Y-100267853D01*
X210628147Y-100142354D01*
X210529544Y-99994784D01*
X210461624Y-99830812D01*
X210427000Y-99656741D01*
X210427000Y-99479259D01*
X210428194Y-99473258D01*
X210431927Y-99454488D01*
X210461624Y-99305188D01*
X210529544Y-99141216D01*
X210628147Y-98993646D01*
X210753646Y-98868147D01*
X210901216Y-98769544D01*
X211065188Y-98701624D01*
X211214488Y-98671927D01*
X211239258Y-98667000D01*
X211416742Y-98667000D01*
X211441512Y-98671927D01*
G37*
G36*
X151497512Y-98671927D02*
G01*
X151646812Y-98701624D01*
X151810784Y-98769544D01*
X151958354Y-98868147D01*
X152083853Y-98993646D01*
X152182456Y-99141216D01*
X152250376Y-99305188D01*
X152280073Y-99454488D01*
X152283807Y-99473258D01*
X152285000Y-99479259D01*
X152285000Y-99656741D01*
X152250376Y-99830812D01*
X152182456Y-99994784D01*
X152083853Y-100142354D01*
X151958354Y-100267853D01*
X151810784Y-100366456D01*
X151646812Y-100434376D01*
X151502906Y-100463000D01*
X151472742Y-100469000D01*
X151295258Y-100469000D01*
X151265094Y-100463000D01*
X151121188Y-100434376D01*
X150957216Y-100366456D01*
X150809646Y-100267853D01*
X150684147Y-100142354D01*
X150585544Y-99994784D01*
X150517624Y-99830812D01*
X150483000Y-99656741D01*
X150483000Y-99479259D01*
X150484194Y-99473258D01*
X150487927Y-99454488D01*
X150517624Y-99305188D01*
X150585544Y-99141216D01*
X150684147Y-98993646D01*
X150809646Y-98868147D01*
X150957216Y-98769544D01*
X151121188Y-98701624D01*
X151270488Y-98671927D01*
X151295258Y-98667000D01*
X151472742Y-98667000D01*
X151497512Y-98671927D01*
G37*
G36*
X157085512Y-98671927D02*
G01*
X157234812Y-98701624D01*
X157398784Y-98769544D01*
X157546354Y-98868147D01*
X157671853Y-98993646D01*
X157770456Y-99141216D01*
X157838376Y-99305188D01*
X157868073Y-99454488D01*
X157871807Y-99473258D01*
X157873000Y-99479259D01*
X157873000Y-99656741D01*
X157838376Y-99830812D01*
X157770456Y-99994784D01*
X157671853Y-100142354D01*
X157546354Y-100267853D01*
X157398784Y-100366456D01*
X157234812Y-100434376D01*
X157090906Y-100463000D01*
X157060742Y-100469000D01*
X156883258Y-100469000D01*
X156853094Y-100463000D01*
X156709188Y-100434376D01*
X156545216Y-100366456D01*
X156397646Y-100267853D01*
X156272147Y-100142354D01*
X156173544Y-99994784D01*
X156105624Y-99830812D01*
X156071000Y-99656741D01*
X156071000Y-99479259D01*
X156072194Y-99473258D01*
X156075927Y-99454488D01*
X156105624Y-99305188D01*
X156173544Y-99141216D01*
X156272147Y-98993646D01*
X156397646Y-98868147D01*
X156545216Y-98769544D01*
X156709188Y-98701624D01*
X156858488Y-98671927D01*
X156883258Y-98667000D01*
X157060742Y-98667000D01*
X157085512Y-98671927D01*
G37*
G36*
X205853512Y-98665927D02*
G01*
X206002812Y-98695624D01*
X206166784Y-98763544D01*
X206314354Y-98862147D01*
X206439853Y-98987646D01*
X206538456Y-99135216D01*
X206606376Y-99299188D01*
X206636073Y-99448488D01*
X206641000Y-99473258D01*
X206641000Y-99650742D01*
X206636073Y-99675512D01*
X206606376Y-99824812D01*
X206538456Y-99988784D01*
X206439853Y-100136354D01*
X206314354Y-100261853D01*
X206166784Y-100360456D01*
X206002812Y-100428376D01*
X205853512Y-100458073D01*
X205828742Y-100463000D01*
X205651258Y-100463000D01*
X205626488Y-100458073D01*
X205477188Y-100428376D01*
X205313216Y-100360456D01*
X205165646Y-100261853D01*
X205040147Y-100136354D01*
X204941544Y-99988784D01*
X204873624Y-99824812D01*
X204843927Y-99675512D01*
X204839000Y-99650742D01*
X204839000Y-99473258D01*
X204843927Y-99448488D01*
X204873624Y-99299188D01*
X204941544Y-99135216D01*
X205040147Y-98987646D01*
X205165646Y-98862147D01*
X205313216Y-98763544D01*
X205477188Y-98695624D01*
X205626488Y-98665927D01*
X205651258Y-98661000D01*
X205828742Y-98661000D01*
X205853512Y-98665927D01*
G37*
G36*
X211441512Y-96131927D02*
G01*
X211590812Y-96161624D01*
X211754784Y-96229544D01*
X211902354Y-96328147D01*
X212027853Y-96453646D01*
X212126456Y-96601216D01*
X212194376Y-96765188D01*
X212224073Y-96914488D01*
X212227807Y-96933258D01*
X212229000Y-96939259D01*
X212229000Y-97116741D01*
X212194376Y-97290812D01*
X212126456Y-97454784D01*
X212027853Y-97602354D01*
X211902354Y-97727853D01*
X211754784Y-97826456D01*
X211590812Y-97894376D01*
X211446906Y-97923000D01*
X211416742Y-97929000D01*
X211239258Y-97929000D01*
X211209094Y-97923000D01*
X211065188Y-97894376D01*
X210901216Y-97826456D01*
X210753646Y-97727853D01*
X210628147Y-97602354D01*
X210529544Y-97454784D01*
X210461624Y-97290812D01*
X210427000Y-97116741D01*
X210427000Y-96939259D01*
X210428194Y-96933258D01*
X210431927Y-96914488D01*
X210461624Y-96765188D01*
X210529544Y-96601216D01*
X210628147Y-96453646D01*
X210753646Y-96328147D01*
X210901216Y-96229544D01*
X211065188Y-96161624D01*
X211214488Y-96131927D01*
X211239258Y-96127000D01*
X211416742Y-96127000D01*
X211441512Y-96131927D01*
G37*
G36*
X157085512Y-96131927D02*
G01*
X157234812Y-96161624D01*
X157398784Y-96229544D01*
X157546354Y-96328147D01*
X157671853Y-96453646D01*
X157770456Y-96601216D01*
X157838376Y-96765188D01*
X157868073Y-96914488D01*
X157871807Y-96933258D01*
X157873000Y-96939259D01*
X157873000Y-97116741D01*
X157838376Y-97290812D01*
X157770456Y-97454784D01*
X157671853Y-97602354D01*
X157546354Y-97727853D01*
X157398784Y-97826456D01*
X157234812Y-97894376D01*
X157090906Y-97923000D01*
X157060742Y-97929000D01*
X156883258Y-97929000D01*
X156853094Y-97923000D01*
X156709188Y-97894376D01*
X156545216Y-97826456D01*
X156397646Y-97727853D01*
X156272147Y-97602354D01*
X156173544Y-97454784D01*
X156105624Y-97290812D01*
X156071000Y-97116741D01*
X156071000Y-96939259D01*
X156072194Y-96933258D01*
X156075927Y-96914488D01*
X156105624Y-96765188D01*
X156173544Y-96601216D01*
X156272147Y-96453646D01*
X156397646Y-96328147D01*
X156545216Y-96229544D01*
X156709188Y-96161624D01*
X156858488Y-96131927D01*
X156883258Y-96127000D01*
X157060742Y-96127000D01*
X157085512Y-96131927D01*
G37*
G36*
X151497512Y-96131927D02*
G01*
X151646812Y-96161624D01*
X151810784Y-96229544D01*
X151958354Y-96328147D01*
X152083853Y-96453646D01*
X152182456Y-96601216D01*
X152250376Y-96765188D01*
X152280073Y-96914488D01*
X152283807Y-96933258D01*
X152285000Y-96939259D01*
X152285000Y-97116741D01*
X152250376Y-97290812D01*
X152182456Y-97454784D01*
X152083853Y-97602354D01*
X151958354Y-97727853D01*
X151810784Y-97826456D01*
X151646812Y-97894376D01*
X151502906Y-97923000D01*
X151472742Y-97929000D01*
X151295258Y-97929000D01*
X151265094Y-97923000D01*
X151121188Y-97894376D01*
X150957216Y-97826456D01*
X150809646Y-97727853D01*
X150684147Y-97602354D01*
X150585544Y-97454784D01*
X150517624Y-97290812D01*
X150483000Y-97116741D01*
X150483000Y-96939259D01*
X150484194Y-96933258D01*
X150487927Y-96914488D01*
X150517624Y-96765188D01*
X150585544Y-96601216D01*
X150684147Y-96453646D01*
X150809646Y-96328147D01*
X150957216Y-96229544D01*
X151121188Y-96161624D01*
X151270488Y-96131927D01*
X151295258Y-96127000D01*
X151472742Y-96127000D01*
X151497512Y-96131927D01*
G37*
G36*
X205853512Y-96125927D02*
G01*
X206002812Y-96155624D01*
X206166784Y-96223544D01*
X206314354Y-96322147D01*
X206439853Y-96447646D01*
X206538456Y-96595216D01*
X206606376Y-96759188D01*
X206636073Y-96908488D01*
X206641000Y-96933258D01*
X206641000Y-97110742D01*
X206636073Y-97135512D01*
X206606376Y-97284812D01*
X206538456Y-97448784D01*
X206439853Y-97596354D01*
X206314354Y-97721853D01*
X206166784Y-97820456D01*
X206002812Y-97888376D01*
X205853512Y-97918073D01*
X205828742Y-97923000D01*
X205651258Y-97923000D01*
X205626488Y-97918073D01*
X205477188Y-97888376D01*
X205313216Y-97820456D01*
X205165646Y-97721853D01*
X205040147Y-97596354D01*
X204941544Y-97448784D01*
X204873624Y-97284812D01*
X204843927Y-97135512D01*
X204839000Y-97110742D01*
X204839000Y-96933258D01*
X204843927Y-96908488D01*
X204873624Y-96759188D01*
X204941544Y-96595216D01*
X205040147Y-96447646D01*
X205165646Y-96322147D01*
X205313216Y-96223544D01*
X205477188Y-96155624D01*
X205626488Y-96125927D01*
X205651258Y-96121000D01*
X205828742Y-96121000D01*
X205853512Y-96125927D01*
G37*
G36*
X151497512Y-93591927D02*
G01*
X151646812Y-93621624D01*
X151810784Y-93689544D01*
X151958354Y-93788147D01*
X152083853Y-93913646D01*
X152182456Y-94061216D01*
X152250376Y-94225188D01*
X152280073Y-94374488D01*
X152283807Y-94393258D01*
X152285000Y-94399259D01*
X152285000Y-94576741D01*
X152250376Y-94750812D01*
X152182456Y-94914784D01*
X152083853Y-95062354D01*
X151958354Y-95187853D01*
X151810784Y-95286456D01*
X151646812Y-95354376D01*
X151502906Y-95383000D01*
X151472742Y-95389000D01*
X151295258Y-95389000D01*
X151265094Y-95383000D01*
X151121188Y-95354376D01*
X150957216Y-95286456D01*
X150809646Y-95187853D01*
X150684147Y-95062354D01*
X150585544Y-94914784D01*
X150517624Y-94750812D01*
X150483000Y-94576741D01*
X150483000Y-94399259D01*
X150484194Y-94393258D01*
X150487927Y-94374488D01*
X150517624Y-94225188D01*
X150585544Y-94061216D01*
X150684147Y-93913646D01*
X150809646Y-93788147D01*
X150957216Y-93689544D01*
X151121188Y-93621624D01*
X151270488Y-93591927D01*
X151295258Y-93587000D01*
X151472742Y-93587000D01*
X151497512Y-93591927D01*
G37*
G36*
X157085512Y-93591927D02*
G01*
X157234812Y-93621624D01*
X157398784Y-93689544D01*
X157546354Y-93788147D01*
X157671853Y-93913646D01*
X157770456Y-94061216D01*
X157838376Y-94225188D01*
X157868073Y-94374488D01*
X157871807Y-94393258D01*
X157873000Y-94399259D01*
X157873000Y-94576741D01*
X157838376Y-94750812D01*
X157770456Y-94914784D01*
X157671853Y-95062354D01*
X157546354Y-95187853D01*
X157398784Y-95286456D01*
X157234812Y-95354376D01*
X157090906Y-95383000D01*
X157060742Y-95389000D01*
X156883258Y-95389000D01*
X156853094Y-95383000D01*
X156709188Y-95354376D01*
X156545216Y-95286456D01*
X156397646Y-95187853D01*
X156272147Y-95062354D01*
X156173544Y-94914784D01*
X156105624Y-94750812D01*
X156071000Y-94576741D01*
X156071000Y-94399259D01*
X156072194Y-94393258D01*
X156075927Y-94374488D01*
X156105624Y-94225188D01*
X156173544Y-94061216D01*
X156272147Y-93913646D01*
X156397646Y-93788147D01*
X156545216Y-93689544D01*
X156709188Y-93621624D01*
X156858488Y-93591927D01*
X156883258Y-93587000D01*
X157060742Y-93587000D01*
X157085512Y-93591927D01*
G37*
G36*
X211441512Y-93591927D02*
G01*
X211590812Y-93621624D01*
X211754784Y-93689544D01*
X211902354Y-93788147D01*
X212027853Y-93913646D01*
X212126456Y-94061216D01*
X212194376Y-94225188D01*
X212224073Y-94374488D01*
X212227807Y-94393258D01*
X212229000Y-94399259D01*
X212229000Y-94576741D01*
X212194376Y-94750812D01*
X212126456Y-94914784D01*
X212027853Y-95062354D01*
X211902354Y-95187853D01*
X211754784Y-95286456D01*
X211590812Y-95354376D01*
X211446906Y-95383000D01*
X211416742Y-95389000D01*
X211239258Y-95389000D01*
X211209094Y-95383000D01*
X211065188Y-95354376D01*
X210901216Y-95286456D01*
X210753646Y-95187853D01*
X210628147Y-95062354D01*
X210529544Y-94914784D01*
X210461624Y-94750812D01*
X210427000Y-94576741D01*
X210427000Y-94399259D01*
X210428194Y-94393258D01*
X210431927Y-94374488D01*
X210461624Y-94225188D01*
X210529544Y-94061216D01*
X210628147Y-93913646D01*
X210753646Y-93788147D01*
X210901216Y-93689544D01*
X211065188Y-93621624D01*
X211214488Y-93591927D01*
X211239258Y-93587000D01*
X211416742Y-93587000D01*
X211441512Y-93591927D01*
G37*
G36*
X205853512Y-93585927D02*
G01*
X206002812Y-93615624D01*
X206166784Y-93683544D01*
X206314354Y-93782147D01*
X206439853Y-93907646D01*
X206538456Y-94055216D01*
X206606376Y-94219188D01*
X206636073Y-94368488D01*
X206641000Y-94393258D01*
X206641000Y-94570742D01*
X206636073Y-94595512D01*
X206606376Y-94744812D01*
X206538456Y-94908784D01*
X206439853Y-95056354D01*
X206314354Y-95181853D01*
X206166784Y-95280456D01*
X206002812Y-95348376D01*
X205853512Y-95378073D01*
X205828742Y-95383000D01*
X205651258Y-95383000D01*
X205626488Y-95378073D01*
X205477188Y-95348376D01*
X205313216Y-95280456D01*
X205165646Y-95181853D01*
X205040147Y-95056354D01*
X204941544Y-94908784D01*
X204873624Y-94744812D01*
X204843927Y-94595512D01*
X204839000Y-94570742D01*
X204839000Y-94393258D01*
X204843927Y-94368488D01*
X204873624Y-94219188D01*
X204941544Y-94055216D01*
X205040147Y-93907646D01*
X205165646Y-93782147D01*
X205313216Y-93683544D01*
X205477188Y-93615624D01*
X205626488Y-93585927D01*
X205651258Y-93581000D01*
X205828742Y-93581000D01*
X205853512Y-93585927D01*
G37*
G36*
X151497512Y-91051927D02*
G01*
X151646812Y-91081624D01*
X151810784Y-91149544D01*
X151958354Y-91248147D01*
X152083853Y-91373646D01*
X152182456Y-91521216D01*
X152250376Y-91685188D01*
X152280073Y-91834488D01*
X152283807Y-91853258D01*
X152285000Y-91859259D01*
X152285000Y-92036741D01*
X152250376Y-92210812D01*
X152182456Y-92374784D01*
X152083853Y-92522354D01*
X151958354Y-92647853D01*
X151810784Y-92746456D01*
X151646812Y-92814376D01*
X151502906Y-92843000D01*
X151472742Y-92849000D01*
X151295258Y-92849000D01*
X151265094Y-92843000D01*
X151121188Y-92814376D01*
X150957216Y-92746456D01*
X150809646Y-92647853D01*
X150684147Y-92522354D01*
X150585544Y-92374784D01*
X150517624Y-92210812D01*
X150483000Y-92036741D01*
X150483000Y-91859259D01*
X150484194Y-91853258D01*
X150487927Y-91834488D01*
X150517624Y-91685188D01*
X150585544Y-91521216D01*
X150684147Y-91373646D01*
X150809646Y-91248147D01*
X150957216Y-91149544D01*
X151121188Y-91081624D01*
X151270488Y-91051927D01*
X151295258Y-91047000D01*
X151472742Y-91047000D01*
X151497512Y-91051927D01*
G37*
G36*
X211441512Y-91051927D02*
G01*
X211590812Y-91081624D01*
X211754784Y-91149544D01*
X211902354Y-91248147D01*
X212027853Y-91373646D01*
X212126456Y-91521216D01*
X212194376Y-91685188D01*
X212224073Y-91834488D01*
X212227807Y-91853258D01*
X212229000Y-91859259D01*
X212229000Y-92036741D01*
X212194376Y-92210812D01*
X212126456Y-92374784D01*
X212027853Y-92522354D01*
X211902354Y-92647853D01*
X211754784Y-92746456D01*
X211590812Y-92814376D01*
X211446906Y-92843000D01*
X211416742Y-92849000D01*
X211239258Y-92849000D01*
X211209094Y-92843000D01*
X211065188Y-92814376D01*
X210901216Y-92746456D01*
X210753646Y-92647853D01*
X210628147Y-92522354D01*
X210529544Y-92374784D01*
X210461624Y-92210812D01*
X210427000Y-92036741D01*
X210427000Y-91859259D01*
X210428194Y-91853258D01*
X210431927Y-91834488D01*
X210461624Y-91685188D01*
X210529544Y-91521216D01*
X210628147Y-91373646D01*
X210753646Y-91248147D01*
X210901216Y-91149544D01*
X211065188Y-91081624D01*
X211214488Y-91051927D01*
X211239258Y-91047000D01*
X211416742Y-91047000D01*
X211441512Y-91051927D01*
G37*
G36*
X157085512Y-91051927D02*
G01*
X157234812Y-91081624D01*
X157398784Y-91149544D01*
X157546354Y-91248147D01*
X157671853Y-91373646D01*
X157770456Y-91521216D01*
X157838376Y-91685188D01*
X157868073Y-91834488D01*
X157871807Y-91853258D01*
X157873000Y-91859259D01*
X157873000Y-92036741D01*
X157838376Y-92210812D01*
X157770456Y-92374784D01*
X157671853Y-92522354D01*
X157546354Y-92647853D01*
X157398784Y-92746456D01*
X157234812Y-92814376D01*
X157090906Y-92843000D01*
X157060742Y-92849000D01*
X156883258Y-92849000D01*
X156853094Y-92843000D01*
X156709188Y-92814376D01*
X156545216Y-92746456D01*
X156397646Y-92647853D01*
X156272147Y-92522354D01*
X156173544Y-92374784D01*
X156105624Y-92210812D01*
X156071000Y-92036741D01*
X156071000Y-91859259D01*
X156072194Y-91853258D01*
X156075927Y-91834488D01*
X156105624Y-91685188D01*
X156173544Y-91521216D01*
X156272147Y-91373646D01*
X156397646Y-91248147D01*
X156545216Y-91149544D01*
X156709188Y-91081624D01*
X156858488Y-91051927D01*
X156883258Y-91047000D01*
X157060742Y-91047000D01*
X157085512Y-91051927D01*
G37*
G36*
X205853512Y-91045927D02*
G01*
X206002812Y-91075624D01*
X206166784Y-91143544D01*
X206314354Y-91242147D01*
X206439853Y-91367646D01*
X206538456Y-91515216D01*
X206606376Y-91679188D01*
X206636073Y-91828488D01*
X206641000Y-91853258D01*
X206641000Y-92030742D01*
X206636073Y-92055512D01*
X206606376Y-92204812D01*
X206538456Y-92368784D01*
X206439853Y-92516354D01*
X206314354Y-92641853D01*
X206166784Y-92740456D01*
X206002812Y-92808376D01*
X205853512Y-92838073D01*
X205828742Y-92843000D01*
X205651258Y-92843000D01*
X205626488Y-92838073D01*
X205477188Y-92808376D01*
X205313216Y-92740456D01*
X205165646Y-92641853D01*
X205040147Y-92516354D01*
X204941544Y-92368784D01*
X204873624Y-92204812D01*
X204843927Y-92055512D01*
X204839000Y-92030742D01*
X204839000Y-91853258D01*
X204843927Y-91828488D01*
X204873624Y-91679188D01*
X204941544Y-91515216D01*
X205040147Y-91367646D01*
X205165646Y-91242147D01*
X205313216Y-91143544D01*
X205477188Y-91075624D01*
X205626488Y-91045927D01*
X205651258Y-91041000D01*
X205828742Y-91041000D01*
X205853512Y-91045927D01*
G37*
G36*
X151497512Y-88511927D02*
G01*
X151646812Y-88541624D01*
X151810784Y-88609544D01*
X151958354Y-88708147D01*
X152083853Y-88833646D01*
X152182456Y-88981216D01*
X152250376Y-89145188D01*
X152280073Y-89294488D01*
X152283807Y-89313258D01*
X152285000Y-89319259D01*
X152285000Y-89496741D01*
X152250376Y-89670812D01*
X152182456Y-89834784D01*
X152083853Y-89982354D01*
X151958354Y-90107853D01*
X151810784Y-90206456D01*
X151646812Y-90274376D01*
X151502906Y-90303000D01*
X151472742Y-90309000D01*
X151295258Y-90309000D01*
X151265094Y-90303000D01*
X151121188Y-90274376D01*
X150957216Y-90206456D01*
X150809646Y-90107853D01*
X150684147Y-89982354D01*
X150585544Y-89834784D01*
X150517624Y-89670812D01*
X150483000Y-89496741D01*
X150483000Y-89319259D01*
X150484194Y-89313258D01*
X150487927Y-89294488D01*
X150517624Y-89145188D01*
X150585544Y-88981216D01*
X150684147Y-88833646D01*
X150809646Y-88708147D01*
X150957216Y-88609544D01*
X151121188Y-88541624D01*
X151270488Y-88511927D01*
X151295258Y-88507000D01*
X151472742Y-88507000D01*
X151497512Y-88511927D01*
G37*
G36*
X157085512Y-88511927D02*
G01*
X157234812Y-88541624D01*
X157398784Y-88609544D01*
X157546354Y-88708147D01*
X157671853Y-88833646D01*
X157770456Y-88981216D01*
X157838376Y-89145188D01*
X157868073Y-89294488D01*
X157871807Y-89313258D01*
X157873000Y-89319259D01*
X157873000Y-89496741D01*
X157838376Y-89670812D01*
X157770456Y-89834784D01*
X157671853Y-89982354D01*
X157546354Y-90107853D01*
X157398784Y-90206456D01*
X157234812Y-90274376D01*
X157090906Y-90303000D01*
X157060742Y-90309000D01*
X156883258Y-90309000D01*
X156853094Y-90303000D01*
X156709188Y-90274376D01*
X156545216Y-90206456D01*
X156397646Y-90107853D01*
X156272147Y-89982354D01*
X156173544Y-89834784D01*
X156105624Y-89670812D01*
X156071000Y-89496741D01*
X156071000Y-89319259D01*
X156072194Y-89313258D01*
X156075927Y-89294488D01*
X156105624Y-89145188D01*
X156173544Y-88981216D01*
X156272147Y-88833646D01*
X156397646Y-88708147D01*
X156545216Y-88609544D01*
X156709188Y-88541624D01*
X156858488Y-88511927D01*
X156883258Y-88507000D01*
X157060742Y-88507000D01*
X157085512Y-88511927D01*
G37*
G36*
X211441512Y-88511927D02*
G01*
X211590812Y-88541624D01*
X211754784Y-88609544D01*
X211902354Y-88708147D01*
X212027853Y-88833646D01*
X212126456Y-88981216D01*
X212194376Y-89145188D01*
X212224073Y-89294488D01*
X212227807Y-89313258D01*
X212229000Y-89319259D01*
X212229000Y-89496741D01*
X212194376Y-89670812D01*
X212126456Y-89834784D01*
X212027853Y-89982354D01*
X211902354Y-90107853D01*
X211754784Y-90206456D01*
X211590812Y-90274376D01*
X211446906Y-90303000D01*
X211416742Y-90309000D01*
X211239258Y-90309000D01*
X211209094Y-90303000D01*
X211065188Y-90274376D01*
X210901216Y-90206456D01*
X210753646Y-90107853D01*
X210628147Y-89982354D01*
X210529544Y-89834784D01*
X210461624Y-89670812D01*
X210427000Y-89496741D01*
X210427000Y-89319259D01*
X210428194Y-89313258D01*
X210431927Y-89294488D01*
X210461624Y-89145188D01*
X210529544Y-88981216D01*
X210628147Y-88833646D01*
X210753646Y-88708147D01*
X210901216Y-88609544D01*
X211065188Y-88541624D01*
X211214488Y-88511927D01*
X211239258Y-88507000D01*
X211416742Y-88507000D01*
X211441512Y-88511927D01*
G37*
G36*
X205853512Y-88505927D02*
G01*
X206002812Y-88535624D01*
X206166784Y-88603544D01*
X206314354Y-88702147D01*
X206439853Y-88827646D01*
X206538456Y-88975216D01*
X206606376Y-89139188D01*
X206636073Y-89288488D01*
X206641000Y-89313258D01*
X206641000Y-89490742D01*
X206636073Y-89515512D01*
X206606376Y-89664812D01*
X206538456Y-89828784D01*
X206439853Y-89976354D01*
X206314354Y-90101853D01*
X206166784Y-90200456D01*
X206002812Y-90268376D01*
X205853512Y-90298073D01*
X205828742Y-90303000D01*
X205651258Y-90303000D01*
X205626488Y-90298073D01*
X205477188Y-90268376D01*
X205313216Y-90200456D01*
X205165646Y-90101853D01*
X205040147Y-89976354D01*
X204941544Y-89828784D01*
X204873624Y-89664812D01*
X204843927Y-89515512D01*
X204839000Y-89490742D01*
X204839000Y-89313258D01*
X204843927Y-89288488D01*
X204873624Y-89139188D01*
X204941544Y-88975216D01*
X205040147Y-88827646D01*
X205165646Y-88702147D01*
X205313216Y-88603544D01*
X205477188Y-88535624D01*
X205626488Y-88505927D01*
X205651258Y-88501000D01*
X205828742Y-88501000D01*
X205853512Y-88505927D01*
G37*
G36*
X211441512Y-85971927D02*
G01*
X211590812Y-86001624D01*
X211754784Y-86069544D01*
X211902354Y-86168147D01*
X212027853Y-86293646D01*
X212126456Y-86441216D01*
X212194376Y-86605188D01*
X212224073Y-86754488D01*
X212227807Y-86773258D01*
X212229000Y-86779259D01*
X212229000Y-86956741D01*
X212194376Y-87130812D01*
X212126456Y-87294784D01*
X212027853Y-87442354D01*
X211902354Y-87567853D01*
X211754784Y-87666456D01*
X211590812Y-87734376D01*
X211446906Y-87763000D01*
X211416742Y-87769000D01*
X211239258Y-87769000D01*
X211209094Y-87763000D01*
X211065188Y-87734376D01*
X210901216Y-87666456D01*
X210753646Y-87567853D01*
X210628147Y-87442354D01*
X210529544Y-87294784D01*
X210461624Y-87130812D01*
X210427000Y-86956741D01*
X210427000Y-86779259D01*
X210428194Y-86773258D01*
X210431927Y-86754488D01*
X210461624Y-86605188D01*
X210529544Y-86441216D01*
X210628147Y-86293646D01*
X210753646Y-86168147D01*
X210901216Y-86069544D01*
X211065188Y-86001624D01*
X211214488Y-85971927D01*
X211239258Y-85967000D01*
X211416742Y-85967000D01*
X211441512Y-85971927D01*
G37*
G36*
X157085512Y-85971927D02*
G01*
X157234812Y-86001624D01*
X157398784Y-86069544D01*
X157546354Y-86168147D01*
X157671853Y-86293646D01*
X157770456Y-86441216D01*
X157838376Y-86605188D01*
X157868073Y-86754488D01*
X157871807Y-86773258D01*
X157873000Y-86779259D01*
X157873000Y-86956741D01*
X157838376Y-87130812D01*
X157770456Y-87294784D01*
X157671853Y-87442354D01*
X157546354Y-87567853D01*
X157398784Y-87666456D01*
X157234812Y-87734376D01*
X157090906Y-87763000D01*
X157060742Y-87769000D01*
X156883258Y-87769000D01*
X156853094Y-87763000D01*
X156709188Y-87734376D01*
X156545216Y-87666456D01*
X156397646Y-87567853D01*
X156272147Y-87442354D01*
X156173544Y-87294784D01*
X156105624Y-87130812D01*
X156071000Y-86956741D01*
X156071000Y-86779259D01*
X156072194Y-86773258D01*
X156075927Y-86754488D01*
X156105624Y-86605188D01*
X156173544Y-86441216D01*
X156272147Y-86293646D01*
X156397646Y-86168147D01*
X156545216Y-86069544D01*
X156709188Y-86001624D01*
X156858488Y-85971927D01*
X156883258Y-85967000D01*
X157060742Y-85967000D01*
X157085512Y-85971927D01*
G37*
G36*
X151497512Y-85971927D02*
G01*
X151646812Y-86001624D01*
X151810784Y-86069544D01*
X151958354Y-86168147D01*
X152083853Y-86293646D01*
X152182456Y-86441216D01*
X152250376Y-86605188D01*
X152280073Y-86754488D01*
X152283807Y-86773258D01*
X152285000Y-86779259D01*
X152285000Y-86956741D01*
X152250376Y-87130812D01*
X152182456Y-87294784D01*
X152083853Y-87442354D01*
X151958354Y-87567853D01*
X151810784Y-87666456D01*
X151646812Y-87734376D01*
X151502906Y-87763000D01*
X151472742Y-87769000D01*
X151295258Y-87769000D01*
X151265094Y-87763000D01*
X151121188Y-87734376D01*
X150957216Y-87666456D01*
X150809646Y-87567853D01*
X150684147Y-87442354D01*
X150585544Y-87294784D01*
X150517624Y-87130812D01*
X150483000Y-86956741D01*
X150483000Y-86779259D01*
X150484194Y-86773258D01*
X150487927Y-86754488D01*
X150517624Y-86605188D01*
X150585544Y-86441216D01*
X150684147Y-86293646D01*
X150809646Y-86168147D01*
X150957216Y-86069544D01*
X151121188Y-86001624D01*
X151270488Y-85971927D01*
X151295258Y-85967000D01*
X151472742Y-85967000D01*
X151497512Y-85971927D01*
G37*
G36*
X205853512Y-85965927D02*
G01*
X206002812Y-85995624D01*
X206166784Y-86063544D01*
X206314354Y-86162147D01*
X206439853Y-86287646D01*
X206538456Y-86435216D01*
X206606376Y-86599188D01*
X206636073Y-86748488D01*
X206641000Y-86773258D01*
X206641000Y-86950742D01*
X206636073Y-86975512D01*
X206606376Y-87124812D01*
X206538456Y-87288784D01*
X206439853Y-87436354D01*
X206314354Y-87561853D01*
X206166784Y-87660456D01*
X206002812Y-87728376D01*
X205853512Y-87758073D01*
X205828742Y-87763000D01*
X205651258Y-87763000D01*
X205626488Y-87758073D01*
X205477188Y-87728376D01*
X205313216Y-87660456D01*
X205165646Y-87561853D01*
X205040147Y-87436354D01*
X204941544Y-87288784D01*
X204873624Y-87124812D01*
X204843927Y-86975512D01*
X204839000Y-86950742D01*
X204839000Y-86773258D01*
X204843927Y-86748488D01*
X204873624Y-86599188D01*
X204941544Y-86435216D01*
X205040147Y-86287646D01*
X205165646Y-86162147D01*
X205313216Y-86063544D01*
X205477188Y-85995624D01*
X205626488Y-85965927D01*
X205651258Y-85961000D01*
X205828742Y-85961000D01*
X205853512Y-85965927D01*
G37*
G36*
X151497512Y-83431927D02*
G01*
X151646812Y-83461624D01*
X151810784Y-83529544D01*
X151958354Y-83628147D01*
X152083853Y-83753646D01*
X152182456Y-83901216D01*
X152250376Y-84065188D01*
X152280073Y-84214488D01*
X152283807Y-84233258D01*
X152285000Y-84239259D01*
X152285000Y-84416741D01*
X152250376Y-84590812D01*
X152182456Y-84754784D01*
X152083853Y-84902354D01*
X151958354Y-85027853D01*
X151810784Y-85126456D01*
X151646812Y-85194376D01*
X151502906Y-85223000D01*
X151472742Y-85229000D01*
X151295258Y-85229000D01*
X151265094Y-85223000D01*
X151121188Y-85194376D01*
X150957216Y-85126456D01*
X150809646Y-85027853D01*
X150684147Y-84902354D01*
X150585544Y-84754784D01*
X150517624Y-84590812D01*
X150483000Y-84416741D01*
X150483000Y-84239259D01*
X150484194Y-84233258D01*
X150487927Y-84214488D01*
X150517624Y-84065188D01*
X150585544Y-83901216D01*
X150684147Y-83753646D01*
X150809646Y-83628147D01*
X150957216Y-83529544D01*
X151121188Y-83461624D01*
X151270488Y-83431927D01*
X151295258Y-83427000D01*
X151472742Y-83427000D01*
X151497512Y-83431927D01*
G37*
G36*
X211441512Y-83431927D02*
G01*
X211590812Y-83461624D01*
X211754784Y-83529544D01*
X211902354Y-83628147D01*
X212027853Y-83753646D01*
X212126456Y-83901216D01*
X212194376Y-84065188D01*
X212224073Y-84214488D01*
X212227807Y-84233258D01*
X212229000Y-84239259D01*
X212229000Y-84416741D01*
X212194376Y-84590812D01*
X212126456Y-84754784D01*
X212027853Y-84902354D01*
X211902354Y-85027853D01*
X211754784Y-85126456D01*
X211590812Y-85194376D01*
X211446906Y-85223000D01*
X211416742Y-85229000D01*
X211239258Y-85229000D01*
X211209094Y-85223000D01*
X211065188Y-85194376D01*
X210901216Y-85126456D01*
X210753646Y-85027853D01*
X210628147Y-84902354D01*
X210529544Y-84754784D01*
X210461624Y-84590812D01*
X210427000Y-84416741D01*
X210427000Y-84239259D01*
X210428194Y-84233258D01*
X210431927Y-84214488D01*
X210461624Y-84065188D01*
X210529544Y-83901216D01*
X210628147Y-83753646D01*
X210753646Y-83628147D01*
X210901216Y-83529544D01*
X211065188Y-83461624D01*
X211214488Y-83431927D01*
X211239258Y-83427000D01*
X211416742Y-83427000D01*
X211441512Y-83431927D01*
G37*
G36*
X157085512Y-83431927D02*
G01*
X157234812Y-83461624D01*
X157398784Y-83529544D01*
X157546354Y-83628147D01*
X157671853Y-83753646D01*
X157770456Y-83901216D01*
X157838376Y-84065188D01*
X157868073Y-84214488D01*
X157871807Y-84233258D01*
X157873000Y-84239259D01*
X157873000Y-84416741D01*
X157838376Y-84590812D01*
X157770456Y-84754784D01*
X157671853Y-84902354D01*
X157546354Y-85027853D01*
X157398784Y-85126456D01*
X157234812Y-85194376D01*
X157090906Y-85223000D01*
X157060742Y-85229000D01*
X156883258Y-85229000D01*
X156853094Y-85223000D01*
X156709188Y-85194376D01*
X156545216Y-85126456D01*
X156397646Y-85027853D01*
X156272147Y-84902354D01*
X156173544Y-84754784D01*
X156105624Y-84590812D01*
X156071000Y-84416741D01*
X156071000Y-84239259D01*
X156072194Y-84233258D01*
X156075927Y-84214488D01*
X156105624Y-84065188D01*
X156173544Y-83901216D01*
X156272147Y-83753646D01*
X156397646Y-83628147D01*
X156545216Y-83529544D01*
X156709188Y-83461624D01*
X156858488Y-83431927D01*
X156883258Y-83427000D01*
X157060742Y-83427000D01*
X157085512Y-83431927D01*
G37*
G36*
X205853512Y-83425927D02*
G01*
X206002812Y-83455624D01*
X206166784Y-83523544D01*
X206314354Y-83622147D01*
X206439853Y-83747646D01*
X206538456Y-83895216D01*
X206606376Y-84059188D01*
X206636073Y-84208488D01*
X206641000Y-84233258D01*
X206641000Y-84410742D01*
X206636073Y-84435512D01*
X206606376Y-84584812D01*
X206538456Y-84748784D01*
X206439853Y-84896354D01*
X206314354Y-85021853D01*
X206166784Y-85120456D01*
X206002812Y-85188376D01*
X205853512Y-85218073D01*
X205828742Y-85223000D01*
X205651258Y-85223000D01*
X205626488Y-85218073D01*
X205477188Y-85188376D01*
X205313216Y-85120456D01*
X205165646Y-85021853D01*
X205040147Y-84896354D01*
X204941544Y-84748784D01*
X204873624Y-84584812D01*
X204843927Y-84435512D01*
X204839000Y-84410742D01*
X204839000Y-84233258D01*
X204843927Y-84208488D01*
X204873624Y-84059188D01*
X204941544Y-83895216D01*
X205040147Y-83747646D01*
X205165646Y-83622147D01*
X205313216Y-83523544D01*
X205477188Y-83455624D01*
X205626488Y-83425927D01*
X205651258Y-83421000D01*
X205828742Y-83421000D01*
X205853512Y-83425927D01*
G37*
G36*
X157085512Y-80891927D02*
G01*
X157234812Y-80921624D01*
X157398784Y-80989544D01*
X157546354Y-81088147D01*
X157671853Y-81213646D01*
X157770456Y-81361216D01*
X157838376Y-81525188D01*
X157868073Y-81674488D01*
X157871807Y-81693258D01*
X157873000Y-81699259D01*
X157873000Y-81876741D01*
X157838376Y-82050812D01*
X157770456Y-82214784D01*
X157671853Y-82362354D01*
X157546354Y-82487853D01*
X157398784Y-82586456D01*
X157234812Y-82654376D01*
X157090906Y-82683000D01*
X157060742Y-82689000D01*
X156883258Y-82689000D01*
X156853094Y-82683000D01*
X156709188Y-82654376D01*
X156545216Y-82586456D01*
X156397646Y-82487853D01*
X156272147Y-82362354D01*
X156173544Y-82214784D01*
X156105624Y-82050812D01*
X156071000Y-81876741D01*
X156071000Y-81699259D01*
X156072194Y-81693258D01*
X156075927Y-81674488D01*
X156105624Y-81525188D01*
X156173544Y-81361216D01*
X156272147Y-81213646D01*
X156397646Y-81088147D01*
X156545216Y-80989544D01*
X156709188Y-80921624D01*
X156858488Y-80891927D01*
X156883258Y-80887000D01*
X157060742Y-80887000D01*
X157085512Y-80891927D01*
G37*
G36*
X151497512Y-80891927D02*
G01*
X151646812Y-80921624D01*
X151810784Y-80989544D01*
X151958354Y-81088147D01*
X152083853Y-81213646D01*
X152182456Y-81361216D01*
X152250376Y-81525188D01*
X152280073Y-81674488D01*
X152283807Y-81693258D01*
X152285000Y-81699259D01*
X152285000Y-81876741D01*
X152250376Y-82050812D01*
X152182456Y-82214784D01*
X152083853Y-82362354D01*
X151958354Y-82487853D01*
X151810784Y-82586456D01*
X151646812Y-82654376D01*
X151502906Y-82683000D01*
X151472742Y-82689000D01*
X151295258Y-82689000D01*
X151265094Y-82683000D01*
X151121188Y-82654376D01*
X150957216Y-82586456D01*
X150809646Y-82487853D01*
X150684147Y-82362354D01*
X150585544Y-82214784D01*
X150517624Y-82050812D01*
X150483000Y-81876741D01*
X150483000Y-81699259D01*
X150484194Y-81693258D01*
X150487927Y-81674488D01*
X150517624Y-81525188D01*
X150585544Y-81361216D01*
X150684147Y-81213646D01*
X150809646Y-81088147D01*
X150957216Y-80989544D01*
X151121188Y-80921624D01*
X151270488Y-80891927D01*
X151295258Y-80887000D01*
X151472742Y-80887000D01*
X151497512Y-80891927D01*
G37*
G36*
X211441512Y-80891927D02*
G01*
X211590812Y-80921624D01*
X211754784Y-80989544D01*
X211902354Y-81088147D01*
X212027853Y-81213646D01*
X212126456Y-81361216D01*
X212194376Y-81525188D01*
X212224073Y-81674488D01*
X212227807Y-81693258D01*
X212229000Y-81699259D01*
X212229000Y-81876741D01*
X212194376Y-82050812D01*
X212126456Y-82214784D01*
X212027853Y-82362354D01*
X211902354Y-82487853D01*
X211754784Y-82586456D01*
X211590812Y-82654376D01*
X211446906Y-82683000D01*
X211416742Y-82689000D01*
X211239258Y-82689000D01*
X211209094Y-82683000D01*
X211065188Y-82654376D01*
X210901216Y-82586456D01*
X210753646Y-82487853D01*
X210628147Y-82362354D01*
X210529544Y-82214784D01*
X210461624Y-82050812D01*
X210427000Y-81876741D01*
X210427000Y-81699259D01*
X210428194Y-81693258D01*
X210431927Y-81674488D01*
X210461624Y-81525188D01*
X210529544Y-81361216D01*
X210628147Y-81213646D01*
X210753646Y-81088147D01*
X210901216Y-80989544D01*
X211065188Y-80921624D01*
X211214488Y-80891927D01*
X211239258Y-80887000D01*
X211416742Y-80887000D01*
X211441512Y-80891927D01*
G37*
G36*
X205853512Y-80885927D02*
G01*
X206002812Y-80915624D01*
X206166784Y-80983544D01*
X206314354Y-81082147D01*
X206439853Y-81207646D01*
X206538456Y-81355216D01*
X206606376Y-81519188D01*
X206636073Y-81668488D01*
X206641000Y-81693258D01*
X206641000Y-81870742D01*
X206636073Y-81895512D01*
X206606376Y-82044812D01*
X206538456Y-82208784D01*
X206439853Y-82356354D01*
X206314354Y-82481853D01*
X206166784Y-82580456D01*
X206002812Y-82648376D01*
X205853512Y-82678073D01*
X205828742Y-82683000D01*
X205651258Y-82683000D01*
X205626488Y-82678073D01*
X205477188Y-82648376D01*
X205313216Y-82580456D01*
X205165646Y-82481853D01*
X205040147Y-82356354D01*
X204941544Y-82208784D01*
X204873624Y-82044812D01*
X204843927Y-81895512D01*
X204839000Y-81870742D01*
X204839000Y-81693258D01*
X204843927Y-81668488D01*
X204873624Y-81519188D01*
X204941544Y-81355216D01*
X205040147Y-81207646D01*
X205165646Y-81082147D01*
X205313216Y-80983544D01*
X205477188Y-80915624D01*
X205626488Y-80885927D01*
X205651258Y-80881000D01*
X205828742Y-80881000D01*
X205853512Y-80885927D01*
G37*
G36*
X157873000Y-80149000D02*
G01*
X156071000Y-80149000D01*
X156071000Y-78347000D01*
X157873000Y-78347000D01*
X157873000Y-80149000D01*
G37*
G36*
X152285000Y-80149000D02*
G01*
X150483000Y-80149000D01*
X150483000Y-78347000D01*
X152285000Y-78347000D01*
X152285000Y-80149000D01*
G37*
G36*
X211441512Y-78351927D02*
G01*
X211590812Y-78381624D01*
X211754784Y-78449544D01*
X211902354Y-78548147D01*
X212027853Y-78673646D01*
X212126456Y-78821216D01*
X212194376Y-78985188D01*
X212224073Y-79134488D01*
X212227807Y-79153258D01*
X212229000Y-79159259D01*
X212229000Y-79336741D01*
X212194376Y-79510812D01*
X212126456Y-79674784D01*
X212027853Y-79822354D01*
X211902354Y-79947853D01*
X211754784Y-80046456D01*
X211590812Y-80114376D01*
X211446906Y-80143000D01*
X211416742Y-80149000D01*
X211239258Y-80149000D01*
X211209094Y-80143000D01*
X211065188Y-80114376D01*
X210901216Y-80046456D01*
X210753646Y-79947853D01*
X210628147Y-79822354D01*
X210529544Y-79674784D01*
X210461624Y-79510812D01*
X210427000Y-79336741D01*
X210427000Y-79159259D01*
X210428194Y-79153258D01*
X210431927Y-79134488D01*
X210461624Y-78985188D01*
X210529544Y-78821216D01*
X210628147Y-78673646D01*
X210753646Y-78548147D01*
X210901216Y-78449544D01*
X211065188Y-78381624D01*
X211214488Y-78351927D01*
X211239258Y-78347000D01*
X211416742Y-78347000D01*
X211441512Y-78351927D01*
G37*
G36*
X205853512Y-78345927D02*
G01*
X206002812Y-78375624D01*
X206166784Y-78443544D01*
X206314354Y-78542147D01*
X206439853Y-78667646D01*
X206538456Y-78815216D01*
X206606376Y-78979188D01*
X206636073Y-79128488D01*
X206641000Y-79153258D01*
X206641000Y-79330742D01*
X206636073Y-79355512D01*
X206606376Y-79504812D01*
X206538456Y-79668784D01*
X206439853Y-79816354D01*
X206314354Y-79941853D01*
X206166784Y-80040456D01*
X206002812Y-80108376D01*
X205853512Y-80138073D01*
X205828742Y-80143000D01*
X205651258Y-80143000D01*
X205626488Y-80138073D01*
X205477188Y-80108376D01*
X205313216Y-80040456D01*
X205165646Y-79941853D01*
X205040147Y-79816354D01*
X204941544Y-79668784D01*
X204873624Y-79504812D01*
X204843927Y-79355512D01*
X204839000Y-79330742D01*
X204839000Y-79153258D01*
X204843927Y-79128488D01*
X204873624Y-78979188D01*
X204941544Y-78815216D01*
X205040147Y-78667646D01*
X205165646Y-78542147D01*
X205313216Y-78443544D01*
X205477188Y-78375624D01*
X205626488Y-78345927D01*
X205651258Y-78341000D01*
X205828742Y-78341000D01*
X205853512Y-78345927D01*
G37*
G36*
X143054564Y-72141389D02*
G01*
X143245833Y-72220615D01*
X143245835Y-72220616D01*
X143417973Y-72335635D01*
X143564365Y-72482027D01*
X143679385Y-72654167D01*
X143758611Y-72845436D01*
X143799000Y-73048484D01*
X143799000Y-73255516D01*
X143758611Y-73458564D01*
X143679385Y-73649833D01*
X143679384Y-73649835D01*
X143564365Y-73821973D01*
X143417973Y-73968365D01*
X143245835Y-74083384D01*
X143245834Y-74083385D01*
X143245833Y-74083385D01*
X143054564Y-74162611D01*
X142851516Y-74203000D01*
X142644484Y-74203000D01*
X142441436Y-74162611D01*
X142250167Y-74083385D01*
X142250166Y-74083385D01*
X142250165Y-74083384D01*
X142078027Y-73968365D01*
X141931635Y-73821973D01*
X141816616Y-73649835D01*
X141816615Y-73649833D01*
X141737389Y-73458564D01*
X141697000Y-73255516D01*
X141697000Y-73048484D01*
X141737389Y-72845436D01*
X141816615Y-72654167D01*
X141931635Y-72482027D01*
X142078027Y-72335635D01*
X142250165Y-72220616D01*
X142250167Y-72220615D01*
X142441436Y-72141389D01*
X142644484Y-72101000D01*
X142851516Y-72101000D01*
X143054564Y-72141389D01*
G37*
G36*
X143054564Y-67569389D02*
G01*
X143243904Y-67647816D01*
X143245835Y-67648616D01*
X143417973Y-67763635D01*
X143564365Y-67910027D01*
X143679385Y-68082167D01*
X143758611Y-68273436D01*
X143799000Y-68476484D01*
X143799000Y-68683516D01*
X143758611Y-68886564D01*
X143679385Y-69077833D01*
X143679384Y-69077835D01*
X143564365Y-69249973D01*
X143417973Y-69396365D01*
X143245835Y-69511384D01*
X143245834Y-69511385D01*
X143245833Y-69511385D01*
X143054564Y-69590611D01*
X142851516Y-69631000D01*
X142644484Y-69631000D01*
X142441436Y-69590611D01*
X142250167Y-69511385D01*
X142250166Y-69511385D01*
X142250165Y-69511384D01*
X142078027Y-69396365D01*
X141931635Y-69249973D01*
X141816616Y-69077835D01*
X141816615Y-69077833D01*
X141737389Y-68886564D01*
X141697000Y-68683516D01*
X141697000Y-68476484D01*
X141737389Y-68273436D01*
X141816615Y-68082167D01*
X141931635Y-67910027D01*
X142078027Y-67763635D01*
X142250165Y-67648616D01*
X142252096Y-67647816D01*
X142441436Y-67569389D01*
X142644484Y-67529000D01*
X142851516Y-67529000D01*
X143054564Y-67569389D01*
G37*
G36*
X218338600Y-68986600D02*
G01*
X216509400Y-68986600D01*
X216509400Y-67157400D01*
X218338600Y-67157400D01*
X218338600Y-68986600D01*
G37*
G36*
X215150778Y-67192547D02*
G01*
X215317224Y-67261491D01*
X215467022Y-67361583D01*
X215594417Y-67488978D01*
X215694509Y-67638776D01*
X215763453Y-67805222D01*
X215798600Y-67981918D01*
X215798600Y-68162082D01*
X215763453Y-68338778D01*
X215694509Y-68505224D01*
X215594417Y-68655022D01*
X215467022Y-68782417D01*
X215317224Y-68882509D01*
X215150778Y-68951453D01*
X214974082Y-68986600D01*
X214793918Y-68986600D01*
X214617222Y-68951453D01*
X214450776Y-68882509D01*
X214300978Y-68782417D01*
X214173583Y-68655022D01*
X214073491Y-68505224D01*
X214004547Y-68338778D01*
X213969400Y-68162082D01*
X213969400Y-67981918D01*
X214004547Y-67805222D01*
X214073491Y-67638776D01*
X214173583Y-67488978D01*
X214300978Y-67361583D01*
X214450776Y-67261491D01*
X214617222Y-67192547D01*
X214793918Y-67157400D01*
X214974082Y-67157400D01*
X215150778Y-67192547D01*
G37*
G36*
X150076228Y-66745703D02*
G01*
X150231100Y-66809853D01*
X150370481Y-66902985D01*
X150489015Y-67021519D01*
X150582147Y-67160900D01*
X150646297Y-67315772D01*
X150679000Y-67480184D01*
X150679000Y-67647816D01*
X150646297Y-67812228D01*
X150582147Y-67967100D01*
X150489015Y-68106481D01*
X150370481Y-68225015D01*
X150231100Y-68318147D01*
X150076228Y-68382297D01*
X149911816Y-68415000D01*
X149744184Y-68415000D01*
X149579772Y-68382297D01*
X149424900Y-68318147D01*
X149285519Y-68225015D01*
X149166985Y-68106481D01*
X149073853Y-67967100D01*
X149009703Y-67812228D01*
X148977000Y-67647816D01*
X148977000Y-67480184D01*
X149009703Y-67315772D01*
X149073853Y-67160900D01*
X149166985Y-67021519D01*
X149285519Y-66902985D01*
X149424900Y-66809853D01*
X149579772Y-66745703D01*
X149744184Y-66713000D01*
X149911816Y-66713000D01*
X150076228Y-66745703D01*
G37*
G36*
X148679000Y-68415000D02*
G01*
X146977000Y-68415000D01*
X146977000Y-66713000D01*
X148679000Y-66713000D01*
X148679000Y-68415000D01*
G37*
G36*
X215150778Y-64652547D02*
G01*
X215317224Y-64721491D01*
X215467022Y-64821583D01*
X215594417Y-64948978D01*
X215694509Y-65098776D01*
X215763453Y-65265222D01*
X215798600Y-65441918D01*
X215798600Y-65622082D01*
X215763453Y-65798778D01*
X215694509Y-65965224D01*
X215594417Y-66115022D01*
X215467022Y-66242417D01*
X215317224Y-66342509D01*
X215150778Y-66411453D01*
X214974082Y-66446600D01*
X214793918Y-66446600D01*
X214617222Y-66411453D01*
X214450776Y-66342509D01*
X214300978Y-66242417D01*
X214173583Y-66115022D01*
X214073491Y-65965224D01*
X214004547Y-65798778D01*
X213969400Y-65622082D01*
X213969400Y-65441918D01*
X214004547Y-65265222D01*
X214073491Y-65098776D01*
X214173583Y-64948978D01*
X214300978Y-64821583D01*
X214450776Y-64721491D01*
X214617222Y-64652547D01*
X214793918Y-64617400D01*
X214974082Y-64617400D01*
X215150778Y-64652547D01*
G37*
G36*
X217690778Y-64652547D02*
G01*
X217857224Y-64721491D01*
X218007022Y-64821583D01*
X218134417Y-64948978D01*
X218234509Y-65098776D01*
X218303453Y-65265222D01*
X218338600Y-65441918D01*
X218338600Y-65622082D01*
X218303453Y-65798778D01*
X218234509Y-65965224D01*
X218134417Y-66115022D01*
X218007022Y-66242417D01*
X217857224Y-66342509D01*
X217690778Y-66411453D01*
X217514082Y-66446600D01*
X217333918Y-66446600D01*
X217157222Y-66411453D01*
X216990776Y-66342509D01*
X216840978Y-66242417D01*
X216713583Y-66115022D01*
X216613491Y-65965224D01*
X216544547Y-65798778D01*
X216509400Y-65622082D01*
X216509400Y-65441918D01*
X216544547Y-65265222D01*
X216613491Y-65098776D01*
X216713583Y-64948978D01*
X216840978Y-64821583D01*
X216990776Y-64721491D01*
X217157222Y-64652547D01*
X217333918Y-64617400D01*
X217514082Y-64617400D01*
X217690778Y-64652547D01*
G37*
G36*
X143054564Y-63505389D02*
G01*
X143245833Y-63584615D01*
X143245835Y-63584616D01*
X143417973Y-63699635D01*
X143564365Y-63846027D01*
X143604839Y-63906600D01*
X143679385Y-64018167D01*
X143758611Y-64209436D01*
X143799000Y-64412484D01*
X143799000Y-64619516D01*
X143758611Y-64822564D01*
X143679385Y-65013833D01*
X143679384Y-65013835D01*
X143564365Y-65185973D01*
X143417973Y-65332365D01*
X143245835Y-65447384D01*
X143245834Y-65447385D01*
X143245833Y-65447385D01*
X143054564Y-65526611D01*
X142851516Y-65567000D01*
X142644484Y-65567000D01*
X142441436Y-65526611D01*
X142250167Y-65447385D01*
X142250166Y-65447385D01*
X142250165Y-65447384D01*
X142078027Y-65332365D01*
X141931635Y-65185973D01*
X141816616Y-65013835D01*
X141816615Y-65013833D01*
X141737389Y-64822564D01*
X141697000Y-64619516D01*
X141697000Y-64412484D01*
X141737389Y-64209436D01*
X141816615Y-64018167D01*
X141891162Y-63906600D01*
X141931635Y-63846027D01*
X142078027Y-63699635D01*
X142250165Y-63584616D01*
X142250167Y-63584615D01*
X142441436Y-63505389D01*
X142644484Y-63465000D01*
X142851516Y-63465000D01*
X143054564Y-63505389D01*
G37*
G36*
X215150778Y-62112547D02*
G01*
X215317224Y-62181491D01*
X215467022Y-62281583D01*
X215594417Y-62408978D01*
X215694509Y-62558776D01*
X215763453Y-62725222D01*
X215798600Y-62901918D01*
X215798600Y-63082082D01*
X215763453Y-63258778D01*
X215694509Y-63425224D01*
X215594417Y-63575022D01*
X215467022Y-63702417D01*
X215317224Y-63802509D01*
X215150778Y-63871453D01*
X214974082Y-63906600D01*
X214793918Y-63906600D01*
X214617222Y-63871453D01*
X214450776Y-63802509D01*
X214300978Y-63702417D01*
X214173583Y-63575022D01*
X214073491Y-63425224D01*
X214004547Y-63258778D01*
X213969400Y-63082082D01*
X213969400Y-62901918D01*
X214004547Y-62725222D01*
X214073491Y-62558776D01*
X214173583Y-62408978D01*
X214300978Y-62281583D01*
X214450776Y-62181491D01*
X214617222Y-62112547D01*
X214793918Y-62077400D01*
X214974082Y-62077400D01*
X215150778Y-62112547D01*
G37*
G36*
X217690778Y-62112547D02*
G01*
X217857224Y-62181491D01*
X218007022Y-62281583D01*
X218134417Y-62408978D01*
X218234509Y-62558776D01*
X218303453Y-62725222D01*
X218338600Y-62901918D01*
X218338600Y-63082082D01*
X218303453Y-63258778D01*
X218234509Y-63425224D01*
X218134417Y-63575022D01*
X218007022Y-63702417D01*
X217857224Y-63802509D01*
X217690778Y-63871453D01*
X217514082Y-63906600D01*
X217333918Y-63906600D01*
X217157222Y-63871453D01*
X216990776Y-63802509D01*
X216840978Y-63702417D01*
X216713583Y-63575022D01*
X216613491Y-63425224D01*
X216544547Y-63258778D01*
X216509400Y-63082082D01*
X216509400Y-62901918D01*
X216544547Y-62725222D01*
X216613491Y-62558776D01*
X216713583Y-62408978D01*
X216840978Y-62281583D01*
X216990776Y-62181491D01*
X217157222Y-62112547D01*
X217333918Y-62077400D01*
X217514082Y-62077400D01*
X217690778Y-62112547D01*
G37*
G36*
X215150778Y-59572547D02*
G01*
X215317224Y-59641491D01*
X215467022Y-59741583D01*
X215594417Y-59868978D01*
X215694509Y-60018776D01*
X215763453Y-60185222D01*
X215798600Y-60361918D01*
X215798600Y-60542082D01*
X215763453Y-60718778D01*
X215694509Y-60885224D01*
X215594417Y-61035022D01*
X215467022Y-61162417D01*
X215317224Y-61262509D01*
X215150778Y-61331453D01*
X214974082Y-61366600D01*
X214793918Y-61366600D01*
X214617222Y-61331453D01*
X214450776Y-61262509D01*
X214300978Y-61162417D01*
X214173583Y-61035022D01*
X214073491Y-60885224D01*
X214004547Y-60718778D01*
X213969400Y-60542082D01*
X213969400Y-60361918D01*
X214004547Y-60185222D01*
X214073491Y-60018776D01*
X214173583Y-59868978D01*
X214300978Y-59741583D01*
X214450776Y-59641491D01*
X214617222Y-59572547D01*
X214793918Y-59537400D01*
X214974082Y-59537400D01*
X215150778Y-59572547D01*
G37*
G36*
X217690778Y-59572547D02*
G01*
X217857224Y-59641491D01*
X218007022Y-59741583D01*
X218134417Y-59868978D01*
X218234509Y-60018776D01*
X218303453Y-60185222D01*
X218338600Y-60361918D01*
X218338600Y-60542082D01*
X218303453Y-60718778D01*
X218234509Y-60885224D01*
X218134417Y-61035022D01*
X218007022Y-61162417D01*
X217857224Y-61262509D01*
X217690778Y-61331453D01*
X217514082Y-61366600D01*
X217333918Y-61366600D01*
X217157222Y-61331453D01*
X216990776Y-61262509D01*
X216840978Y-61162417D01*
X216713583Y-61035022D01*
X216613491Y-60885224D01*
X216544547Y-60718778D01*
X216509400Y-60542082D01*
X216509400Y-60361918D01*
X216544547Y-60185222D01*
X216613491Y-60018776D01*
X216713583Y-59868978D01*
X216840978Y-59741583D01*
X216990776Y-59641491D01*
X217157222Y-59572547D01*
X217333918Y-59537400D01*
X217514082Y-59537400D01*
X217690778Y-59572547D01*
G37*
G36*
X217690778Y-57032547D02*
G01*
X217857224Y-57101491D01*
X218007022Y-57201583D01*
X218134417Y-57328978D01*
X218234509Y-57478776D01*
X218303453Y-57645222D01*
X218338600Y-57821918D01*
X218338600Y-58002082D01*
X218303453Y-58178778D01*
X218234509Y-58345224D01*
X218134417Y-58495022D01*
X218007022Y-58622417D01*
X217857224Y-58722509D01*
X217690778Y-58791453D01*
X217514082Y-58826600D01*
X217333918Y-58826600D01*
X217157222Y-58791453D01*
X216990776Y-58722509D01*
X216840978Y-58622417D01*
X216713583Y-58495022D01*
X216613491Y-58345224D01*
X216544547Y-58178778D01*
X216509400Y-58002082D01*
X216509400Y-57821918D01*
X216544547Y-57645222D01*
X216613491Y-57478776D01*
X216713583Y-57328978D01*
X216840978Y-57201583D01*
X216990776Y-57101491D01*
X217157222Y-57032547D01*
X217333918Y-56997400D01*
X217514082Y-56997400D01*
X217690778Y-57032547D01*
G37*
G36*
X215150778Y-57032547D02*
G01*
X215317224Y-57101491D01*
X215467022Y-57201583D01*
X215594417Y-57328978D01*
X215694509Y-57478776D01*
X215763453Y-57645222D01*
X215798600Y-57821918D01*
X215798600Y-58002082D01*
X215763453Y-58178778D01*
X215694509Y-58345224D01*
X215594417Y-58495022D01*
X215467022Y-58622417D01*
X215317224Y-58722509D01*
X215150778Y-58791453D01*
X214974082Y-58826600D01*
X214793918Y-58826600D01*
X214617222Y-58791453D01*
X214450776Y-58722509D01*
X214300978Y-58622417D01*
X214173583Y-58495022D01*
X214073491Y-58345224D01*
X214004547Y-58178778D01*
X213969400Y-58002082D01*
X213969400Y-57821918D01*
X214004547Y-57645222D01*
X214073491Y-57478776D01*
X214173583Y-57328978D01*
X214300978Y-57201583D01*
X214450776Y-57101491D01*
X214617222Y-57032547D01*
X214793918Y-56997400D01*
X214974082Y-56997400D01*
X215150778Y-57032547D01*
G37*
G36*
X142961911Y-55257000D02*
G01*
X143083734Y-55281232D01*
X143293203Y-55367997D01*
X143481720Y-55493960D01*
X143642040Y-55654280D01*
X143768003Y-55842797D01*
X143854768Y-56052266D01*
X143899000Y-56274636D01*
X143899000Y-56501364D01*
X143854768Y-56723734D01*
X143768003Y-56933203D01*
X143642040Y-57121720D01*
X143481720Y-57282040D01*
X143293203Y-57408003D01*
X143083734Y-57494768D01*
X142972549Y-57516884D01*
X142861365Y-57539000D01*
X142634635Y-57539000D01*
X142523451Y-57516884D01*
X142412266Y-57494768D01*
X142202797Y-57408003D01*
X142014280Y-57282040D01*
X141853960Y-57121720D01*
X141727997Y-56933203D01*
X141641232Y-56723734D01*
X141597000Y-56501364D01*
X141597000Y-56274636D01*
X141641232Y-56052266D01*
X141727997Y-55842797D01*
X141853960Y-55654280D01*
X142014280Y-55493960D01*
X142202797Y-55367997D01*
X142412266Y-55281232D01*
X142534089Y-55257000D01*
X142634635Y-55237000D01*
X142861365Y-55237000D01*
X142961911Y-55257000D01*
G37*
G36*
X189891228Y-54553703D02*
G01*
X190046100Y-54617853D01*
X190185481Y-54710985D01*
X190304015Y-54829519D01*
X190397147Y-54968900D01*
X190461297Y-55123772D01*
X190494000Y-55288184D01*
X190494000Y-55455816D01*
X190461297Y-55620228D01*
X190397147Y-55775100D01*
X190304015Y-55914481D01*
X190185481Y-56033015D01*
X190046100Y-56126147D01*
X189891228Y-56190297D01*
X189726816Y-56223000D01*
X189559184Y-56223000D01*
X189394772Y-56190297D01*
X189239900Y-56126147D01*
X189100519Y-56033015D01*
X188981985Y-55914481D01*
X188888853Y-55775100D01*
X188824703Y-55620228D01*
X188792000Y-55455816D01*
X188792000Y-55288184D01*
X188824703Y-55123772D01*
X188888853Y-54968900D01*
X188981985Y-54829519D01*
X189100519Y-54710985D01*
X189239900Y-54617853D01*
X189394772Y-54553703D01*
X189559184Y-54521000D01*
X189726816Y-54521000D01*
X189891228Y-54553703D01*
G37*
G36*
X192494000Y-56223000D02*
G01*
X190792000Y-56223000D01*
X190792000Y-54521000D01*
X192494000Y-54521000D01*
X192494000Y-56223000D01*
G37*
G36*
X178574348Y-54564320D02*
G01*
X178574350Y-54564321D01*
X178574351Y-54564321D01*
X178715574Y-54622817D01*
X178715577Y-54622819D01*
X178842669Y-54707739D01*
X178950761Y-54815831D01*
X179027282Y-54930353D01*
X179035683Y-54942926D01*
X179094179Y-55084149D01*
X179094180Y-55084152D01*
X179124000Y-55234069D01*
X179124000Y-55386931D01*
X179102711Y-55493960D01*
X179094179Y-55536851D01*
X179035683Y-55678074D01*
X179035681Y-55678077D01*
X178950761Y-55805169D01*
X178842669Y-55913261D01*
X178715577Y-55998181D01*
X178715574Y-55998183D01*
X178574351Y-56056679D01*
X178574350Y-56056679D01*
X178574348Y-56056680D01*
X178424431Y-56086500D01*
X178271569Y-56086500D01*
X178121652Y-56056680D01*
X178121650Y-56056679D01*
X178121649Y-56056679D01*
X177980426Y-55998183D01*
X177980423Y-55998181D01*
X177853331Y-55913261D01*
X177745239Y-55805169D01*
X177660319Y-55678077D01*
X177660317Y-55678074D01*
X177601821Y-55536851D01*
X177593290Y-55493960D01*
X177572000Y-55386931D01*
X177572000Y-55234069D01*
X177601820Y-55084152D01*
X177601821Y-55084149D01*
X177660317Y-54942926D01*
X177668718Y-54930353D01*
X177745239Y-54815831D01*
X177853331Y-54707739D01*
X177980423Y-54622819D01*
X177980426Y-54622817D01*
X178121649Y-54564321D01*
X178121650Y-54564321D01*
X178121652Y-54564320D01*
X178271569Y-54534500D01*
X178424431Y-54534500D01*
X178574348Y-54564320D01*
G37*
G36*
X183574348Y-54564320D02*
G01*
X183574350Y-54564321D01*
X183574351Y-54564321D01*
X183715574Y-54622817D01*
X183715577Y-54622819D01*
X183842669Y-54707739D01*
X183950761Y-54815831D01*
X184027282Y-54930353D01*
X184035683Y-54942926D01*
X184094179Y-55084149D01*
X184094180Y-55084152D01*
X184124000Y-55234069D01*
X184124000Y-55386931D01*
X184102711Y-55493960D01*
X184094179Y-55536851D01*
X184035683Y-55678074D01*
X184035681Y-55678077D01*
X183950761Y-55805169D01*
X183842669Y-55913261D01*
X183715577Y-55998181D01*
X183715574Y-55998183D01*
X183574351Y-56056679D01*
X183574350Y-56056679D01*
X183574348Y-56056680D01*
X183424431Y-56086500D01*
X183271569Y-56086500D01*
X183121652Y-56056680D01*
X183121650Y-56056679D01*
X183121649Y-56056679D01*
X182980426Y-55998183D01*
X182980423Y-55998181D01*
X182853331Y-55913261D01*
X182745239Y-55805169D01*
X182660319Y-55678077D01*
X182660317Y-55678074D01*
X182601821Y-55536851D01*
X182593290Y-55493960D01*
X182572000Y-55386931D01*
X182572000Y-55234069D01*
X182601820Y-55084152D01*
X182601821Y-55084149D01*
X182660317Y-54942926D01*
X182668718Y-54930353D01*
X182745239Y-54815831D01*
X182853331Y-54707739D01*
X182980423Y-54622819D01*
X182980426Y-54622817D01*
X183121649Y-54564321D01*
X183121650Y-54564321D01*
X183121652Y-54564320D01*
X183271569Y-54534500D01*
X183424431Y-54534500D01*
X183574348Y-54564320D01*
G37*
G36*
X205345512Y-53459927D02*
G01*
X205494812Y-53489624D01*
X205658784Y-53557544D01*
X205806354Y-53656147D01*
X205931853Y-53781646D01*
X206030456Y-53929216D01*
X206098376Y-54093188D01*
X206133000Y-54267259D01*
X206133000Y-54444741D01*
X206098376Y-54618812D01*
X206030456Y-54782784D01*
X205931853Y-54930354D01*
X205806354Y-55055853D01*
X205658784Y-55154456D01*
X205494812Y-55222376D01*
X205345512Y-55252073D01*
X205320742Y-55257000D01*
X205143258Y-55257000D01*
X205118488Y-55252073D01*
X204969188Y-55222376D01*
X204805216Y-55154456D01*
X204657646Y-55055853D01*
X204532147Y-54930354D01*
X204433544Y-54782784D01*
X204365624Y-54618812D01*
X204331000Y-54444741D01*
X204331000Y-54267259D01*
X204365624Y-54093188D01*
X204433544Y-53929216D01*
X204532147Y-53781646D01*
X204657646Y-53656147D01*
X204805216Y-53557544D01*
X204969188Y-53489624D01*
X205118488Y-53459927D01*
X205143258Y-53455000D01*
X205320742Y-53455000D01*
X205345512Y-53459927D01*
G37*
G36*
X202805512Y-53459927D02*
G01*
X202954812Y-53489624D01*
X203118784Y-53557544D01*
X203266354Y-53656147D01*
X203391853Y-53781646D01*
X203490456Y-53929216D01*
X203558376Y-54093188D01*
X203593000Y-54267259D01*
X203593000Y-54444741D01*
X203558376Y-54618812D01*
X203490456Y-54782784D01*
X203391853Y-54930354D01*
X203266354Y-55055853D01*
X203118784Y-55154456D01*
X202954812Y-55222376D01*
X202805512Y-55252073D01*
X202780742Y-55257000D01*
X202603258Y-55257000D01*
X202578488Y-55252073D01*
X202429188Y-55222376D01*
X202265216Y-55154456D01*
X202117646Y-55055853D01*
X201992147Y-54930354D01*
X201893544Y-54782784D01*
X201825624Y-54618812D01*
X201791000Y-54444741D01*
X201791000Y-54267259D01*
X201825624Y-54093188D01*
X201893544Y-53929216D01*
X201992147Y-53781646D01*
X202117646Y-53656147D01*
X202265216Y-53557544D01*
X202429188Y-53489624D01*
X202578488Y-53459927D01*
X202603258Y-53455000D01*
X202780742Y-53455000D01*
X202805512Y-53459927D01*
G37*
G36*
X201053000Y-55257000D02*
G01*
X199251000Y-55257000D01*
X199251000Y-53455000D01*
X201053000Y-53455000D01*
X201053000Y-55257000D01*
G37*
G36*
X163163617Y-52906420D02*
G01*
X163244399Y-52930925D01*
X163286335Y-52943646D01*
X163399424Y-53004094D01*
X163498554Y-53085447D01*
X163579906Y-53184575D01*
X163640354Y-53297664D01*
X163648320Y-53323924D01*
X163677580Y-53420382D01*
X163677580Y-53420384D01*
X163685856Y-53504406D01*
X163687000Y-53516027D01*
X163687000Y-54179973D01*
X163677580Y-54275618D01*
X163650040Y-54366404D01*
X163640354Y-54398336D01*
X163579906Y-54511425D01*
X163498554Y-54610554D01*
X163399425Y-54691906D01*
X163286336Y-54752354D01*
X163254404Y-54762040D01*
X163163618Y-54789580D01*
X163036000Y-54802149D01*
X162908383Y-54789580D01*
X162817597Y-54762040D01*
X162785665Y-54752354D01*
X162672576Y-54691906D01*
X162573447Y-54610554D01*
X162492096Y-54511427D01*
X162431645Y-54398333D01*
X162419237Y-54357427D01*
X162394420Y-54275618D01*
X162385000Y-54179973D01*
X162385000Y-53516028D01*
X162387601Y-53489624D01*
X162394420Y-53420385D01*
X162394420Y-53420383D01*
X162431645Y-53297669D01*
X162431646Y-53297665D01*
X162492094Y-53184576D01*
X162573447Y-53085446D01*
X162672575Y-53004094D01*
X162785664Y-52943646D01*
X162827600Y-52930925D01*
X162908382Y-52906420D01*
X163036000Y-52893851D01*
X163163617Y-52906420D01*
G37*
G36*
X161527242Y-52901404D02*
G01*
X161564337Y-52912657D01*
X161598515Y-52930925D01*
X161628481Y-52955519D01*
X161653075Y-52985485D01*
X161671343Y-53019663D01*
X161682596Y-53056758D01*
X161687000Y-53101474D01*
X161687000Y-54594526D01*
X161682596Y-54639242D01*
X161671343Y-54676337D01*
X161653075Y-54710515D01*
X161628481Y-54740481D01*
X161598515Y-54765075D01*
X161564337Y-54783343D01*
X161527242Y-54794596D01*
X161482526Y-54799000D01*
X160589474Y-54799000D01*
X160544758Y-54794596D01*
X160507663Y-54783343D01*
X160473485Y-54765075D01*
X160443519Y-54740481D01*
X160418925Y-54710515D01*
X160400657Y-54676337D01*
X160389404Y-54639242D01*
X160385000Y-54594526D01*
X160385000Y-53101474D01*
X160389404Y-53056758D01*
X160400657Y-53019663D01*
X160418925Y-52985485D01*
X160443519Y-52955519D01*
X160473485Y-52930925D01*
X160507663Y-52912657D01*
X160544758Y-52901404D01*
X160589474Y-52897000D01*
X161482526Y-52897000D01*
X161527242Y-52901404D01*
G37*
G36*
X184475617Y-51618920D02*
G01*
X184566403Y-51646460D01*
X184598335Y-51656146D01*
X184711424Y-51716594D01*
X184810554Y-51797947D01*
X184891906Y-51897075D01*
X184952354Y-52010164D01*
X184962040Y-52042096D01*
X184989580Y-52132882D01*
X184989580Y-52132884D01*
X184999000Y-52228526D01*
X184999000Y-52992474D01*
X184997855Y-53004095D01*
X184989580Y-53088118D01*
X184985528Y-53101474D01*
X184952354Y-53210836D01*
X184891906Y-53323925D01*
X184810554Y-53423054D01*
X184711425Y-53504406D01*
X184598336Y-53564854D01*
X184566404Y-53574540D01*
X184475618Y-53602080D01*
X184348000Y-53614649D01*
X184220383Y-53602080D01*
X184129597Y-53574540D01*
X184097665Y-53564854D01*
X183984576Y-53504406D01*
X183885447Y-53423054D01*
X183804095Y-53323925D01*
X183743648Y-53210837D01*
X183743645Y-53210832D01*
X183706420Y-53088118D01*
X183697000Y-52992473D01*
X183697000Y-52228528D01*
X183706420Y-52132883D01*
X183743645Y-52010169D01*
X183743646Y-52010165D01*
X183804094Y-51897076D01*
X183885447Y-51797946D01*
X183984575Y-51716594D01*
X184097664Y-51656146D01*
X184129596Y-51646460D01*
X184220382Y-51618920D01*
X184348000Y-51606351D01*
X184475617Y-51618920D01*
G37*
G36*
X177475618Y-51618920D02*
G01*
X177566404Y-51646460D01*
X177598336Y-51656146D01*
X177711425Y-51716594D01*
X177810554Y-51797946D01*
X177891906Y-51897075D01*
X177952354Y-52010164D01*
X177962040Y-52042096D01*
X177989580Y-52132882D01*
X177989580Y-52132884D01*
X177999000Y-52228526D01*
X177999000Y-52992474D01*
X177997855Y-53004095D01*
X177989580Y-53088118D01*
X177985528Y-53101474D01*
X177952354Y-53210836D01*
X177891906Y-53323925D01*
X177810554Y-53423053D01*
X177711424Y-53504406D01*
X177598335Y-53564854D01*
X177566403Y-53574540D01*
X177475617Y-53602080D01*
X177348000Y-53614649D01*
X177220382Y-53602080D01*
X177129596Y-53574540D01*
X177097664Y-53564854D01*
X176984575Y-53504406D01*
X176885447Y-53423054D01*
X176804094Y-53323924D01*
X176743646Y-53210835D01*
X176730728Y-53168249D01*
X176706420Y-53088117D01*
X176697000Y-52992472D01*
X176697000Y-52228527D01*
X176706420Y-52132882D01*
X176743645Y-52010168D01*
X176768608Y-51963466D01*
X176804095Y-51897075D01*
X176885447Y-51797946D01*
X176984576Y-51716594D01*
X177097665Y-51656146D01*
X177129597Y-51646460D01*
X177220383Y-51618920D01*
X177348000Y-51606351D01*
X177475618Y-51618920D01*
G37*
M02*
