G04 #@! TF.GenerationSoftware,KiCad,Pcbnew,(5.1.5)-3*
G04 #@! TF.CreationDate,2020-02-10T11:28:52-05:00*
G04 #@! TF.ProjectId,3pin-breakout,3370696e-2d62-4726-9561-6b6f75742e6b,rev?*
G04 #@! TF.SameCoordinates,Original*
G04 #@! TF.FileFunction,Soldermask,Top*
G04 #@! TF.FilePolarity,Negative*
%FSLAX46Y46*%
G04 Gerber Fmt 4.6, Leading zero omitted, Abs format (unit mm)*
G04 Created by KiCad (PCBNEW (5.1.5)-3) date 2020-02-10 11:28:52*
%MOMM*%
%LPD*%
G04 APERTURE LIST*
%ADD10C,0.100000*%
G04 APERTURE END LIST*
D10*
G36*
X115511537Y-82627801D02*
G01*
X115542739Y-82637266D01*
X115571487Y-82652632D01*
X115596688Y-82673314D01*
X115617370Y-82698515D01*
X115632736Y-82727263D01*
X115642201Y-82758465D01*
X115646001Y-82797047D01*
X115646001Y-84652955D01*
X115642201Y-84691537D01*
X115632736Y-84722739D01*
X115617370Y-84751487D01*
X115596688Y-84776688D01*
X115571487Y-84797370D01*
X115542739Y-84812736D01*
X115511537Y-84822201D01*
X115472955Y-84826001D01*
X112717047Y-84826001D01*
X112678465Y-84822201D01*
X112647263Y-84812736D01*
X112618515Y-84797370D01*
X112593314Y-84776688D01*
X112572632Y-84751487D01*
X112557266Y-84722739D01*
X112547801Y-84691537D01*
X112544001Y-84652955D01*
X112544001Y-82797047D01*
X112547801Y-82758465D01*
X112557266Y-82727263D01*
X112572632Y-82698515D01*
X112593314Y-82673314D01*
X112618515Y-82652632D01*
X112647263Y-82637266D01*
X112678465Y-82627801D01*
X112717047Y-82624001D01*
X115472955Y-82624001D01*
X115511537Y-82627801D01*
G37*
G36*
X124573512Y-81653927D02*
G01*
X124722812Y-81683624D01*
X124886784Y-81751544D01*
X125034354Y-81850147D01*
X125159853Y-81975646D01*
X125258456Y-82123216D01*
X125326376Y-82287188D01*
X125361000Y-82461259D01*
X125361000Y-82638741D01*
X125326376Y-82812812D01*
X125258456Y-82976784D01*
X125159853Y-83124354D01*
X125034354Y-83249853D01*
X124886784Y-83348456D01*
X124722812Y-83416376D01*
X124573512Y-83446073D01*
X124548742Y-83451000D01*
X124371258Y-83451000D01*
X124346488Y-83446073D01*
X124197188Y-83416376D01*
X124033216Y-83348456D01*
X123885646Y-83249853D01*
X123760147Y-83124354D01*
X123661544Y-82976784D01*
X123593624Y-82812812D01*
X123559000Y-82638741D01*
X123559000Y-82461259D01*
X123593624Y-82287188D01*
X123661544Y-82123216D01*
X123760147Y-81975646D01*
X123885646Y-81850147D01*
X124033216Y-81751544D01*
X124197188Y-81683624D01*
X124346488Y-81653927D01*
X124371258Y-81649000D01*
X124548742Y-81649000D01*
X124573512Y-81653927D01*
G37*
G36*
X117714684Y-80727726D02*
G01*
X117745144Y-80736967D01*
X117773224Y-80751975D01*
X117797832Y-80772170D01*
X117818027Y-80796778D01*
X117833035Y-80824858D01*
X117842276Y-80855318D01*
X117846001Y-80893141D01*
X117846001Y-81456861D01*
X117842276Y-81494684D01*
X117833035Y-81525144D01*
X117818027Y-81553224D01*
X117797832Y-81577832D01*
X117773224Y-81598027D01*
X117745144Y-81613035D01*
X117714684Y-81622276D01*
X117676861Y-81626001D01*
X116313141Y-81626001D01*
X116275318Y-81622276D01*
X116244858Y-81613035D01*
X116216778Y-81598027D01*
X116192170Y-81577832D01*
X116171975Y-81553224D01*
X116156967Y-81525144D01*
X116147726Y-81494684D01*
X116144001Y-81456861D01*
X116144001Y-80893141D01*
X116147726Y-80855318D01*
X116156967Y-80824858D01*
X116171975Y-80796778D01*
X116192170Y-80772170D01*
X116216778Y-80751975D01*
X116244858Y-80736967D01*
X116275318Y-80727726D01*
X116313141Y-80724001D01*
X117676861Y-80724001D01*
X117714684Y-80727726D01*
G37*
G36*
X124569027Y-79113035D02*
G01*
X124722812Y-79143624D01*
X124886784Y-79211544D01*
X125034354Y-79310147D01*
X125159853Y-79435646D01*
X125258456Y-79583216D01*
X125326376Y-79747188D01*
X125361000Y-79921259D01*
X125361000Y-80098741D01*
X125326376Y-80272812D01*
X125258456Y-80436784D01*
X125159853Y-80584354D01*
X125034354Y-80709853D01*
X124886784Y-80808456D01*
X124722812Y-80876376D01*
X124576352Y-80905508D01*
X124548742Y-80911000D01*
X124371258Y-80911000D01*
X124343648Y-80905508D01*
X124197188Y-80876376D01*
X124033216Y-80808456D01*
X123885646Y-80709853D01*
X123760147Y-80584354D01*
X123661544Y-80436784D01*
X123593624Y-80272812D01*
X123559000Y-80098741D01*
X123559000Y-79921259D01*
X123593624Y-79747188D01*
X123661544Y-79583216D01*
X123760147Y-79435646D01*
X123885646Y-79310147D01*
X124033216Y-79211544D01*
X124197188Y-79143624D01*
X124350973Y-79113035D01*
X124371258Y-79109000D01*
X124548742Y-79109000D01*
X124569027Y-79113035D01*
G37*
G36*
X117714684Y-79477726D02*
G01*
X117745144Y-79486967D01*
X117773224Y-79501975D01*
X117797832Y-79522170D01*
X117818027Y-79546778D01*
X117833035Y-79574858D01*
X117842276Y-79605318D01*
X117846001Y-79643141D01*
X117846001Y-80206861D01*
X117842276Y-80244684D01*
X117833035Y-80275144D01*
X117818027Y-80303224D01*
X117797832Y-80327832D01*
X117773224Y-80348027D01*
X117745144Y-80363035D01*
X117714684Y-80372276D01*
X117676861Y-80376001D01*
X116313141Y-80376001D01*
X116275318Y-80372276D01*
X116244858Y-80363035D01*
X116216778Y-80348027D01*
X116192170Y-80327832D01*
X116171975Y-80303224D01*
X116156967Y-80275144D01*
X116147726Y-80244684D01*
X116144001Y-80206861D01*
X116144001Y-79643141D01*
X116147726Y-79605318D01*
X116156967Y-79574858D01*
X116171975Y-79546778D01*
X116192170Y-79522170D01*
X116216778Y-79501975D01*
X116244858Y-79486967D01*
X116275318Y-79477726D01*
X116313141Y-79474001D01*
X117676861Y-79474001D01*
X117714684Y-79477726D01*
G37*
G36*
X117714684Y-78227726D02*
G01*
X117745144Y-78236967D01*
X117773224Y-78251975D01*
X117797832Y-78272170D01*
X117818027Y-78296778D01*
X117833035Y-78324858D01*
X117842276Y-78355318D01*
X117846001Y-78393141D01*
X117846001Y-78956861D01*
X117842276Y-78994684D01*
X117833035Y-79025144D01*
X117818027Y-79053224D01*
X117797832Y-79077832D01*
X117773224Y-79098027D01*
X117745144Y-79113035D01*
X117714684Y-79122276D01*
X117676861Y-79126001D01*
X116313141Y-79126001D01*
X116275318Y-79122276D01*
X116244858Y-79113035D01*
X116216778Y-79098027D01*
X116192170Y-79077832D01*
X116171975Y-79053224D01*
X116156967Y-79025144D01*
X116147726Y-78994684D01*
X116144001Y-78956861D01*
X116144001Y-78393141D01*
X116147726Y-78355318D01*
X116156967Y-78324858D01*
X116171975Y-78296778D01*
X116192170Y-78272170D01*
X116216778Y-78251975D01*
X116244858Y-78236967D01*
X116275318Y-78227726D01*
X116313141Y-78224001D01*
X117676861Y-78224001D01*
X117714684Y-78227726D01*
G37*
G36*
X125361000Y-78371000D02*
G01*
X123559000Y-78371000D01*
X123559000Y-76569000D01*
X125361000Y-76569000D01*
X125361000Y-78371000D01*
G37*
G36*
X115511537Y-75027801D02*
G01*
X115542739Y-75037266D01*
X115571487Y-75052632D01*
X115596688Y-75073314D01*
X115617370Y-75098515D01*
X115632736Y-75127263D01*
X115642201Y-75158465D01*
X115646001Y-75197047D01*
X115646001Y-77052955D01*
X115642201Y-77091537D01*
X115632736Y-77122739D01*
X115617370Y-77151487D01*
X115596688Y-77176688D01*
X115571487Y-77197370D01*
X115542739Y-77212736D01*
X115511537Y-77222201D01*
X115472955Y-77226001D01*
X112717047Y-77226001D01*
X112678465Y-77222201D01*
X112647263Y-77212736D01*
X112618515Y-77197370D01*
X112593314Y-77176688D01*
X112572632Y-77151487D01*
X112557266Y-77122739D01*
X112547801Y-77091537D01*
X112544001Y-77052955D01*
X112544001Y-75197047D01*
X112547801Y-75158465D01*
X112557266Y-75127263D01*
X112572632Y-75098515D01*
X112593314Y-75073314D01*
X112618515Y-75052632D01*
X112647263Y-75037266D01*
X112678465Y-75027801D01*
X112717047Y-75024001D01*
X115472955Y-75024001D01*
X115511537Y-75027801D01*
G37*
M02*
