G04 #@! TF.GenerationSoftware,KiCad,Pcbnew,(5.1.5)-3*
G04 #@! TF.CreationDate,2020-02-10T11:28:52-05:00*
G04 #@! TF.ProjectId,3pin-breakout,3370696e-2d62-4726-9561-6b6f75742e6b,rev?*
G04 #@! TF.SameCoordinates,Original*
G04 #@! TF.FileFunction,Soldermask,Bot*
G04 #@! TF.FilePolarity,Negative*
%FSLAX46Y46*%
G04 Gerber Fmt 4.6, Leading zero omitted, Abs format (unit mm)*
G04 Created by KiCad (PCBNEW (5.1.5)-3) date 2020-02-10 11:28:52*
%MOMM*%
%LPD*%
G04 APERTURE LIST*
%ADD10C,0.100000*%
G04 APERTURE END LIST*
D10*
G36*
X124573512Y-81653927D02*
G01*
X124722812Y-81683624D01*
X124886784Y-81751544D01*
X125034354Y-81850147D01*
X125159853Y-81975646D01*
X125258456Y-82123216D01*
X125326376Y-82287188D01*
X125361000Y-82461259D01*
X125361000Y-82638741D01*
X125326376Y-82812812D01*
X125258456Y-82976784D01*
X125159853Y-83124354D01*
X125034354Y-83249853D01*
X124886784Y-83348456D01*
X124722812Y-83416376D01*
X124573512Y-83446073D01*
X124548742Y-83451000D01*
X124371258Y-83451000D01*
X124346488Y-83446073D01*
X124197188Y-83416376D01*
X124033216Y-83348456D01*
X123885646Y-83249853D01*
X123760147Y-83124354D01*
X123661544Y-82976784D01*
X123593624Y-82812812D01*
X123559000Y-82638741D01*
X123559000Y-82461259D01*
X123593624Y-82287188D01*
X123661544Y-82123216D01*
X123760147Y-81975646D01*
X123885646Y-81850147D01*
X124033216Y-81751544D01*
X124197188Y-81683624D01*
X124346488Y-81653927D01*
X124371258Y-81649000D01*
X124548742Y-81649000D01*
X124573512Y-81653927D01*
G37*
G36*
X124573512Y-79113927D02*
G01*
X124722812Y-79143624D01*
X124886784Y-79211544D01*
X125034354Y-79310147D01*
X125159853Y-79435646D01*
X125258456Y-79583216D01*
X125326376Y-79747188D01*
X125361000Y-79921259D01*
X125361000Y-80098741D01*
X125326376Y-80272812D01*
X125258456Y-80436784D01*
X125159853Y-80584354D01*
X125034354Y-80709853D01*
X124886784Y-80808456D01*
X124722812Y-80876376D01*
X124573512Y-80906073D01*
X124548742Y-80911000D01*
X124371258Y-80911000D01*
X124346488Y-80906073D01*
X124197188Y-80876376D01*
X124033216Y-80808456D01*
X123885646Y-80709853D01*
X123760147Y-80584354D01*
X123661544Y-80436784D01*
X123593624Y-80272812D01*
X123559000Y-80098741D01*
X123559000Y-79921259D01*
X123593624Y-79747188D01*
X123661544Y-79583216D01*
X123760147Y-79435646D01*
X123885646Y-79310147D01*
X124033216Y-79211544D01*
X124197188Y-79143624D01*
X124346488Y-79113927D01*
X124371258Y-79109000D01*
X124548742Y-79109000D01*
X124573512Y-79113927D01*
G37*
G36*
X125361000Y-78371000D02*
G01*
X123559000Y-78371000D01*
X123559000Y-76569000D01*
X125361000Y-76569000D01*
X125361000Y-78371000D01*
G37*
M02*
