G04 #@! TF.GenerationSoftware,KiCad,Pcbnew,(5.1.5)-3*
G04 #@! TF.CreationDate,2020-02-10T11:28:51-05:00*
G04 #@! TF.ProjectId,3pin-breakout,3370696e-2d62-4726-9561-6b6f75742e6b,rev?*
G04 #@! TF.SameCoordinates,Original*
G04 #@! TF.FileFunction,Legend,Top*
G04 #@! TF.FilePolarity,Positive*
%FSLAX46Y46*%
G04 Gerber Fmt 4.6, Leading zero omitted, Abs format (unit mm)*
G04 Created by KiCad (PCBNEW (5.1.5)-3) date 2020-02-10 11:28:51*
%MOMM*%
%LPD*%
G04 APERTURE LIST*
%ADD10C,0.120000*%
%ADD11C,0.150000*%
G04 APERTURE END LIST*
D10*
X115855001Y-77065001D02*
X116305001Y-77065001D01*
X116305001Y-77065001D02*
X116305001Y-78015001D01*
X116305001Y-78015001D02*
X117795001Y-78015001D01*
X115855001Y-82785001D02*
X116305001Y-82785001D01*
X116305001Y-82785001D02*
X116305001Y-81835001D01*
X112335001Y-77065001D02*
X111885001Y-77065001D01*
X111885001Y-77065001D02*
X111885001Y-82785001D01*
X111885001Y-82785001D02*
X112335001Y-82785001D01*
X123130000Y-83880000D02*
X125790000Y-83880000D01*
X123130000Y-78740000D02*
X123130000Y-83880000D01*
X125790000Y-78740000D02*
X125790000Y-83880000D01*
X123130000Y-78740000D02*
X125790000Y-78740000D01*
X123130000Y-77470000D02*
X123130000Y-76140000D01*
X123130000Y-76140000D02*
X124460000Y-76140000D01*
D11*
X113966666Y-79462380D02*
X113966666Y-80176666D01*
X113919047Y-80319523D01*
X113823809Y-80414761D01*
X113680952Y-80462380D01*
X113585714Y-80462380D01*
X114966666Y-80462380D02*
X114395238Y-80462380D01*
X114680952Y-80462380D02*
X114680952Y-79462380D01*
X114585714Y-79605238D01*
X114490476Y-79700476D01*
X114395238Y-79748095D01*
X124126666Y-74382380D02*
X124126666Y-75096666D01*
X124079047Y-75239523D01*
X123983809Y-75334761D01*
X123840952Y-75382380D01*
X123745714Y-75382380D01*
X124555238Y-74477619D02*
X124602857Y-74430000D01*
X124698095Y-74382380D01*
X124936190Y-74382380D01*
X125031428Y-74430000D01*
X125079047Y-74477619D01*
X125126666Y-74572857D01*
X125126666Y-74668095D01*
X125079047Y-74810952D01*
X124507619Y-75382380D01*
X125126666Y-75382380D01*
M02*
